  0
SECTION
  2
HEADER
  9
$ACADVER
  1
AC1015
  9
$ACADMAINTVER
 70
     6
  9
$DWGCODEPAGE
  3
ANSI_1252
  9
$INSBASE
 10
0.0
 20
0.0
 30
0.0
  9
$EXTMIN
 10
101.0453467334
 20
-117.6670742959
 30
0.0
  9
$EXTMAX
 10
571.6585542806
 20
-4.8412847543
 30
0.0
  9
$LIMMIN
 10
0.0
 20
0.0
  9
$LIMMAX
 10
420.0
 20
297.0
  9
$ORTHOMODE
 70
     0
  9
$REGENMODE
 70
     1
  9
$FILLMODE
 70
     1
  9
$QTEXTMODE
 70
     0
  9
$MIRRTEXT
 70
     1
  9
$LTSCALE
 40
1.0
  9
$ATTMODE
 70
     1
  9
$TEXTSIZE
 40
3.5
  9
$TRACEWID
 40
1.0
  9
$TEXTSTYLE
  7
Standard
  9
$CLAYER
  8
0
  9
$CELTYPE
  6
ByLayer
  9
$CECOLOR
 62
   256
  9
$CELTSCALE
 40
1.0
  9
$DISPSILH
 70
     0
  9
$DIMSCALE
 40
1.0
  9
$DIMASZ
 40
3.556
  9
$DIMEXO
 40
0.0
  9
$DIMDLI
 40
3.75
  9
$DIMRND
 40
0.0
  9
$DIMDLE
 40
0.0
  9
$DIMEXE
 40
1.0
  9
$DIMTP
 40
0.0
  9
$DIMTM
 40
0.0
  9
$DIMTXT
 40
3.5
  9
$DIMCEN
 40
2.5
  9
$DIMTSZ
 40
0.0
  9
$DIMTOL
 70
     0
  9
$DIMLIM
 70
     0
  9
$DIMTIH
 70
     1
  9
$DIMTOH
 70
     1
  9
$DIMSE1
 70
     0
  9
$DIMSE2
 70
     0
  9
$DIMTAD
 70
     1
  9
$DIMZIN
 70
     1
  9
$DIMBLK
  1

  9
$DIMASO
 70
     1
  9
$DIMSHO
 70
     1
  9
$DIMPOST
  1

  9
$DIMAPOST
  1

  9
$DIMALT
 70
     0
  9
$DIMALTD
 70
     3
  9
$DIMALTF
 40
0.0393700787
  9
$DIMLFAC
 40
1.0
  9
$DIMTOFL
 70
     1
  9
$DIMTVP
 40
0.0
  9
$DIMTIX
 70
     0
  9
$DIMSOXD
 70
     0
  9
$DIMSAH
 70
     0
  9
$DIMBLK1
  1

  9
$DIMBLK2
  1

  9
$DIMSTYLE
  2
ISO-25
  9
$DIMCLRD
 70
     0
  9
$DIMCLRE
 70
     0
  9
$DIMCLRT
 70
     0
  9
$DIMTFAC
 40
1.0
  9
$DIMGAP
 40
1.524
  9
$DIMJUST
 70
     0
  9
$DIMSD1
 70
     0
  9
$DIMSD2
 70
     0
  9
$DIMTOLJ
 70
     0
  9
$DIMTZIN
 70
     1
  9
$DIMALTZ
 70
     0
  9
$DIMALTTZ
 70
     0
  9
$DIMUPT
 70
     0
  9
$DIMDEC
 70
     2
  9
$DIMTDEC
 70
     2
  9
$DIMALTU
 70
     2
  9
$DIMALTTD
 70
     3
  9
$DIMTXSTY
  7
Standard
  9
$DIMAUNIT
 70
     0
  9
$DIMADEC
 70
     2
  9
$DIMALTRND
 40
0.0
  9
$DIMAZIN
 70
     0
  9
$DIMDSEP
 70
    44
  9
$DIMATFIT
 70
     3
  9
$DIMFRAC
 70
     0
  9
$DIMLDRBLK
  1

  9
$DIMLUNIT
 70
     2
  9
$DIMLWD
 70
    -2
  9
$DIMLWE
 70
    -2
  9
$DIMTMOVE
 70
     0
  9
$LUNITS
 70
     2
  9
$LUPREC
 70
     2
  9
$SKETCHINC
 40
1.0
  9
$FILLETRAD
 40
0.0
  9
$AUNITS
 70
     0
  9
$AUPREC
 70
     2
  9
$MENU
  1
.
  9
$ELEVATION
 40
0.0
  9
$PELEVATION
 40
0.0
  9
$THICKNESS
 40
0.0
  9
$LIMCHECK
 70
     0
  9
$CHAMFERA
 40
0.0
  9
$CHAMFERB
 40
0.0
  9
$CHAMFERC
 40
0.0
  9
$CHAMFERD
 40
0.0
  9
$SKPOLY
 70
     0
  9
$TDCREATE
 40
2460404.684634931
  9
$TDUCREATE
 40
2460404.851301598
  9
$TDUPDATE
 40
2460404.684655915
  9
$TDUUPDATE
 40
2460404.851322581
  9
$TDINDWG
 40
0.0000000116
  9
$TDUSRTIMER
 40
0.0000000116
  9
$USRTIMER
 70
     1
  9
$ANGBASE
 50
0.0
  9
$ANGDIR
 70
     0
  9
$PDMODE
 70
     0
  9
$PDSIZE
 40
-1.0
  9
$PLINEWID
 40
0.0
  9
$SPLFRAME
 70
     0
  9
$SPLINETYPE
 70
     6
  9
$SPLINESEGS
 70
     8
  9
$HANDSEED
  5
A2
  9
$SURFTAB1
 70
     6
  9
$SURFTAB2
 70
     6
  9
$SURFTYPE
 70
     6
  9
$SURFU
 70
     6
  9
$SURFV
 70
     6
  9
$UCSBASE
  2

  9
$UCSNAME
  2

  9
$UCSORG
 10
0.0
 20
0.0
 30
0.0
  9
$UCSXDIR
 10
1.0
 20
0.0
 30
0.0
  9
$UCSYDIR
 10
0.0
 20
1.0
 30
0.0
  9
$UCSORTHOREF
  2

  9
$UCSORTHOVIEW
 70
     0
  9
$UCSORGTOP
 10
0.0
 20
0.0
 30
0.0
  9
$UCSORGBOTTOM
 10
0.0
 20
0.0
 30
0.0
  9
$UCSORGLEFT
 10
0.0
 20
0.0
 30
0.0
  9
$UCSORGRIGHT
 10
0.0
 20
0.0
 30
0.0
  9
$UCSORGFRONT
 10
0.0
 20
0.0
 30
0.0
  9
$UCSORGBACK
 10
0.0
 20
0.0
 30
0.0
  9
$PUCSBASE
  2

  9
$PUCSNAME
  2

  9
$PUCSORG
 10
0.0
 20
0.0
 30
0.0
  9
$PUCSXDIR
 10
1.0
 20
0.0
 30
0.0
  9
$PUCSYDIR
 10
0.0
 20
1.0
 30
0.0
  9
$PUCSORTHOREF
  2

  9
$PUCSORTHOVIEW
 70
     0
  9
$PUCSORGTOP
 10
0.0
 20
0.0
 30
0.0
  9
$PUCSORGBOTTOM
 10
0.0
 20
0.0
 30
0.0
  9
$PUCSORGLEFT
 10
0.0
 20
0.0
 30
0.0
  9
$PUCSORGRIGHT
 10
0.0
 20
0.0
 30
0.0
  9
$PUCSORGFRONT
 10
0.0
 20
0.0
 30
0.0
  9
$PUCSORGBACK
 10
0.0
 20
0.0
 30
0.0
  9
$USERI1
 70
     0
  9
$USERI2
 70
     0
  9
$USERI3
 70
     0
  9
$USERI4
 70
     0
  9
$USERI5
 70
     0
  9
$USERR1
 40
0.0
  9
$USERR2
 40
0.0
  9
$USERR3
 40
0.0
  9
$USERR4
 40
0.0
  9
$USERR5
 40
0.0
  9
$WORLDVIEW
 70
     1
  9
$SHADEDGE
 70
     3
  9
$SHADEDIF
 70
    70
  9
$TILEMODE
 70
     1
  9
$MAXACTVP
 70
    64
  9
$PINSBASE
 10
0.0
 20
0.0
 30
0.0
  9
$PLIMCHECK
 70
     0
  9
$PEXTMIN
 10
1.0000000000E+20
 20
1.0000000000E+20
 30
1.0000000000E+20
  9
$PEXTMAX
 10
-1.0000000000E+20
 20
-1.0000000000E+20
 30
-1.0000000000E+20
  9
$PLIMMIN
 10
0.0
 20
0.0
  9
$PLIMMAX
 10
420.0
 20
297.0
  9
$UNITMODE
 70
     0
  9
$VISRETAIN
 70
     1
  9
$PLINEGEN
 70
     0
  9
$PSLTSCALE
 70
     1
  9
$TREEDEPTH
 70
  3020
  9
$CMLSTYLE
  2
Standard
  9
$CMLJUST
 70
     0
  9
$CMLSCALE
 40
20.0
  9
$PROXYGRAPHICS
 70
     1
  9
$MEASUREMENT
 70
     1
  9
$CELWEIGHT
370
    -1
  9
$ENDCAPS
280
     0
  9
$JOINSTYLE
280
     0
  9
$LWDISPLAY
290
     1
  9
$INSUNITS
 70
     4
  9
$HYPERLINKBASE
  1

  9
$STYLESHEET
  1

  9
$XEDIT
290
     1
  9
$CEPSNTYPE
380
     0
  9
$PSTYLEMODE
290
     1
  9
$FINGERPRINTGUID
  2
{4292c0c6-4b9b-457b-b66c-a535cee0069e}
  9
$VERSIONGUID
  2
{FAEB1C32-E019-11D5-929B-00C0DF256EC4}
  9
$EXTNAMES
290
     1
  9
$PSVPSCALE
 40
0.0
  9
$OLESTARTUP
290
     0
  0
ENDSEC
  0
SECTION
  2
CLASSES
  0
CLASS
  1
ACDBDICTIONARYWDFLT
  2
AcDbDictionaryWithDefault
  3
ObjectDBX Classes
 90
        0
280
     0
281
     0
  0
CLASS
  1
VISUALSTYLE
  2
AcDbVisualStyle
  3
ObjectDBX Classes
 90
     4095
280
     0
281
     0
  0
CLASS
  1
MATERIAL
  2
AcDbMaterial
  3
ObjectDBX Classes
 90
     1153
280
     0
281
     0
  0
CLASS
  1
SCALE
  2
AcDbScale
  3
ObjectDBX Classes
 90
     1153
280
     0
281
     0
  0
CLASS
  1
TABLESTYLE
  2
AcDbTableStyle
  3
ObjectDBX Classes
 90
     4095
280
     0
281
     0
  0
CLASS
  1
MLEADERSTYLE
  2
AcDbMLeaderStyle
  3
ACDB_MLEADERSTYLE_CLASS
 90
     4095
280
     0
281
     0
  0
CLASS
  1
SUN
  2
AcDbSun
  3
SCENEOE
 90
     1153
280
     0
281
     0
  0
CLASS
  1
ACDBPLACEHOLDER
  2
AcDbPlaceHolder
  3
ObjectDBX Classes
 90
        0
280
     0
281
     0
  0
CLASS
  1
LAYOUT
  2
AcDbLayout
  3
ObjectDBX Classes
 90
        0
280
     0
281
     0
  0
ENDSEC
  0
SECTION
  2
TABLES
  0
TABLE
  2
VPORT
  5
8
330
0
100
AcDbSymbolTable
 70
     1
  0
VPORT
  5
29
330
8
100
AcDbSymbolTableRecord
100
AcDbViewportTableRecord
  2
*Active
 70
     0
 10
0.0
 20
0.0
 11
1.0
 21
1.0
 12
336.351950507
 22
-61.2541795251
 13
0.0
 23
0.0
 14
10.0
 24
10.0
 15
10.0
 25
10.0
 16
0.0
 26
0.0
 36
1.0
 17
0.0
 27
0.0
 37
0.0
 40
115.0823053324
 41
4.1711492511
 42
50.0
 43
0.0
 44
0.0
 50
0.0
 51
0.0
 71
     0
 72
   100
 73
     1
 74
     3
 75
     0
 76
     0
 77
     0
 78
     0
281
     0
 65
     1
110
0.0
120
0.0
130
0.0
111
1.0
121
0.0
131
0.0
112
0.0
122
1.0
132
0.0
 79
     0
146
0.0
  0
ENDTAB
  0
TABLE
  2
LTYPE
  5
5
330
0
100
AcDbSymbolTable
 70
     6
  0
LTYPE
  5
14
330
5
100
AcDbSymbolTableRecord
100
AcDbLinetypeTableRecord
  2
ByBlock
 70
     0
  3

 72
    65
 73
     0
 40
0.0
  0
LTYPE
  5
15
330
5
100
AcDbSymbolTableRecord
100
AcDbLinetypeTableRecord
  2
ByLayer
 70
     0
  3

 72
    65
 73
     0
 40
0.0
  0
LTYPE
  5
16
330
5
100
AcDbSymbolTableRecord
100
AcDbLinetypeTableRecord
  2
Continuous
 70
     0
  3
Solid line
 72
    65
 73
     0
 40
0.0
  0
LTYPE
  5
5E
330
5
100
AcDbSymbolTableRecord
100
AcDbLinetypeTableRecord
  2
HIDDEN
 70
     0
  3
Hidden __ __ __ __ __ __ __ __ __ __ __ __ __ __
 72
    65
 73
     2
 40
1.905
 49
1.27
 74
     0
 49
-0.635
 74
     0
  0
LTYPE
  5
5F
330
5
100
AcDbSymbolTableRecord
100
AcDbLinetypeTableRecord
  2
PHANTOM
 70
     0
  3
Phantom ______  __  __  ______  __  __  ______
 72
    65
 73
     6
 40
12.7
 49
6.35
 74
     0
 49
-1.27
 74
     0
 49
1.27
 74
     0
 49
-1.27
 74
     0
 49
1.27
 74
     0
 49
-1.27
 74
     0
  0
LTYPE
  5
60
330
5
100
AcDbSymbolTableRecord
100
AcDbLinetypeTableRecord
  2
CENTER
 70
     0
  3
Center ____ _ ____ _ ____ _ ____ _ ____ _ ____
 72
    65
 73
     4
 40
10.16
 49
6.35
 74
     0
 49
-1.27
 74
     0
 49
1.27
 74
     0
 49
-1.27
 74
     0
  0
LTYPE
  5
61
330
5
100
AcDbSymbolTableRecord
100
AcDbLinetypeTableRecord
  2
CENTERX2
 70
     0
  3
Center (2x) ________  __  ________  __  _____
 72
    65
 73
     4
 40
20.32
 49
12.7
 74
     0
 49
-2.54
 74
     0
 49
2.54
 74
     0
 49
-2.54
 74
     0
  0
LTYPE
  5
62
330
5
100
AcDbSymbolTableRecord
100
AcDbLinetypeTableRecord
  2
DOT2
 70
     0
  3
Dot (.5x) ........................................
 72
    65
 73
     2
 40
0.635
 49
0.0
 74
     0
 49
-0.635
 74
     0
  0
ENDTAB
  0
TABLE
  2
LAYER
  5
2
330
0
100
AcDbSymbolTable
 70
     1
  0
LAYER
  5
10
330
2
100
AcDbSymbolTableRecord
100
AcDbLayerTableRecord
  2
0
 70
     0
 62
     7
  6
Continuous
370
    -3
390
F
  0
ENDTAB
  0
TABLE
  2
STYLE
  5
3
330
0
100
AcDbSymbolTable
 70
     2
  0
STYLE
  5
11
330
3
100
AcDbSymbolTableRecord
100
AcDbTextStyleTableRecord
  2
Standard
 70
     0
 40
0.0
 41
1.0
 50
0.0
 71
     0
 42
3.5
  3
txt
  4

  0
STYLE
  5
9E
330
3
100
AcDbSymbolTableRecord
100
AcDbTextStyleTableRecord
  2
SLDTEXTSTYLE0
 70
     0
 40
0.0
 41
0.7
 50
0.0
 71
     0
 42
3.5
  3
TXT
  4

  0
ENDTAB
  0
TABLE
  2
VIEW
  5
6
330
0
100
AcDbSymbolTable
 70
     0
  0
ENDTAB
  0
TABLE
  2
UCS
  5
7
330
0
100
AcDbSymbolTable
 70
     0
  0
ENDTAB
  0
TABLE
  2
APPID
  5
9
330
0
100
AcDbSymbolTable
 70
     1
  0
APPID
  5
12
330
9
100
AcDbSymbolTableRecord
100
AcDbRegAppTableRecord
  2
ACAD
 70
     0
  0
ENDTAB
  0
TABLE
  2
DIMSTYLE
  5
A
330
0
100
AcDbSymbolTable
 70
     1
100
AcDbDimStyleTable
  0
DIMSTYLE
105
27
330
A
100
AcDbSymbolTableRecord
100
AcDbDimStyleTableRecord
  2
ISO-25
 70
     0
 41
2.5
 42
0.625
 43
3.75
 44
1.25
 73
     0
 74
     0
 77
     1
 78
     8
140
2.5
141
2.5
143
0.0393700787
147
0.625
171
     3
172
     1
178
     0
271
     2
272
     2
274
     3
278
    44
283
     0
284
     8
340
11
  0
ENDTAB
  0
TABLE
  2
BLOCK_RECORD
  5
1
330
0
100
AcDbSymbolTable
 70
     1
  0
BLOCK_RECORD
  5
1F
330
1
100
AcDbSymbolTableRecord
100
AcDbBlockTableRecord
  2
*Model_Space
340
22
  0
BLOCK_RECORD
  5
1B
330
1
100
AcDbSymbolTableRecord
100
AcDbBlockTableRecord
  2
*Paper_Space
340
1E
  0
BLOCK_RECORD
  5
23
330
1
100
AcDbSymbolTableRecord
100
AcDbBlockTableRecord
  2
*Paper_Space0
340
26
  0
ENDTAB
  0
ENDSEC
  0
SECTION
  2
BLOCKS
  0
BLOCK
  5
20
330
1F
100
AcDbEntity
  8
0
100
AcDbBlockBegin
  2
*Model_Space
 70
     0
 10
0.0
 20
0.0
 30
0.0
  3
*Model_Space
  1

  0
ENDBLK
  5
21
330
1F
100
AcDbEntity
  8
0
100
AcDbBlockEnd
  0
BLOCK
  5
1C
330
1B
100
AcDbEntity
 67
     1
  8
0
100
AcDbBlockBegin
  2
*Paper_Space
 70
     0
 10
0.0
 20
0.0
 30
0.0
  3
*Paper_Space
  1

  0
ENDBLK
  5
1D
330
1B
100
AcDbEntity
 67
     1
  8
0
100
AcDbBlockEnd
  0
BLOCK
  5
24
330
23
100
AcDbEntity
  8
0
100
AcDbBlockBegin
  2
*Paper_Space0
 70
     0
 10
0.0
 20
0.0
 30
0.0
  3
*Paper_Space0
  1

  0
ENDBLK
  5
25
330
23
100
AcDbEntity
  8
0
100
AcDbBlockEnd
  0
ENDSEC
  0
SECTION
  2
ENTITIES
  0
SPLINE
  5
63
330
1F
100
AcDbEntity
  8
0
  6
Continuous
 62
     7
370
    25
100
AcDbSpline
210
0.0
220
0.0
230
1.0
 70
     8
 71
     3
 72
    23
 73
    19
 74
     0
 42
0.00000001
 43
0.00000001
 40
0.0
 40
0.0
 40
0.0
 40
0.0
 40
0.0699986936576536
 40
0.1355281035393507
 40
0.1973014955452835
 40
0.2565023326986293
 40
0.3129726422537862
 40
0.3675400553346145
 40
0.4206820128922265
 40
0.4741463021868519
 40
0.5280667545178348
 40
0.5846146924563637
 40
0.6435680161413665
 40
0.7060903940164712
 40
0.772147640640484
 40
0.8434170239233887
 40
0.9192361657537079
 40
1.0
 40
1.0
 40
1.0
 40
1.0
 10
270.1198234433393
 20
-96.91673342028733
 30
0.0
 10
269.0042903721091
 20
-96.9125049734495
 30
0.0
 10
266.844448899657
 20
-96.90431805808144
 30
0.0
 10
263.7179180440795
 20
-96.55161423642629
 30
0.0
 10
260.7894372052062
 20
-96.0330668323694
 30
0.0
 10
258.0779352788505
 20
-95.21932354639311
 30
0.0
 10
255.5543821942317
 20
-94.2154146926672
 30
0.0
 10
253.2572132577449
 20
-92.95413843106293
 30
0.0
 10
251.1482037596519
 20
-91.48120771857006
 30
0.0
 10
249.2563250356456
 20
-89.75062516511434
 30
0.0
 10
247.5605643816418
 20
-87.75803194139908
 30
0.0
 10
246.051297975508
 20
-85.51490442197642
 30
0.0
 10
244.7443197795953
 20
-82.99132030528837
 30
0.0
 10
243.6848346909391
 20
-80.1948575243009
 30
0.0
 10
242.7478540980555
 20
-77.15071310678191
 30
0.0
 10
242.0297553282455
 20
-73.82927295743045
 30
0.0
 10
241.5128340938277
 20
-70.23456997967114
 30
0.0
 10
241.3288981717141
 20
-67.74720204290293
 30
0.0
 10
241.2340259787225
 20
-66.46424410719219
 30
0.0
  0
LINE
  5
64
330
1F
100
AcDbEntity
  8
0
  6
Continuous
 62
     7
370
    25
100
AcDbLine
 10
241.2340259787
 20
-66.4642441072
 30
0.0
 11
286.2922972788
 21
-66.4406822337
 31
0.0
  0
SPLINE
  5
65
330
1F
100
AcDbEntity
  8
0
  6
Continuous
 62
     7
370
    25
100
AcDbSpline
210
0.0
220
0.0
230
1.0
 70
     8
 71
     3
 72
    15
 73
    11
 74
     0
 42
0.00000001
 43
0.00000001
 40
0.0
 40
0.0
 40
0.0
 40
0.0
 40
0.1483214700941565
 40
0.2801093903607667
 40
0.3985849556774615
 40
0.5093262380846064
 40
0.6188688938136316
 40
0.7330852381551035
 40
0.8586288355704539
 40
1.0
 40
1.0
 40
1.0
 40
1.0
 10
286.2922972788405
 20
-66.44068223367486
 30
0.0
 10
287.4946313250047
 20
-66.46649320900808
 30
0.0
 10
289.7652739802268
 20
-66.5152379831842
 30
0.0
 10
292.9475248970463
 20
-67.1490639406774
 30
0.0
 10
295.6875723070007
 20
-68.22197771465243
 30
0.0
 10
297.95616205275
 20
-69.8155682416404
 30
0.0
 10
299.7202443411952
 20
-71.90845138027818
 30
0.0
 10
300.9831510829072
 20
-74.46347988679584
 30
0.0
 10
301.7620165932715
 20
-77.47360143662084
 30
0.0
 10
301.8794007402641
 20
-79.63532623873098
 30
0.0
 10
301.9415731485311
 20
-80.78028184305282
 30
0.0
  0
SPLINE
  5
66
330
1F
100
AcDbEntity
  8
0
  6
Continuous
 62
     7
370
    25
100
AcDbSpline
210
0.0
220
0.0
230
1.0
 70
     8
 71
     3
 72
    19
 73
    15
 74
     0
 42
0.00000001
 43
0.00000001
 40
0.0
 40
0.0
 40
0.0
 40
0.0
 40
0.1331738000349316
 40
0.2550602801857026
 40
0.3703328344958797
 40
0.4833147402230434
 40
0.5408499368025843
 40
0.598335414667072
 40
0.6574187942838314
 40
0.718541065499446
 40
0.7828673708247782
 40
0.8511129310835726
 40
0.9230872824213069
 40
1.0
 40
1.0
 40
1.0
 40
1.0
 10
301.9415731485311
 20
-80.78028184305282
 30
0.0
 10
301.9055434713984
 20
-81.94085329719432
 30
0.0
 10
301.8365378596188
 20
-84.16363045149356
 30
0.0
 10
301.0559015812357
 20
-87.31250632283374
 30
0.0
 10
299.809449656441
 20
-90.1116256097128
 30
0.0
 10
298.2997408462656
 20
-92.11548072867313
 30
0.0
 10
296.86778334417
 20
-93.49173057122711
 30
0.0
 10
295.6519059298982
 20
-94.40308381827887
 30
0.0
 10
294.2940051405919
 20
-95.14810557075695
 30
0.0
 10
292.8233189802095
 20
-95.79693253052363
 30
0.0
 10
291.2077098252148
 20
-96.28955234872481
 30
0.0
 10
289.4598086957187
 20
-96.6288685743214
 30
0.0
 10
287.5852046315766
 20
-96.878394392039
 30
0.0
 10
286.2899345691816
 20
-96.91634007667135
 30
0.0
 10
285.6208184315469
 20
-96.93594222040821
 30
0.0
  0
LINE
  5
67
330
1F
100
AcDbEntity
  8
0
  6
Continuous
 62
     7
370
    25
100
AcDbLine
 10
285.6208184315
 20
-96.9359422204
 30
0.0
 11
270.1198234433
 21
-96.9167334203
 31
0.0
  0
LINE
  5
68
330
1F
100
AcDbEntity
  8
0
  6
Continuous
 62
     7
370
    25
100
AcDbLine
 10
314.6773761409
 20
-6.3507187166
 30
0.0
 11
271.9351011188
 21
-6.3507187166
 31
0.0
  0
SPLINE
  5
69
330
1F
100
AcDbEntity
  8
0
  6
Continuous
 62
     7
370
    25
100
AcDbSpline
210
0.0
220
0.0
230
1.0
 70
     8
 71
     3
 72
    23
 73
    19
 74
     0
 42
0.00000001
 43
0.00000001
 40
0.0
 40
0.0
 40
0.0
 40
0.0
 40
0.0697290328864104
 40
0.1354642571563819
 40
0.1978672664135778
 40
0.2574654701023869
 40
0.3146081153200272
 40
0.3703787704090719
 40
0.425237757249348
 40
0.4802808469569197
 40
0.5359295139885862
 40
0.5926666321947526
 40
0.6515753791717306
 40
0.7134720361070107
 40
0.7787208523595306
 40
0.8478460961843362
 40
0.9215933762776544
 40
1.0
 40
1.0
 40
1.0
 40
1.0
 10
271.9351011187693
 20
-6.350718716573039
 30
0.0
 10
269.9622184134836
 20
-6.396989231479963
 30
0.0
 10
266.1294520740515
 20
-6.486880065622466
 30
0.0
 10
260.5603487647924
 20
-7.128875874661036
 30
0.0
 10
255.3473517323251
 20
-8.179327389173045
 30
0.0
 10
250.4917151507662
 20
-9.660223906959676
 30
0.0
 10
245.9891525802945
 20
-11.57168217406922
 30
0.0
 10
241.870387378847
 20
-13.95058900806131
 30
0.0
 10
238.0765682594654
 20
-16.72094970559364
 30
0.0
 10
234.6701607722124
 20
-19.95213370708466
 30
0.0
 10
231.6261138652892
 20
-23.59718558462484
 30
0.0
 10
229.0302767223052
 20
-27.70290523525061
 30
0.0
 10
226.7976040458734
 20
-32.2122672195921
 30
0.0
 10
224.9942438937221
 20
-37.16718382165361
 30
0.0
 10
223.5817819974455
 20
-42.54481574529579
 30
0.0
 10
222.5910013082613
 20
-48.35359011016749
 30
0.0
 10
221.9325772997481
 20
-54.58601203407326
 30
0.0
 10
221.8606919514507
 20
-58.89170060906436
 30
0.0
 10
221.823648620233
 20
-61.11047052228284
 30
0.0
  0
SPLINE
  5
6A
330
1F
100
AcDbEntity
  8
0
  6
Continuous
 62
     7
370
    25
100
AcDbSpline
210
0.0
220
0.0
230
1.0
 70
     8
 71
     3
 72
    23
 73
    19
 74
     0
 42
0.00000001
 43
0.00000001
 40
0.0
 40
0.0
 40
0.0
 40
0.0
 40
0.0824766243561512
 40
0.160045926251406
 40
0.2327619160845639
 40
0.3013233724477615
 40
0.3658493198958273
 40
0.4268841020367618
 40
0.4856183809056474
 40
0.5425102780270691
 40
0.5979223205392666
 40
0.6524053725602
 40
0.7067661488596076
 40
0.7615452395660007
 40
0.8177167071269599
 40
0.8757991318387466
 40
0.936385807698941
 40
1.0
 40
1.0
 40
1.0
 40
1.0
 10
221.823648620233
 20
-61.11047052228284
 30
0.0
 10
221.8731251340517
 20
-63.34465642716919
 30
0.0
 10
221.9691343311256
 20
-67.68009516943998
 30
0.0
 10
222.5875086067524
 20
-73.96097687592227
 30
0.0
 10
223.5641289717041
 20
-79.81296197830171
 30
0.0
 10
224.9257562154208
 20
-85.22590791296328
 30
0.0
 10
226.6428592400364
 20
-90.20265885897969
 30
0.0
 10
228.7129519961161
 20
-94.75657511992873
 30
0.0
 10
231.2060501971326
 20
-98.85326133030868
 30
0.0
 10
234.0367453698934
 20
-102.5348355620809
 30
0.0
 10
237.223774056641
 20
-105.7504276918398
 30
0.0
 10
240.6788426712807
 20
-108.5714799225891
 30
0.0
 10
244.4645461839308
 20
-110.8954867609236
 30
0.0
 10
248.496136187076
 20
-112.8643680364717
 30
0.0
 10
252.8434711612871
 20
-114.3377685327244
 30
0.0
 10
257.4661040323942
 20
-115.3942472483851
 30
0.0
 10
262.3712926362217
 20
-116.0434491577975
 30
0.0
 10
265.7367131328529
 20
-116.1189630337223
 30
0.0
 10
267.4604410730526
 20
-116.1576403336123
 30
0.0
  0
LINE
  5
6B
330
1F
100
AcDbEntity
  8
0
  6
Continuous
 62
     7
370
    25
100
AcDbLine
 10
267.4604410731
 20
-116.1576403336
 30
0.0
 11
286.4573225221
 21
-116.1532642281
 31
0.0
  0
SPLINE
  5
6C
330
1F
100
AcDbEntity
  8
0
  6
Continuous
 62
     7
370
    25
100
AcDbSpline
210
0.0
220
0.0
230
1.0
 70
     8
 71
     3
 72
    23
 73
    19
 74
     0
 42
0.00000001
 43
0.00000001
 40
0.0
 40
0.0
 40
0.0
 40
0.0
 40
0.0787319941411385
 40
0.1526796530946577
 40
0.2221665357757829
 40
0.2873985606131789
 40
0.3489538661880182
 40
0.4076260298916096
 40
0.4649188343583989
 40
0.5218515451112863
 40
0.5784513810873744
 40
0.6347585324864267
 40
0.6915753456282747
 40
0.749675495513982
 40
0.8087670872772779
 40
0.8701164451557869
 40
0.9337360041506868
 40
0.9999999999999999
 40
0.9999999999999999
 40
0.9999999999999999
 40
0.9999999999999999
 10
286.4573225220503
 20
-116.1532642280734
 30
0.0
 10
287.9331795887196
 20
-116.0982931511776
 30
0.0
 10
290.7952097889507
 20
-115.9916914444351
 30
0.0
 10
294.9343964035787
 20
-115.4723494482917
 30
0.0
 10
298.7679095528948
 20
-114.6616426372806
 30
0.0
 10
302.2767610037541
 20
-113.5285562453057
 30
0.0
 10
305.4620890053934
 20
-112.1155487309458
 30
0.0
 10
308.32912644619
 20
-110.4064745064425
 30
0.0
 10
310.8774286619656
 20
-108.386463328011
 30
0.0
 10
313.1000225293264
 20
-106.0648778169579
 30
0.0
 10
314.9868280397116
 20
-103.4936099245554
 30
0.0
 10
316.6950539012742
 20
-100.8031576048068
 30
0.0
 10
318.0826432202857
 20
-97.89980924580675
 30
0.0
 10
319.2093137434401
 20
-94.83374120024128
 30
0.0
 10
320.0904933606247
 20
-91.59901642503695
 30
0.0
 10
320.69319627025
 20
-88.19710461247027
 30
0.0
 10
321.0567717866664
 20
-84.62483730901302
 30
0.0
 10
321.0804409899346
 20
-82.1883985703716
 30
0.0
 10
321.0925165447575
 20
-80.94537618267913
 30
0.0
  0
SPLINE
  5
6D
330
1F
100
AcDbEntity
  8
0
  6
Continuous
 62
     7
370
    25
100
AcDbSpline
210
0.0
220
0.0
230
1.0
 70
     8
 71
     3
 72
    23
 73
    19
 74
     0
 42
0.00000001
 43
0.00000001
 40
0.0
 40
0.0
 40
0.0
 40
0.0
 40
0.0714372499340806
 40
0.1385745012406599
 40
0.20187210879947
 40
0.2613027268552002
 40
0.3178083328788242
 40
0.3723976719439165
 40
0.425725684431852
 40
0.4781939211298265
 40
0.5316407559760983
 40
0.5869929080649247
 40
0.6455193084178195
 40
0.7072570416136235
 40
0.7730549069946681
 40
0.8434261297909952
 40
0.9192910807678721
 40
1.0
 40
1.0
 40
1.0
 40
1.0
 10
321.0925165447575
 20
-80.94537618267913
 30
0.0
 10
321.0806639028009
 20
-79.73385950643313
 30
0.0
 10
321.0576720610231
 20
-77.38375057432212
 30
0.0
 10
320.701958219142
 20
-73.97373118951812
 30
0.0
 10
320.0883500644167
 20
-70.81159342282129
 30
0.0
 10
319.2639249406341
 20
-67.87871592577979
 30
0.0
 10
318.0970749388337
 20
-65.22771575428465
 30
0.0
 10
316.7780469899337
 20
-62.76494697287622
 30
0.0
 10
315.1301128069477
 20
-60.58884701783703
 30
0.0
 10
313.2396971794324
 20
-58.65339779042418
 30
0.0
 10
311.1009184676475
 20
-56.93854142788467
 30
0.0
 10
308.6672105888331
 20
-55.46449918851797
 30
0.0
 10
305.9397876540476
 20
-54.25664753015434
 30
0.0
 10
302.9516927611363
 20
-53.23357694407847
 30
0.0
 10
299.6806439912758
 20
-52.46300234396458
 30
0.0
 10
296.1223682175802
 20
-51.93589654683053
 30
0.0
 10
292.2862441210344
 20
-51.59662089765879
 30
0.0
 10
289.6310151303137
 20
-51.57152162016467
 30
0.0
 10
288.2623278655178
 20
-51.55858372984267
 30
0.0
  0
LINE
  5
6E
330
1F
100
AcDbEntity
  8
0
  6
Continuous
 62
     7
370
    25
100
AcDbLine
 10
288.2623278655
 20
-51.5585837298
 30
0.0
 11
241.5704563664
 21
-51.5350218563
 31
0.0
  0
SPLINE
  5
6F
330
1F
100
AcDbEntity
  8
0
  6
Continuous
 62
     7
370
    25
100
AcDbSpline
210
0.0
220
0.0
230
1.0
 70
     8
 71
     3
 72
    23
 73
    19
 74
     0
 42
0.00000001
 43
0.00000001
 40
0.0
 40
0.0
 40
0.0
 40
0.0
 40
0.0729324375402486
 40
0.1424500175046725
 40
0.208473915897453
 40
0.2702764048935901
 40
0.3295374531968981
 40
0.38684681670458
 40
0.4421156410009591
 40
0.4964156469078809
 40
0.5508859324397078
 40
0.606973966545609
 40
0.6646295842880301
 40
0.7246530800083938
 40
0.7880301116225004
 40
0.8545877810332333
 40
0.9253234352542838
 40
1.0
 40
1.0
 40
1.0
 40
1.0
 10
241.5704563664022
 20
-51.53502185630783
 30
0.0
 10
241.7273924373445
 20
-50.45556745334036
 30
0.0
 10
242.03391648627
 20
-48.34720108325502
 30
0.0
 10
242.7159834852107
 20
-45.30187514210904
 30
0.0
 10
243.5809887799572
 20
-42.47765483922259
 30
0.0
 10
244.6215458800946
 20
-39.87693289417725
 30
0.0
 10
245.8496244077587
 20
-37.50401730879706
 30
0.0
 10
247.2653001932491
 20
-35.35449216513059
 30
0.0
 10
248.8507228113399
 20
-33.42024456845193
 30
0.0
 10
250.6397867323766
 20
-31.73285268867259
 30
0.0
 10
252.6205913222195
 20
-30.2574549227913
 30
0.0
 10
254.794540228397
 20
-28.98175596537799
 30
0.0
 10
257.1726079703706
 20
-27.92376623958056
 30
0.0
 10
259.7378204673219
 20
-27.04890434179858
 30
0.0
 10
262.4987729258714
 20
-26.36478501493511
 30
0.0
 10
265.4666862305062
 20
-25.90716335232897
 30
0.0
 10
268.6257664118114
 20
-25.61221801548128
 30
0.0
 10
270.8009307873486
 20
-25.59859745025019
 30
0.0
 10
271.9179882428812
 20
-25.59160259776407
 30
0.0
  0
LINE
  5
70
330
1F
100
AcDbEntity
  8
0
  6
Continuous
 62
     7
370
    25
100
AcDbLine
 10
271.9179882429
 20
-25.5916025978
 30
0.0
 11
314.6773761409
 21
-25.5872495244
 31
0.0
  0
LINE
  5
71
330
1F
100
AcDbEntity
  8
0
  6
Continuous
 62
     7
370
    25
100
AcDbLine
 10
314.6773761409
 20
-25.5872495244
 30
0.0
 11
314.6773761409
 21
-6.3507187166
 31
0.0
  0
SPLINE
  5
72
330
1F
100
AcDbEntity
  8
0
  6
Continuous
 62
     7
370
    25
100
AcDbSpline
210
0.0
220
0.0
230
1.0
 70
     8
 71
     3
 72
    15
 73
    11
 74
     0
 42
0.00000001
 43
0.00000001
 40
0.0
 40
0.0
 40
0.0
 40
0.0
 40
0.1483085480005087
 40
0.2803348318037776
 40
0.3981242156571335
 40
0.5090657947506159
 40
0.6181795456683858
 40
0.7326024720071044
 40
0.8583731389127707
 40
1.0
 40
1.0
 40
1.0
 40
1.0
 10
134.5899000942905
 20
-56.06330071094546
 30
0.0
 10
133.3895650749461
 20
-56.04699434010065
 30
0.0
 10
131.1206755180546
 20
-56.01617181645153
 30
0.0
 10
127.9455554327951
 20
-55.38290795867766
 30
0.0
 10
125.2203014358562
 20
-54.29800612037359
 30
0.0
 10
122.9538795368383
 20
-52.72000360672429
 30
0.0
 10
121.2175230237624
 20
-50.61017355643973
 30
0.0
 10
119.9503773189379
 20
-48.06537221464468
 30
0.0
 10
119.1734651318551
 20
-45.05355360373998
 30
0.0
 10
119.0557876917125
 20
-42.89208361679263
 30
0.0
 10
118.9934599409914
 20
-41.74726297509343
 30
0.0
  0
LINE
  5
73
330
1F
100
AcDbEntity
  8
0
  6
Continuous
 62
     7
370
    25
100
AcDbLine
 10
118.993459941
 20
-41.7472629751
 30
0.0
 11
118.993459941
 21
-41.7321538949
 31
0.0
  0
SPLINE
  5
74
330
1F
100
AcDbEntity
  8
0
  6
Continuous
 62
     7
370
    25
100
AcDbSpline
210
0.0
220
0.0
230
1.0
 70
     8
 71
     3
 72
    19
 73
    15
 74
     0
 42
0.00000001
 43
0.00000001
 40
0.0
 40
0.0
 40
0.0
 40
0.0
 40
0.1324252277045984
 40
0.2543719878383378
 40
0.3698740398848898
 40
0.4832542561188674
 40
0.5407153051623227
 40
0.5988530532797021
 40
0.6578602901650087
 40
0.7189037910612383
 40
0.7831471969210461
 40
0.8513048068391332
 40
0.923186402418127
 40
1.0
 40
1.0
 40
1.0
 40
1.0
 10
118.9934599409914
 20
-41.73215389490476
 30
0.0
 10
119.0275667015209
 20
-40.57613946150558
 30
0.0
 10
119.0930814423674
 20
-38.35558304268245
 30
0.0
 10
119.9047458905109
 20
-35.21350526167516
 30
0.0
 10
121.1716200308326
 20
-32.41192059218601
 30
0.0
 10
122.706301215404
 20
-30.41923859540417
 30
0.0
 10
124.1393796408343
 20
-29.02729028173574
 30
0.0
 10
125.3752693787885
 20
-28.1320263117709
 30
0.0
 10
126.7344283397209
 20
-27.3781770792949
 30
0.0
 10
128.2063233583457
 20
-26.73097461970085
 30
0.0
 10
129.8215842476919
 20
-26.23788679161521
 30
0.0
 10
131.5695867715392
 20
-25.89870682280662
 30
0.0
 10
133.4441617995951
 20
-25.6491419855203
 30
0.0
 10
134.7394360035287
 20
-25.61120186641249
 30
0.0
 10
135.4085542806171
 20
-25.59160259773806
 30
0.0
  0
LINE
  5
75
330
1F
100
AcDbEntity
  8
0
  6
Continuous
 62
     7
370
    25
100
AcDbLine
 10
135.4085542806
 20
-25.5916025977
 30
0.0
 11
150.8430324646
 21
-25.5872495243
 31
0.0
  0
SPLINE
  5
76
330
1F
100
AcDbEntity
  8
0
  6
Continuous
 62
     7
370
    25
100
AcDbSpline
210
0.0
220
0.0
230
1.0
 70
     8
 71
     3
 72
    23
 73
    19
 74
     0
 42
0.00000001
 43
0.00000001
 40
0.0
 40
0.0
 40
0.0
 40
0.0
 40
0.0700271286373499
 40
0.1366376431864531
 40
0.1990812697084097
 40
0.2588446809723678
 40
0.3155869120520654
 40
0.3704744829412746
 40
0.4239819778318651
 40
0.4774986083712998
 40
0.5315582920575238
 40
0.5879158256095283
 40
0.6465082433277469
 40
0.7086634903974227
 40
0.7745378526290569
 40
0.8453254998028903
 40
0.9201421549612117
 40
0.9999999999999999
 40
0.9999999999999999
 40
0.9999999999999999
 40
0.9999999999999999
 10
150.8430324645794
 20
-25.58724952433299
 30
0.0
 10
151.9568575134943
 20
-25.60306781726454
 30
0.0
 10
154.1301642385769
 20
-25.63393263076549
 30
0.0
 10
157.2835377382497
 20
-25.9631254052776
 30
0.0
 10
160.235766753119
 20
-26.5286106675103
 30
0.0
 10
162.9740940044156
 20
-27.3199044293373
 30
0.0
 10
165.4993444348915
 20
-28.36174955172134
 30
0.0
 10
167.796290350956
 20
-29.64478657892453
 30
0.0
 10
169.9035666539424
 20
-31.13501140176957
 30
0.0
 10
171.775187443413
 20
-32.89639911338144
 30
0.0
 10
173.436276152726
 20
-34.91091331394657
 30
0.0
 10
174.9397293637492
 20
-37.1472138016002
 30
0.0
 10
176.1706962522775
 20
-39.6865390782236
 30
0.0
 10
177.2720007198469
 20
-42.44601156468897
 30
0.0
 10
178.1221151339361
 20
-45.4953221957375
 30
0.0
 10
178.843494563523
 20
-48.78239688733116
 30
0.0
 10
179.294468811441
 20
-52.34330833882252
 30
0.0
 10
179.4692558211041
 20
-54.79664994642793
 30
0.0
 10
179.5594976768377
 20
-56.06330071095403
 30
0.0
  0
LINE
  5
77
330
1F
100
AcDbEntity
  8
0
  6
Continuous
 62
     7
370
    25
100
AcDbLine
 10
179.5594976768
 20
-56.063300711
 30
0.0
 11
134.5899000943
 21
-56.0633007109
 31
0.0
  0
LINE
  5
78
330
1F
100
AcDbEntity
  8
0
  6
Continuous
 62
     7
370
    25
100
AcDbLine
 10
155.4321391863
 20
-6.3699044845
 30
0.0
 11
136.8883228537
 21
-6.3507187165
 31
0.0
  0
SPLINE
  5
79
330
1F
100
AcDbEntity
  8
0
  6
Continuous
 62
     7
370
    25
100
AcDbSpline
210
0.0
220
0.0
230
1.0
 70
     8
 71
     3
 72
    23
 73
    19
 74
     0
 42
0.00000001
 43
0.00000001
 40
0.0
 40
0.0
 40
0.0
 40
0.0
 40
0.0828958245590283
 40
0.1597456261693288
 40
0.2313633769067652
 40
0.2978210629082628
 40
0.3604805077613859
 40
0.4196691753339232
 40
0.4767082812869259
 40
0.5324260115713415
 40
0.5878179708396418
 40
0.6427076818029936
 40
0.6983119878055318
 40
0.7551722433248383
 40
0.8128964269429797
 40
0.8729365502779378
 40
0.9351592071013359
 40
1.0
 40
1.0
 40
1.0
 40
1.0
 10
136.8883228537339
 20
-6.350718716547308
 30
0.0
 10
135.301028162073
 20
-6.415450471333766
 30
0.0
 10
132.2422084231598
 20
-6.54019275788933
 30
0.0
 10
127.8325586826573
 20
-7.048083362451591
 30
0.0
 10
123.7935956131991
 20
-7.87136718231327
 30
0.0
 10
120.0959595525592
 20
-8.958901323574834
 30
0.0
 10
116.7857436869069
 20
-10.41456734181991
 30
0.0
 10
113.7974474860338
 20
-12.1075717626442
 30
0.0
 10
111.1717863813171
 20
-14.11971454301209
 30
0.0
 10
108.9469556844677
 20
-16.46573089718963
 30
0.0
 10
107.0524624726676
 20
-19.02616562846715
 30
0.0
 10
105.3760086847886
 20
-21.73195014967269
 30
0.0
 10
103.9848952252966
 20
-24.62720521858762
 30
0.0
 10
102.8506192363179
 20
-27.69001140863317
 30
0.0
 10
102.0096982954196
 20
-30.93287919077474
 30
0.0
 10
101.38879400414
 20
-34.32835248496879
 30
0.0
 10
101.0604249834667
 20
-37.90411471173184
 30
0.0
 10
101.0504413872863
 20
-40.33942418395257
 30
0.0
 10
101.0453467334442
 20
-41.58216863546737
 30
0.0
  0
SPLINE
  5
7A
330
1F
100
AcDbEntity
  8
0
  6
Continuous
 62
     7
370
    25
100
AcDbSpline
210
0.0
220
0.0
230
1.0
 70
     8
 71
     3
 72
    23
 73
    19
 74
     0
 42
0.00000001
 43
0.00000001
 40
0.0
 40
0.0
 40
0.0
 40
0.0
 40
0.0729088006950261
 40
0.1413816101789131
 40
0.2058946232824335
 40
0.2664182273145634
 40
0.323543417140764
 40
0.3788051411329346
 40
0.4321173262342723
 40
0.4846848557169771
 40
0.5377675679907201
 40
0.5926510472188975
 40
0.6502351126513543
 40
0.7114560098743006
 40
0.7763101121248785
 40
0.8458685328415183
 40
0.920467409052255
 40
1.0
 40
1.0
 40
1.0
 40
1.0
 10
101.0453467334442
 20
-41.58216863546737
 30
0.0
 10
101.0593480412696
 20
-42.79355166244696
 30
0.0
 10
101.0864987751467
 20
-45.1426135214423
 30
0.0
 10
101.412638411763
 20
-48.55220655073995
 30
0.0
 10
101.9988883433406
 20
-51.71658039739354
 30
0.0
 10
102.8163114523996
 20
-54.63535881478069
 30
0.0
 10
103.8888174045402
 20
-57.3058296812952
 30
0.0
 10
105.1786096244968
 20
-59.74332414451041
 30
0.0
 10
106.7175179011943
 20
-61.94501504112703
 30
0.0
 10
108.5426587451293
 20
-63.86329087445223
 30
0.0
 10
110.5833990553349
 20
-65.5897662455474
 30
0.0
 10
112.9208740662171
 20
-67.05587299496543
 30
0.0
 10
115.540641478029
 20
-68.27728992009344
 30
0.0
 10
118.4233673356192
 20
-69.29121660325396
 30
0.0
 10
121.5855950375908
 20
-70.05879349570327
 30
0.0
 10
125.0140976328698
 20
-70.62266651041494
 30
0.0
 10
128.7196290039369
 20
-70.95254731881286
 30
0.0
 10
131.2805188305598
 20
-70.97893158404987
 30
0.0
 10
132.6019505070236
 20
-70.99254599396394
 30
0.0
  0
LINE
  5
7B
330
1F
100
AcDbEntity
  8
0
  6
Continuous
 62
     7
370
    25
100
AcDbLine
 10
132.601950507
 20
-70.992545994
 30
0.0
 11
179.0807977948
 21
-70.9689841204
 31
0.0
  0
SPLINE
  5
7C
330
1F
100
AcDbEntity
  8
0
  6
Continuous
 62
     7
370
    25
100
AcDbSpline
210
0.0
220
0.0
230
1.0
 70
     8
 71
     3
 72
    23
 73
    19
 74
     0
 42
0.00000001
 43
0.00000001
 40
0.0
 40
0.0
 40
0.0
 40
0.0
 40
0.0754138847451577
 40
0.1464347462131797
 40
0.2132077456507117
 40
0.2759681813019802
 40
0.3367236992387947
 40
0.3941038122352512
 40
0.4498016159783895
 40
0.5045875736913888
 40
0.5591212618756093
 40
0.6149855464504757
 40
0.6721912924610257
 40
0.7312486776296846
 40
0.7935207153132336
 40
0.8585796314686138
 40
0.9273069090583274
 40
1.0
 40
1.0
 40
1.0
 40
1.0
 10
179.0807977947594
 20
-70.96898412044686
 30
0.0
 10
178.9029855944373
 20
-72.07290963836398
 30
0.0
 10
178.5577191423012
 20
-74.21645460492701
 30
0.0
 10
177.7850097886812
 20
-77.2830201082649
 30
0.0
 10
176.9148612609651
 20
-80.12797099985413
 30
0.0
 10
175.8116277114913
 20
-82.72880702160157
 30
0.0
 10
174.549131204472
 20
-85.0969958348336
 30
0.0
 10
173.1310196846426
 20
-87.25433351419716
 30
0.0
 10
171.5099746755081
 20
-89.14926390866354
 30
0.0
 10
169.7325037706186
 20
-90.83446782049757
 30
0.0
 10
167.780095156022
 20
-92.32176809532257
 30
0.0
 10
165.6200386070504
 20
-93.55923372033752
 30
0.0
 10
163.2987270677181
 20
-94.62306270861247
 30
0.0
 10
160.8009277640566
 20
-95.50977717298643
 30
0.0
 10
158.1101360161347
 20
-96.15203148508144
 30
0.0
 10
155.2413414154213
 20
-96.62186927770755
 30
0.0
 10
152.1914214175962
 20
-96.91495095387637
 30
0.0
 10
150.0947689902959
 20
-96.92881553134148
 30
0.0
 10
149.0170448466413
 20
-96.93594222038217
 30
0.0
  0
LINE
  5
7D
330
1F
100
AcDbEntity
  8
0
  6
Continuous
 62
     7
370
    25
100
AcDbLine
 10
149.0170448466
 20
-96.9359422204
 30
0.0
 11
112.9141510893
 21
-96.9167334203
 31
0.0
  0
LINE
  5
7E
330
1F
100
AcDbEntity
  8
0
  6
Continuous
 62
     7
370
    25
100
AcDbLine
 10
112.9141510893
 20
-96.9167334203
 30
0.0
 11
112.9141510893
 21
-116.153264228
 31
0.0
  0
LINE
  5
7F
330
1F
100
AcDbEntity
  8
0
  6
Continuous
 62
     7
370
    25
100
AcDbLine
 10
112.9141510893
 20
-116.153264228
 30
0.0
 11
149.0371288679
 21
-116.153264228
 31
0.0
  0
SPLINE
  5
80
330
1F
100
AcDbEntity
  8
0
  6
Continuous
 62
     7
370
    25
100
AcDbSpline
210
0.0
220
0.0
230
1.0
 70
     8
 71
     3
 72
    23
 73
    19
 74
     0
 42
0.00000001
 43
0.00000001
 40
0.0
 40
0.0
 40
0.0
 40
0.0
 40
0.0680234389621413
 40
0.1328254970621756
 40
0.1941300008671167
 40
0.2527017699418895
 40
0.3092512995919035
 40
0.3642691341613775
 40
0.4188404636125408
 40
0.4732823660013184
 40
0.5286028779739402
 40
0.5856932856972831
 40
0.6452434998451545
 40
0.7078064242982302
 40
0.7739847823573942
 40
0.8445584648581734
 40
0.9196855584371798
 40
0.9999999999999999
 40
0.9999999999999999
 40
0.9999999999999999
 40
0.9999999999999999
 10
149.037128867864
 20
-116.1532642280472
 30
0.0
 10
150.9896492451546
 20
-116.1155388589145
 30
0.0
 10
154.802224639674
 20
-116.0418746781061
 30
0.0
 10
160.3465792634568
 20
-115.4064207948032
 30
0.0
 10
165.5415191863653
 20
-114.3227997722382
 30
0.0
 10
170.3852609431954
 20
-112.8200342073981
 30
0.0
 10
174.8724099284065
 20
-110.8651728695546
 30
0.0
 10
178.9833409456771
 20
-108.4295258935543
 30
0.0
 10
182.7564776761911
 20
-105.5975315773507
 30
0.0
 10
186.156604981496
 20
-102.3124574117025
 30
0.0
 10
189.1794435721164
 20
-98.58224680192815
 30
0.0
 10
191.7695347302189
 20
-94.36823565286133
 30
0.0
 10
193.994584562703
 20
-89.72187235061654
 30
0.0
 10
195.803124522038
 20
-84.62037338980964
 30
0.0
 10
197.2138970731683
 20
-79.06973805608443
 30
0.0
 10
198.2100031178314
 20
-73.0657802761461
 30
0.0
 10
198.8244399303074
 20
-66.6026279831767
 30
0.0
 10
198.9203299955513
 20
-62.14175537018038
 30
0.0
 10
198.9698750353276
 20
-59.83688561661811
 30
0.0
  0
SPLINE
  5
81
330
1F
100
AcDbEntity
  8
0
  6
Continuous
 62
     7
370
    25
100
AcDbSpline
210
0.0
220
0.0
230
1.0
 70
     8
 71
     3
 72
    23
 73
    19
 74
     0
 42
0.00000001
 43
0.00000001
 40
0.0
 40
0.0
 40
0.0
 40
0.0
 40
0.0870702823250277
 40
0.1684521856142638
 40
0.2441647756296545
 40
0.314603966764915
 40
0.3803590924049512
 40
0.441840391520739
 40
0.5000401381939052
 40
0.5559401739093298
 40
0.6102574185455947
 40
0.6633070079427333
 40
0.716357445746429
 40
0.7697925111286974
 40
0.8242520907248118
 40
0.8804532470966081
 40
0.9387681070439536
 40
1.0
 40
1.0
 40
1.0
 40
1.0
 10
198.9698750353275
 20
-59.8368856166181
 30
0.0
 10
198.9110778933876
 20
-57.55558532053114
 30
0.0
 10
198.7973248791195
 20
-53.14202410703025
 30
0.0
 10
198.1819178665177
 20
-46.76795237711521
 30
0.0
 10
197.228507854851
 20
-40.87870688957354
 30
0.0
 10
195.9291112981929
 20
-35.47216678620579
 30
0.0
 10
194.2237996558385
 20
-30.57348577267855
 30
0.0
 10
192.2118297043853
 20
-26.14012379631908
 30
0.0
 10
189.7889833983368
 20
-22.21367382292676
 30
0.0
 10
187.0121163992311
 20
-18.76918548145852
 30
0.0
 10
183.9283958960318
 20
-15.78900102494703
 30
0.0
 10
180.5920012823547
 20
-13.22037721087931
 30
0.0
 10
177.0216100722219
 20
-11.02610043127057
 30
0.0
 10
173.1670958811474
 20
-9.293996666346532
 30
0.0
 10
169.0905137407084
 20
-7.901052714822585
 30
0.0
 10
164.7515107880418
 20
-6.980062469729097
 30
0.0
 10
160.1720821916469
 20
-6.419022758384109
 30
0.0
 10
157.0376146634455
 20
-6.38654143229029
 30
0.0
 10
155.4321391862812
 20
-6.369904484534343
 30
0.0
  0
SPLINE
  5
82
330
1F
100
AcDbEntity
  8
0
  6
Continuous
 62
     7
370
    25
100
AcDbSpline
210
0.0
220
0.0
230
1.0
 70
     8
 71
     3
 72
    23
 73
    19
 74
     0
 42
0.00000001
 43
0.00000001
 40
0.0
 40
0.0
 40
0.0
 40
0.0
 40
0.081971637862637
 40
0.1586098679055081
 40
0.2305655197021592
 40
0.297882327155241
 40
0.3608036753760323
 40
0.4203325893344811
 40
0.4770529407376226
 40
0.5312888819388334
 40
0.5844646798174638
 40
0.6372035456100199
 40
0.6907293846307891
 40
0.746299358990356
 40
0.8039358088655159
 40
0.8654678579389492
 40
0.9303774720514314
 40
0.9999999999999999
 40
0.9999999999999999
 40
0.9999999999999999
 40
0.9999999999999999
 10
361.8708184315537
 20
-61.18122523929065
 30
0.0
 10
361.8831059833293
 20
-59.67100616138115
 30
0.0
 10
361.9068816088364
 20
-56.74882899496901
 30
0.0
 10
362.2542609922569
 20
-52.5137829980855
 30
0.0
 10
362.7654508109729
 20
-48.56677550982013
 30
0.0
 10
363.577921188116
 20
-44.92802180017654
 30
0.0
 10
364.5809935905668
 20
-41.57590299548798
 30
0.0
 10
365.8323519187476
 20
-38.51637025342939
 30
0.0
 10
367.3131422985651
 20
-35.74012989041103
 30
0.0
 10
369.0498903643139
 20
-33.25663372001161
 30
0.0
 10
371.0385235748031
 20
-31.0654836598382
 30
0.0
 10
373.3083887850992
 20
-29.18841621761032
 30
0.0
 10
375.834292661538
 20
-27.58972695502973
 30
0.0
 10
378.6315158713352
 20
-26.30552546734747
 30
0.0
 10
381.6863979703977
 20
-25.27010498640023
 30
0.0
 10
385.0146838140752
 20
-24.59248535035508
 30
0.0
 10
388.6043851976646
 20
-24.15417594072177
 30
0.0
 10
391.0832496061367
 20
-24.10672516718818
 30
0.0
 10
392.3661014504287
 20
-24.08216863552288
 30
0.0
  0
LINE
  5
83
330
1F
100
AcDbEntity
  8
0
  6
Continuous
 62
     7
370
    25
100
AcDbLine
 10
392.3661014504
 20
-24.0821686355
 30
0.0
 11
392.377156875
 21
-24.0778155621
 31
0.0
  0
SPLINE
  5
84
330
1F
100
AcDbEntity
  8
0
  6
Continuous
 62
     7
370
    25
100
AcDbSpline
210
0.0
220
0.0
230
1.0
 70
     8
 71
     3
 72
    23
 73
    19
 74
     0
 42
0.00000001
 43
0.00000001
 40
0.0
 40
0.0
 40
0.0
 40
0.0
 40
0.069198500570178
 40
0.1338707438107372
 40
0.1947435552826909
 40
0.2525466528243666
 40
0.3078895951550179
 40
0.3615701965907239
 40
0.4141331202233435
 40
0.4671749711851507
 40
0.5215677279616094
 40
0.5784520782617286
 40
0.6381531116797005
 40
0.7012563881052588
 40
0.7687678326135999
 40
0.8409315340297269
 40
0.9177913527067024
 40
1.0
 40
1.0
 40
1.0
 40
1.0
 10
392.3771568749569
 20
-24.07781556211486
 30
0.0
 10
393.6483733090524
 20
-24.10463279833772
 30
0.0
 10
396.1076562151063
 20
-24.15651316179243
 30
0.0
 10
399.6637021366356
 20
-24.58811117990943
 30
0.0
 10
402.964950810886
 20
-25.27884711646139
 30
0.0
 10
406.0016469183827
 20
-26.29860529124081
 30
0.0
 10
408.7839408327154
 20
-27.59756937426258
 30
0.0
 10
411.3035891131645
 20
-29.18105956653672
 30
0.0
 10
413.553493281185
 20
-31.06647419597731
 30
0.0
 10
415.5165358485627
 20
-33.2640503188827
 30
0.0
 10
417.2550226280622
 20
-35.73925589335194
 30
0.0
 10
418.7344529358811
 20
-38.51662152887834
 30
0.0
 10
419.9862030718219
 20
-41.57583010390598
 30
0.0
 10
420.9891613944697
 20
-44.92804329393952
 30
0.0
 10
421.8016654392425
 20
-48.56676914824978
 30
0.0
 10
422.3128453127432
 20
-52.51378486481178
 30
0.0
 10
422.660227578285
 20
-56.74882847713513
 30
0.0
 10
422.6840027911499
 20
-59.67100598495091
 30
0.0
 10
422.6962901296669
 20
-61.18122523930224
 30
0.0
  0
SPLINE
  5
85
330
1F
100
AcDbEntity
  8
0
  6
Continuous
 62
     7
370
    25
100
AcDbSpline
210
0.0
220
0.0
230
1.0
 70
     8
 71
     3
 72
    23
 73
    19
 74
     0
 42
0.00000001
 43
0.00000001
 40
0.0
 40
0.0
 40
0.0
 40
0.0
 40
0.0823245808847941
 40
0.1592874372773942
 40
0.2316011313805408
 40
0.2991840449250363
 40
0.3624570676522768
 40
0.4223273436696095
 40
0.4789968881669021
 40
0.5329403677601474
 40
0.5857819229056336
 40
0.6381463592398969
 40
0.6918533175829172
 40
0.7469872747516495
 40
0.8044377136543995
 40
0.8655883642776149
 40
0.9304398360025522
 40
1.0
 40
1.0
 40
1.0
 40
1.0
 10
422.6962901296669
 20
-61.18122523930224
 30
0.0
 10
422.6807935579373
 20
-62.69902507695812
 30
0.0
 10
422.6508096919903
 20
-65.6357718400978
 30
0.0
 10
422.3467517527719
 20
-69.89751575794227
 30
0.0
 10
421.8144655640079
 20
-73.8624670653701
 30
0.0
 10
421.0442336946898
 20
-77.53199013632931
 30
0.0
 10
420.0299177303349
 20
-80.90292900993651
 30
0.0
 10
418.7894629814592
 20
-83.98312044243121
 30
0.0
 10
417.2977509870272
 20
-86.756417176166
 30
0.0
 10
415.589948716477
 20
-89.24695664561294
 30
0.0
 10
413.6236818749359
 20
-91.43788636403966
 30
0.0
 10
411.3678128073739
 20
-93.32040358042677
 30
0.0
 10
408.8616396398396
 20
-94.93197944817993
 30
0.0
 10
406.0763942606055
 20
-96.23521014820815
 30
0.0
 10
403.0205543109631
 20
-97.21445743878196
 30
0.0
 10
399.7147590427575
 20
-97.94922690123651
 30
0.0
 10
396.126923287744
 20
-98.36963539642882
 30
0.0
 10
393.6486482736967
 20
-98.41954642818226
 30
0.0
 10
392.3661014504145
 20
-98.44537618269268
 30
0.0
  0
SPLINE
  5
86
330
1F
100
AcDbEntity
  8
0
  6
Continuous
 62
     7
370
    25
100
AcDbSpline
210
0.0
220
0.0
230
1.0
 70
     8
 71
     3
 72
    23
 73
    19
 74
     0
 42
0.00000001
 43
0.00000001
 40
0.0
 40
0.0
 40
0.0
 40
0.0
 40
0.0694364040440144
 40
0.1341724934199251
 40
0.1956300494495056
 40
0.2529782737622547
 40
0.3083996913125741
 40
0.3620110953860008
 40
0.4146089728531931
 40
0.4676426143433587
 40
0.5217335650444974
 40
0.5783022843023852
 40
0.6380660404073695
 40
0.7012264891282205
 40
0.7687790902885647
 40
0.840964125416509
 40
0.9178218892456833
 40
1.0
 40
1.0
 40
1.0
 40
1.0
 10
392.3661014504145
 20
-98.44537618269268
 30
0.0
 10
391.0834941392386
 20
-98.41978439491614
 30
0.0
 10
388.6051022439723
 20
-98.37033318809846
 30
0.0
 10
385.0104437804711
 20
-97.94581336149436
 30
0.0
 10
381.6944959767237
 20
-97.21944718505284
 30
0.0
 10
378.6274701000431
 20
-96.22864798218181
 30
0.0
 10
375.8272131152507
 20
-94.93988148001353
 30
0.0
 10
373.3153666133091
 20
-93.31272800146321
 30
0.0
 10
371.0375626947245
 20
-91.43993974467304
 30
0.0
 10
369.0500226035867
 20
-89.24698039511387
 30
0.0
 10
367.3136154726774
 20
-86.76371123360965
 30
0.0
 10
365.8267321720389
 20
-83.98206208979812
 30
0.0
 10
364.5819549014386
 20
-80.90362168692776
 30
0.0
 10
363.5778073180933
 20
-77.52862512535792
 30
0.0
 10
362.7656285661093
 20
-73.8662021863277
 30
0.0
 10
362.254308825407
 20
-69.89577470218354
 30
0.0
 10
361.9069189618926
 20
-65.637167920275
 30
0.0
 10
361.8831173593142
 20
-62.69930036515868
 30
0.0
 10
361.8708184315537
 20
-61.18122523929065
 30
0.0
  0
LINE
  5
87
330
1F
100
AcDbEntity
  8
0
  6
Continuous
 62
     7
370
    25
100
AcDbLine
 10
392.3661014504
 20
-4.8604705223
 30
0.0
 11
392.377156875
 21
-4.8412847543
 31
0.0
  0
SPLINE
  5
88
330
1F
100
AcDbEntity
  8
0
  6
Continuous
 62
     7
370
    25
100
AcDbSpline
210
0.0
220
0.0
230
1.0
 70
     8
 71
     3
 72
    23
 73
    19
 74
     0
 42
0.00000001
 43
0.00000001
 40
0.0
 40
0.0
 40
0.0
 40
0.0
 40
0.0679465006236661
 40
0.1320667649914246
 40
0.1933365526560655
 40
0.251689453560256
 40
0.3086278074359614
 40
0.3641285502744825
 40
0.4194451651341665
 40
0.4751430475048207
 40
0.5317909061977105
 40
0.5896549435208447
 40
0.6495233565251257
 40
0.7121613587678615
 40
0.77822940218994
 40
0.8478228093346117
 40
0.9217336558876278
 40
1.0
 40
1.0
 40
1.0
 40
1.0
 10
392.3771568749606
 20
-4.84128475433184
 30
0.0
 10
390.4375451032333
 20
-4.89414598920788
 30
0.0
 10
386.667545917402
 20
-4.996891711496028
 30
0.0
 10
381.1811219347716
 20
-5.680738178696158
 30
0.0
 10
376.0558687934187
 20
-6.831975223513766
 30
0.0
 10
371.2641207798754
 20
-8.4203312319564
 30
0.0
 10
366.8132965418627
 20
-10.43719144747554
 30
0.0
 10
362.7197988128177
 20
-12.94337050937583
 30
0.0
 10
358.9665140139832
 20
-15.87866844533317
 30
0.0
 10
355.5859300924137
 20
-19.28083983098288
 30
0.0
 10
352.5417219876395
 20
-23.08269001953082
 30
0.0
 10
349.9558816362861
 20
-27.34895716274265
 30
0.0
 10
347.7199516432518
 20
-31.9962237216776
 30
0.0
 10
345.9206065098239
 20
-37.07827739256137
 30
0.0
 10
344.4735785311632
 20
-42.55810287815273
 30
0.0
 10
343.489975066122
 20
-48.4648110586059
 30
0.0
 10
342.8347940417787
 20
-54.76730487126553
 30
0.0
 10
342.743330698007
 20
-59.11186579167097
 30
0.0
 10
342.6962901296669
 20
-61.34631957890964
 30
0.0
  0
SPLINE
  5
89
330
1F
100
AcDbEntity
  8
0
  6
Continuous
 62
     7
370
    25
100
AcDbSpline
210
0.0
220
0.0
230
1.0
 70
     8
 71
     3
 72
    23
 73
    19
 74
     0
 42
0.00000001
 43
0.00000001
 40
0.0
 40
0.0
 40
0.0
 40
0.0
 40
0.07809336554709
 40
0.1517994169922146
 40
0.2212599846372739
 40
0.2870781153051948
 40
0.3494456148356134
 40
0.4093925298848197
 40
0.4670976645064683
 40
0.5236485931513235
 40
0.5794195089872847
 40
0.634808657377872
 40
0.6903821751838436
 40
0.7472810220696138
 40
0.8060595289238354
 40
0.8673495038105167
 40
0.931827482917916
 40
1.0
 40
1.0
 40
1.0
 40
1.0
 10
342.6962901296669
 20
-61.34631957890964
 30
0.0
 10
342.7472231812511
 20
-63.57244123186422
 30
0.0
 10
342.8462278467813
 20
-67.89962020161275
 30
0.0
 10
343.4479222004815
 20
-74.18570524106653
 30
0.0
 10
344.4892110592457
 20
-80.05757148170954
 30
0.0
 10
345.8936350832644
 20
-85.51984062293106
 30
0.0
 10
347.6759336182654
 20
-90.58779657915646
 30
0.0
 10
349.9008359586215
 20
-95.22313653460867
 30
0.0
 10
352.5047949523902
 20
-99.46328719601837
 30
0.0
 10
355.5124857801984
 20
-103.2783622606499
 30
0.0
 10
358.8971316247425
 20
-106.6718342644739
 30
0.0
 10
362.6496029193596
 20
-109.6057400582953
 30
0.0
 10
366.7361012151568
 20
-112.1210636716249
 30
0.0
 10
371.2110576475236
 20
-114.0977776934324
 30
0.0
 10
375.9929382472821
 20
-115.7315739829047
 30
0.0
 10
381.1459317799099
 20
-116.8375997712416
 30
0.0
 10
386.6392570644646
 20
-117.5374116795605
 30
0.0
 10
390.4220344315607
 20
-117.6230582900485
 30
0.0
 10
392.3661014504108
 20
-117.6670742959002
 30
0.0
  0
SPLINE
  5
8A
330
1F
100
AcDbEntity
  8
0
  6
Continuous
 62
     7
370
    25
100
AcDbSpline
210
0.0
220
0.0
230
1.0
 70
     8
 71
     3
 72
    23
 73
    19
 74
     0
 42
0.00000001
 43
0.00000001
 40
0.0
 40
0.0
 40
0.0
 40
0.0
 40
0.0682600377467617
 40
0.1325468056455127
 40
0.1939154653097231
 40
0.2527694326898104
 40
0.30948983269424
 40
0.3651346964241269
 40
0.420377995452356
 40
0.4760255996335487
 40
0.5324785301283724
 40
0.5902577472682199
 40
0.6501627327383656
 40
0.7126103003848934
 40
0.7785129291290254
 40
0.84801496531951
 40
0.9218156414446282
 40
1.0
 40
1.0
 40
1.0
 40
1.0
 10
392.3661014504108
 20
-117.6670742959002
 30
0.0
 10
394.3102067188848
 20
-117.6234711101367
 30
0.0
 10
398.085255073397
 20
-117.5388027861847
 30
0.0
 10
403.570382034774
 20
-116.8355029144028
 30
0.0
 10
408.7151842472865
 20
-115.7306710575588
 30
0.0
 10
413.492590949814
 20
-114.1039003216159
 30
0.0
 10
417.9530096727106
 20
-112.1134428359873
 30
0.0
 10
422.0331717809669
 20
-109.6132678680043
 30
0.0
 10
425.7639404676369
 20
-106.6698862835625
 30
0.0
 10
429.1278489096871
 20
-103.278806749957
 30
0.0
 10
432.105914073962
 20
-99.454969583482
 30
0.0
 10
434.7195938967881
 20
-95.23020031818093
 30
0.0
 10
436.9087818012329
 20
-90.58094946184936
 30
0.0
 10
438.6972238851899
 20
-85.520575286531
 30
0.0
 10
440.1087392667411
 20
-80.05996933680416
 30
0.0
 10
441.1091452655619
 20
-74.18283170563912
 30
0.0
 10
441.7291813304484
 20
-67.9004855301264
 30
0.0
 10
441.8071333412112
 20
-63.57265060216218
 30
0.0
 10
441.8472335258932
 20
-61.34631957892853
 30
0.0
  0
SPLINE
  5
8B
330
1F
100
AcDbEntity
  8
0
  6
Continuous
 62
     7
370
    25
100
AcDbSpline
210
0.0
220
0.0
230
1.0
 70
     8
 71
     3
 72
    23
 73
    19
 74
     0
 42
0.00000001
 43
0.00000001
 40
0.0
 40
0.0
 40
0.0
 40
0.0
 40
0.0783723644051352
 40
0.152356092903328
 40
0.2220437719024416
 40
0.2881317202845238
 40
0.3507617382747422
 40
0.4105925067425789
 40
0.4685349272104353
 40
0.5250883050233791
 40
0.5808616362457996
 40
0.6360364936907559
 40
0.6916124183340616
 40
0.748377223926629
 40
0.8068091701945399
 40
0.8678929696311766
 40
0.9321000918850092
 40
1.0
 40
1.0
 40
1.0
 40
1.0
 10
441.8472335258932
 20
-61.34631957892853
 30
0.0
 10
441.7971138782235
 20
-59.11219958670126
 30
0.0
 10
441.6996811447004
 20
-54.7690641501665
 30
0.0
 10
441.0868263414128
 20
-48.46276855639596
 30
0.0
 10
440.0850767628102
 20
-42.5619676387584
 30
0.0
 10
438.6723743638743
 20
-37.07870264844352
 30
0.0
 10
436.8918681428047
 20
-31.99876498858849
 30
0.0
 10
434.6872693074413
 20
-27.34206086945169
 30
0.0
 10
432.0917321216592
 20
-23.09209107938236
 30
0.0
 10
429.0786661029067
 20
-19.27179305443292
 30
0.0
 10
425.6945270886116
 20
-15.88848065960746
 30
0.0
 10
421.9641649321637
 20
-12.93463608608872
 30
0.0
 10
417.8754272411979
 20
-10.44524410838739
 30
0.0
 10
413.4397249461348
 20
-8.413801485841443
 30
0.0
 10
408.6591615099752
 20
-6.836749932521326
 30
0.0
 10
403.5440551549275
 20
-5.678463172439368
 30
0.0
 10
398.0686143523652
 20
-4.993259384290429
 30
0.0
 10
394.3020347985502
 20
-4.90555071600838
 30
0.0
 10
392.3661014504323
 20
-4.860470522315338
 30
0.0
  0
LINE
  5
8C
330
1F
100
AcDbEntity
  8
0
  6
Continuous
 62
     7
370
    25
100
AcDbLine
 10
538.3094976768
 20
-6.3699044846
 30
0.0
 11
474.5654399675
 21
-6.3507187166
 31
0.0
  0
LINE
  5
8D
330
1F
100
AcDbEntity
  8
0
  6
Continuous
 62
     7
370
    25
100
AcDbLine
 10
474.5654399675
 20
-6.3507187166
 30
0.0
 11
474.5654399675
 21
-25.5872495244
 31
0.0
  0
LINE
  5
8E
330
1F
100
AcDbEntity
  8
0
  6
Continuous
 62
     7
370
    25
100
AcDbLine
 10
474.5654399675
 20
-25.5872495244
 30
0.0
 11
538.8141778066
 21
-25.5872495244
 31
0.0
  0
SPLINE
  5
8F
330
1F
100
AcDbEntity
  8
0
  6
Continuous
 62
     7
370
    25
100
AcDbSpline
210
0.0
220
0.0
230
1.0
 70
     8
 71
     3
 72
    15
 73
    11
 74
     0
 42
0.00000001
 43
0.00000001
 40
0.0
 40
0.0
 40
0.0
 40
0.0
 40
0.1522550933938921
 40
0.2886991364138621
 40
0.4118055335587226
 40
0.5288523918285143
 40
0.6424904444363547
 40
0.7543187853084452
 40
0.8723215027568535
 40
0.9999999999999999
 40
0.9999999999999999
 40
0.9999999999999999
 40
0.9999999999999999
 10
538.8141778065605
 20
-25.58724952440691
 30
0.0
 10
539.8679443009759
 20
-25.63479022782655
 30
0.0
 10
541.8660480762798
 20
-25.7249347327874
 30
0.0
 10
544.6632558538496
 20
-26.35396177167076
 30
0.0
 10
547.0676821926689
 20
-27.40126557915549
 30
0.0
 10
549.0637222095538
 20
-28.85530584294404
 30
0.0
 10
550.6160100662607
 20
-30.6744586839676
 30
0.0
 10
551.7279764140793
 20
-32.79278270186993
 30
0.0
 10
552.4056413021384
 20
-35.19675878822984
 30
0.0
 10
552.4727401615706
 20
-36.89989368905624
 30
0.0
 10
552.5076108843883
 20
-37.78499882423264
 30
0.0
  0
SPLINE
  5
90
330
1F
100
AcDbEntity
  8
0
  6
Continuous
 62
     7
370
    25
100
AcDbSpline
210
0.0
220
0.0
230
1.0
 70
     8
 71
     3
 72
    15
 73
    11
 74
     0
 42
0.00000001
 43
0.00000001
 40
0.0
 40
0.0
 40
0.0
 40
0.0
 40
0.1149327514143812
 40
0.2224807897583288
 40
0.3278140963668535
 40
0.4349017057467272
 40
0.5496641531270716
 40
0.6791047386121973
 40
0.8283308991876062
 40
1.0
 40
1.0
 40
1.0
 40
1.0
 10
552.5076108843883
 20
-37.78499882423264
 30
0.0
 10
552.5000398807247
 20
-38.41620013098782
 30
0.0
 10
552.4853843290773
 20
-39.63804650197628
 30
0.0
 10
552.0683261326774
 20
-41.40076741870176
 30
0.0
 10
551.3480690929385
 20
-43.00831105142581
 30
0.0
 10
550.3156737574542
 20
-44.49036651381923
 30
0.0
 10
548.8724354399849
 20
-45.78773807264515
 30
0.0
 10
547.0108319350152
 20
-46.89359124453467
 30
0.0
 10
544.7199040149444
 20
-47.83324643003443
 30
0.0
 10
543.0174357028138
 20
-48.27813121506623
 30
0.0
 10
542.10666748816
 20
-48.51613089970235
 30
0.0
  0
LINE
  5
91
330
1F
100
AcDbEntity
  8
0
  6
Continuous
 62
     7
370
    25
100
AcDbLine
 10
542.1066674882
 20
-48.5161308997
 30
0.0
 11
495.1745477948
 21
-59.0561653558
 31
0.0
  0
SPLINE
  5
92
330
1F
100
AcDbEntity
  8
0
  6
Continuous
 62
     7
370
    25
100
AcDbSpline
210
0.0
220
0.0
230
1.0
 70
     8
 71
     3
 72
    23
 73
    19
 74
     0
 42
0.00000001
 43
0.00000001
 40
0.0
 40
0.0
 40
0.0
 40
0.0
 40
0.0774724765499094
 40
0.1502749874649815
 40
0.2184567674513206
 40
0.2823267518978313
 40
0.3423741999386175
 40
0.3997220348085601
 40
0.4539887299142411
 40
0.5070863284436904
 40
0.5597327557081404
 40
0.6143099289221052
 40
0.6708197230511155
 40
0.7300385623051483
 40
0.7920130052940115
 40
0.8575832693822464
 40
0.9269910451254748
 40
1.0
 40
1.0
 40
1.0
 40
1.0
 10
495.1745477947616
 20
-59.05616535576652
 30
0.0
 10
494.0606534873822
 20
-59.31487505591684
 30
0.0
 10
491.9000093395099
 20
-59.81669968678573
 30
0.0
 10
488.837643028659
 20
-60.82932184945788
 30
0.0
 10
486.0113333747536
 20
-61.9090209037608
 30
0.0
 10
483.485126376347
 20
-63.20178159271847
 30
0.0
 10
481.1903121269041
 20
-64.58236565724634
 30
0.0
 10
479.1887760490889
 20
-66.14287522559064
 30
0.0
 10
477.4319961688516
 20
-67.82985040647137
 30
0.0
 10
475.9640405404958
 20
-69.68751958681652
 30
0.0
 10
474.7233900762302
 20
-71.70635742643664
 30
0.0
 10
473.6680894970003
 20
-73.88248595788673
 30
0.0
 10
472.7603061005711
 20
-76.22919766778011
 30
0.0
 10
472.0672714893426
 20
-78.76118298860183
 30
0.0
 10
471.5238130696735
 20
-81.46405743116455
 30
0.0
 10
471.1465113810553
 20
-84.34745714395015
 30
0.0
 10
470.9635031676866
 20
-87.41301759907235
 30
0.0
 10
470.9708339443493
 20
-89.5143625824956
 30
0.0
 10
470.9745920164538
 20
-90.591602597802
 30
0.0
  0
LINE
  5
93
330
1F
100
AcDbEntity
  8
0
  6
Continuous
 62
     7
370
    25
100
AcDbLine
 10
470.9745920165
 20
-90.5916025978
 30
0.0
 11
470.978968122
 21
-107.1870846143
 31
0.0
  0
SPLINE
  5
94
330
1F
100
AcDbEntity
  8
0
  6
Continuous
 62
     7
370
    25
100
AcDbSpline
210
0.0
220
0.0
230
1.0
 70
     8
 71
     3
 72
    15
 73
    11
 74
     0
 42
0.00000001
 43
0.00000001
 40
0.0
 40
0.0
 40
0.0
 40
0.0
 40
0.14345779665339
 40
0.2717953423044297
 40
0.3865682575307249
 40
0.4962452175902304
 40
0.6049452640853289
 40
0.72263716291569
 40
0.8521906385412238
 40
1.0
 40
1.0
 40
1.0
 40
1.0
 10
470.978968121993
 20
-107.1870846143114
 30
0.0
 10
470.9913460768269
 20
-107.891835195837
 30
0.0
 10
471.0147973673777
 20
-109.2270566338727
 30
0.0
 10
471.43826960246
 20
-111.0908666467887
 30
0.0
 10
472.1575615539781
 20
-112.6761408360164
 30
0.0
 10
473.1583339680172
 20
-113.9917202503286
 30
0.0
 10
474.496657138237
 20
-114.983764284205
 30
0.0
 10
476.1043714145844
 20
-115.6963401683873
 30
0.0
 10
478.0166211235939
 20
-116.0823966618011
 30
0.0
 10
479.3769943465442
 20
-116.1314821814304
 30
0.0
 10
480.1019505070149
 20
-116.1576403336528
 30
0.0
  0
LINE
  5
95
330
1F
100
AcDbEntity
  8
0
  6
Continuous
 62
     7
370
    25
100
AcDbLine
 10
480.101950507
 20
-116.1576403337
 30
0.0
 11
568.7363982886
 21
-116.1532642281
 31
0.0
  0
LINE
  5
96
330
1F
100
AcDbEntity
  8
0
  6
Continuous
 62
     7
370
    25
100
AcDbLine
 10
568.7363982886
 20
-116.1532642281
 30
0.0
 11
568.7363982886
 21
-96.9167334203
 31
0.0
  0
LINE
  5
97
330
1F
100
AcDbEntity
  8
0
  6
Continuous
 62
     7
370
    25
100
AcDbLine
 10
568.7363982886
 20
-96.9167334203
 30
0.0
 11
492.3644201046
 21
-96.9167334203
 31
0.0
  0
SPLINE
  5
98
330
1F
100
AcDbEntity
  8
0
  6
Continuous
 62
     7
370
    25
100
AcDbSpline
210
0.0
220
0.0
230
1.0
 70
     8
 71
     3
 72
    11
 73
     7
 74
     0
 42
0.00000001
 43
0.00000001
 40
0.0
 40
0.0
 40
0.0
 40
0.0
 40
0.2625441798223356
 40
0.4778695731478528
 40
0.709976654476279
 40
1.0
 40
1.0
 40
1.0
 40
1.0
 10
492.3644201046011
 20
-96.91673342032966
 30
0.0
 10
492.0374175295668
 20
-96.93357996639162
 30
0.0
 10
491.4422240613447
 20
-96.96424319336194
 30
0.0
 10
490.6352535943656
 20
-96.50732666755151
 30
0.0
 10
490.2299540611459
 20
-95.64926363757993
 30
0.0
 10
490.2083116536193
 20
-95.00568790663203
 30
0.0
 10
490.1962901296606
 20
-94.64820637139059
 30
0.0
  0
LINE
  5
99
330
1F
100
AcDbEntity
  8
0
  6
Continuous
 62
     7
370
    25
100
AcDbLine
 10
490.1962901297
 20
-94.6482063714
 30
0.0
 11
490.2154989298
 21
-89.1171314156
 31
0.0
  0
SPLINE
  5
9A
330
1F
100
AcDbEntity
  8
0
  6
Continuous
 62
     7
370
    25
100
AcDbSpline
210
0.0
220
0.0
230
1.0
 70
     8
 71
     3
 72
    15
 73
    11
 74
     0
 42
0.00000001
 43
0.00000001
 40
0.0
 40
0.0
 40
0.0
 40
0.0
 40
0.1306759074972439
 40
0.252248342088327
 40
0.3649821815032281
 40
0.4712482386356219
 40
0.5804162917472346
 40
0.7006556106684766
 40
0.8394772534762357
 40
1.0
 40
1.0
 40
1.0
 40
1.0
 10
490.2154989297795
 20
-89.11713141561228
 30
0.0
 10
490.2036052520884
 20
-88.38127868664752
 30
0.0
 10
490.1806464639203
 20
-86.96083604762133
 30
0.0
 10
490.4905525718384
 20
-84.92058513377661
 30
0.0
 10
491.0605205830667
 20
-83.08631548768572
 30
0.0
 10
491.8628273203643
 20
-81.41236856380863
 30
0.0
 10
493.0821609528135
 20
-79.93754630606614
 30
0.0
 10
494.8116502755186
 20
-78.76596196278001
 30
0.0
 10
496.9613074718846
 20
-77.76795743797263
 30
0.0
 10
498.5911556717223
 20
-77.33383417200706
 30
0.0
 10
499.4651580541921
 20
-77.10103656007158
 30
0.0
  0
LINE
  5
9B
330
1F
100
AcDbEntity
  8
0
  6
Continuous
 62
     7
370
    25
100
AcDbLine
 10
499.4651580542
 20
-77.1010365601
 30
0.0
 11
545.9221478464
 21
-66.8557673605
 31
0.0
  0
SPLINE
  5
9C
330
1F
100
AcDbEntity
  8
0
  6
Continuous
 62
     7
370
    25
100
AcDbSpline
210
0.0
220
0.0
230
1.0
 70
     8
 71
     3
 72
    23
 73
    19
 74
     0
 42
0.00000001
 43
0.00000001
 40
0.0
 40
0.0
 40
0.0
 40
0.0
 40
0.0767857710362201
 40
0.1501773966259439
 40
0.2194889356550838
 40
0.2848530300156606
 40
0.3471002771073687
 40
0.4069108906734747
 40
0.4643718619313519
 40
0.5201023361406036
 40
0.5750616511927744
 40
0.6303469759162155
 40
0.6863963030088541
 40
0.744236524430211
 40
0.8038515222323748
 40
0.8661156075324739
 40
0.9315712803538767
 40
1.0
 40
1.0
 40
1.0
 40
1.0
 10
545.9221478463522
 20
-66.85576736049318
 30
0.0
 10
546.9966312878944
 20
-66.60512982636307
 30
0.0
 10
549.0981030031733
 20
-66.11493363682884
 30
0.0
 10
552.1100482948259
 20
-65.17177662274729
 30
0.0
 10
554.8980065881954
 20
-64.08840314651749
 30
0.0
 10
557.4591116754901
 20
-62.88170675565976
 30
0.0
 10
559.809198309504
 20
-61.56283387767811
 30
0.0
 10
561.9424516499453
 20
-60.10575631540333
 30
0.0
 10
563.8349314154597
 20
-58.48869507739665
 30
0.0
 10
565.5273702141365
 20
-56.76050687793284
 30
0.0
 10
567.007218613114
 20
-54.8837130311988
 30
0.0
 10
568.2522666240881
 20
-52.8398691897088
 30
0.0
 10
569.325457332244
 20
-50.6552993820794
 30
0.0
 10
570.1894971646285
 20
-48.31375138936255
 30
0.0
 10
570.8854876996978
 20
-45.82364843054168
 30
0.0
 10
571.3402042718975
 20
-43.16817710244127
 30
0.0
 10
571.6374674503132
 20
-40.36262914160898
 30
0.0
 10
571.6514220449241
 20
-38.43832687716142
 30
0.0
 10
571.6585542806148
 20
-37.454810144991
 30
0.0
  0
SPLINE
  5
9D
330
1F
100
AcDbEntity
  8
0
  6
Continuous
 62
     7
370
    25
100
AcDbSpline
210
0.0
220
0.0
230
1.0
 70
     8
 71
     3
 72
    23
 73
    19
 74
     0
 42
0.00000001
 43
0.00000001
 40
0.0
 40
0.0
 40
0.0
 40
0.0
 40
0.0708389843155127
 40
0.1380399881131702
 40
0.2015826695676486
 40
0.2620010196041205
 40
0.3203317581247132
 40
0.3770663460569374
 40
0.4327884378958409
 40
0.4886323348700352
 40
0.5450466531489605
 40
0.6021916657006792
 40
0.6610407536774687
 40
0.7222227551860673
 40
0.7861772430668537
 40
0.8534685718639669
 40
0.9246265608747424
 40
1.0
 40
1.0
 40
1.0
 40
1.0
 10
571.6585542806148
 20
-37.454810144991
 30
0.0
 10
571.6333583296745
 20
-36.22701540913141
 30
0.0
 10
571.5842603816741
 20
-33.83448010697919
 30
0.0
 10
571.1470164390716
 20
-30.36356194222649
 30
0.0
 10
570.4746670680959
 20
-27.11641146857025
 30
0.0
 10
569.525011248013
 20
-24.09890917342686
 30
0.0
 10
568.3312285396553
 20
-21.29580658883519
 30
0.0
 10
566.834157749188
 20
-18.73428818487574
 30
0.0
 10
565.0719215696162
 20
-16.40338668942352
 30
0.0
 10
563.0595278734654
 20
-14.29170836782322
 30
0.0
 10
560.7868825761467
 20
-12.42267082973077
 30
0.0
 10
558.2625607423033
 20
-10.81368675731268
 30
0.0
 10
555.5099455633721
 20
-9.44360999631243
 30
0.0
 10
552.5258463983989
 20
-8.308128267009375
 30
0.0
 10
549.3016812951383
 20
-7.438216041265334
 30
0.0
 10
545.8430993577804
 20
-6.839362807736476
 30
0.0
 10
542.1545251415037
 20
-6.454956992862156
 30
0.0
 10
539.6155210512736
 20
-6.3987938917326
 30
0.0
 10
538.3094976768471
 20
-6.369904484607293
 30
0.0
  0
MTEXT
  5
9F
330
1F
100
AcDbEntity
  8
0
  6
Continuous
 62
     7
100
AcDbMText
 10
101.0453467334
 20
-118.6866406876
 30
0.0
 40
4.83362
 41
0.0
 71
     1
 72
     1
  1
Produto educacional do SOLIDWORKS.
  7
SLDTEXTSTYLE0
 73
     1
 44
1.0
  0
MTEXT
  5
A0
330
1F
100
AcDbEntity
  8
0
  6
Continuous
 62
     7
100
AcDbMText
 10
101.0453467334
 20
-125.9370706876
 30
0.0
 40
4.83362
 41
0.0
 71
     1
 72
     1
  1
Somente para fins de instruçăo.
  7
SLDTEXTSTYLE0
 73
     1
 44
1.0
  0
ENDSEC
  0
SECTION
  2
OBJECTS
  0
DICTIONARY
  5
C
330
0
100
AcDbDictionary
281
     1
  3
ACAD_GROUP
350
D
  3
ACAD_LAYOUT
350
1A
  3
ACAD_MLINESTYLE
350
17
  3
ACAD_PLOTSETTINGS
350
19
  3
ACAD_PLOTSTYLENAME
350
E
  3
ACAD_SCALELIST
350
47
  3
DWGPROPS
350
A1
  0
DICTIONARY
  5
D
102
{ACAD_REACTORS
330
C
102
}
330
C
100
AcDbDictionary
281
     1
  0
DICTIONARY
  5
1A
102
{ACAD_REACTORS
330
C
102
}
330
C
100
AcDbDictionary
281
     1
  3
Layout1
350
1E
  3
Layout2
350
26
  3
Model
350
22
  0
DICTIONARY
  5
17
102
{ACAD_REACTORS
330
C
102
}
330
C
100
AcDbDictionary
281
     1
  3
Standard
350
18
  0
DICTIONARY
  5
19
102
{ACAD_REACTORS
330
C
102
}
330
C
100
AcDbDictionary
281
     1
  0
ACDBDICTIONARYWDFLT
  5
E
102
{ACAD_REACTORS
330
C
102
}
330
C
100
AcDbDictionary
281
     1
  3
Normal
350
F
100
AcDbDictionaryWithDefault
340
F
  0
DICTIONARY
  5
47
102
{ACAD_REACTORS
330
C
102
}
330
C
100
AcDbDictionary
281
     1
  3
A0
350
48
  3
A1
350
49
  3
A2
350
4A
  3
A3
350
4B
  3
A4
350
4C
  3
A5
350
4D
  3
A6
350
4E
  3
A7
350
4F
  3
A8
350
50
  3
A9
350
51
  3
B0
350
52
  3
B1
350
53
  3
B2
350
54
  3
B3
350
55
  3
B4
350
56
  3
B5
350
57
  3
B6
350
58
  0
XRECORD
  5
A1
102
{ACAD_REACTORS
330
C
102
}
330
C
100
AcDbXrecord
280
     1
  1
DWGPROPS COOKIE
  2

  3

  4

  6

  7

  8
Rodolfo Otávio
  9

300
=
301
=
302
=
303
=
304
=
305
=
306
=
307
=
308
=
309
=
 40
0.0
 41
2460404.851301598
 42
2460404.851322581
  1

 90
        0
  0
LAYOUT
  5
1E
102
{ACAD_REACTORS
330
1A
102
}
330
1A
100
AcDbPlotSettings
  1

  2
none_device
  4

  6

 40
0.0
 41
0.0
 42
0.0
 43
0.0
 44
0.0
 45
0.0
 46
0.0
 47
0.0
 48
0.0
 49
0.0
140
0.0
141
0.0
142
1.0
143
1.0
 70
   688
 72
     1
 73
     0
 74
     5
  7

 75
    16
147
1.0
148
0.0
149
0.0
100
AcDbLayout
  1
Layout1
 70
     1
 71
     1
 10
0.0
 20
0.0
 11
420.0
 21
297.0
 12
0.0
 22
0.0
 32
0.0
 14
1.0000000000E+20
 24
1.0000000000E+20
 34
1.0000000000E+20
 15
-1.0000000000E+20
 25
-1.0000000000E+20
 35
-1.0000000000E+20
146
0.0
 13
0.0
 23
0.0
 33
0.0
 16
1.0
 26
0.0
 36
0.0
 17
0.0
 27
1.0
 37
0.0
 76
     0
330
1B
  0
LAYOUT
  5
26
102
{ACAD_REACTORS
330
1A
102
}
330
1A
100
AcDbPlotSettings
  1

  2
none_device
  4

  6

 40
0.0
 41
0.0
 42
0.0
 43
0.0
 44
0.0
 45
0.0
 46
0.0
 47
0.0
 48
0.0
 49
0.0
140
0.0
141
0.0
142
1.0
143
1.0
 70
   688
 72
     1
 73
     0
 74
     5
  7

 75
    16
147
1.0
148
0.0
149
0.0
100
AcDbLayout
  1
Layout2
 70
     1
 71
     2
 10
0.0
 20
0.0
 11
0.0
 21
0.0
 12
0.0
 22
0.0
 32
0.0
 14
0.0
 24
0.0
 34
0.0
 15
0.0
 25
0.0
 35
0.0
146
0.0
 13
0.0
 23
0.0
 33
0.0
 16
1.0
 26
0.0
 36
0.0
 17
0.0
 27
1.0
 37
0.0
 76
     0
330
23
  0
LAYOUT
  5
22
102
{ACAD_REACTORS
330
1A
102
}
330
1A
100
AcDbPlotSettings
  1

  2
none_device
  4
ANSI_A_(11.00_x_8.50_Inches)
  6

 40
6.35
 41
19.05
 42
6.35000508
 43
19.05000254
 44
279.4
 45
215.9
 46
-64.343067949
 47
124.9025445787
 48
0.0
 49
0.0
140
0.0
141
0.0
142
0.0231400221
143
1.0
 70
  1696
 72
     0
 73
     0
 74
     0
  7

 75
     0
147
0.0179189148
148
-1300.4909072572
149
0.0
100
AcDbLayout
  1
Model
 70
     1
 71
     0
 10
0.0
 20
0.0
 11
420.0
 21
297.0
 12
0.0
 22
0.0
 32
0.0
 14
101.0453467334
 24
-117.6670742959
 34
0.0
 15
571.6585542806
 25
-4.8412847543
 35
0.0
146
0.0
 13
0.0
 23
0.0
 33
0.0
 16
1.0
 26
0.0
 36
0.0
 17
0.0
 27
1.0
 37
0.0
 76
     0
330
1F
331
29
  0
MLINESTYLE
  5
18
102
{ACAD_REACTORS
330
17
102
}
330
17
100
AcDbMlineStyle
  2
Standard
 70
     0
  3

 62
   256
 51
90.0
 52
90.0
 71
     2
 49
0.5
 62
   256
  6
BYLAYER
 49
-0.5
 62
   256
  6
BYLAYER
  0
ACDBPLACEHOLDER
  5
F
102
{ACAD_REACTORS
330
E
102
}
330
E
  0
SCALE
  5
48
102
{ACAD_REACTORS
330
47
102
}
330
47
100
AcDbScale
 70
     0
300
1:1
140
1.0
141
1.0
290
     1
  0
SCALE
  5
49
102
{ACAD_REACTORS
330
47
102
}
330
47
100
AcDbScale
 70
     0
300
1:2
140
1.0
141
2.0
290
     0
  0
SCALE
  5
4A
102
{ACAD_REACTORS
330
47
102
}
330
47
100
AcDbScale
 70
     0
300
1:4
140
1.0
141
4.0
290
     0
  0
SCALE
  5
4B
102
{ACAD_REACTORS
330
47
102
}
330
47
100
AcDbScale
 70
     0
300
1:5
140
1.0
141
5.0
290
     0
  0
SCALE
  5
4C
102
{ACAD_REACTORS
330
47
102
}
330
47
100
AcDbScale
 70
     0
300
1:8
140
1.0
141
8.0
290
     0
  0
SCALE
  5
4D
102
{ACAD_REACTORS
330
47
102
}
330
47
100
AcDbScale
 70
     0
300
1:10
140
1.0
141
10.0
290
     0
  0
SCALE
  5
4E
102
{ACAD_REACTORS
330
47
102
}
330
47
100
AcDbScale
 70
     0
300
1:16
140
1.0
141
16.0
290
     0
  0
SCALE
  5
4F
102
{ACAD_REACTORS
330
47
102
}
330
47
100
AcDbScale
 70
     0
300
1:20
140
1.0
141
20.0
290
     0
  0
SCALE
  5
50
102
{ACAD_REACTORS
330
47
102
}
330
47
100
AcDbScale
 70
     0
300
1:30
140
1.0
141
30.0
290
     0
  0
SCALE
  5
51
102
{ACAD_REACTORS
330
47
102
}
330
47
100
AcDbScale
 70
     0
300
1:40
140
1.0
141
40.0
290
     0
  0
SCALE
  5
52
102
{ACAD_REACTORS
330
47
102
}
330
47
100
AcDbScale
 70
     0
300
1:50
140
1.0
141
50.0
290
     0
  0
SCALE
  5
53
102
{ACAD_REACTORS
330
47
102
}
330
47
100
AcDbScale
 70
     0
300
1:100
140
1.0
141
100.0
290
     0
  0
SCALE
  5
54
102
{ACAD_REACTORS
330
47
102
}
330
47
100
AcDbScale
 70
     0
300
2:1
140
2.0
141
1.0
290
     0
  0
SCALE
  5
55
102
{ACAD_REACTORS
330
47
102
}
330
47
100
AcDbScale
 70
     0
300
4:1
140
4.0
141
1.0
290
     0
  0
SCALE
  5
56
102
{ACAD_REACTORS
330
47
102
}
330
47
100
AcDbScale
 70
     0
300
8:1
140
8.0
141
1.0
290
     0
  0
SCALE
  5
57
102
{ACAD_REACTORS
330
47
102
}
330
47
100
AcDbScale
 70
     0
300
10:1
140
10.0
141
1.0
290
     0
  0
SCALE
  5
58
102
{ACAD_REACTORS
330
47
102
}
330
47
100
AcDbScale
 70
     0
300
100:1
140
100.0
141
1.0
290
     0
  0
ENDSEC
  0
EOF
