  0
SECTION
  2
HEADER
  9
$ACADVER
  1
AC1021
  9
$ACADMAINTVER
 70
    25
  9
$DWGCODEPAGE
  3
ANSI_1252
  9
$COMMENTS
  1
File was created by Mastercam X5
  9
$INSBASE
 10
0.0
 20
0.0
 30
0.0
  9
$EXTMIN
 10
58.515625
 20
98.18942417401095
 30
0.0
  9
$EXTMAX
 10
758.6628214
 20
791.5963500976562
 30
0.0
  9
$LIMMIN
 10
0.0
 20
0.0
  9
$LIMMAX
 10
12.0
 20
9.0
  9
$ORTHOMODE
 70
     0
  9
$REGENMODE
 70
     1
  9
$FILLMODE
 70
     1
  9
$QTEXTMODE
 70
     0
  9
$MIRRTEXT
 70
     1
  9
$LTSCALE
 40
1.0
  9
$ATTMODE
 70
     1
  9
$TEXTSIZE
 40
0.2
  9
$TRACEWID
 40
0.05
  9
$TEXTSTYLE
  7
Standard
  9
$CLAYER
  8
0
  9
$CELTYPE
  6
ByLayer
  9
$CECOLOR
 62
   256
  9
$CELTSCALE
 40
1.0
  9
$DISPSILH
 70
     0
  9
$DIMSCALE
 40
1.0
  9
$DIMASZ
 40
0.18
  9
$DIMEXO
 40
0.0625
  9
$DIMDLI
 40
0.38
  9
$DIMRND
 40
0.0
  9
$DIMDLE
 40
0.0
  9
$DIMEXE
 40
0.18
  9
$DIMTP
 40
0.0
  9
$DIMTM
 40
0.0
  9
$DIMTXT
 40
0.18
  9
$DIMCEN
 40
0.09
  9
$DIMTSZ
 40
0.0
  9
$DIMTOL
 70
     0
  9
$DIMLIM
 70
     0
  9
$DIMTIH
 70
     1
  9
$DIMTOH
 70
     1
  9
$DIMSE1
 70
     0
  9
$DIMSE2
 70
     0
  9
$DIMTAD
 70
     0
  9
$DIMZIN
 70
     0
  9
$DIMBLK
  1

  9
$DIMASO
 70
     1
  9
$DIMSHO
 70
     1
  9
$DIMPOST
  1

  9
$DIMAPOST
  1

  9
$DIMALT
 70
     0
  9
$DIMALTD
 70
     2
  9
$DIMALTF
 40
25.4
  9
$DIMLFAC
 40
1.0
  9
$DIMTOFL
 70
     0
  9
$DIMTVP
 40
0.0
  9
$DIMTIX
 70
     0
  9
$DIMSOXD
 70
     0
  9
$DIMSAH
 70
     0
  9
$DIMBLK1
  1

  9
$DIMBLK2
  1

  9
$DIMSTYLE
  2
Standard
  9
$DIMCLRD
 70
     0
  9
$DIMCLRE
 70
     0
  9
$DIMCLRT
 70
     0
  9
$DIMTFAC
 40
1.0
  9
$DIMGAP
 40
0.09
  9
$DIMJUST
 70
     0
  9
$DIMSD1
 70
     0
  9
$DIMSD2
 70
     0
  9
$DIMTOLJ
 70
     1
  9
$DIMTZIN
 70
     0
  9
$DIMALTZ
 70
     0
  9
$DIMALTTZ
 70
     0
  9
$DIMUPT
 70
     0
  9
$DIMDEC
 70
     4
  9
$DIMTDEC
 70
     4
  9
$DIMALTU
 70
     2
  9
$DIMALTTD
 70
     2
  9
$DIMTXSTY
  7
Standard
  9
$DIMAUNIT
 70
     0
  9
$DIMADEC
 70
     0
  9
$DIMALTRND
 40
0.0
  9
$DIMAZIN
 70
     0
  9
$DIMDSEP
 70
    46
  9
$DIMATFIT
 70
     3
  9
$DIMFRAC
 70
     0
  9
$DIMLDRBLK
  1

  9
$DIMLUNIT
 70
     2
  9
$DIMLWD
 70
    -2
  9
$DIMLWE
 70
    -2
  9
$DIMTMOVE
 70
     0
  9
$DIMFXL
 40
1.0
  9
$DIMFXLON
 70
     0
  9
$DIMJOGANG
 40
0.7853981633974483
  9
$DIMTFILL
 70
     0
  9
$DIMTFILLCLR
 70
     0
  9
$DIMARCSYM
 70
     0
  9
$DIMLTYPE
  6

  9
$DIMLTEX1
  6

  9
$DIMLTEX2
  6

  9
$LUNITS
 70
     2
  9
$LUPREC
 70
     4
  9
$SKETCHINC
 40
0.1
  9
$FILLETRAD
 40
0.5
  9
$AUNITS
 70
     0
  9
$AUPREC
 70
     0
  9
$MENU
  1
.
  9
$ELEVATION
 40
0.0
  9
$PELEVATION
 40
0.0
  9
$THICKNESS
 40
0.0
  9
$LIMCHECK
 70
     0
  9
$CHAMFERA
 40
0.5
  9
$CHAMFERB
 40
0.5
  9
$CHAMFERC
 40
1.0
  9
$CHAMFERD
 40
0.0
  9
$SKPOLY
 70
     0
  9
$TDCREATE
 40
2453737.5
  9
$TDUCREATE
 40
2453737.666666667
  9
$TDUPDATE
 40
2460400.53565875
  9
$TDUUPDATE
 40
2460400.702325417
  9
$TDINDWG
 40
0.0000000116
  9
$TDUSRTIMER
 40
0.0000000116
  9
$USRTIMER
 70
     1
  9
$ANGBASE
 50
0.0
  9
$ANGDIR
 70
     0
  9
$PDMODE
 70
     2
  9
$PDSIZE
 40
0.1
  9
$PLINEWID
 40
0.0
  9
$SPLFRAME
 70
     0
  9
$SPLINETYPE
 70
     6
  9
$SPLINESEGS
 70
     8
  9
$HANDSEED
  5
1EE
  9
$SURFTAB1
 70
     6
  9
$SURFTAB2
 70
     6
  9
$SURFTYPE
 70
     6
  9
$SURFU
 70
     6
  9
$SURFV
 70
     6
  9
$UCSBASE
  2

  9
$UCSNAME
  2

  9
$UCSORG
 10
0.0
 20
0.0
 30
0.0
  9
$UCSXDIR
 10
1.0
 20
0.0
 30
0.0
  9
$UCSYDIR
 10
0.0
 20
1.0
 30
0.0
  9
$UCSORTHOREF
  2

  9
$UCSORTHOVIEW
 70
     0
  9
$UCSORGTOP
 10
0.0
 20
0.0
 30
0.0
  9
$UCSORGBOTTOM
 10
0.0
 20
0.0
 30
0.0
  9
$UCSORGLEFT
 10
0.0
 20
0.0
 30
0.0
  9
$UCSORGRIGHT
 10
0.0
 20
0.0
 30
0.0
  9
$UCSORGFRONT
 10
0.0
 20
0.0
 30
0.0
  9
$UCSORGBACK
 10
0.0
 20
0.0
 30
0.0
  9
$PUCSBASE
  2

  9
$PUCSNAME
  2

  9
$PUCSORG
 10
0.0
 20
0.0
 30
0.0
  9
$PUCSXDIR
 10
1.0
 20
0.0
 30
0.0
  9
$PUCSYDIR
 10
0.0
 20
1.0
 30
0.0
  9
$PUCSORTHOREF
  2

  9
$PUCSORTHOVIEW
 70
     0
  9
$PUCSORGTOP
 10
0.0
 20
0.0
 30
0.0
  9
$PUCSORGBOTTOM
 10
0.0
 20
0.0
 30
0.0
  9
$PUCSORGLEFT
 10
0.0
 20
0.0
 30
0.0
  9
$PUCSORGRIGHT
 10
0.0
 20
0.0
 30
0.0
  9
$PUCSORGFRONT
 10
0.0
 20
0.0
 30
0.0
  9
$PUCSORGBACK
 10
0.0
 20
0.0
 30
0.0
  9
$USERI1
 70
     0
  9
$USERI2
 70
     0
  9
$USERI3
 70
     0
  9
$USERI4
 70
     0
  9
$USERI5
 70
     0
  9
$USERR1
 40
0.0
  9
$USERR2
 40
0.0
  9
$USERR3
 40
0.0
  9
$USERR4
 40
0.0
  9
$USERR5
 40
0.0
  9
$WORLDVIEW
 70
     1
  9
$SHADEDGE
 70
     3
  9
$SHADEDIF
 70
    70
  9
$TILEMODE
 70
     1
  9
$MAXACTVP
 70
    64
  9
$PINSBASE
 10
0.0
 20
0.0
 30
0.0
  9
$PLIMCHECK
 70
     0
  9
$PEXTMIN
 10
1.000000000000000E+20
 20
1.000000000000000E+20
 30
1.000000000000000E+20
  9
$PEXTMAX
 10
-1.000000000000000E+20
 20
-1.000000000000000E+20
 30
-1.000000000000000E+20
  9
$PLIMMIN
 10
0.0
 20
0.0
  9
$PLIMMAX
 10
12.0
 20
9.0
  9
$UNITMODE
 70
     0
  9
$VISRETAIN
 70
     1
  9
$PLINEGEN
 70
     0
  9
$PSLTSCALE
 70
     1
  9
$TREEDEPTH
 70
  3020
  9
$CMLSTYLE
  2
Standard
  9
$CMLJUST
 70
     0
  9
$CMLSCALE
 40
1.0
  9
$PROXYGRAPHICS
 70
     1
  9
$MEASUREMENT
 70
     0
  9
$CELWEIGHT
370
    -1
  9
$ENDCAPS
280
     0
  9
$JOINSTYLE
280
     0
  9
$LWDISPLAY
290
     0
  9
$INSUNITS
 70
     1
  9
$HYPERLINKBASE
  1

  9
$STYLESHEET
  1

  9
$XEDIT
290
     1
  9
$CEPSNTYPE
380
     0
  9
$PSTYLEMODE
290
     1
  9
$FINGERPRINTGUID
  2
{E5374136-45C6-40FC-B4E6-E73ED75A7D5D}
  9
$VERSIONGUID
  2
{FAEB1C32-E019-11D5-929B-00C0DF256EC4}
  9
$EXTNAMES
290
     1
  9
$PSVPSCALE
 40
0.0
  9
$OLESTARTUP
290
     0
  9
$SORTENTS
280
   127
  9
$INDEXCTL
280
     0
  9
$HIDETEXT
280
     1
  9
$XCLIPFRAME
290
     0
  9
$HALOGAP
280
     0
  9
$OBSCOLOR
 70
   257
  9
$OBSLTYPE
280
     0
  9
$INTERSECTIONDISPLAY
280
     0
  9
$INTERSECTIONCOLOR
 70
   257
  9
$DIMASSOC
280
     2
  9
$PROJECTNAME
  1

  9
$CAMERADISPLAY
290
     0
  9
$LENSLENGTH
 40
50.0
  9
$CAMERAHEIGHT
 40
0.0
  9
$STEPSPERSEC
 40
2.0
  9
$STEPSIZE
 40
6.0
  9
$3DDWFPREC
 40
2.0
  9
$PSOLWIDTH
 40
0.25
  9
$PSOLHEIGHT
 40
4.0
  9
$LOFTANG1
 40
1.570796326794897
  9
$LOFTANG2
 40
1.570796326794897
  9
$LOFTMAG1
 40
0.0
  9
$LOFTMAG2
 40
0.0
  9
$LOFTPARAM
 70
     7
  9
$LOFTNORMALS
280
     1
  9
$LATITUDE
 40
37.795
  9
$LONGITUDE
 40
-122.394
  9
$NORTHDIRECTION
 40
0.0
  9
$TIMEZONE
 70
 -8000
  9
$LIGHTGLYPHDISPLAY
280
     1
  9
$TILEMODELIGHTSYNCH
280
     1
  9
$SOLIDHIST
280
     1
  9
$SHOWHIST
280
     1
  9
$DWFFRAME
280
     2
  9
$DGNFRAME
280
     2
  9
$REALWORLDSCALE
290
     1
  9
$INTERFERECOLOR
 62
   256
  9
$CSHADOW
280
     0
  9
$SHADOWPLANELOCATION
 40
0.0
  0
ENDSEC
  0
SECTION
  2
CLASSES
  0
CLASS
  1
ACDBDICTIONARYWDFLT
  2
AcDbDictionaryWithDefault
  3
ObjectDBX Classes
 90
        0
 91
        4
280
     0
281
     0
  0
CLASS
  1
VISUALSTYLE
  2
AcDbVisualStyle
  3
ObjectDBX Classes
 90
     4095
 91
        4
280
     0
281
     0
  0
CLASS
  1
MATERIAL
  2
AcDbMaterial
  3
ObjectDBX Classes
 90
     1153
 91
        4
280
     0
281
     0
  0
ENDSEC
  0
SECTION
  2
TABLES
  0
TABLE
  2
VPORT
  5
8
330
0
100
AcDbSymbolTable
 70
     1
  0
VPORT
  5
29
330
8
100
AcDbSymbolTableRecord
100
AcDbViewportTableRecord
  2
*Active
 70
     0
 10
0.0
 20
0.0
 11
1.0
 21
1.0
 12
10.42990654205607
 22
4.5
 13
0.0
 23
0.0
 14
0.5
 24
0.5
 15
0.5
 25
0.5
 16
0.0
 26
0.0
 36
1.0
 17
0.0
 27
0.0
 37
0.0
 40
9.0
 41
1.972972972850329
 42
50.0
 43
0.0
 44
0.0
 50
0.0
 51
0.0
 71
     0
 72
   100
 73
     1
 74
     3
 75
     0
 76
     0
 77
     0
 78
     0
281
     0
 65
     1
110
0.0
120
0.0
130
0.0
111
1.0
121
0.0
131
0.0
112
0.0
122
1.0
132
0.0
 79
     0
146
0.0
 60
     3
 61
     5
292
     1
282
     1
141
0.0
142
0.0
 63
   250
  0
ENDTAB
  0
TABLE
  2
LTYPE
  5
5
330
0
100
AcDbSymbolTable
 70
     5
  0
LTYPE
  5
14
330
5
100
AcDbSymbolTableRecord
100
AcDbLinetypeTableRecord
  2
ByBlock
 70
     0
  3

 72
    65
 73
     0
 40
0.0
  0
LTYPE
  5
15
330
5
100
AcDbSymbolTableRecord
100
AcDbLinetypeTableRecord
  2
ByLayer
 70
     0
  3

 72
    65
 73
     0
 40
0.0
  0
LTYPE
  5
16
330
5
100
AcDbSymbolTableRecord
100
AcDbLinetypeTableRecord
  2
Continuous
 70
     0
  3
Solid line
 72
    65
 73
     0
 40
0.0
  0
LTYPE
  5
40
330
5
100
AcDbSymbolTableRecord
100
AcDbLinetypeTableRecord
  2
Continuous2
 70
     0
  3
Solid Line
 72
    65
 73
     0
 40
0.0
  0
LTYPE
  5
41
330
5
100
AcDbSymbolTableRecord
100
AcDbLinetypeTableRecord
  2
DASHED
 70
     0
  3
__ __ __ __ __ __ __ __ __ __ __ __ __ __ __ __
 72
    83
 73
     2
 40
0.5
 49
0.375
 74
     0
 49
-0.125
 74
     0
  0
LTYPE
  5
42
330
5
100
AcDbSymbolTableRecord
100
AcDbLinetypeTableRecord
  2
CENTER
 70
     0
  3
____ _ ____ _ ____ _ ____ _ ____ _ ____ _ ____ _
 72
    83
 73
     4
 40
1.0
 49
0.625
 74
     0
 49
-0.125
 74
     0
 49
0.125
 74
     0
 49
-0.125
 74
     0
  0
LTYPE
  5
43
330
5
100
AcDbSymbolTableRecord
100
AcDbLinetypeTableRecord
  2
PHANTOM
 70
     0
  3
___ _ _ ___ _ _ ___ _ _ ___ _ _ ___ _ _ ___ _ _ 
 72
    83
 73
     6
 40
1.0
 49
0.5
 74
     0
 49
-0.1
 74
     0
 49
0.1
 74
     0
 49
-0.1
 74
     0
 49
0.1
 74
     0
 49
-0.1
 74
     0
  0
ENDTAB
  0
TABLE
  2
LAYER
  5
2
330
0
100
AcDbSymbolTable
 70
     2
  0
LAYER
  5
10
330
2
100
AcDbSymbolTableRecord
100
AcDbLayerTableRecord
  2
0
 70
     0
 62
     7
  6
Continuous
370
    -3
390
F
347
3E
  0
LAYER
  5
44
330
2
100
AcDbSymbolTableRecord
100
AcDbLayerTableRecord
  2
Nível_Padrão
 70
     0
 62
     1
  6
Continuous
370
    -3
390
F
347
3E
  0
ENDTAB
  0
TABLE
  2
STYLE
  5
3
330
0
100
AcDbSymbolTable
 70
     1
  0
STYLE
  5
11
330
3
100
AcDbSymbolTableRecord
100
AcDbTextStyleTableRecord
  2
Standard
 70
     0
 40
0.0
 41
1.0
 50
0.0
 71
     0
 42
0.2
  3
txt
  4

  0
ENDTAB
  0
TABLE
  2
VIEW
  5
6
330
0
100
AcDbSymbolTable
 70
     0
  0
ENDTAB
  0
TABLE
  2
UCS
  5
7
330
0
100
AcDbSymbolTable
 70
     0
  0
ENDTAB
  0
TABLE
  2
APPID
  5
9
330
0
100
AcDbSymbolTable
 70
     2
  0
APPID
  5
12
330
9
100
AcDbSymbolTableRecord
100
AcDbRegAppTableRecord
  2
ACAD
 70
     0
  0
APPID
  5
3F
330
9
100
AcDbSymbolTableRecord
100
AcDbRegAppTableRecord
  2
Mastercam X5
 70
     0
  0
ENDTAB
  0
TABLE
  2
DIMSTYLE
  5
A
330
0
100
AcDbSymbolTable
 70
     1
100
AcDbDimStyleTable
  0
DIMSTYLE
105
27
330
A
100
AcDbSymbolTableRecord
100
AcDbDimStyleTableRecord
  2
Standard
 70
     0
178
     0
340
11
  0
ENDTAB
  0
TABLE
  2
BLOCK_RECORD
  5
1
330
0
100
AcDbSymbolTable
 70
     1
  0
BLOCK_RECORD
  5
1F
330
1
100
AcDbSymbolTableRecord
100
AcDbBlockTableRecord
  2
*Model_Space
340
22
 70
     0
280
     1
281
     0
  0
BLOCK_RECORD
  5
1B
330
1
100
AcDbSymbolTableRecord
100
AcDbBlockTableRecord
  2
*Paper_Space
340
1E
 70
     0
280
     1
281
     0
  0
BLOCK_RECORD
  5
23
330
1
100
AcDbSymbolTableRecord
100
AcDbBlockTableRecord
  2
*Paper_Space0
340
26
 70
     0
280
     1
281
     0
  0
ENDTAB
  0
ENDSEC
  0
SECTION
  2
BLOCKS
  0
BLOCK
  5
20
330
1F
100
AcDbEntity
  8
0
100
AcDbBlockBegin
  2
*Model_Space
 70
     0
 10
0.0
 20
0.0
 30
0.0
  3
*Model_Space
  1

  0
ENDBLK
  5
21
330
1F
100
AcDbEntity
  8
0
100
AcDbBlockEnd
  0
BLOCK
  5
1C
330
1B
100
AcDbEntity
 67
     1
  8
0
100
AcDbBlockBegin
  2
*Paper_Space
 70
     0
 10
0.0
 20
0.0
 30
0.0
  3
*Paper_Space
  1

  0
ENDBLK
  5
1D
330
1B
100
AcDbEntity
 67
     1
  8
0
100
AcDbBlockEnd
  0
BLOCK
  5
24
330
23
100
AcDbEntity
  8
0
100
AcDbBlockBegin
  2
*Paper_Space0
 70
     0
 10
0.0
 20
0.0
 30
0.0
  3
*Paper_Space0
  1

  0
ENDBLK
  5
25
330
23
100
AcDbEntity
  8
0
100
AcDbBlockEnd
  0
ENDSEC
  0
SECTION
  2
ENTITIES
  0
LINE
  5
45
330
1F
100
AcDbEntity
  8
Nível_Padrão
  6
Continuous2
 62
     1
420
 16711680
370
    -3
100
AcDbLine
 10
58.515625
 20
134.12071218
 30
0.0
 11
183.00333527
 21
134.12071218
 31
0.0
  0
ARC
  5
46
330
1F
100
AcDbEntity
  8
Nível_Padrão
  6
Continuous2
 62
     1
420
 16711680
370
    -3
100
AcDbCircle
 10
206.2828219312921
 20
123.6963228556563
 30
0.0
 40
25.50690871114661
100
AcDbArc
 50
155.8775026802086
 51
187.8756609676443
  0
LINE
  5
47
330
1F
100
AcDbEntity
  8
Nível_Padrão
  6
Continuous2
 62
     1
420
 16711680
370
    -3
100
AcDbLine
 10
181.01650051
 20
120.20127009
 30
0.0
 11
181.06028531
 21
119.90489781
 31
0.0
  0
LINE
  5
48
330
1F
100
AcDbEntity
  8
Nível_Padrão
  6
Continuous2
 62
     1
420
 16711680
370
    -3
100
AcDbLine
 10
181.06028531
 20
119.90489781
 30
0.0
 11
181.08526841
 21
119.73579121
 31
0.0
  0
ARC
  5
49
330
1F
100
AcDbEntity
  8
Nível_Padrão
  6
Continuous2
 62
     1
420
 16711680
370
    -3
100
AcDbCircle
 10
206.2828213788914
 20
123.696322914355
 30
0.0
 40
25.50691057343653
100
AcDbArc
 50
188.9326232808183
 51
237.2198878786418
  0
ARC
  5
4A
330
1F
100
AcDbEntity
  8
Nível_Padrão
  6
Continuous2
 62
     1
420
 16711680
370
    -3
100
AcDbCircle
 10
206.2828214065827
 20
123.6963229059619
 30
0.0
 40
25.5069105813725
100
AcDbArc
 50
237.2198878161371
 51
285.5071524139606
  0
ARC
  5
4B
330
1F
100
AcDbEntity
  8
Nível_Padrão
  6
Continuous2
 62
     1
420
 16711680
370
    -3
100
AcDbCircle
 10
206.2828214252842
 20
123.6963228993255
 30
0.0
 40
25.50691056997773
100
AcDbArc
 50
285.5071523774666
 51
333.7944169752901
  0
ARC
  5
4C
330
1F
100
AcDbEntity
  8
Nível_Padrão
  6
Continuous2
 62
     1
420
 16711680
370
    -3
100
AcDbCircle
 10
206.2828214260907
 20
123.69632292518
 30
0.0
 40
25.50691058067124
100
AcDbArc
 50
333.794416922383
 51
22.08168152020654
  0
LINE
  5
4D
330
1F
100
AcDbEntity
  8
Nível_Padrão
  6
Continuous2
 62
     1
420
 16711680
370
    -3
100
AcDbLine
 10
229.91877127
 20
133.28508522
 30
0.0
 11
230.00159309
 21
133.62752468
 31
0.0
  0
LINE
  5
4E
330
1F
100
AcDbEntity
  8
Nível_Padrão
  6
Continuous2
 62
     1
420
 16711680
370
    -3
100
AcDbLine
 10
230.00159309
 20
133.62752468
 30
0.0
 11
230.0999384
 21
134.00352468
 31
0.0
  0
LINE
  5
4F
330
1F
100
AcDbEntity
  8
Nível_Padrão
  6
Continuous2
 62
     1
420
 16711680
370
    -3
100
AcDbLine
 10
230.0999384
 20
134.00352468
 30
0.0
 11
251.25
 21
134.00352468
 31
0.0
  0
LINE
  5
50
330
1F
100
AcDbEntity
  8
Nível_Padrão
  6
Continuous2
 62
     1
420
 16711680
370
    -3
100
AcDbLine
 10
251.25
 20
134.00352468
 30
0.0
 11
251.25
 21
183.37952468
 31
0.0
  0
LINE
  5
51
330
1F
100
AcDbEntity
  8
Nível_Padrão
  6
Continuous2
 62
     1
420
 16711680
370
    -3
100
AcDbLine
 10
251.25
 20
183.37952468
 30
0.0
 11
270.25032517
 21
183.37952468
 31
0.0
  0
LINE
  5
52
330
1F
100
AcDbEntity
  8
Nível_Padrão
  6
Continuous2
 62
     1
420
 16711680
370
    -3
100
AcDbLine
 10
270.45110931
 20
183.37952468
 30
0.0
 11
270.25032517
 21
183.37952468
 31
0.0
  0
LINE
  5
53
330
1F
100
AcDbEntity
  8
Nível_Padrão
  6
Continuous2
 62
     1
420
 16711680
370
    -3
100
AcDbLine
 10
270.25032517
 20
183.37952468
 30
0.0
 11
270.45110931
 21
183.37952468
 31
0.0
  0
LINE
  5
54
330
1F
100
AcDbEntity
  8
Nível_Padrão
  6
Continuous2
 62
     1
420
 16711680
370
    -3
100
AcDbLine
 10
270.45110931
 20
183.37952468
 30
0.0
 11
301.875
 21
183.37952468
 31
0.0
  0
LINE
  5
55
330
1F
100
AcDbEntity
  8
Nível_Padrão
  6
Continuous2
 62
     1
420
 16711680
370
    -3
100
AcDbLine
 10
301.875
 20
183.37952468
 30
0.0
 11
301.875
 21
134.00352468
 31
0.0
  0
LINE
  5
56
330
1F
100
AcDbEntity
  8
Nível_Padrão
  6
Continuous2
 62
     1
420
 16711680
370
    -3
100
AcDbLine
 10
301.875
 20
134.00352468
 30
0.0
 11
337.5
 21
134.00352468
 31
0.0
  0
LINE
  5
57
330
1F
100
AcDbEntity
  8
Nível_Padrão
  6
Continuous2
 62
     1
420
 16711680
370
    -3
100
AcDbLine
 10
337.5
 20
134.00352468
 30
0.0
 11
337.5
 21
183.37952468
 31
0.0
  0
LINE
  5
58
330
1F
100
AcDbEntity
  8
Nível_Padrão
  6
Continuous2
 62
     1
420
 16711680
370
    -3
100
AcDbLine
 10
337.5
 20
183.37952468
 30
0.0
 11
417.5
 21
183.37952468
 31
0.0
  0
LINE
  5
59
330
1F
100
AcDbEntity
  8
Nível_Padrão
  6
Continuous2
 62
     1
420
 16711680
370
    -3
100
AcDbLine
 10
417.5
 20
183.37952468
 30
0.0
 11
417.5
 21
134.00352468
 31
0.0
  0
LINE
  5
5A
330
1F
100
AcDbEntity
  8
Nível_Padrão
  6
Continuous2
 62
     1
420
 16711680
370
    -3
100
AcDbLine
 10
417.5
 20
134.00352468
 30
0.0
 11
459.375
 21
134.00352468
 31
0.0
  0
LINE
  5
5B
330
1F
100
AcDbEntity
  8
Nível_Padrão
  6
Continuous2
 62
     1
420
 16711680
370
    -3
100
AcDbLine
 10
459.375
 20
134.00352468
 30
0.0
 11
459.375
 21
183.37952468
 31
0.0
  0
LINE
  5
5C
330
1F
100
AcDbEntity
  8
Nível_Padrão
  6
Continuous2
 62
     1
420
 16711680
370
    -3
100
AcDbLine
 10
459.375
 20
183.37952468
 30
0.0
 11
539.375
 21
183.37952468
 31
0.0
  0
LINE
  5
5D
330
1F
100
AcDbEntity
  8
Nível_Padrão
  6
Continuous2
 62
     1
420
 16711680
370
    -3
100
AcDbLine
 10
539.375
 20
183.37952468
 30
0.0
 11
539.375
 21
134.00352468
 31
0.0
  0
LINE
  5
5E
330
1F
100
AcDbEntity
  8
Nível_Padrão
  6
Continuous2
 62
     1
420
 16711680
370
    -3
100
AcDbLine
 10
539.375
 20
134.00352468
 30
0.0
 11
585.0
 21
134.00352468
 31
0.0
  0
LINE
  5
5F
330
1F
100
AcDbEntity
  8
Nível_Padrão
  6
Continuous2
 62
     1
420
 16711680
370
    -3
100
AcDbLine
 10
585.0
 20
134.00352468
 30
0.0
 11
585.0
 21
183.37952468
 31
0.0
  0
LINE
  5
60
330
1F
100
AcDbEntity
  8
Nível_Padrão
  6
Continuous2
 62
     1
420
 16711680
370
    -3
100
AcDbLine
 10
585.0
 20
183.37952468
 30
0.0
 11
665.0
 21
183.37952468
 31
0.0
  0
LINE
  5
61
330
1F
100
AcDbEntity
  8
Nível_Padrão
  6
Continuous2
 62
     1
420
 16711680
370
    -3
100
AcDbLine
 10
665.0
 20
183.37952468
 30
0.0
 11
665.0
 21
134.00352468
 31
0.0
  0
LINE
  5
62
330
1F
100
AcDbEntity
  8
Nível_Padrão
  6
Continuous2
 62
     1
420
 16711680
370
    -3
100
AcDbLine
 10
665.0
 20
134.00352468
 30
0.0
 11
705.316
 21
134.00352468
 31
0.0
  0
LINE
  5
63
330
1F
100
AcDbEntity
  8
Nível_Padrão
  6
Continuous2
 62
     1
420
 16711680
370
    -3
100
AcDbLine
 10
705.316
 20
134.00352468
 30
0.0
 11
705.316
 21
180.49092278
 31
0.0
  0
LINE
  5
64
330
1F
100
AcDbEntity
  8
Nível_Padrão
  6
Continuous2
 62
     1
420
 16711680
370
    -3
100
AcDbLine
 10
705.316
 20
180.49092278
 30
0.0
 11
646.25
 21
221.25
 31
0.0
  0
LINE
  5
65
330
1F
100
AcDbEntity
  8
Nível_Padrão
  6
Continuous2
 62
     1
420
 16711680
370
    -3
100
AcDbLine
 10
646.25
 20
221.25
 30
0.0
 11
733.6628214
 21
221.25
 31
0.0
  0
LINE
  5
66
330
1F
100
AcDbEntity
  8
Nível_Padrão
  6
Continuous2
 62
     1
420
 16711680
370
    -3
100
AcDbLine
 10
733.6628214
 20
221.25
 30
0.0
 11
758.6628214
 21
221.25
 31
0.0
  0
LINE
  5
67
330
1F
100
AcDbEntity
  8
Nível_Padrão
  6
Continuous2
 62
     1
420
 16711680
370
    -3
100
AcDbLine
 10
758.6628214
 20
221.25
 30
0.0
 11
758.6628214
 21
384.09176399
 31
0.0
  0
LINE
  5
68
330
1F
100
AcDbEntity
  8
Nível_Padrão
  6
Continuous2
 62
     1
420
 16711680
370
    -3
100
AcDbLine
 10
733.6628214
 20
384.09176399
 30
0.0
 11
603.32426803
 21
384.09176399
 31
0.0
  0
LINE
  5
69
330
1F
100
AcDbEntity
  8
Nível_Padrão
  6
Continuous2
 62
     1
420
 16711680
370
    -3
100
AcDbLine
 10
603.32426803
 20
384.09176399
 30
0.0
 11
603.32426803
 21
579.12071218
 31
0.0
  0
LINE
  5
6A
330
1F
100
AcDbEntity
  8
Nível_Padrão
  6
Continuous2
 62
     1
420
 16711680
370
    -3
100
AcDbLine
 10
603.32426803
 20
579.12071218
 30
0.0
 11
567.15024911
 21
579.12071218
 31
0.0
  0
LINE
  5
6B
330
1F
100
AcDbEntity
  8
Nível_Padrão
  6
Continuous2
 62
     1
420
 16711680
370
    -3
100
AcDbLine
 10
567.15024911
 20
579.12071218
 30
0.0
 11
481.8670293
 21
579.12071218
 31
0.0
  0
LINE
  5
6C
330
1F
100
AcDbEntity
  8
Nível_Padrão
  6
Continuous2
 62
     1
420
 16711680
370
    -3
100
AcDbLine
 10
481.8670293
 20
579.12071218
 30
0.0
 11
445.78079765
 21
579.12071218
 31
0.0
  0
LINE
  5
6D
330
1F
100
AcDbEntity
  8
Nível_Padrão
  6
Continuous2
 62
     1
420
 16711680
370
    -3
100
AcDbLine
 10
445.78079765
 20
579.12071218
 30
0.0
 11
177.14557936
 21
259.68315547
 31
0.0
  0
LINE
  5
6E
330
1F
100
AcDbEntity
  8
Nível_Padrão
  6
Continuous2
 62
     1
420
 16711680
370
    -3
100
AcDbLine
 10
177.14557936
 20
259.68315547
 30
0.0
 11
99.88474298
 21
223.56247901
 31
0.0
  0
LINE
  5
6F
330
1F
100
AcDbEntity
  8
Nível_Padrão
  6
Continuous2
 62
     1
420
 16711680
370
    -3
100
AcDbLine
 10
99.88474298
 20
223.56247901
 30
0.0
 11
82.7671092
 21
217.95110204
 31
0.0
  0
ARC
  5
70
330
1F
100
AcDbEntity
  8
Nível_Padrão
  6
Continuous2
 62
     1
420
 16711680
370
    -3
100
AcDbCircle
 10
95.22720720788787
 20
179.9412879821355
 30
0.0
 40
40.00000008849509
100
AcDbArc
 50
108.1497984204937
 51
156.0896428642413
  0
LINE
  5
71
330
1F
100
AcDbEntity
  8
Nível_Padrão
  6
Continuous2
 62
     1
420
 16711680
370
    -3
100
AcDbLine
 10
58.65997895
 20
196.15356187
 30
0.0
 11
58.515625
 21
195.82397473
 31
0.0
  0
LINE
  5
72
330
1F
100
AcDbEntity
  8
Nível_Padrão
  6
Continuous2
 62
     1
420
 16711680
370
    -3
100
AcDbLine
 10
58.515625
 20
195.82397473
 30
0.0
 11
58.515625
 21
134.12071218
 31
0.0
  0
LINE
  5
73
330
1F
100
AcDbEntity
  8
Nível_Padrão
  6
Continuous2
 62
     1
420
 16711680
370
    -3
100
AcDbLine
 10
58.515625
 20
134.12071218
 30
0.0
 11
58.515625
 21
195.82397473
 31
0.0
  0
LINE
  5
74
330
1F
100
AcDbEntity
  8
Nível_Padrão
  6
Continuous2
 62
     1
420
 16711680
370
    -3
100
AcDbLine
 10
688.62344934
 20
159.27492004
 30
0.0
 11
688.69737407
 21
158.98741645
 31
0.0
  0
LINE
  5
75
330
1F
100
AcDbEntity
  8
Nível_Padrão
  6
Continuous2
 62
     1
420
 16711680
370
    -3
100
AcDbLine
 10
688.69737407
 20
158.98741645
 30
0.0
 11
688.79825488
 21
158.71178929
 31
0.0
  0
LINE
  5
76
330
1F
100
AcDbEntity
  8
Nível_Padrão
  6
Continuous2
 62
     1
420
 16711680
370
    -3
100
AcDbLine
 10
688.79825488
 20
158.71178929
 30
0.0
 11
688.92458381
 21
158.44954654
 31
0.0
  0
LINE
  5
77
330
1F
100
AcDbEntity
  8
Nível_Padrão
  6
Continuous2
 62
     1
420
 16711680
370
    -3
100
AcDbLine
 10
688.92458381
 20
158.44954654
 30
0.0
 11
689.07485288
 21
158.20219615
 31
0.0
  0
LINE
  5
78
330
1F
100
AcDbEntity
  8
Nível_Padrão
  6
Continuous2
 62
     1
420
 16711680
370
    -3
100
AcDbLine
 10
689.07485288
 20
158.20219615
 30
0.0
 11
689.24755417
 21
157.9712461
 31
0.0
  0
LINE
  5
79
330
1F
100
AcDbEntity
  8
Nível_Padrão
  6
Continuous2
 62
     1
420
 16711680
370
    -3
100
AcDbLine
 10
689.24755417
 20
157.9712461
 30
0.0
 11
689.44117966
 21
157.75820434
 31
0.0
  0
LINE
  5
7A
330
1F
100
AcDbEntity
  8
Nível_Padrão
  6
Continuous2
 62
     1
420
 16711680
370
    -3
100
AcDbLine
 10
689.44117966
 20
157.75820434
 30
0.0
 11
689.65422143
 21
157.56457884
 31
0.0
  0
LINE
  5
7B
330
1F
100
AcDbEntity
  8
Nível_Padrão
  6
Continuous2
 62
     1
420
 16711680
370
    -3
100
AcDbLine
 10
689.65422143
 20
157.56457884
 30
0.0
 11
689.88517148
 21
157.39187756
 31
0.0
  0
LINE
  5
7C
330
1F
100
AcDbEntity
  8
Nível_Padrão
  6
Continuous2
 62
     1
420
 16711680
370
    -3
100
AcDbLine
 10
689.88517148
 20
157.39187756
 30
0.0
 11
690.13252186
 21
157.24160848
 31
0.0
  0
LINE
  5
7D
330
1F
100
AcDbEntity
  8
Nível_Padrão
  6
Continuous2
 62
     1
420
 16711680
370
    -3
100
AcDbLine
 10
690.13252186
 20
157.24160848
 30
0.0
 11
690.39476461
 21
157.11527955
 31
0.0
  0
LINE
  5
7E
330
1F
100
AcDbEntity
  8
Nível_Padrão
  6
Continuous2
 62
     1
420
 16711680
370
    -3
100
AcDbLine
 10
690.39476461
 20
157.11527955
 30
0.0
 11
690.67039178
 21
157.01439874
 31
0.0
  0
LINE
  5
7F
330
1F
100
AcDbEntity
  8
Nível_Padrão
  6
Continuous2
 62
     1
420
 16711680
370
    -3
100
AcDbLine
 10
690.67039178
 20
157.01439874
 30
0.0
 11
690.95789537
 21
156.94047402
 31
0.0
  0
LINE
  5
80
330
1F
100
AcDbEntity
  8
Nível_Padrão
  6
Continuous2
 62
     1
420
 16711680
370
    -3
100
AcDbLine
 10
690.95789537
 20
156.94047402
 30
0.0
 11
691.25576744
 21
156.89501334
 31
0.0
  0
LINE
  5
81
330
1F
100
AcDbEntity
  8
Nível_Padrão
  6
Continuous2
 62
     1
420
 16711680
370
    -3
100
AcDbLine
 10
691.25576744
 20
156.89501334
 30
0.0
 11
691.5625
 21
156.87952468
 31
0.0
  0
LINE
  5
82
330
1F
100
AcDbEntity
  8
Nível_Padrão
  6
Continuous2
 62
     1
420
 16711680
370
    -3
100
AcDbLine
 10
691.5625
 20
156.87952468
 30
0.0
 11
691.86923258
 21
156.89501334
 31
0.0
  0
LINE
  5
83
330
1F
100
AcDbEntity
  8
Nível_Padrão
  6
Continuous2
 62
     1
420
 16711680
370
    -3
100
AcDbLine
 10
691.86923258
 20
156.89501334
 30
0.0
 11
692.16710465
 21
156.94047402
 31
0.0
  0
LINE
  5
84
330
1F
100
AcDbEntity
  8
Nível_Padrão
  6
Continuous2
 62
     1
420
 16711680
370
    -3
100
AcDbLine
 10
692.16710465
 20
156.94047402
 30
0.0
 11
692.45460824
 21
157.01439874
 31
0.0
  0
LINE
  5
85
330
1F
100
AcDbEntity
  8
Nível_Padrão
  6
Continuous2
 62
     1
420
 16711680
370
    -3
100
AcDbLine
 10
692.45460824
 20
157.01439874
 30
0.0
 11
692.73023539
 21
157.11527955
 31
0.0
  0
LINE
  5
86
330
1F
100
AcDbEntity
  8
Nível_Padrão
  6
Continuous2
 62
     1
420
 16711680
370
    -3
100
AcDbLine
 10
692.73023539
 20
157.11527955
 30
0.0
 11
692.99247814
 21
157.24160848
 31
0.0
  0
LINE
  5
87
330
1F
100
AcDbEntity
  8
Nível_Padrão
  6
Continuous2
 62
     1
420
 16711680
370
    -3
100
AcDbLine
 10
692.99247814
 20
157.24160848
 30
0.0
 11
693.23982854
 21
157.39187756
 31
0.0
  0
LINE
  5
88
330
1F
100
AcDbEntity
  8
Nível_Padrão
  6
Continuous2
 62
     1
420
 16711680
370
    -3
100
AcDbLine
 10
693.23982854
 20
157.39187756
 30
0.0
 11
693.47077859
 21
157.56457884
 31
0.0
  0
LINE
  5
89
330
1F
100
AcDbEntity
  8
Nível_Padrão
  6
Continuous2
 62
     1
420
 16711680
370
    -3
100
AcDbLine
 10
693.47077859
 20
157.56457884
 30
0.0
 11
693.68382034
 21
157.75820434
 31
0.0
  0
LINE
  5
8A
330
1F
100
AcDbEntity
  8
Nível_Padrão
  6
Continuous2
 62
     1
420
 16711680
370
    -3
100
AcDbLine
 10
693.68382034
 20
157.75820434
 30
0.0
 11
693.87744585
 21
157.9712461
 31
0.0
  0
LINE
  5
8B
330
1F
100
AcDbEntity
  8
Nível_Padrão
  6
Continuous2
 62
     1
420
 16711680
370
    -3
100
AcDbLine
 10
693.87744585
 20
157.9712461
 30
0.0
 11
694.05014712
 21
158.20219615
 31
0.0
  0
LINE
  5
8C
330
1F
100
AcDbEntity
  8
Nível_Padrão
  6
Continuous2
 62
     1
420
 16711680
370
    -3
100
AcDbLine
 10
694.05014712
 20
158.20219615
 30
0.0
 11
694.20041621
 21
158.44954654
 31
0.0
  0
LINE
  5
8D
330
1F
100
AcDbEntity
  8
Nível_Padrão
  6
Continuous2
 62
     1
420
 16711680
370
    -3
100
AcDbLine
 10
694.20041621
 20
158.44954654
 30
0.0
 11
694.32674514
 21
158.71178929
 31
0.0
  0
LINE
  5
8E
330
1F
100
AcDbEntity
  8
Nível_Padrão
  6
Continuous2
 62
     1
420
 16711680
370
    -3
100
AcDbLine
 10
694.32674514
 20
158.71178929
 30
0.0
 11
694.42762595
 21
158.98741645
 31
0.0
  0
LINE
  5
8F
330
1F
100
AcDbEntity
  8
Nível_Padrão
  6
Continuous2
 62
     1
420
 16711680
370
    -3
100
AcDbLine
 10
694.42762595
 20
158.98741645
 30
0.0
 11
694.50155066
 21
159.27492004
 31
0.0
  0
LINE
  5
90
330
1F
100
AcDbEntity
  8
Nível_Padrão
  6
Continuous2
 62
     1
420
 16711680
370
    -3
100
AcDbLine
 10
694.50155066
 20
159.27492004
 30
0.0
 11
694.54701135
 21
159.57279211
 31
0.0
  0
LINE
  5
91
330
1F
100
AcDbEntity
  8
Nível_Padrão
  6
Continuous2
 62
     1
420
 16711680
370
    -3
100
AcDbLine
 10
694.54701135
 20
159.57279211
 30
0.0
 11
694.5625
 21
159.87952468
 31
0.0
  0
LINE
  5
92
330
1F
100
AcDbEntity
  8
Nível_Padrão
  6
Continuous2
 62
     1
420
 16711680
370
    -3
100
AcDbLine
 10
694.5625
 20
159.87952468
 30
0.0
 11
694.54701135
 21
160.18625725
 31
0.0
  0
LINE
  5
93
330
1F
100
AcDbEntity
  8
Nível_Padrão
  6
Continuous2
 62
     1
420
 16711680
370
    -3
100
AcDbLine
 10
694.54701135
 20
160.18625725
 30
0.0
 11
694.50155066
 21
160.48412932
 31
0.0
  0
LINE
  5
94
330
1F
100
AcDbEntity
  8
Nível_Padrão
  6
Continuous2
 62
     1
420
 16711680
370
    -3
100
AcDbLine
 10
694.50155066
 20
160.48412932
 30
0.0
 11
694.42762595
 21
160.77163291
 31
0.0
  0
LINE
  5
95
330
1F
100
AcDbEntity
  8
Nível_Padrão
  6
Continuous2
 62
     1
420
 16711680
370
    -3
100
AcDbLine
 10
694.42762595
 20
160.77163291
 30
0.0
 11
694.32674514
 21
161.04726007
 31
0.0
  0
LINE
  5
96
330
1F
100
AcDbEntity
  8
Nível_Padrão
  6
Continuous2
 62
     1
420
 16711680
370
    -3
100
AcDbLine
 10
694.32674514
 20
161.04726007
 30
0.0
 11
694.20041621
 21
161.30950282
 31
0.0
  0
LINE
  5
97
330
1F
100
AcDbEntity
  8
Nível_Padrão
  6
Continuous2
 62
     1
420
 16711680
370
    -3
100
AcDbLine
 10
694.20041621
 20
161.30950282
 30
0.0
 11
694.05014712
 21
161.55685321
 31
0.0
  0
LINE
  5
98
330
1F
100
AcDbEntity
  8
Nível_Padrão
  6
Continuous2
 62
     1
420
 16711680
370
    -3
100
AcDbLine
 10
694.05014712
 20
161.55685321
 30
0.0
 11
693.87744585
 21
161.78780326
 31
0.0
  0
LINE
  5
99
330
1F
100
AcDbEntity
  8
Nível_Padrão
  6
Continuous2
 62
     1
420
 16711680
370
    -3
100
AcDbLine
 10
693.87744585
 20
161.78780326
 30
0.0
 11
693.68382034
 21
162.00084502
 31
0.0
  0
LINE
  5
9A
330
1F
100
AcDbEntity
  8
Nível_Padrão
  6
Continuous2
 62
     1
420
 16711680
370
    -3
100
AcDbLine
 10
693.68382034
 20
162.00084502
 30
0.0
 11
693.47077859
 21
162.19447052
 31
0.0
  0
LINE
  5
9B
330
1F
100
AcDbEntity
  8
Nível_Padrão
  6
Continuous2
 62
     1
420
 16711680
370
    -3
100
AcDbLine
 10
693.47077859
 20
162.19447052
 30
0.0
 11
693.23982854
 21
162.3671718
 31
0.0
  0
LINE
  5
9C
330
1F
100
AcDbEntity
  8
Nível_Padrão
  6
Continuous2
 62
     1
420
 16711680
370
    -3
100
AcDbLine
 10
693.23982854
 20
162.3671718
 30
0.0
 11
692.99247814
 21
162.51744088
 31
0.0
  0
LINE
  5
9D
330
1F
100
AcDbEntity
  8
Nível_Padrão
  6
Continuous2
 62
     1
420
 16711680
370
    -3
100
AcDbLine
 10
692.99247814
 20
162.51744088
 30
0.0
 11
692.73023539
 21
162.64376981
 31
0.0
  0
LINE
  5
9E
330
1F
100
AcDbEntity
  8
Nível_Padrão
  6
Continuous2
 62
     1
420
 16711680
370
    -3
100
AcDbLine
 10
692.73023539
 20
162.64376981
 30
0.0
 11
692.45460824
 21
162.74465062
 31
0.0
  0
LINE
  5
9F
330
1F
100
AcDbEntity
  8
Nível_Padrão
  6
Continuous2
 62
     1
420
 16711680
370
    -3
100
AcDbLine
 10
692.45460824
 20
162.74465062
 30
0.0
 11
692.16710465
 21
162.81857534
 31
0.0
  0
LINE
  5
A0
330
1F
100
AcDbEntity
  8
Nível_Padrão
  6
Continuous2
 62
     1
420
 16711680
370
    -3
100
AcDbLine
 10
692.16710465
 20
162.81857534
 30
0.0
 11
691.86923258
 21
162.86403602
 31
0.0
  0
LINE
  5
A1
330
1F
100
AcDbEntity
  8
Nível_Padrão
  6
Continuous2
 62
     1
420
 16711680
370
    -3
100
AcDbLine
 10
691.86923258
 20
162.86403602
 30
0.0
 11
691.5625
 21
162.87952468
 31
0.0
  0
LINE
  5
A2
330
1F
100
AcDbEntity
  8
Nível_Padrão
  6
Continuous2
 62
     1
420
 16711680
370
    -3
100
AcDbLine
 10
691.5625
 20
162.87952468
 30
0.0
 11
691.25576744
 21
162.86403602
 31
0.0
  0
LINE
  5
A3
330
1F
100
AcDbEntity
  8
Nível_Padrão
  6
Continuous2
 62
     1
420
 16711680
370
    -3
100
AcDbLine
 10
691.25576744
 20
162.86403602
 30
0.0
 11
690.95789537
 21
162.81857534
 31
0.0
  0
LINE
  5
A4
330
1F
100
AcDbEntity
  8
Nível_Padrão
  6
Continuous2
 62
     1
420
 16711680
370
    -3
100
AcDbLine
 10
690.95789537
 20
162.81857534
 30
0.0
 11
690.67039178
 21
162.74465062
 31
0.0
  0
LINE
  5
A5
330
1F
100
AcDbEntity
  8
Nível_Padrão
  6
Continuous2
 62
     1
420
 16711680
370
    -3
100
AcDbLine
 10
690.67039178
 20
162.74465062
 30
0.0
 11
690.39476461
 21
162.64376981
 31
0.0
  0
LINE
  5
A6
330
1F
100
AcDbEntity
  8
Nível_Padrão
  6
Continuous2
 62
     1
420
 16711680
370
    -3
100
AcDbLine
 10
690.39476461
 20
162.64376981
 30
0.0
 11
690.13252186
 21
162.51744088
 31
0.0
  0
LINE
  5
A7
330
1F
100
AcDbEntity
  8
Nível_Padrão
  6
Continuous2
 62
     1
420
 16711680
370
    -3
100
AcDbLine
 10
690.13252186
 20
162.51744088
 30
0.0
 11
689.88517148
 21
162.3671718
 31
0.0
  0
LINE
  5
A8
330
1F
100
AcDbEntity
  8
Nível_Padrão
  6
Continuous2
 62
     1
420
 16711680
370
    -3
100
AcDbLine
 10
689.88517148
 20
162.3671718
 30
0.0
 11
689.65422143
 21
162.19447052
 31
0.0
  0
LINE
  5
A9
330
1F
100
AcDbEntity
  8
Nível_Padrão
  6
Continuous2
 62
     1
420
 16711680
370
    -3
100
AcDbLine
 10
689.65422143
 20
162.19447052
 30
0.0
 11
689.44117966
 21
162.00084502
 31
0.0
  0
LINE
  5
AA
330
1F
100
AcDbEntity
  8
Nível_Padrão
  6
Continuous2
 62
     1
420
 16711680
370
    -3
100
AcDbLine
 10
689.44117966
 20
162.00084502
 30
0.0
 11
689.24755417
 21
161.78780326
 31
0.0
  0
LINE
  5
AB
330
1F
100
AcDbEntity
  8
Nível_Padrão
  6
Continuous2
 62
     1
420
 16711680
370
    -3
100
AcDbLine
 10
689.24755417
 20
161.78780326
 30
0.0
 11
689.07485288
 21
161.55685321
 31
0.0
  0
LINE
  5
AC
330
1F
100
AcDbEntity
  8
Nível_Padrão
  6
Continuous2
 62
     1
420
 16711680
370
    -3
100
AcDbLine
 10
689.07485288
 20
161.55685321
 30
0.0
 11
688.92458381
 21
161.30950282
 31
0.0
  0
LINE
  5
AD
330
1F
100
AcDbEntity
  8
Nível_Padrão
  6
Continuous2
 62
     1
420
 16711680
370
    -3
100
AcDbLine
 10
688.92458381
 20
161.30950282
 30
0.0
 11
688.79825488
 21
161.04726007
 31
0.0
  0
LINE
  5
AE
330
1F
100
AcDbEntity
  8
Nível_Padrão
  6
Continuous2
 62
     1
420
 16711680
370
    -3
100
AcDbLine
 10
688.79825488
 20
161.04726007
 30
0.0
 11
688.69737407
 21
160.77163291
 31
0.0
  0
LINE
  5
AF
330
1F
100
AcDbEntity
  8
Nível_Padrão
  6
Continuous2
 62
     1
420
 16711680
370
    -3
100
AcDbLine
 10
688.69737407
 20
160.77163291
 30
0.0
 11
688.62344934
 21
160.48412932
 31
0.0
  0
LINE
  5
B0
330
1F
100
AcDbEntity
  8
Nível_Padrão
  6
Continuous2
 62
     1
420
 16711680
370
    -3
100
AcDbLine
 10
688.62344934
 20
160.48412932
 30
0.0
 11
688.57798867
 21
160.18625725
 31
0.0
  0
LINE
  5
B1
330
1F
100
AcDbEntity
  8
Nível_Padrão
  6
Continuous2
 62
     1
420
 16711680
370
    -3
100
AcDbLine
 10
688.57798867
 20
160.18625725
 30
0.0
 11
688.5625
 21
159.87952468
 31
0.0
  0
LINE
  5
B2
330
1F
100
AcDbEntity
  8
Nível_Padrão
  6
Continuous2
 62
     1
420
 16711680
370
    -3
100
AcDbLine
 10
688.5625
 20
159.87952468
 30
0.0
 11
688.57798867
 21
159.57279211
 31
0.0
  0
LINE
  5
B3
330
1F
100
AcDbEntity
  8
Nível_Padrão
  6
Continuous2
 62
     1
420
 16711680
370
    -3
100
AcDbLine
 10
688.57798867
 20
159.57279211
 30
0.0
 11
688.62344934
 21
159.27492004
 31
0.0
  0
LINE
  5
B4
330
1F
100
AcDbEntity
  8
Nível_Padrão
  6
Continuous2
 62
     1
420
 16711680
370
    -3
100
AcDbLine
 10
557.37344934
 20
159.27492004
 30
0.0
 11
557.44737407
 21
158.98741645
 31
0.0
  0
LINE
  5
B5
330
1F
100
AcDbEntity
  8
Nível_Padrão
  6
Continuous2
 62
     1
420
 16711680
370
    -3
100
AcDbLine
 10
557.44737407
 20
158.98741645
 30
0.0
 11
557.54825488
 21
158.71178929
 31
0.0
  0
LINE
  5
B6
330
1F
100
AcDbEntity
  8
Nível_Padrão
  6
Continuous2
 62
     1
420
 16711680
370
    -3
100
AcDbLine
 10
557.54825488
 20
158.71178929
 30
0.0
 11
557.67458381
 21
158.44954654
 31
0.0
  0
LINE
  5
B7
330
1F
100
AcDbEntity
  8
Nível_Padrão
  6
Continuous2
 62
     1
420
 16711680
370
    -3
100
AcDbLine
 10
557.67458381
 20
158.44954654
 30
0.0
 11
557.82485288
 21
158.20219615
 31
0.0
  0
LINE
  5
B8
330
1F
100
AcDbEntity
  8
Nível_Padrão
  6
Continuous2
 62
     1
420
 16711680
370
    -3
100
AcDbLine
 10
557.82485288
 20
158.20219615
 30
0.0
 11
557.99755417
 21
157.9712461
 31
0.0
  0
LINE
  5
B9
330
1F
100
AcDbEntity
  8
Nível_Padrão
  6
Continuous2
 62
     1
420
 16711680
370
    -3
100
AcDbLine
 10
557.99755417
 20
157.9712461
 30
0.0
 11
558.19117966
 21
157.75820434
 31
0.0
  0
LINE
  5
BA
330
1F
100
AcDbEntity
  8
Nível_Padrão
  6
Continuous2
 62
     1
420
 16711680
370
    -3
100
AcDbLine
 10
558.19117966
 20
157.75820434
 30
0.0
 11
558.40422143
 21
157.56457884
 31
0.0
  0
LINE
  5
BB
330
1F
100
AcDbEntity
  8
Nível_Padrão
  6
Continuous2
 62
     1
420
 16711680
370
    -3
100
AcDbLine
 10
558.40422143
 20
157.56457884
 30
0.0
 11
558.63517148
 21
157.39187756
 31
0.0
  0
LINE
  5
BC
330
1F
100
AcDbEntity
  8
Nível_Padrão
  6
Continuous2
 62
     1
420
 16711680
370
    -3
100
AcDbLine
 10
558.63517148
 20
157.39187756
 30
0.0
 11
558.88252186
 21
157.24160848
 31
0.0
  0
LINE
  5
BD
330
1F
100
AcDbEntity
  8
Nível_Padrão
  6
Continuous2
 62
     1
420
 16711680
370
    -3
100
AcDbLine
 10
558.88252186
 20
157.24160848
 30
0.0
 11
559.14476461
 21
157.11527955
 31
0.0
  0
LINE
  5
BE
330
1F
100
AcDbEntity
  8
Nível_Padrão
  6
Continuous2
 62
     1
420
 16711680
370
    -3
100
AcDbLine
 10
559.14476461
 20
157.11527955
 30
0.0
 11
559.42039178
 21
157.01439874
 31
0.0
  0
LINE
  5
BF
330
1F
100
AcDbEntity
  8
Nível_Padrão
  6
Continuous2
 62
     1
420
 16711680
370
    -3
100
AcDbLine
 10
559.42039178
 20
157.01439874
 30
0.0
 11
559.70789537
 21
156.94047402
 31
0.0
  0
LINE
  5
C0
330
1F
100
AcDbEntity
  8
Nível_Padrão
  6
Continuous2
 62
     1
420
 16711680
370
    -3
100
AcDbLine
 10
559.70789537
 20
156.94047402
 30
0.0
 11
560.00576744
 21
156.89501334
 31
0.0
  0
LINE
  5
C1
330
1F
100
AcDbEntity
  8
Nível_Padrão
  6
Continuous2
 62
     1
420
 16711680
370
    -3
100
AcDbLine
 10
560.00576744
 20
156.89501334
 30
0.0
 11
560.3125
 21
156.87952468
 31
0.0
  0
LINE
  5
C2
330
1F
100
AcDbEntity
  8
Nível_Padrão
  6
Continuous2
 62
     1
420
 16711680
370
    -3
100
AcDbLine
 10
560.3125
 20
156.87952468
 30
0.0
 11
560.61923258
 21
156.89501334
 31
0.0
  0
LINE
  5
C3
330
1F
100
AcDbEntity
  8
Nível_Padrão
  6
Continuous2
 62
     1
420
 16711680
370
    -3
100
AcDbLine
 10
560.61923258
 20
156.89501334
 30
0.0
 11
560.91710465
 21
156.94047402
 31
0.0
  0
LINE
  5
C4
330
1F
100
AcDbEntity
  8
Nível_Padrão
  6
Continuous2
 62
     1
420
 16711680
370
    -3
100
AcDbLine
 10
560.91710465
 20
156.94047402
 30
0.0
 11
561.20460824
 21
157.01439874
 31
0.0
  0
LINE
  5
C5
330
1F
100
AcDbEntity
  8
Nível_Padrão
  6
Continuous2
 62
     1
420
 16711680
370
    -3
100
AcDbLine
 10
561.20460824
 20
157.01439874
 30
0.0
 11
561.48023539
 21
157.11527955
 31
0.0
  0
LINE
  5
C6
330
1F
100
AcDbEntity
  8
Nível_Padrão
  6
Continuous2
 62
     1
420
 16711680
370
    -3
100
AcDbLine
 10
561.48023539
 20
157.11527955
 30
0.0
 11
561.74247814
 21
157.24160848
 31
0.0
  0
LINE
  5
C7
330
1F
100
AcDbEntity
  8
Nível_Padrão
  6
Continuous2
 62
     1
420
 16711680
370
    -3
100
AcDbLine
 10
561.74247814
 20
157.24160848
 30
0.0
 11
561.98982854
 21
157.39187756
 31
0.0
  0
LINE
  5
C8
330
1F
100
AcDbEntity
  8
Nível_Padrão
  6
Continuous2
 62
     1
420
 16711680
370
    -3
100
AcDbLine
 10
561.98982854
 20
157.39187756
 30
0.0
 11
562.22077859
 21
157.56457884
 31
0.0
  0
LINE
  5
C9
330
1F
100
AcDbEntity
  8
Nível_Padrão
  6
Continuous2
 62
     1
420
 16711680
370
    -3
100
AcDbLine
 10
562.22077859
 20
157.56457884
 30
0.0
 11
562.43382034
 21
157.75820434
 31
0.0
  0
LINE
  5
CA
330
1F
100
AcDbEntity
  8
Nível_Padrão
  6
Continuous2
 62
     1
420
 16711680
370
    -3
100
AcDbLine
 10
562.43382034
 20
157.75820434
 30
0.0
 11
562.62744585
 21
157.9712461
 31
0.0
  0
LINE
  5
CB
330
1F
100
AcDbEntity
  8
Nível_Padrão
  6
Continuous2
 62
     1
420
 16711680
370
    -3
100
AcDbLine
 10
562.62744585
 20
157.9712461
 30
0.0
 11
562.80014712
 21
158.20219615
 31
0.0
  0
LINE
  5
CC
330
1F
100
AcDbEntity
  8
Nível_Padrão
  6
Continuous2
 62
     1
420
 16711680
370
    -3
100
AcDbLine
 10
562.80014712
 20
158.20219615
 30
0.0
 11
562.95041621
 21
158.44954654
 31
0.0
  0
LINE
  5
CD
330
1F
100
AcDbEntity
  8
Nível_Padrão
  6
Continuous2
 62
     1
420
 16711680
370
    -3
100
AcDbLine
 10
562.95041621
 20
158.44954654
 30
0.0
 11
563.07674514
 21
158.71178929
 31
0.0
  0
LINE
  5
CE
330
1F
100
AcDbEntity
  8
Nível_Padrão
  6
Continuous2
 62
     1
420
 16711680
370
    -3
100
AcDbLine
 10
563.07674514
 20
158.71178929
 30
0.0
 11
563.17762595
 21
158.98741645
 31
0.0
  0
LINE
  5
CF
330
1F
100
AcDbEntity
  8
Nível_Padrão
  6
Continuous2
 62
     1
420
 16711680
370
    -3
100
AcDbLine
 10
563.17762595
 20
158.98741645
 30
0.0
 11
563.25155066
 21
159.27492004
 31
0.0
  0
LINE
  5
D0
330
1F
100
AcDbEntity
  8
Nível_Padrão
  6
Continuous2
 62
     1
420
 16711680
370
    -3
100
AcDbLine
 10
563.25155066
 20
159.27492004
 30
0.0
 11
563.29701135
 21
159.57279211
 31
0.0
  0
LINE
  5
D1
330
1F
100
AcDbEntity
  8
Nível_Padrão
  6
Continuous2
 62
     1
420
 16711680
370
    -3
100
AcDbLine
 10
563.29701135
 20
159.57279211
 30
0.0
 11
563.3125
 21
159.87952468
 31
0.0
  0
LINE
  5
D2
330
1F
100
AcDbEntity
  8
Nível_Padrão
  6
Continuous2
 62
     1
420
 16711680
370
    -3
100
AcDbLine
 10
563.3125
 20
159.87952468
 30
0.0
 11
563.29701135
 21
160.18625725
 31
0.0
  0
LINE
  5
D3
330
1F
100
AcDbEntity
  8
Nível_Padrão
  6
Continuous2
 62
     1
420
 16711680
370
    -3
100
AcDbLine
 10
563.29701135
 20
160.18625725
 30
0.0
 11
563.25155066
 21
160.48412932
 31
0.0
  0
LINE
  5
D4
330
1F
100
AcDbEntity
  8
Nível_Padrão
  6
Continuous2
 62
     1
420
 16711680
370
    -3
100
AcDbLine
 10
563.25155066
 20
160.48412932
 30
0.0
 11
563.17762595
 21
160.77163291
 31
0.0
  0
LINE
  5
D5
330
1F
100
AcDbEntity
  8
Nível_Padrão
  6
Continuous2
 62
     1
420
 16711680
370
    -3
100
AcDbLine
 10
563.17762595
 20
160.77163291
 30
0.0
 11
563.07674514
 21
161.04726007
 31
0.0
  0
LINE
  5
D6
330
1F
100
AcDbEntity
  8
Nível_Padrão
  6
Continuous2
 62
     1
420
 16711680
370
    -3
100
AcDbLine
 10
563.07674514
 20
161.04726007
 30
0.0
 11
562.95041621
 21
161.30950282
 31
0.0
  0
LINE
  5
D7
330
1F
100
AcDbEntity
  8
Nível_Padrão
  6
Continuous2
 62
     1
420
 16711680
370
    -3
100
AcDbLine
 10
562.95041621
 20
161.30950282
 30
0.0
 11
562.80014712
 21
161.55685321
 31
0.0
  0
LINE
  5
D8
330
1F
100
AcDbEntity
  8
Nível_Padrão
  6
Continuous2
 62
     1
420
 16711680
370
    -3
100
AcDbLine
 10
562.80014712
 20
161.55685321
 30
0.0
 11
562.62744585
 21
161.78780326
 31
0.0
  0
LINE
  5
D9
330
1F
100
AcDbEntity
  8
Nível_Padrão
  6
Continuous2
 62
     1
420
 16711680
370
    -3
100
AcDbLine
 10
562.62744585
 20
161.78780326
 30
0.0
 11
562.43382034
 21
162.00084502
 31
0.0
  0
LINE
  5
DA
330
1F
100
AcDbEntity
  8
Nível_Padrão
  6
Continuous2
 62
     1
420
 16711680
370
    -3
100
AcDbLine
 10
562.43382034
 20
162.00084502
 30
0.0
 11
562.22077859
 21
162.19447052
 31
0.0
  0
LINE
  5
DB
330
1F
100
AcDbEntity
  8
Nível_Padrão
  6
Continuous2
 62
     1
420
 16711680
370
    -3
100
AcDbLine
 10
562.22077859
 20
162.19447052
 30
0.0
 11
561.98982854
 21
162.3671718
 31
0.0
  0
LINE
  5
DC
330
1F
100
AcDbEntity
  8
Nível_Padrão
  6
Continuous2
 62
     1
420
 16711680
370
    -3
100
AcDbLine
 10
561.98982854
 20
162.3671718
 30
0.0
 11
561.74247814
 21
162.51744088
 31
0.0
  0
LINE
  5
DD
330
1F
100
AcDbEntity
  8
Nível_Padrão
  6
Continuous2
 62
     1
420
 16711680
370
    -3
100
AcDbLine
 10
561.74247814
 20
162.51744088
 30
0.0
 11
561.48023539
 21
162.64376981
 31
0.0
  0
LINE
  5
DE
330
1F
100
AcDbEntity
  8
Nível_Padrão
  6
Continuous2
 62
     1
420
 16711680
370
    -3
100
AcDbLine
 10
561.48023539
 20
162.64376981
 30
0.0
 11
561.20460824
 21
162.74465062
 31
0.0
  0
LINE
  5
DF
330
1F
100
AcDbEntity
  8
Nível_Padrão
  6
Continuous2
 62
     1
420
 16711680
370
    -3
100
AcDbLine
 10
561.20460824
 20
162.74465062
 30
0.0
 11
560.91710465
 21
162.81857534
 31
0.0
  0
LINE
  5
E0
330
1F
100
AcDbEntity
  8
Nível_Padrão
  6
Continuous2
 62
     1
420
 16711680
370
    -3
100
AcDbLine
 10
560.91710465
 20
162.81857534
 30
0.0
 11
560.61923258
 21
162.86403602
 31
0.0
  0
LINE
  5
E1
330
1F
100
AcDbEntity
  8
Nível_Padrão
  6
Continuous2
 62
     1
420
 16711680
370
    -3
100
AcDbLine
 10
560.61923258
 20
162.86403602
 30
0.0
 11
560.3125
 21
162.87952468
 31
0.0
  0
LINE
  5
E2
330
1F
100
AcDbEntity
  8
Nível_Padrão
  6
Continuous2
 62
     1
420
 16711680
370
    -3
100
AcDbLine
 10
560.3125
 20
162.87952468
 30
0.0
 11
560.00576744
 21
162.86403602
 31
0.0
  0
LINE
  5
E3
330
1F
100
AcDbEntity
  8
Nível_Padrão
  6
Continuous2
 62
     1
420
 16711680
370
    -3
100
AcDbLine
 10
560.00576744
 20
162.86403602
 30
0.0
 11
559.70789537
 21
162.81857534
 31
0.0
  0
LINE
  5
E4
330
1F
100
AcDbEntity
  8
Nível_Padrão
  6
Continuous2
 62
     1
420
 16711680
370
    -3
100
AcDbLine
 10
559.70789537
 20
162.81857534
 30
0.0
 11
559.42039178
 21
162.74465062
 31
0.0
  0
LINE
  5
E5
330
1F
100
AcDbEntity
  8
Nível_Padrão
  6
Continuous2
 62
     1
420
 16711680
370
    -3
100
AcDbLine
 10
559.42039178
 20
162.74465062
 30
0.0
 11
559.14476461
 21
162.64376981
 31
0.0
  0
LINE
  5
E6
330
1F
100
AcDbEntity
  8
Nível_Padrão
  6
Continuous2
 62
     1
420
 16711680
370
    -3
100
AcDbLine
 10
559.14476461
 20
162.64376981
 30
0.0
 11
558.88252186
 21
162.51744088
 31
0.0
  0
LINE
  5
E7
330
1F
100
AcDbEntity
  8
Nível_Padrão
  6
Continuous2
 62
     1
420
 16711680
370
    -3
100
AcDbLine
 10
558.88252186
 20
162.51744088
 30
0.0
 11
558.63517148
 21
162.3671718
 31
0.0
  0
LINE
  5
E8
330
1F
100
AcDbEntity
  8
Nível_Padrão
  6
Continuous2
 62
     1
420
 16711680
370
    -3
100
AcDbLine
 10
558.63517148
 20
162.3671718
 30
0.0
 11
558.40422143
 21
162.19447052
 31
0.0
  0
LINE
  5
E9
330
1F
100
AcDbEntity
  8
Nível_Padrão
  6
Continuous2
 62
     1
420
 16711680
370
    -3
100
AcDbLine
 10
558.40422143
 20
162.19447052
 30
0.0
 11
558.19117966
 21
162.00084502
 31
0.0
  0
LINE
  5
EA
330
1F
100
AcDbEntity
  8
Nível_Padrão
  6
Continuous2
 62
     1
420
 16711680
370
    -3
100
AcDbLine
 10
558.19117966
 20
162.00084502
 30
0.0
 11
557.99755417
 21
161.78780326
 31
0.0
  0
LINE
  5
EB
330
1F
100
AcDbEntity
  8
Nível_Padrão
  6
Continuous2
 62
     1
420
 16711680
370
    -3
100
AcDbLine
 10
557.99755417
 20
161.78780326
 30
0.0
 11
557.82485288
 21
161.55685321
 31
0.0
  0
LINE
  5
EC
330
1F
100
AcDbEntity
  8
Nível_Padrão
  6
Continuous2
 62
     1
420
 16711680
370
    -3
100
AcDbLine
 10
557.82485288
 20
161.55685321
 30
0.0
 11
557.67458381
 21
161.30950282
 31
0.0
  0
LINE
  5
ED
330
1F
100
AcDbEntity
  8
Nível_Padrão
  6
Continuous2
 62
     1
420
 16711680
370
    -3
100
AcDbLine
 10
557.67458381
 20
161.30950282
 30
0.0
 11
557.54825488
 21
161.04726007
 31
0.0
  0
LINE
  5
EE
330
1F
100
AcDbEntity
  8
Nível_Padrão
  6
Continuous2
 62
     1
420
 16711680
370
    -3
100
AcDbLine
 10
557.54825488
 20
161.04726007
 30
0.0
 11
557.44737407
 21
160.77163291
 31
0.0
  0
LINE
  5
EF
330
1F
100
AcDbEntity
  8
Nível_Padrão
  6
Continuous2
 62
     1
420
 16711680
370
    -3
100
AcDbLine
 10
557.44737407
 20
160.77163291
 30
0.0
 11
557.37344934
 21
160.48412932
 31
0.0
  0
LINE
  5
F0
330
1F
100
AcDbEntity
  8
Nível_Padrão
  6
Continuous2
 62
     1
420
 16711680
370
    -3
100
AcDbLine
 10
557.37344934
 20
160.48412932
 30
0.0
 11
557.32798867
 21
160.18625725
 31
0.0
  0
LINE
  5
F1
330
1F
100
AcDbEntity
  8
Nível_Padrão
  6
Continuous2
 62
     1
420
 16711680
370
    -3
100
AcDbLine
 10
557.32798867
 20
160.18625725
 30
0.0
 11
557.3125
 21
159.87952468
 31
0.0
  0
LINE
  5
F2
330
1F
100
AcDbEntity
  8
Nível_Padrão
  6
Continuous2
 62
     1
420
 16711680
370
    -3
100
AcDbLine
 10
557.3125
 20
159.87952468
 30
0.0
 11
557.32798867
 21
159.57279211
 31
0.0
  0
LINE
  5
F3
330
1F
100
AcDbEntity
  8
Nível_Padrão
  6
Continuous2
 62
     1
420
 16711680
370
    -3
100
AcDbLine
 10
557.32798867
 20
159.57279211
 30
0.0
 11
557.37344934
 21
159.27492004
 31
0.0
  0
LINE
  5
F4
330
1F
100
AcDbEntity
  8
Nível_Padrão
  6
Continuous2
 62
     1
420
 16711680
370
    -3
100
AcDbLine
 10
433.62344934
 20
159.27492004
 30
0.0
 11
433.69737407
 21
158.98741645
 31
0.0
  0
LINE
  5
F5
330
1F
100
AcDbEntity
  8
Nível_Padrão
  6
Continuous2
 62
     1
420
 16711680
370
    -3
100
AcDbLine
 10
433.69737407
 20
158.98741645
 30
0.0
 11
433.79825487
 21
158.71178929
 31
0.0
  0
LINE
  5
F6
330
1F
100
AcDbEntity
  8
Nível_Padrão
  6
Continuous2
 62
     1
420
 16711680
370
    -3
100
AcDbLine
 10
433.79825487
 20
158.71178929
 30
0.0
 11
433.9245838
 21
158.44954654
 31
0.0
  0
LINE
  5
F7
330
1F
100
AcDbEntity
  8
Nível_Padrão
  6
Continuous2
 62
     1
420
 16711680
370
    -3
100
AcDbLine
 10
433.9245838
 20
158.44954654
 30
0.0
 11
434.07485288
 21
158.20219615
 31
0.0
  0
LINE
  5
F8
330
1F
100
AcDbEntity
  8
Nível_Padrão
  6
Continuous2
 62
     1
420
 16711680
370
    -3
100
AcDbLine
 10
434.07485288
 20
158.20219615
 30
0.0
 11
434.24755416
 21
157.9712461
 31
0.0
  0
LINE
  5
F9
330
1F
100
AcDbEntity
  8
Nível_Padrão
  6
Continuous2
 62
     1
420
 16711680
370
    -3
100
AcDbLine
 10
434.24755416
 20
157.9712461
 30
0.0
 11
434.44117966
 21
157.75820434
 31
0.0
  0
LINE
  5
FA
330
1F
100
AcDbEntity
  8
Nível_Padrão
  6
Continuous2
 62
     1
420
 16711680
370
    -3
100
AcDbLine
 10
434.44117966
 20
157.75820434
 30
0.0
 11
434.65422143
 21
157.56457884
 31
0.0
  0
LINE
  5
FB
330
1F
100
AcDbEntity
  8
Nível_Padrão
  6
Continuous2
 62
     1
420
 16711680
370
    -3
100
AcDbLine
 10
434.65422143
 20
157.56457884
 30
0.0
 11
434.88517147
 21
157.39187756
 31
0.0
  0
LINE
  5
FC
330
1F
100
AcDbEntity
  8
Nível_Padrão
  6
Continuous2
 62
     1
420
 16711680
370
    -3
100
AcDbLine
 10
434.88517147
 20
157.39187756
 30
0.0
 11
435.13252186
 21
157.24160848
 31
0.0
  0
LINE
  5
FD
330
1F
100
AcDbEntity
  8
Nível_Padrão
  6
Continuous2
 62
     1
420
 16711680
370
    -3
100
AcDbLine
 10
435.13252186
 20
157.24160848
 30
0.0
 11
435.39476461
 21
157.11527955
 31
0.0
  0
LINE
  5
FE
330
1F
100
AcDbEntity
  8
Nível_Padrão
  6
Continuous2
 62
     1
420
 16711680
370
    -3
100
AcDbLine
 10
435.39476461
 20
157.11527955
 30
0.0
 11
435.67039177
 21
157.01439874
 31
0.0
  0
LINE
  5
FF
330
1F
100
AcDbEntity
  8
Nível_Padrão
  6
Continuous2
 62
     1
420
 16711680
370
    -3
100
AcDbLine
 10
435.67039177
 20
157.01439874
 30
0.0
 11
435.95789537
 21
156.94047402
 31
0.0
  0
LINE
  5
100
330
1F
100
AcDbEntity
  8
Nível_Padrão
  6
Continuous2
 62
     1
420
 16711680
370
    -3
100
AcDbLine
 10
435.95789537
 20
156.94047402
 30
0.0
 11
436.25576744
 21
156.89501334
 31
0.0
  0
LINE
  5
101
330
1F
100
AcDbEntity
  8
Nível_Padrão
  6
Continuous2
 62
     1
420
 16711680
370
    -3
100
AcDbLine
 10
436.25576744
 20
156.89501334
 30
0.0
 11
436.5625
 21
156.87952468
 31
0.0
  0
LINE
  5
102
330
1F
100
AcDbEntity
  8
Nível_Padrão
  6
Continuous2
 62
     1
420
 16711680
370
    -3
100
AcDbLine
 10
436.5625
 20
156.87952468
 30
0.0
 11
436.86923258
 21
156.89501334
 31
0.0
  0
LINE
  5
103
330
1F
100
AcDbEntity
  8
Nível_Padrão
  6
Continuous2
 62
     1
420
 16711680
370
    -3
100
AcDbLine
 10
436.86923258
 20
156.89501334
 30
0.0
 11
437.16710464
 21
156.94047402
 31
0.0
  0
LINE
  5
104
330
1F
100
AcDbEntity
  8
Nível_Padrão
  6
Continuous2
 62
     1
420
 16711680
370
    -3
100
AcDbLine
 10
437.16710464
 20
156.94047402
 30
0.0
 11
437.45460824
 21
157.01439874
 31
0.0
  0
LINE
  5
105
330
1F
100
AcDbEntity
  8
Nível_Padrão
  6
Continuous2
 62
     1
420
 16711680
370
    -3
100
AcDbLine
 10
437.45460824
 20
157.01439874
 30
0.0
 11
437.7302354
 21
157.11527955
 31
0.0
  0
LINE
  5
106
330
1F
100
AcDbEntity
  8
Nível_Padrão
  6
Continuous2
 62
     1
420
 16711680
370
    -3
100
AcDbLine
 10
437.7302354
 20
157.11527955
 30
0.0
 11
437.99247814
 21
157.24160848
 31
0.0
  0
LINE
  5
107
330
1F
100
AcDbEntity
  8
Nível_Padrão
  6
Continuous2
 62
     1
420
 16711680
370
    -3
100
AcDbLine
 10
437.99247814
 20
157.24160848
 30
0.0
 11
438.23982854
 21
157.39187756
 31
0.0
  0
LINE
  5
108
330
1F
100
AcDbEntity
  8
Nível_Padrão
  6
Continuous2
 62
     1
420
 16711680
370
    -3
100
AcDbLine
 10
438.23982854
 20
157.39187756
 30
0.0
 11
438.47077859
 21
157.56457884
 31
0.0
  0
LINE
  5
109
330
1F
100
AcDbEntity
  8
Nível_Padrão
  6
Continuous2
 62
     1
420
 16711680
370
    -3
100
AcDbLine
 10
438.47077859
 20
157.56457884
 30
0.0
 11
438.68382034
 21
157.75820434
 31
0.0
  0
LINE
  5
10A
330
1F
100
AcDbEntity
  8
Nível_Padrão
  6
Continuous2
 62
     1
420
 16711680
370
    -3
100
AcDbLine
 10
438.68382034
 20
157.75820434
 30
0.0
 11
438.87744585
 21
157.9712461
 31
0.0
  0
LINE
  5
10B
330
1F
100
AcDbEntity
  8
Nível_Padrão
  6
Continuous2
 62
     1
420
 16711680
370
    -3
100
AcDbLine
 10
438.87744585
 20
157.9712461
 30
0.0
 11
439.05014712
 21
158.20219615
 31
0.0
  0
LINE
  5
10C
330
1F
100
AcDbEntity
  8
Nível_Padrão
  6
Continuous2
 62
     1
420
 16711680
370
    -3
100
AcDbLine
 10
439.05014712
 20
158.20219615
 30
0.0
 11
439.20041621
 21
158.44954654
 31
0.0
  0
LINE
  5
10D
330
1F
100
AcDbEntity
  8
Nível_Padrão
  6
Continuous2
 62
     1
420
 16711680
370
    -3
100
AcDbLine
 10
439.20041621
 20
158.44954654
 30
0.0
 11
439.32674514
 21
158.71178929
 31
0.0
  0
LINE
  5
10E
330
1F
100
AcDbEntity
  8
Nível_Padrão
  6
Continuous2
 62
     1
420
 16711680
370
    -3
100
AcDbLine
 10
439.32674514
 20
158.71178929
 30
0.0
 11
439.42762595
 21
158.98741645
 31
0.0
  0
LINE
  5
10F
330
1F
100
AcDbEntity
  8
Nível_Padrão
  6
Continuous2
 62
     1
420
 16711680
370
    -3
100
AcDbLine
 10
439.42762595
 20
158.98741645
 30
0.0
 11
439.50155066
 21
159.27492004
 31
0.0
  0
LINE
  5
110
330
1F
100
AcDbEntity
  8
Nível_Padrão
  6
Continuous2
 62
     1
420
 16711680
370
    -3
100
AcDbLine
 10
439.50155066
 20
159.27492004
 30
0.0
 11
439.54701134
 21
159.57279211
 31
0.0
  0
LINE
  5
111
330
1F
100
AcDbEntity
  8
Nível_Padrão
  6
Continuous2
 62
     1
420
 16711680
370
    -3
100
AcDbLine
 10
439.54701134
 20
159.57279211
 30
0.0
 11
439.5625
 21
159.87952468
 31
0.0
  0
LINE
  5
112
330
1F
100
AcDbEntity
  8
Nível_Padrão
  6
Continuous2
 62
     1
420
 16711680
370
    -3
100
AcDbLine
 10
439.5625
 20
159.87952468
 30
0.0
 11
439.54701134
 21
160.18625725
 31
0.0
  0
LINE
  5
113
330
1F
100
AcDbEntity
  8
Nível_Padrão
  6
Continuous2
 62
     1
420
 16711680
370
    -3
100
AcDbLine
 10
439.54701134
 20
160.18625725
 30
0.0
 11
439.50155066
 21
160.48412932
 31
0.0
  0
LINE
  5
114
330
1F
100
AcDbEntity
  8
Nível_Padrão
  6
Continuous2
 62
     1
420
 16711680
370
    -3
100
AcDbLine
 10
439.50155066
 20
160.48412932
 30
0.0
 11
439.42762595
 21
160.77163291
 31
0.0
  0
LINE
  5
115
330
1F
100
AcDbEntity
  8
Nível_Padrão
  6
Continuous2
 62
     1
420
 16711680
370
    -3
100
AcDbLine
 10
439.42762595
 20
160.77163291
 30
0.0
 11
439.32674514
 21
161.04726007
 31
0.0
  0
LINE
  5
116
330
1F
100
AcDbEntity
  8
Nível_Padrão
  6
Continuous2
 62
     1
420
 16711680
370
    -3
100
AcDbLine
 10
439.32674514
 20
161.04726007
 30
0.0
 11
439.20041621
 21
161.30950282
 31
0.0
  0
LINE
  5
117
330
1F
100
AcDbEntity
  8
Nível_Padrão
  6
Continuous2
 62
     1
420
 16711680
370
    -3
100
AcDbLine
 10
439.20041621
 20
161.30950282
 30
0.0
 11
439.05014712
 21
161.55685321
 31
0.0
  0
LINE
  5
118
330
1F
100
AcDbEntity
  8
Nível_Padrão
  6
Continuous2
 62
     1
420
 16711680
370
    -3
100
AcDbLine
 10
439.05014712
 20
161.55685321
 30
0.0
 11
438.87744585
 21
161.78780326
 31
0.0
  0
LINE
  5
119
330
1F
100
AcDbEntity
  8
Nível_Padrão
  6
Continuous2
 62
     1
420
 16711680
370
    -3
100
AcDbLine
 10
438.87744585
 20
161.78780326
 30
0.0
 11
438.68382034
 21
162.00084502
 31
0.0
  0
LINE
  5
11A
330
1F
100
AcDbEntity
  8
Nível_Padrão
  6
Continuous2
 62
     1
420
 16711680
370
    -3
100
AcDbLine
 10
438.68382034
 20
162.00084502
 30
0.0
 11
438.47077859
 21
162.19447052
 31
0.0
  0
LINE
  5
11B
330
1F
100
AcDbEntity
  8
Nível_Padrão
  6
Continuous2
 62
     1
420
 16711680
370
    -3
100
AcDbLine
 10
438.47077859
 20
162.19447052
 30
0.0
 11
438.23982854
 21
162.3671718
 31
0.0
  0
LINE
  5
11C
330
1F
100
AcDbEntity
  8
Nível_Padrão
  6
Continuous2
 62
     1
420
 16711680
370
    -3
100
AcDbLine
 10
438.23982854
 20
162.3671718
 30
0.0
 11
437.99247814
 21
162.51744088
 31
0.0
  0
LINE
  5
11D
330
1F
100
AcDbEntity
  8
Nível_Padrão
  6
Continuous2
 62
     1
420
 16711680
370
    -3
100
AcDbLine
 10
437.99247814
 20
162.51744088
 30
0.0
 11
437.7302354
 21
162.64376981
 31
0.0
  0
LINE
  5
11E
330
1F
100
AcDbEntity
  8
Nível_Padrão
  6
Continuous2
 62
     1
420
 16711680
370
    -3
100
AcDbLine
 10
437.7302354
 20
162.64376981
 30
0.0
 11
437.45460824
 21
162.74465062
 31
0.0
  0
LINE
  5
11F
330
1F
100
AcDbEntity
  8
Nível_Padrão
  6
Continuous2
 62
     1
420
 16711680
370
    -3
100
AcDbLine
 10
437.45460824
 20
162.74465062
 30
0.0
 11
437.16710464
 21
162.81857534
 31
0.0
  0
LINE
  5
120
330
1F
100
AcDbEntity
  8
Nível_Padrão
  6
Continuous2
 62
     1
420
 16711680
370
    -3
100
AcDbLine
 10
437.16710464
 20
162.81857534
 30
0.0
 11
436.86923258
 21
162.86403602
 31
0.0
  0
LINE
  5
121
330
1F
100
AcDbEntity
  8
Nível_Padrão
  6
Continuous2
 62
     1
420
 16711680
370
    -3
100
AcDbLine
 10
436.86923258
 20
162.86403602
 30
0.0
 11
436.5625
 21
162.87952468
 31
0.0
  0
LINE
  5
122
330
1F
100
AcDbEntity
  8
Nível_Padrão
  6
Continuous2
 62
     1
420
 16711680
370
    -3
100
AcDbLine
 10
436.5625
 20
162.87952468
 30
0.0
 11
436.25576744
 21
162.86403602
 31
0.0
  0
LINE
  5
123
330
1F
100
AcDbEntity
  8
Nível_Padrão
  6
Continuous2
 62
     1
420
 16711680
370
    -3
100
AcDbLine
 10
436.25576744
 20
162.86403602
 30
0.0
 11
435.95789537
 21
162.81857534
 31
0.0
  0
LINE
  5
124
330
1F
100
AcDbEntity
  8
Nível_Padrão
  6
Continuous2
 62
     1
420
 16711680
370
    -3
100
AcDbLine
 10
435.95789537
 20
162.81857534
 30
0.0
 11
435.67039177
 21
162.74465062
 31
0.0
  0
LINE
  5
125
330
1F
100
AcDbEntity
  8
Nível_Padrão
  6
Continuous2
 62
     1
420
 16711680
370
    -3
100
AcDbLine
 10
435.67039177
 20
162.74465062
 30
0.0
 11
435.39476461
 21
162.64376981
 31
0.0
  0
LINE
  5
126
330
1F
100
AcDbEntity
  8
Nível_Padrão
  6
Continuous2
 62
     1
420
 16711680
370
    -3
100
AcDbLine
 10
435.39476461
 20
162.64376981
 30
0.0
 11
435.13252186
 21
162.51744088
 31
0.0
  0
LINE
  5
127
330
1F
100
AcDbEntity
  8
Nível_Padrão
  6
Continuous2
 62
     1
420
 16711680
370
    -3
100
AcDbLine
 10
435.13252186
 20
162.51744088
 30
0.0
 11
434.88517147
 21
162.3671718
 31
0.0
  0
LINE
  5
128
330
1F
100
AcDbEntity
  8
Nível_Padrão
  6
Continuous2
 62
     1
420
 16711680
370
    -3
100
AcDbLine
 10
434.88517147
 20
162.3671718
 30
0.0
 11
434.65422143
 21
162.19447052
 31
0.0
  0
LINE
  5
129
330
1F
100
AcDbEntity
  8
Nível_Padrão
  6
Continuous2
 62
     1
420
 16711680
370
    -3
100
AcDbLine
 10
434.65422143
 20
162.19447052
 30
0.0
 11
434.44117966
 21
162.00084502
 31
0.0
  0
LINE
  5
12A
330
1F
100
AcDbEntity
  8
Nível_Padrão
  6
Continuous2
 62
     1
420
 16711680
370
    -3
100
AcDbLine
 10
434.44117966
 20
162.00084502
 30
0.0
 11
434.24755416
 21
161.78780326
 31
0.0
  0
LINE
  5
12B
330
1F
100
AcDbEntity
  8
Nível_Padrão
  6
Continuous2
 62
     1
420
 16711680
370
    -3
100
AcDbLine
 10
434.24755416
 20
161.78780326
 30
0.0
 11
434.07485288
 21
161.55685321
 31
0.0
  0
LINE
  5
12C
330
1F
100
AcDbEntity
  8
Nível_Padrão
  6
Continuous2
 62
     1
420
 16711680
370
    -3
100
AcDbLine
 10
434.07485288
 20
161.55685321
 30
0.0
 11
433.9245838
 21
161.30950282
 31
0.0
  0
LINE
  5
12D
330
1F
100
AcDbEntity
  8
Nível_Padrão
  6
Continuous2
 62
     1
420
 16711680
370
    -3
100
AcDbLine
 10
433.9245838
 20
161.30950282
 30
0.0
 11
433.79825487
 21
161.04726007
 31
0.0
  0
LINE
  5
12E
330
1F
100
AcDbEntity
  8
Nível_Padrão
  6
Continuous2
 62
     1
420
 16711680
370
    -3
100
AcDbLine
 10
433.79825487
 20
161.04726007
 30
0.0
 11
433.69737407
 21
160.77163291
 31
0.0
  0
LINE
  5
12F
330
1F
100
AcDbEntity
  8
Nível_Padrão
  6
Continuous2
 62
     1
420
 16711680
370
    -3
100
AcDbLine
 10
433.69737407
 20
160.77163291
 30
0.0
 11
433.62344934
 21
160.48412932
 31
0.0
  0
LINE
  5
130
330
1F
100
AcDbEntity
  8
Nível_Padrão
  6
Continuous2
 62
     1
420
 16711680
370
    -3
100
AcDbLine
 10
433.62344934
 20
160.48412932
 30
0.0
 11
433.57798867
 21
160.18625725
 31
0.0
  0
LINE
  5
131
330
1F
100
AcDbEntity
  8
Nível_Padrão
  6
Continuous2
 62
     1
420
 16711680
370
    -3
100
AcDbLine
 10
433.57798867
 20
160.18625725
 30
0.0
 11
433.5625
 21
159.87952468
 31
0.0
  0
LINE
  5
132
330
1F
100
AcDbEntity
  8
Nível_Padrão
  6
Continuous2
 62
     1
420
 16711680
370
    -3
100
AcDbLine
 10
433.5625
 20
159.87952468
 30
0.0
 11
433.57798867
 21
159.57279211
 31
0.0
  0
LINE
  5
133
330
1F
100
AcDbEntity
  8
Nível_Padrão
  6
Continuous2
 62
     1
420
 16711680
370
    -3
100
AcDbLine
 10
433.57798867
 20
159.57279211
 30
0.0
 11
433.62344934
 21
159.27492004
 31
0.0
  0
LINE
  5
134
330
1F
100
AcDbEntity
  8
Nível_Padrão
  6
Continuous2
 62
     1
420
 16711680
370
    -3
100
AcDbLine
 10
315.49844934
 20
159.27492004
 30
0.0
 11
315.57237407
 21
158.98741645
 31
0.0
  0
LINE
  5
135
330
1F
100
AcDbEntity
  8
Nível_Padrão
  6
Continuous2
 62
     1
420
 16711680
370
    -3
100
AcDbLine
 10
315.57237407
 20
158.98741645
 30
0.0
 11
315.67325487
 21
158.71178929
 31
0.0
  0
LINE
  5
136
330
1F
100
AcDbEntity
  8
Nível_Padrão
  6
Continuous2
 62
     1
420
 16711680
370
    -3
100
AcDbLine
 10
315.67325487
 20
158.71178929
 30
0.0
 11
315.7995838
 21
158.44954654
 31
0.0
  0
LINE
  5
137
330
1F
100
AcDbEntity
  8
Nível_Padrão
  6
Continuous2
 62
     1
420
 16711680
370
    -3
100
AcDbLine
 10
315.7995838
 20
158.44954654
 30
0.0
 11
315.94985288
 21
158.20219615
 31
0.0
  0
LINE
  5
138
330
1F
100
AcDbEntity
  8
Nível_Padrão
  6
Continuous2
 62
     1
420
 16711680
370
    -3
100
AcDbLine
 10
315.94985288
 20
158.20219615
 30
0.0
 11
316.12255416
 21
157.9712461
 31
0.0
  0
LINE
  5
139
330
1F
100
AcDbEntity
  8
Nível_Padrão
  6
Continuous2
 62
     1
420
 16711680
370
    -3
100
AcDbLine
 10
316.12255416
 20
157.9712461
 30
0.0
 11
316.31617966
 21
157.75820434
 31
0.0
  0
LINE
  5
13A
330
1F
100
AcDbEntity
  8
Nível_Padrão
  6
Continuous2
 62
     1
420
 16711680
370
    -3
100
AcDbLine
 10
316.31617966
 20
157.75820434
 30
0.0
 11
316.52922142
 21
157.56457884
 31
0.0
  0
LINE
  5
13B
330
1F
100
AcDbEntity
  8
Nível_Padrão
  6
Continuous2
 62
     1
420
 16711680
370
    -3
100
AcDbLine
 10
316.52922142
 20
157.56457884
 30
0.0
 11
316.76017147
 21
157.39187756
 31
0.0
  0
LINE
  5
13C
330
1F
100
AcDbEntity
  8
Nível_Padrão
  6
Continuous2
 62
     1
420
 16711680
370
    -3
100
AcDbLine
 10
316.76017147
 20
157.39187756
 30
0.0
 11
317.00752186
 21
157.24160848
 31
0.0
  0
LINE
  5
13D
330
1F
100
AcDbEntity
  8
Nível_Padrão
  6
Continuous2
 62
     1
420
 16711680
370
    -3
100
AcDbLine
 10
317.00752186
 20
157.24160848
 30
0.0
 11
317.26976461
 21
157.11527955
 31
0.0
  0
LINE
  5
13E
330
1F
100
AcDbEntity
  8
Nível_Padrão
  6
Continuous2
 62
     1
420
 16711680
370
    -3
100
AcDbLine
 10
317.26976461
 20
157.11527955
 30
0.0
 11
317.54539177
 21
157.01439874
 31
0.0
  0
LINE
  5
13F
330
1F
100
AcDbEntity
  8
Nível_Padrão
  6
Continuous2
 62
     1
420
 16711680
370
    -3
100
AcDbLine
 10
317.54539177
 20
157.01439874
 30
0.0
 11
317.83289537
 21
156.94047402
 31
0.0
  0
LINE
  5
140
330
1F
100
AcDbEntity
  8
Nível_Padrão
  6
Continuous2
 62
     1
420
 16711680
370
    -3
100
AcDbLine
 10
317.83289537
 20
156.94047402
 30
0.0
 11
318.13076743
 21
156.89501334
 31
0.0
  0
LINE
  5
141
330
1F
100
AcDbEntity
  8
Nível_Padrão
  6
Continuous2
 62
     1
420
 16711680
370
    -3
100
AcDbLine
 10
318.13076743
 20
156.89501334
 30
0.0
 11
318.4375
 21
156.87952468
 31
0.0
  0
LINE
  5
142
330
1F
100
AcDbEntity
  8
Nível_Padrão
  6
Continuous2
 62
     1
420
 16711680
370
    -3
100
AcDbLine
 10
318.4375
 20
156.87952468
 30
0.0
 11
318.74423258
 21
156.89501334
 31
0.0
  0
LINE
  5
143
330
1F
100
AcDbEntity
  8
Nível_Padrão
  6
Continuous2
 62
     1
420
 16711680
370
    -3
100
AcDbLine
 10
318.74423258
 20
156.89501334
 30
0.0
 11
319.04210464
 21
156.94047402
 31
0.0
  0
LINE
  5
144
330
1F
100
AcDbEntity
  8
Nível_Padrão
  6
Continuous2
 62
     1
420
 16711680
370
    -3
100
AcDbLine
 10
319.04210464
 20
156.94047402
 30
0.0
 11
319.32960824
 21
157.01439874
 31
0.0
  0
LINE
  5
145
330
1F
100
AcDbEntity
  8
Nível_Padrão
  6
Continuous2
 62
     1
420
 16711680
370
    -3
100
AcDbLine
 10
319.32960824
 20
157.01439874
 30
0.0
 11
319.6052354
 21
157.11527955
 31
0.0
  0
LINE
  5
146
330
1F
100
AcDbEntity
  8
Nível_Padrão
  6
Continuous2
 62
     1
420
 16711680
370
    -3
100
AcDbLine
 10
319.6052354
 20
157.11527955
 30
0.0
 11
319.86747814
 21
157.24160848
 31
0.0
  0
LINE
  5
147
330
1F
100
AcDbEntity
  8
Nível_Padrão
  6
Continuous2
 62
     1
420
 16711680
370
    -3
100
AcDbLine
 10
319.86747814
 20
157.24160848
 30
0.0
 11
320.11482854
 21
157.39187756
 31
0.0
  0
LINE
  5
148
330
1F
100
AcDbEntity
  8
Nível_Padrão
  6
Continuous2
 62
     1
420
 16711680
370
    -3
100
AcDbLine
 10
320.11482854
 20
157.39187756
 30
0.0
 11
320.34577858
 21
157.56457884
 31
0.0
  0
LINE
  5
149
330
1F
100
AcDbEntity
  8
Nível_Padrão
  6
Continuous2
 62
     1
420
 16711680
370
    -3
100
AcDbLine
 10
320.34577858
 20
157.56457884
 30
0.0
 11
320.55882035
 21
157.75820434
 31
0.0
  0
LINE
  5
14A
330
1F
100
AcDbEntity
  8
Nível_Padrão
  6
Continuous2
 62
     1
420
 16711680
370
    -3
100
AcDbLine
 10
320.55882035
 20
157.75820434
 30
0.0
 11
320.75244585
 21
157.9712461
 31
0.0
  0
LINE
  5
14B
330
1F
100
AcDbEntity
  8
Nível_Padrão
  6
Continuous2
 62
     1
420
 16711680
370
    -3
100
AcDbLine
 10
320.75244585
 20
157.9712461
 30
0.0
 11
320.92514713
 21
158.20219615
 31
0.0
  0
LINE
  5
14C
330
1F
100
AcDbEntity
  8
Nível_Padrão
  6
Continuous2
 62
     1
420
 16711680
370
    -3
100
AcDbLine
 10
320.92514713
 20
158.20219615
 30
0.0
 11
321.07541621
 21
158.44954654
 31
0.0
  0
LINE
  5
14D
330
1F
100
AcDbEntity
  8
Nível_Padrão
  6
Continuous2
 62
     1
420
 16711680
370
    -3
100
AcDbLine
 10
321.07541621
 20
158.44954654
 30
0.0
 11
321.20174514
 21
158.71178929
 31
0.0
  0
LINE
  5
14E
330
1F
100
AcDbEntity
  8
Nível_Padrão
  6
Continuous2
 62
     1
420
 16711680
370
    -3
100
AcDbLine
 10
321.20174514
 20
158.71178929
 30
0.0
 11
321.30262594
 21
158.98741645
 31
0.0
  0
LINE
  5
14F
330
1F
100
AcDbEntity
  8
Nível_Padrão
  6
Continuous2
 62
     1
420
 16711680
370
    -3
100
AcDbLine
 10
321.30262594
 20
158.98741645
 30
0.0
 11
321.37655067
 21
159.27492004
 31
0.0
  0
LINE
  5
150
330
1F
100
AcDbEntity
  8
Nível_Padrão
  6
Continuous2
 62
     1
420
 16711680
370
    -3
100
AcDbLine
 10
321.37655067
 20
159.27492004
 30
0.0
 11
321.42201134
 21
159.57279211
 31
0.0
  0
LINE
  5
151
330
1F
100
AcDbEntity
  8
Nível_Padrão
  6
Continuous2
 62
     1
420
 16711680
370
    -3
100
AcDbLine
 10
321.42201134
 20
159.57279211
 30
0.0
 11
321.4375
 21
159.87952468
 31
0.0
  0
LINE
  5
152
330
1F
100
AcDbEntity
  8
Nível_Padrão
  6
Continuous2
 62
     1
420
 16711680
370
    -3
100
AcDbLine
 10
321.4375
 20
159.87952468
 30
0.0
 11
321.42201134
 21
160.18625725
 31
0.0
  0
LINE
  5
153
330
1F
100
AcDbEntity
  8
Nível_Padrão
  6
Continuous2
 62
     1
420
 16711680
370
    -3
100
AcDbLine
 10
321.42201134
 20
160.18625725
 30
0.0
 11
321.37655067
 21
160.48412932
 31
0.0
  0
LINE
  5
154
330
1F
100
AcDbEntity
  8
Nível_Padrão
  6
Continuous2
 62
     1
420
 16711680
370
    -3
100
AcDbLine
 10
321.37655067
 20
160.48412932
 30
0.0
 11
321.30262594
 21
160.77163291
 31
0.0
  0
LINE
  5
155
330
1F
100
AcDbEntity
  8
Nível_Padrão
  6
Continuous2
 62
     1
420
 16711680
370
    -3
100
AcDbLine
 10
321.30262594
 20
160.77163291
 30
0.0
 11
321.20174514
 21
161.04726007
 31
0.0
  0
LINE
  5
156
330
1F
100
AcDbEntity
  8
Nível_Padrão
  6
Continuous2
 62
     1
420
 16711680
370
    -3
100
AcDbLine
 10
321.20174514
 20
161.04726007
 30
0.0
 11
321.07541621
 21
161.30950282
 31
0.0
  0
LINE
  5
157
330
1F
100
AcDbEntity
  8
Nível_Padrão
  6
Continuous2
 62
     1
420
 16711680
370
    -3
100
AcDbLine
 10
321.07541621
 20
161.30950282
 30
0.0
 11
320.92514713
 21
161.55685321
 31
0.0
  0
LINE
  5
158
330
1F
100
AcDbEntity
  8
Nível_Padrão
  6
Continuous2
 62
     1
420
 16711680
370
    -3
100
AcDbLine
 10
320.92514713
 20
161.55685321
 30
0.0
 11
320.75244585
 21
161.78780326
 31
0.0
  0
LINE
  5
159
330
1F
100
AcDbEntity
  8
Nível_Padrão
  6
Continuous2
 62
     1
420
 16711680
370
    -3
100
AcDbLine
 10
320.75244585
 20
161.78780326
 30
0.0
 11
320.55882035
 21
162.00084502
 31
0.0
  0
LINE
  5
15A
330
1F
100
AcDbEntity
  8
Nível_Padrão
  6
Continuous2
 62
     1
420
 16711680
370
    -3
100
AcDbLine
 10
320.55882035
 20
162.00084502
 30
0.0
 11
320.34577858
 21
162.19447052
 31
0.0
  0
LINE
  5
15B
330
1F
100
AcDbEntity
  8
Nível_Padrão
  6
Continuous2
 62
     1
420
 16711680
370
    -3
100
AcDbLine
 10
320.34577858
 20
162.19447052
 30
0.0
 11
320.11482854
 21
162.3671718
 31
0.0
  0
LINE
  5
15C
330
1F
100
AcDbEntity
  8
Nível_Padrão
  6
Continuous2
 62
     1
420
 16711680
370
    -3
100
AcDbLine
 10
320.11482854
 20
162.3671718
 30
0.0
 11
319.86747814
 21
162.51744088
 31
0.0
  0
LINE
  5
15D
330
1F
100
AcDbEntity
  8
Nível_Padrão
  6
Continuous2
 62
     1
420
 16711680
370
    -3
100
AcDbLine
 10
319.86747814
 20
162.51744088
 30
0.0
 11
319.6052354
 21
162.64376981
 31
0.0
  0
LINE
  5
15E
330
1F
100
AcDbEntity
  8
Nível_Padrão
  6
Continuous2
 62
     1
420
 16711680
370
    -3
100
AcDbLine
 10
319.6052354
 20
162.64376981
 30
0.0
 11
319.32960824
 21
162.74465062
 31
0.0
  0
LINE
  5
15F
330
1F
100
AcDbEntity
  8
Nível_Padrão
  6
Continuous2
 62
     1
420
 16711680
370
    -3
100
AcDbLine
 10
319.32960824
 20
162.74465062
 30
0.0
 11
319.04210464
 21
162.81857534
 31
0.0
  0
LINE
  5
160
330
1F
100
AcDbEntity
  8
Nível_Padrão
  6
Continuous2
 62
     1
420
 16711680
370
    -3
100
AcDbLine
 10
319.04210464
 20
162.81857534
 30
0.0
 11
318.74423258
 21
162.86403602
 31
0.0
  0
LINE
  5
161
330
1F
100
AcDbEntity
  8
Nível_Padrão
  6
Continuous2
 62
     1
420
 16711680
370
    -3
100
AcDbLine
 10
318.74423258
 20
162.86403602
 30
0.0
 11
318.4375
 21
162.87952468
 31
0.0
  0
LINE
  5
162
330
1F
100
AcDbEntity
  8
Nível_Padrão
  6
Continuous2
 62
     1
420
 16711680
370
    -3
100
AcDbLine
 10
318.4375
 20
162.87952468
 30
0.0
 11
318.13076743
 21
162.86403602
 31
0.0
  0
LINE
  5
163
330
1F
100
AcDbEntity
  8
Nível_Padrão
  6
Continuous2
 62
     1
420
 16711680
370
    -3
100
AcDbLine
 10
318.13076743
 20
162.86403602
 30
0.0
 11
317.83289537
 21
162.81857534
 31
0.0
  0
LINE
  5
164
330
1F
100
AcDbEntity
  8
Nível_Padrão
  6
Continuous2
 62
     1
420
 16711680
370
    -3
100
AcDbLine
 10
317.83289537
 20
162.81857534
 30
0.0
 11
317.54539177
 21
162.74465062
 31
0.0
  0
LINE
  5
165
330
1F
100
AcDbEntity
  8
Nível_Padrão
  6
Continuous2
 62
     1
420
 16711680
370
    -3
100
AcDbLine
 10
317.54539177
 20
162.74465062
 30
0.0
 11
317.26976461
 21
162.64376981
 31
0.0
  0
LINE
  5
166
330
1F
100
AcDbEntity
  8
Nível_Padrão
  6
Continuous2
 62
     1
420
 16711680
370
    -3
100
AcDbLine
 10
317.26976461
 20
162.64376981
 30
0.0
 11
317.00752186
 21
162.51744088
 31
0.0
  0
LINE
  5
167
330
1F
100
AcDbEntity
  8
Nível_Padrão
  6
Continuous2
 62
     1
420
 16711680
370
    -3
100
AcDbLine
 10
317.00752186
 20
162.51744088
 30
0.0
 11
316.76017147
 21
162.3671718
 31
0.0
  0
LINE
  5
168
330
1F
100
AcDbEntity
  8
Nível_Padrão
  6
Continuous2
 62
     1
420
 16711680
370
    -3
100
AcDbLine
 10
316.76017147
 20
162.3671718
 30
0.0
 11
316.52922142
 21
162.19447052
 31
0.0
  0
LINE
  5
169
330
1F
100
AcDbEntity
  8
Nível_Padrão
  6
Continuous2
 62
     1
420
 16711680
370
    -3
100
AcDbLine
 10
316.52922142
 20
162.19447052
 30
0.0
 11
316.31617966
 21
162.00084502
 31
0.0
  0
LINE
  5
16A
330
1F
100
AcDbEntity
  8
Nível_Padrão
  6
Continuous2
 62
     1
420
 16711680
370
    -3
100
AcDbLine
 10
316.31617966
 20
162.00084502
 30
0.0
 11
316.12255416
 21
161.78780326
 31
0.0
  0
LINE
  5
16B
330
1F
100
AcDbEntity
  8
Nível_Padrão
  6
Continuous2
 62
     1
420
 16711680
370
    -3
100
AcDbLine
 10
316.12255416
 20
161.78780326
 30
0.0
 11
315.94985288
 21
161.55685321
 31
0.0
  0
LINE
  5
16C
330
1F
100
AcDbEntity
  8
Nível_Padrão
  6
Continuous2
 62
     1
420
 16711680
370
    -3
100
AcDbLine
 10
315.94985288
 20
161.55685321
 30
0.0
 11
315.7995838
 21
161.30950282
 31
0.0
  0
LINE
  5
16D
330
1F
100
AcDbEntity
  8
Nível_Padrão
  6
Continuous2
 62
     1
420
 16711680
370
    -3
100
AcDbLine
 10
315.7995838
 20
161.30950282
 30
0.0
 11
315.67325487
 21
161.04726007
 31
0.0
  0
LINE
  5
16E
330
1F
100
AcDbEntity
  8
Nível_Padrão
  6
Continuous2
 62
     1
420
 16711680
370
    -3
100
AcDbLine
 10
315.67325487
 20
161.04726007
 30
0.0
 11
315.57237407
 21
160.77163291
 31
0.0
  0
LINE
  5
16F
330
1F
100
AcDbEntity
  8
Nível_Padrão
  6
Continuous2
 62
     1
420
 16711680
370
    -3
100
AcDbLine
 10
315.57237407
 20
160.77163291
 30
0.0
 11
315.49844934
 21
160.48412932
 31
0.0
  0
LINE
  5
170
330
1F
100
AcDbEntity
  8
Nível_Padrão
  6
Continuous2
 62
     1
420
 16711680
370
    -3
100
AcDbLine
 10
315.49844934
 20
160.48412932
 30
0.0
 11
315.45298867
 21
160.18625725
 31
0.0
  0
LINE
  5
171
330
1F
100
AcDbEntity
  8
Nível_Padrão
  6
Continuous2
 62
     1
420
 16711680
370
    -3
100
AcDbLine
 10
315.45298867
 20
160.18625725
 30
0.0
 11
315.4375
 21
159.87952468
 31
0.0
  0
LINE
  5
172
330
1F
100
AcDbEntity
  8
Nível_Padrão
  6
Continuous2
 62
     1
420
 16711680
370
    -3
100
AcDbLine
 10
315.4375
 20
159.87952468
 30
0.0
 11
315.45298867
 21
159.57279211
 31
0.0
  0
LINE
  5
173
330
1F
100
AcDbEntity
  8
Nível_Padrão
  6
Continuous2
 62
     1
420
 16711680
370
    -3
100
AcDbLine
 10
315.45298867
 20
159.57279211
 30
0.0
 11
315.49844934
 21
159.27492004
 31
0.0
  0
LINE
  5
174
330
1F
100
AcDbEntity
  8
Nível_Padrão
  6
Continuous2
 62
     1
420
 16711680
370
    -3
100
AcDbLine
 10
109.88195627
 20
183.48573917
 30
0.0
 11
109.88936891
 21
183.37952468
 31
0.0
  0
ARC
  5
175
330
1F
100
AcDbEntity
  8
Nível_Padrão
  6
Continuous2
 62
     1
420
 16711680
370
    -3
100
AcDbCircle
 10
95.92153656457357
 20
182.4314011277445
 30
0.0
 40
13.9999742392721
100
AcDbArc
 50
273.8832282622654
 51
3.883227798040532
  0
ARC
  5
176
330
1F
100
AcDbEntity
  8
Nível_Padrão
  6
Continuous2
 62
     1
420
 16711680
370
    -3
100
AcDbCircle
 10
95.92153667774448
 20
182.4314011354264
 30
0.0
 40
13.99997423927208
100
AcDbArc
 50
183.8832282622655
 51
273.8832277980406
  0
ARC
  5
177
330
1F
100
AcDbEntity
  8
Nível_Padrão
  6
Continuous2
 62
     1
420
 16711680
370
    -3
100
AcDbCircle
 10
95.91783037062656
 20
182.4845082674857
 30
0.0
 40
13.99997424672832
100
AcDbArc
 50
94.10110180167044
 51
184.1011013374455
  0
ARC
  5
178
330
1F
100
AcDbEntity
  8
Nível_Padrão
  6
Continuous2
 62
     1
420
 16711680
370
    -3
100
AcDbCircle
 10
95.91783025248566
 20
182.4845082643734
 30
0.0
 40
13.99997424138354
100
AcDbArc
 50
4.101101782723427
 51
94.1011013184985
  0
ARC
  5
179
330
1F
100
AcDbEntity
  8
Nível_Padrão
  6
Continuous2
 62
     1
420
 16711680
370
    -3
100
AcDbCircle
 10
206.9859752517158
 20
122.9915221382843
 30
0.0
 40
13.99999783171577
100
AcDbArc
 50
90.00000021164972
 51
179.9999997474248
  0
ARC
  5
17A
330
1F
100
AcDbEntity
  8
Nível_Padrão
  6
Continuous2
 62
     1
420
 16711680
370
    -3
100
AcDbCircle
 10
206.9859752567158
 20
122.9915222567158
 30
0.0
 40
13.99999783671577
100
AcDbArc
 50
180.0000002321124
 51
269.9999997678875
  0
ARC
  5
17B
330
1F
100
AcDbEntity
  8
Nível_Padrão
  6
Continuous2
 62
     1
420
 16711680
370
    -3
100
AcDbCircle
 10
206.9859751432842
 20
122.9915222567158
 30
0.0
 40
13.99999783671577
100
AcDbArc
 50
270.0000002321124
 51
359.9999997678876
  0
ARC
  5
17C
330
1F
100
AcDbEntity
  8
Nível_Padrão
  6
Continuous2
 62
     1
420
 16711680
370
    -3
100
AcDbCircle
 10
206.9859751482842
 20
122.9915221382843
 30
0.0
 40
13.99999783171577
100
AcDbArc
 50
0.0000002525751926
 51
89.99999978835027
  0
LINE
  5
17D
330
1F
100
AcDbEntity
  8
Nível_Padrão
  6
Continuous2
 62
     1
420
 16711680
370
    -3
100
AcDbLine
 10
590.36495066
 20
562.04041861
 30
0.0
 11
590.38043932
 21
562.34715119
 31
0.0
  0
LINE
  5
17E
330
1F
100
AcDbEntity
  8
Nível_Padrão
  6
Continuous2
 62
     1
420
 16711680
370
    -3
100
AcDbLine
 10
590.38043932
 20
562.34715119
 30
0.0
 11
590.4259
 21
562.64502325
 31
0.0
  0
LINE
  5
17F
330
1F
100
AcDbEntity
  8
Nível_Padrão
  6
Continuous2
 62
     1
420
 16711680
370
    -3
100
AcDbLine
 10
590.4259
 20
562.64502325
 30
0.0
 11
590.49982472
 21
562.93252684
 31
0.0
  0
LINE
  5
180
330
1F
100
AcDbEntity
  8
Nível_Padrão
  6
Continuous2
 62
     1
420
 16711680
370
    -3
100
AcDbLine
 10
590.49982472
 20
562.93252684
 30
0.0
 11
590.60070553
 21
563.208154
 31
0.0
  0
LINE
  5
181
330
1F
100
AcDbEntity
  8
Nível_Padrão
  6
Continuous2
 62
     1
420
 16711680
370
    -3
100
AcDbLine
 10
590.60070553
 20
563.208154
 30
0.0
 11
590.72703446
 21
563.47039675
 31
0.0
  0
LINE
  5
182
330
1F
100
AcDbEntity
  8
Nível_Padrão
  6
Continuous2
 62
     1
420
 16711680
370
    -3
100
AcDbLine
 10
590.72703446
 20
563.47039675
 30
0.0
 11
590.87730354
 21
563.71774714
 31
0.0
  0
LINE
  5
183
330
1F
100
AcDbEntity
  8
Nível_Padrão
  6
Continuous2
 62
     1
420
 16711680
370
    -3
100
AcDbLine
 10
590.87730354
 20
563.71774714
 30
0.0
 11
591.05000482
 21
563.9486972
 31
0.0
  0
LINE
  5
184
330
1F
100
AcDbEntity
  8
Nível_Padrão
  6
Continuous2
 62
     1
420
 16711680
370
    -3
100
AcDbLine
 10
591.05000482
 20
563.9486972
 30
0.0
 11
591.24363032
 21
564.16173896
 31
0.0
  0
LINE
  5
185
330
1F
100
AcDbEntity
  8
Nível_Padrão
  6
Continuous2
 62
     1
420
 16711680
370
    -3
100
AcDbLine
 10
591.24363032
 20
564.16173896
 30
0.0
 11
591.45667208
 21
564.35536446
 31
0.0
  0
LINE
  5
186
330
1F
100
AcDbEntity
  8
Nível_Padrão
  6
Continuous2
 62
     1
420
 16711680
370
    -3
100
AcDbLine
 10
591.45667208
 20
564.35536446
 30
0.0
 11
591.68762213
 21
564.52806573
 31
0.0
  0
LINE
  5
187
330
1F
100
AcDbEntity
  8
Nível_Padrão
  6
Continuous2
 62
     1
420
 16711680
370
    -3
100
AcDbLine
 10
591.68762213
 20
564.52806573
 30
0.0
 11
591.93497252
 21
564.67833481
 31
0.0
  0
LINE
  5
188
330
1F
100
AcDbEntity
  8
Nível_Padrão
  6
Continuous2
 62
     1
420
 16711680
370
    -3
100
AcDbLine
 10
591.93497252
 20
564.67833481
 30
0.0
 11
592.19721527
 21
564.80466374
 31
0.0
  0
LINE
  5
189
330
1F
100
AcDbEntity
  8
Nível_Padrão
  6
Continuous2
 62
     1
420
 16711680
370
    -3
100
AcDbLine
 10
592.19721527
 20
564.80466374
 30
0.0
 11
592.47284243
 21
564.90554455
 31
0.0
  0
LINE
  5
18A
330
1F
100
AcDbEntity
  8
Nível_Padrão
  6
Continuous2
 62
     1
420
 16711680
370
    -3
100
AcDbLine
 10
592.47284243
 20
564.90554455
 30
0.0
 11
592.76034602
 21
564.97946927
 31
0.0
  0
LINE
  5
18B
330
1F
100
AcDbEntity
  8
Nível_Padrão
  6
Continuous2
 62
     1
420
 16711680
370
    -3
100
AcDbLine
 10
592.76034602
 20
564.97946927
 30
0.0
 11
593.05821809
 21
565.02492995
 31
0.0
  0
LINE
  5
18C
330
1F
100
AcDbEntity
  8
Nível_Padrão
  6
Continuous2
 62
     1
420
 16711680
370
    -3
100
AcDbLine
 10
593.05821809
 20
565.02492995
 30
0.0
 11
593.36495066
 21
565.04041861
 31
0.0
  0
LINE
  5
18D
330
1F
100
AcDbEntity
  8
Nível_Padrão
  6
Continuous2
 62
     1
420
 16711680
370
    -3
100
AcDbLine
 10
593.36495066
 20
565.04041861
 30
0.0
 11
593.67168323
 21
565.02492995
 31
0.0
  0
LINE
  5
18E
330
1F
100
AcDbEntity
  8
Nível_Padrão
  6
Continuous2
 62
     1
420
 16711680
370
    -3
100
AcDbLine
 10
593.67168323
 20
565.02492995
 30
0.0
 11
593.9695553
 21
564.97946927
 31
0.0
  0
LINE
  5
18F
330
1F
100
AcDbEntity
  8
Nível_Padrão
  6
Continuous2
 62
     1
420
 16711680
370
    -3
100
AcDbLine
 10
593.9695553
 20
564.97946927
 30
0.0
 11
594.25705889
 21
564.90554455
 31
0.0
  0
LINE
  5
190
330
1F
100
AcDbEntity
  8
Nível_Padrão
  6
Continuous2
 62
     1
420
 16711680
370
    -3
100
AcDbLine
 10
594.25705889
 20
564.90554455
 30
0.0
 11
594.53268605
 21
564.80466374
 31
0.0
  0
LINE
  5
191
330
1F
100
AcDbEntity
  8
Nível_Padrão
  6
Continuous2
 62
     1
420
 16711680
370
    -3
100
AcDbLine
 10
594.53268605
 20
564.80466374
 30
0.0
 11
594.7949288
 21
564.67833481
 31
0.0
  0
LINE
  5
192
330
1F
100
AcDbEntity
  8
Nível_Padrão
  6
Continuous2
 62
     1
420
 16711680
370
    -3
100
AcDbLine
 10
594.7949288
 20
564.67833481
 30
0.0
 11
595.04227919
 21
564.52806573
 31
0.0
  0
LINE
  5
193
330
1F
100
AcDbEntity
  8
Nível_Padrão
  6
Continuous2
 62
     1
420
 16711680
370
    -3
100
AcDbLine
 10
595.04227919
 20
564.52806573
 30
0.0
 11
595.27322924
 21
564.35536446
 31
0.0
  0
LINE
  5
194
330
1F
100
AcDbEntity
  8
Nível_Padrão
  6
Continuous2
 62
     1
420
 16711680
370
    -3
100
AcDbLine
 10
595.27322924
 20
564.35536446
 30
0.0
 11
595.486271
 21
564.16173896
 31
0.0
  0
LINE
  5
195
330
1F
100
AcDbEntity
  8
Nível_Padrão
  6
Continuous2
 62
     1
420
 16711680
370
    -3
100
AcDbLine
 10
595.486271
 20
564.16173896
 30
0.0
 11
595.6798965
 21
563.9486972
 31
0.0
  0
LINE
  5
196
330
1F
100
AcDbEntity
  8
Nível_Padrão
  6
Continuous2
 62
     1
420
 16711680
370
    -3
100
AcDbLine
 10
595.6798965
 20
563.9486972
 30
0.0
 11
595.85259778
 21
563.71774714
 31
0.0
  0
LINE
  5
197
330
1F
100
AcDbEntity
  8
Nível_Padrão
  6
Continuous2
 62
     1
420
 16711680
370
    -3
100
AcDbLine
 10
595.85259778
 20
563.71774714
 30
0.0
 11
596.00286686
 21
563.47039675
 31
0.0
  0
LINE
  5
198
330
1F
100
AcDbEntity
  8
Nível_Padrão
  6
Continuous2
 62
     1
420
 16711680
370
    -3
100
AcDbLine
 10
596.00286686
 20
563.47039675
 30
0.0
 11
596.12919579
 21
563.208154
 31
0.0
  0
LINE
  5
199
330
1F
100
AcDbEntity
  8
Nível_Padrão
  6
Continuous2
 62
     1
420
 16711680
370
    -3
100
AcDbLine
 10
596.12919579
 20
563.208154
 30
0.0
 11
596.2300766
 21
562.93252684
 31
0.0
  0
LINE
  5
19A
330
1F
100
AcDbEntity
  8
Nível_Padrão
  6
Continuous2
 62
     1
420
 16711680
370
    -3
100
AcDbLine
 10
596.2300766
 20
562.93252684
 30
0.0
 11
596.30400132
 21
562.64502325
 31
0.0
  0
LINE
  5
19B
330
1F
100
AcDbEntity
  8
Nível_Padrão
  6
Continuous2
 62
     1
420
 16711680
370
    -3
100
AcDbLine
 10
596.30400132
 20
562.64502325
 30
0.0
 11
596.349462
 21
562.34715119
 31
0.0
  0
LINE
  5
19C
330
1F
100
AcDbEntity
  8
Nível_Padrão
  6
Continuous2
 62
     1
420
 16711680
370
    -3
100
AcDbLine
 10
596.349462
 20
562.34715119
 30
0.0
 11
596.36495066
 21
562.04041861
 31
0.0
  0
LINE
  5
19D
330
1F
100
AcDbEntity
  8
Nível_Padrão
  6
Continuous2
 62
     1
420
 16711680
370
    -3
100
AcDbLine
 10
596.36495066
 20
562.04041861
 30
0.0
 11
596.349462
 21
561.73368604
 31
0.0
  0
LINE
  5
19E
330
1F
100
AcDbEntity
  8
Nível_Padrão
  6
Continuous2
 62
     1
420
 16711680
370
    -3
100
AcDbLine
 10
596.349462
 20
561.73368604
 30
0.0
 11
596.30400132
 21
561.43581397
 31
0.0
  0
LINE
  5
19F
330
1F
100
AcDbEntity
  8
Nível_Padrão
  6
Continuous2
 62
     1
420
 16711680
370
    -3
100
AcDbLine
 10
596.30400132
 20
561.43581397
 30
0.0
 11
596.2300766
 21
561.14831038
 31
0.0
  0
LINE
  5
1A0
330
1F
100
AcDbEntity
  8
Nível_Padrão
  6
Continuous2
 62
     1
420
 16711680
370
    -3
100
AcDbLine
 10
596.2300766
 20
561.14831038
 30
0.0
 11
596.12919579
 21
560.87268323
 31
0.0
  0
LINE
  5
1A1
330
1F
100
AcDbEntity
  8
Nível_Padrão
  6
Continuous2
 62
     1
420
 16711680
370
    -3
100
AcDbLine
 10
596.12919579
 20
560.87268323
 30
0.0
 11
596.00286686
 21
560.61044047
 31
0.0
  0
LINE
  5
1A2
330
1F
100
AcDbEntity
  8
Nível_Padrão
  6
Continuous2
 62
     1
420
 16711680
370
    -3
100
AcDbLine
 10
596.00286686
 20
560.61044047
 30
0.0
 11
595.85259778
 21
560.36309008
 31
0.0
  0
LINE
  5
1A3
330
1F
100
AcDbEntity
  8
Nível_Padrão
  6
Continuous2
 62
     1
420
 16711680
370
    -3
100
AcDbLine
 10
595.85259778
 20
560.36309008
 30
0.0
 11
595.6798965
 21
560.13214003
 31
0.0
  0
LINE
  5
1A4
330
1F
100
AcDbEntity
  8
Nível_Padrão
  6
Continuous2
 62
     1
420
 16711680
370
    -3
100
AcDbLine
 10
595.6798965
 20
560.13214003
 30
0.0
 11
595.486271
 21
559.91909827
 31
0.0
  0
LINE
  5
1A5
330
1F
100
AcDbEntity
  8
Nível_Padrão
  6
Continuous2
 62
     1
420
 16711680
370
    -3
100
AcDbLine
 10
595.486271
 20
559.91909827
 30
0.0
 11
595.27322924
 21
559.72547277
 31
0.0
  0
LINE
  5
1A6
330
1F
100
AcDbEntity
  8
Nível_Padrão
  6
Continuous2
 62
     1
420
 16711680
370
    -3
100
AcDbLine
 10
595.27322924
 20
559.72547277
 30
0.0
 11
595.04227919
 21
559.5527715
 31
0.0
  0
LINE
  5
1A7
330
1F
100
AcDbEntity
  8
Nível_Padrão
  6
Continuous2
 62
     1
420
 16711680
370
    -3
100
AcDbLine
 10
595.04227919
 20
559.5527715
 30
0.0
 11
594.7949288
 21
559.40250241
 31
0.0
  0
LINE
  5
1A8
330
1F
100
AcDbEntity
  8
Nível_Padrão
  6
Continuous2
 62
     1
420
 16711680
370
    -3
100
AcDbLine
 10
594.7949288
 20
559.40250241
 30
0.0
 11
594.53268605
 21
559.27617348
 31
0.0
  0
LINE
  5
1A9
330
1F
100
AcDbEntity
  8
Nível_Padrão
  6
Continuous2
 62
     1
420
 16711680
370
    -3
100
AcDbLine
 10
594.53268605
 20
559.27617348
 30
0.0
 11
594.25705889
 21
559.17529267
 31
0.0
  0
LINE
  5
1AA
330
1F
100
AcDbEntity
  8
Nível_Padrão
  6
Continuous2
 62
     1
420
 16711680
370
    -3
100
AcDbLine
 10
594.25705889
 20
559.17529267
 30
0.0
 11
593.9695553
 21
559.10136795
 31
0.0
  0
LINE
  5
1AB
330
1F
100
AcDbEntity
  8
Nível_Padrão
  6
Continuous2
 62
     1
420
 16711680
370
    -3
100
AcDbLine
 10
593.9695553
 20
559.10136795
 30
0.0
 11
593.67168323
 21
559.05590727
 31
0.0
  0
LINE
  5
1AC
330
1F
100
AcDbEntity
  8
Nível_Padrão
  6
Continuous2
 62
     1
420
 16711680
370
    -3
100
AcDbLine
 10
593.67168323
 20
559.05590727
 30
0.0
 11
593.36495066
 21
559.04041861
 31
0.0
  0
LINE
  5
1AD
330
1F
100
AcDbEntity
  8
Nível_Padrão
  6
Continuous2
 62
     1
420
 16711680
370
    -3
100
AcDbLine
 10
593.36495066
 20
559.04041861
 30
0.0
 11
593.05821809
 21
559.05590727
 31
0.0
  0
LINE
  5
1AE
330
1F
100
AcDbEntity
  8
Nível_Padrão
  6
Continuous2
 62
     1
420
 16711680
370
    -3
100
AcDbLine
 10
593.05821809
 20
559.05590727
 30
0.0
 11
592.76034602
 21
559.10136795
 31
0.0
  0
LINE
  5
1AF
330
1F
100
AcDbEntity
  8
Nível_Padrão
  6
Continuous2
 62
     1
420
 16711680
370
    -3
100
AcDbLine
 10
592.76034602
 20
559.10136795
 30
0.0
 11
592.47284243
 21
559.17529267
 31
0.0
  0
LINE
  5
1B0
330
1F
100
AcDbEntity
  8
Nível_Padrão
  6
Continuous2
 62
     1
420
 16711680
370
    -3
100
AcDbLine
 10
592.47284243
 20
559.17529267
 30
0.0
 11
592.19721527
 21
559.27617348
 31
0.0
  0
LINE
  5
1B1
330
1F
100
AcDbEntity
  8
Nível_Padrão
  6
Continuous2
 62
     1
420
 16711680
370
    -3
100
AcDbLine
 10
592.19721527
 20
559.27617348
 30
0.0
 11
591.93497252
 21
559.40250241
 31
0.0
  0
LINE
  5
1B2
330
1F
100
AcDbEntity
  8
Nível_Padrão
  6
Continuous2
 62
     1
420
 16711680
370
    -3
100
AcDbLine
 10
591.93497252
 20
559.40250241
 30
0.0
 11
591.68762213
 21
559.5527715
 31
0.0
  0
LINE
  5
1B3
330
1F
100
AcDbEntity
  8
Nível_Padrão
  6
Continuous2
 62
     1
420
 16711680
370
    -3
100
AcDbLine
 10
591.68762213
 20
559.5527715
 30
0.0
 11
591.45667208
 21
559.72547277
 31
0.0
  0
LINE
  5
1B4
330
1F
100
AcDbEntity
  8
Nível_Padrão
  6
Continuous2
 62
     1
420
 16711680
370
    -3
100
AcDbLine
 10
591.45667208
 20
559.72547277
 30
0.0
 11
591.24363032
 21
559.91909827
 31
0.0
  0
LINE
  5
1B5
330
1F
100
AcDbEntity
  8
Nível_Padrão
  6
Continuous2
 62
     1
420
 16711680
370
    -3
100
AcDbLine
 10
591.24363032
 20
559.91909827
 30
0.0
 11
591.05000482
 21
560.13214003
 31
0.0
  0
LINE
  5
1B6
330
1F
100
AcDbEntity
  8
Nível_Padrão
  6
Continuous2
 62
     1
420
 16711680
370
    -3
100
AcDbLine
 10
591.05000482
 20
560.13214003
 30
0.0
 11
590.87730354
 21
560.36309008
 31
0.0
  0
LINE
  5
1B7
330
1F
100
AcDbEntity
  8
Nível_Padrão
  6
Continuous2
 62
     1
420
 16711680
370
    -3
100
AcDbLine
 10
590.87730354
 20
560.36309008
 30
0.0
 11
590.72703446
 21
560.61044047
 31
0.0
  0
LINE
  5
1B8
330
1F
100
AcDbEntity
  8
Nível_Padrão
  6
Continuous2
 62
     1
420
 16711680
370
    -3
100
AcDbLine
 10
590.72703446
 20
560.61044047
 30
0.0
 11
590.60070553
 21
560.87268323
 31
0.0
  0
LINE
  5
1B9
330
1F
100
AcDbEntity
  8
Nível_Padrão
  6
Continuous2
 62
     1
420
 16711680
370
    -3
100
AcDbLine
 10
590.60070553
 20
560.87268323
 30
0.0
 11
590.49982472
 21
561.14831038
 31
0.0
  0
LINE
  5
1BA
330
1F
100
AcDbEntity
  8
Nível_Padrão
  6
Continuous2
 62
     1
420
 16711680
370
    -3
100
AcDbLine
 10
590.49982472
 20
561.14831038
 30
0.0
 11
590.4259
 21
561.43581397
 31
0.0
  0
LINE
  5
1BB
330
1F
100
AcDbEntity
  8
Nível_Padrão
  6
Continuous2
 62
     1
420
 16711680
370
    -3
100
AcDbLine
 10
590.4259
 20
561.43581397
 30
0.0
 11
590.38043932
 21
561.73368604
 31
0.0
  0
LINE
  5
1BC
330
1F
100
AcDbEntity
  8
Nível_Padrão
  6
Continuous2
 62
     1
420
 16711680
370
    -3
100
AcDbLine
 10
590.38043932
 20
561.73368604
 30
0.0
 11
590.36495066
 21
562.04041861
 31
0.0
  0
LINE
  5
1BD
330
1F
100
AcDbEntity
  8
Nível_Padrão
  6
Continuous2
 62
     1
420
 16711680
370
    -3
100
AcDbLine
 10
265.56749188
 20
216.9149707
 30
0.0
 11
458.40377478
 21
446.72830364
 31
0.0
  0
LINE
  5
1BE
330
1F
100
AcDbEntity
  8
Nível_Padrão
  6
Continuous2
 62
     1
420
 16711680
370
    -3
100
AcDbLine
 10
458.40377478
 20
446.72830364
 30
0.0
 11
456.10564145
 21
448.65666647
 31
0.0
  0
LINE
  5
1BF
330
1F
100
AcDbEntity
  8
Nível_Padrão
  6
Continuous2
 62
     1
420
 16711680
370
    -3
100
AcDbLine
 10
456.10564145
 20
448.65666647
 30
0.0
 11
263.26935855
 21
218.84333353
 31
0.0
  0
LINE
  5
1C0
330
1F
100
AcDbEntity
  8
Nível_Padrão
  6
Continuous2
 62
     1
420
 16711680
370
    -3
100
AcDbLine
 10
263.26935855
 20
218.84333353
 30
0.0
 11
265.56749188
 21
216.9149707
 31
0.0
  0
LINE
  5
1C1
330
1F
100
AcDbEntity
  8
Nível_Padrão
  6
Continuous2
 62
     1
420
 16711680
370
    -3
100
AcDbLine
 10
177.44249188
 20
216.9149707
 30
0.0
 11
370.27877478
 21
446.72830364
 31
0.0
  0
LINE
  5
1C2
330
1F
100
AcDbEntity
  8
Nível_Padrão
  6
Continuous2
 62
     1
420
 16711680
370
    -3
100
AcDbLine
 10
370.27877478
 20
446.72830364
 30
0.0
 11
367.98064145
 21
448.65666647
 31
0.0
  0
LINE
  5
1C3
330
1F
100
AcDbEntity
  8
Nível_Padrão
  6
Continuous2
 62
     1
420
 16711680
370
    -3
100
AcDbLine
 10
367.98064145
 20
448.65666647
 30
0.0
 11
175.14435855
 21
218.84333353
 31
0.0
  0
LINE
  5
1C4
330
1F
100
AcDbEntity
  8
Nível_Padrão
  6
Continuous2
 62
     1
420
 16711680
370
    -3
100
AcDbLine
 10
175.14435855
 20
218.84333353
 30
0.0
 11
177.44249188
 21
216.9149707
 31
0.0
  0
CIRCLE
  5
1C5
330
1F
100
AcDbEntity
  8
0
  6
Continuous2
 62
     3
420
    65280
370
    -3
100
AcDbCircle
 10
733.2628173828125
 20
766.1963500976562
 30
0.0
 40
12.0
  0
LINE
  5
1C6
330
1F
100
AcDbEntity
  8
0
  6
Continuous2
 62
     3
420
    65280
370
    -3
100
AcDbLine
 10
707.8628173828125
 20
791.5963500976562
 30
0.0
 11
758.6628173828125
 21
791.5963500976562
 31
0.0
  0
LINE
  5
1C7
330
1F
100
AcDbEntity
  8
0
  6
Continuous2
 62
     3
420
    65280
370
    -3
100
AcDbLine
 10
758.6628173828125
 20
791.5963500976562
 30
0.0
 11
758.6628173828125
 21
740.7963500976563
 31
0.0
  0
LINE
  5
1C8
330
1F
100
AcDbEntity
  8
0
  6
Continuous2
 62
     3
420
    65280
370
    -3
100
AcDbLine
 10
707.8628173828125
 20
740.7963500976563
 30
0.0
 11
733.6628214
 21
740.7963500976562
 31
0.0
  0
LINE
  5
1C9
330
1F
100
AcDbEntity
  8
0
  6
Continuous2
 62
     3
420
    65280
370
    -3
100
AcDbLine
 10
707.8628173828125
 20
740.7963500976563
 30
0.0
 11
707.8628173828125
 21
791.5963500976562
 31
0.0
  0
LINE
  5
1CA
330
1F
100
AcDbEntity
  8
0
  6
Continuous2
 62
     3
420
    65280
370
    -3
100
AcDbLine
 10
758.6628214
 20
384.09176399
 30
0.0
 11
758.6628173828125
 21
740.7963500976563
 31
0.0
  0
LINE
  5
1CB
330
1F
100
AcDbEntity
  8
0
  6
Continuous2
 62
     3
420
    65280
370
    -3
100
AcDbLine
 10
733.6628214
 20
740.796350097656
 30
0.0
 11
733.6628214
 21
384.09176399
 31
0.0
  0
ENDSEC
  0
SECTION
  2
OBJECTS
  0
DICTIONARY
  5
C
330
0
100
AcDbDictionary
281
     1
  3
ACAD_GROUP
350
D
  3
ACAD_LAYOUT
350
1A
  3
ACAD_MATERIAL
350
3B
  3
ACAD_MLEADERSTYLE
350
1ED
  3
ACAD_MLINESTYLE
350
17
  3
ACAD_PLOTSETTINGS
350
19
  3
ACAD_PLOTSTYLENAME
350
E
  3
ACAD_TABLESTYLE
350
1EC
  3
ACAD_VISUALSTYLE
350
2A
  0
DICTIONARY
  5
D
102
{ACAD_REACTORS
330
C
102
}
330
C
100
AcDbDictionary
281
     1
  0
DICTIONARY
  5
1A
102
{ACAD_REACTORS
330
C
102
}
330
C
100
AcDbDictionary
281
     1
  3
Layout1
350
1E
  3
Layout2
350
26
  3
Model
350
22
  0
DICTIONARY
  5
3B
102
{ACAD_REACTORS
330
C
102
}
330
C
100
AcDbDictionary
281
     1
  3
ByBlock
350
3D
  3
ByLayer
350
3C
  3
Global
350
3E
  0
DICTIONARY
  5
1ED
102
{ACAD_REACTORS
330
C
102
}
330
C
100
AcDbDictionary
281
     1
  0
DICTIONARY
  5
17
102
{ACAD_REACTORS
330
C
102
}
330
C
100
AcDbDictionary
281
     1
  3
Standard
350
18
  0
DICTIONARY
  5
19
102
{ACAD_REACTORS
330
C
102
}
330
C
100
AcDbDictionary
281
     1
  0
ACDBDICTIONARYWDFLT
  5
E
102
{ACAD_REACTORS
330
C
102
}
330
C
100
AcDbDictionary
281
     1
  3
Normal
350
F
100
AcDbDictionaryWithDefault
340
F
  0
DICTIONARY
  5
1EC
102
{ACAD_REACTORS
330
C
102
}
330
C
100
AcDbDictionary
281
     1
  0
DICTIONARY
  5
2A
102
{ACAD_REACTORS
330
C
102
}
330
C
100
AcDbDictionary
281
     1
  3
2dWireframe
350
2F
  3
3D Hidden
350
31
  3
3dWireframe
350
30
  3
Basic
350
32
  3
Brighten
350
36
  3
ColorChange
350
3A
  3
Conceptual
350
34
  3
Dim
350
35
  3
Facepattern
350
39
  3
Flat
350
2B
  3
FlatWithEdges
350
2C
  3
Gouraud
350
2D
  3
GouraudWithEdges
350
2E
  3
Linepattern
350
38
  3
Realistic
350
33
  3
Thicken
350
37
  0
LAYOUT
  5
1E
102
{ACAD_REACTORS
330
1A
102
}
330
1A
100
AcDbPlotSettings
  1

  2
none_device
  4

  6

 40
0.0
 41
0.0
 42
0.0
 43
0.0
 44
0.0
 45
0.0
 46
0.0
 47
0.0
 48
0.0
 49
0.0
140
0.0
141
0.0
142
1.0
143
1.0
 70
   688
 72
     0
 73
     0
 74
     5
  7

 75
    16
 76
     0
 77
     2
 78
   300
147
1.0
148
0.0
149
0.0
100
AcDbLayout
  1
Layout1
 70
     1
 71
     1
 10
0.0
 20
0.0
 11
12.0
 21
9.0
 12
0.0
 22
0.0
 32
0.0
 14
1.000000000000000E+20
 24
1.000000000000000E+20
 34
1.000000000000000E+20
 15
-1.000000000000000E+20
 25
-1.000000000000000E+20
 35
-1.000000000000000E+20
146
0.0
 13
0.0
 23
0.0
 33
0.0
 16
1.0
 26
0.0
 36
0.0
 17
0.0
 27
1.0
 37
0.0
 76
     0
330
1B
  0
LAYOUT
  5
26
102
{ACAD_REACTORS
330
1A
102
}
330
1A
100
AcDbPlotSettings
  1

  2
none_device
  4

  6

 40
0.0
 41
0.0
 42
0.0
 43
0.0
 44
0.0
 45
0.0
 46
0.0
 47
0.0
 48
0.0
 49
0.0
140
0.0
141
0.0
142
1.0
143
1.0
 70
   688
 72
     0
 73
     0
 74
     5
  7

 75
    16
 76
     0
 77
     2
 78
   300
147
1.0
148
0.0
149
0.0
100
AcDbLayout
  1
Layout2
 70
     1
 71
     2
 10
0.0
 20
0.0
 11
0.0
 21
0.0
 12
0.0
 22
0.0
 32
0.0
 14
0.0
 24
0.0
 34
0.0
 15
0.0
 25
0.0
 35
0.0
146
0.0
 13
0.0
 23
0.0
 33
0.0
 16
1.0
 26
0.0
 36
0.0
 17
0.0
 27
1.0
 37
0.0
 76
     0
330
23
  0
LAYOUT
  5
22
102
{ACAD_REACTORS
330
1A
102
}
330
1A
100
AcDbPlotSettings
  1

  2
none_device
  4

  6

 40
0.0
 41
0.0
 42
0.0
 43
0.0
 44
0.0
 45
0.0
 46
0.0
 47
0.0
 48
0.0
 49
0.0
140
0.0
141
0.0
142
1.0
143
1.0
 70
  1712
 72
     0
 73
     0
 74
     0
  7

 75
     0
 76
     0
 77
     2
 78
   300
147
1.0
148
0.0
149
0.0
100
AcDbLayout
  1
Model
 70
     1
 71
     0
 10
0.0
 20
0.0
 11
12.0
 21
9.0
 12
0.0
 22
0.0
 32
0.0
 14
58.515625
 24
98.18942417401095
 34
0.0
 15
758.6628214
 25
791.5963500976562
 35
0.0
146
0.0
 13
0.0
 23
0.0
 33
0.0
 16
1.0
 26
0.0
 36
0.0
 17
0.0
 27
1.0
 37
0.0
 76
     0
330
1F
331
29
  0
MATERIAL
  5
3D
102
{ACAD_REACTORS
330
3B
102
}
330
3B
100
AcDbMaterial
  1
ByBlock
 72
     1
 94
      127
  0
MATERIAL
  5
3C
102
{ACAD_REACTORS
330
3B
102
}
330
3B
100
AcDbMaterial
  1
ByLayer
 72
     1
 94
      127
  0
MATERIAL
  5
3E
102
{ACAD_REACTORS
330
3B
102
}
330
3B
100
AcDbMaterial
  1
Global
 72
     1
 94
      127
  0
MLINESTYLE
  5
18
102
{ACAD_REACTORS
330
17
102
}
330
17
100
AcDbMlineStyle
  2
Standard
 70
     0
  3

 62
   256
 51
90.0
 52
90.0
 71
     2
 49
0.5
 62
   256
  6
BYLAYER
 49
-0.5
 62
   256
  6
BYLAYER
  0
ACDBPLACEHOLDER
  5
F
102
{ACAD_REACTORS
330
E
102
}
330
E
  0
VISUALSTYLE
  5
2F
102
{ACAD_REACTORS
330
2A
102
}
102
{ACAD_XDICTIONARY
360
1D4
102
}
330
2A
100
AcDbVisualStyle
  2
2dWireframe
 70
     4
 71
     0
 72
     2
 73
     0
 90
        0
 40
-0.6
 41
-30.0
 62
     5
 63
     7
421
 16777215
 74
     1
 91
        4
 64
     7
 65
   257
 75
     1
175
     1
 42
1.0
 92
        0
 66
   257
 43
1.0
 76
     1
 77
     6
 78
     2
 67
     7
 79
     5
170
     0
171
     0
290
     0
174
     0
 93
        1
 44
0.0
173
     0
291
     0
 45
0.0
  0
VISUALSTYLE
  5
31
102
{ACAD_REACTORS
330
2A
102
}
102
{ACAD_XDICTIONARY
360
1D8
102
}
330
2A
100
AcDbVisualStyle
  2
3D Hidden
 70
     6
 71
     1
 72
     2
 73
     2
 90
        0
 40
-0.6
 41
-30.0
 62
     5
 63
     7
421
 16777215
 74
     2
 91
        2
 64
     7
 65
   257
 75
     2
175
     1
 42
40.0
 92
        0
 66
   257
 43
1.0
 76
     1
 77
     6
 78
     2
 67
     7
 79
     3
170
     0
171
     0
290
     0
174
     0
 93
        1
 44
0.0
173
     0
291
     0
 45
0.0
  0
VISUALSTYLE
  5
30
102
{ACAD_REACTORS
330
2A
102
}
102
{ACAD_XDICTIONARY
360
1D6
102
}
330
2A
100
AcDbVisualStyle
  2
3dWireframe
 70
     5
 71
     0
 72
     2
 73
     0
 90
        0
 40
-0.6
 41
-30.0
 62
     5
 63
     7
421
 16777215
 74
     1
 91
        4
 64
     7
 65
   257
 75
     1
175
     1
 42
1.0
 92
        0
 66
   257
 43
1.0
 76
     1
 77
     6
 78
     2
 67
     7
 79
     5
170
     0
171
     0
290
     0
174
     0
 93
        1
 44
0.0
173
     0
291
     0
 45
0.0
  0
VISUALSTYLE
  5
32
102
{ACAD_REACTORS
330
2A
102
}
102
{ACAD_XDICTIONARY
360
1DA
102
}
330
2A
100
AcDbVisualStyle
  2
Basic
 70
     7
 71
     1
 72
     0
 73
     1
 90
        0
 40
-0.6
 41
-30.0
 62
     5
 63
     7
421
 16777215
 74
     0
 91
        4
 64
     7
 65
   257
 75
     1
175
     1
 42
1.0
 92
        8
 66
     7
 43
1.0
 76
     1
 77
     6
 78
     2
 67
     7
 79
     5
170
     0
171
     0
290
     0
174
     0
 93
        1
 44
0.0
173
     0
291
     1
 45
0.0
  0
VISUALSTYLE
  5
36
102
{ACAD_REACTORS
330
2A
102
}
102
{ACAD_XDICTIONARY
360
1E2
102
}
330
2A
100
AcDbVisualStyle
  2
Brighten
 70
    12
 71
     2
 72
     2
 73
     0
 90
        0
 40
-0.6
 41
-30.0
 62
     5
 63
     7
421
 16777215
 74
     1
 91
        4
 64
     7
 65
   257
 75
     1
175
     1
 42
1.0
 92
        8
 66
     7
 43
1.0
 76
     1
 77
     6
 78
     2
 67
     7
 79
     5
170
     0
171
     0
290
     0
174
     0
 93
        1
 44
50.0
173
     0
291
     1
 45
0.0
  0
VISUALSTYLE
  5
3A
102
{ACAD_REACTORS
330
2A
102
}
102
{ACAD_XDICTIONARY
360
1EA
102
}
330
2A
100
AcDbVisualStyle
  2
ColorChange
 70
    16
 71
     2
 72
     2
 73
     3
 90
        0
 40
-0.6
 41
-30.0
 62
     5
 63
     8
421
  8421504
 74
     1
 91
        4
 64
     7
 65
   257
 75
     1
175
     1
 42
1.0
 92
        8
 66
     8
424
  8421504
 43
1.0
 76
     1
 77
     6
 78
     2
 67
     7
 79
     5
170
     0
171
     0
290
     0
174
     0
 93
        1
 44
0.0
173
     0
291
     1
 45
0.0
  0
VISUALSTYLE
  5
34
102
{ACAD_REACTORS
330
2A
102
}
102
{ACAD_XDICTIONARY
360
1DE
102
}
330
2A
100
AcDbVisualStyle
  2
Conceptual
 70
     9
 71
     3
 72
     2
 73
     0
 90
        0
 40
-0.6
 41
-30.0
 62
     5
 63
     7
421
 16777215
 74
     2
 91
        2
 64
     7
 65
   257
 75
     1
175
     1
 42
40.0
 92
        8
 66
     7
 43
1.0
 76
     1
 77
     6
 78
     2
 67
     7
 79
     3
170
     0
171
     0
290
     0
174
     0
 93
        1
 44
0.0
173
     0
291
     0
 45
0.0
  0
VISUALSTYLE
  5
35
102
{ACAD_REACTORS
330
2A
102
}
102
{ACAD_XDICTIONARY
360
1E0
102
}
330
2A
100
AcDbVisualStyle
  2
Dim
 70
    11
 71
     2
 72
     2
 73
     0
 90
        0
 40
-0.6
 41
-30.0
 62
     5
 63
     7
421
 16777215
 74
     1
 91
        4
 64
     7
 65
   257
 75
     1
175
     1
 42
1.0
 92
        8
 66
     7
 43
1.0
 76
     1
 77
     6
 78
     2
 67
     7
 79
     5
170
     0
171
     0
290
     0
174
     0
 93
        1
 44
-50.0
173
     0
291
     1
 45
0.0
  0
VISUALSTYLE
  5
39
102
{ACAD_REACTORS
330
2A
102
}
102
{ACAD_XDICTIONARY
360
1E8
102
}
330
2A
100
AcDbVisualStyle
  2
Facepattern
 70
    15
 71
     2
 72
     2
 73
     0
 90
        0
 40
-0.6
 41
-30.0
 62
     5
 63
     7
421
 16777215
 74
     1
 91
        4
 64
     7
 65
   257
 75
     1
175
     1
 42
1.0
 92
        8
 66
     7
 43
1.0
 76
     1
 77
     6
 78
     2
 67
     7
 79
     5
170
     0
171
     0
290
     0
174
     0
 93
        1
 44
0.0
173
     0
291
     1
 45
0.0
  0
VISUALSTYLE
  5
2B
102
{ACAD_REACTORS
330
2A
102
}
102
{ACAD_XDICTIONARY
360
1CC
102
}
330
2A
100
AcDbVisualStyle
  2
Flat
 70
     0
 71
     2
 72
     1
 73
     1
 90
        2
 40
-0.6
 41
30.0
 62
     5
 63
     7
421
 16777215
 74
     0
 91
        4
 64
     7
 65
   257
 75
     1
175
     1
 42
1.0
 92
        8
 66
     7
 43
1.0
 76
     1
 77
     6
 78
     2
 67
     7
 79
     5
170
     0
171
     0
290
     0
174
     0
 93
       13
 44
0.0
173
     0
291
     1
 45
0.0
  0
VISUALSTYLE
  5
2C
102
{ACAD_REACTORS
330
2A
102
}
102
{ACAD_XDICTIONARY
360
1CE
102
}
330
2A
100
AcDbVisualStyle
  2
FlatWithEdges
 70
     1
 71
     2
 72
     1
 73
     1
 90
        2
 40
-0.6
 41
30.0
 62
     5
 63
     7
421
 16777215
 74
     1
 91
        4
 64
     7
 65
   257
 75
     1
175
     1
 42
1.0
 92
        0
 66
   257
 43
1.0
 76
     1
 77
     6
 78
     2
 67
     7
 79
     5
170
     0
171
     0
290
     0
174
     0
 93
       13
 44
0.0
173
     0
291
     1
 45
0.0
  0
VISUALSTYLE
  5
2D
102
{ACAD_REACTORS
330
2A
102
}
102
{ACAD_XDICTIONARY
360
1D0
102
}
330
2A
100
AcDbVisualStyle
  2
Gouraud
 70
     2
 71
     2
 72
     2
 73
     1
 90
        2
 40
-0.6
 41
30.0
 62
     5
 63
     7
421
 16777215
 74
     0
 91
        4
 64
     7
 65
   257
 75
     1
175
     1
 42
1.0
 92
        0
 66
     7
 43
1.0
 76
     1
 77
     6
 78
     2
 67
     7
 79
     5
170
     0
171
     0
290
     0
174
     0
 93
       13
 44
0.0
173
     0
291
     1
 45
0.0
  0
VISUALSTYLE
  5
2E
102
{ACAD_REACTORS
330
2A
102
}
102
{ACAD_XDICTIONARY
360
1D2
102
}
330
2A
100
AcDbVisualStyle
  2
GouraudWithEdges
 70
     3
 71
     2
 72
     2
 73
     1
 90
        2
 40
-0.6
 41
30.0
 62
     5
 63
     7
421
 16777215
 74
     1
 91
        4
 64
     7
 65
   257
 75
     1
175
     1
 42
1.0
 92
        0
 66
   257
 43
1.0
 76
     1
 77
     6
 78
     2
 67
     7
 79
     5
170
     0
171
     0
290
     0
174
     0
 93
       13
 44
0.0
173
     0
291
     1
 45
0.0
  0
VISUALSTYLE
  5
38
102
{ACAD_REACTORS
330
2A
102
}
102
{ACAD_XDICTIONARY
360
1E6
102
}
330
2A
100
AcDbVisualStyle
  2
Linepattern
 70
    14
 71
     2
 72
     2
 73
     0
 90
        0
 40
-0.6
 41
-30.0
 62
     5
 63
     7
421
 16777215
 74
     1
 91
        4
 64
     7
 65
   257
 75
     7
175
     7
 42
1.0
 92
        8
 66
     7
 43
1.0
 76
     1
 77
     6
 78
     2
 67
     7
 79
     5
170
     0
171
     0
290
     0
174
     0
 93
        1
 44
0.0
173
     0
291
     1
 45
0.0
  0
VISUALSTYLE
  5
33
102
{ACAD_REACTORS
330
2A
102
}
102
{ACAD_XDICTIONARY
360
1DC
102
}
330
2A
100
AcDbVisualStyle
  2
Realistic
 70
     8
 71
     2
 72
     2
 73
     0
 90
        0
 40
-0.6
 41
-30.0
 62
     5
 63
     7
421
 16777215
 74
     1
 91
        0
 64
     7
 65
   257
 75
     1
175
     1
 42
1.0
 92
        8
 66
     8
424
  7895160
 43
1.0
 76
     1
 77
     6
 78
     2
 67
     7
 79
     5
170
     0
171
     0
290
     0
174
     0
 93
       13
 44
0.0
173
     0
291
     0
 45
0.0
  0
VISUALSTYLE
  5
37
102
{ACAD_REACTORS
330
2A
102
}
102
{ACAD_XDICTIONARY
360
1E4
102
}
330
2A
100
AcDbVisualStyle
  2
Thicken
 70
    13
 71
     2
 72
     2
 73
     0
 90
        0
 40
-0.6
 41
-30.0
 62
     5
 63
     7
421
 16777215
 74
     1
 91
        4
 64
     7
 65
   257
 75
     1
175
     1
 42
1.0
 92
       12
 66
     7
 43
1.0
 76
     1
 77
     6
 78
     2
 67
     7
 79
     5
170
     0
171
     0
290
     0
174
     0
 93
        1
 44
0.0
173
     0
291
     1
 45
0.0
  0
DICTIONARY
  5
1D4
330
2F
100
AcDbDictionary
280
     1
281
     1
  3
ACAD_XREC_ROUNDTRIP
360
1D5
  0
DICTIONARY
  5
1D8
330
31
100
AcDbDictionary
280
     1
281
     1
  3
ACAD_XREC_ROUNDTRIP
360
1D9
  0
DICTIONARY
  5
1D6
330
30
100
AcDbDictionary
280
     1
281
     1
  3
ACAD_XREC_ROUNDTRIP
360
1D7
  0
DICTIONARY
  5
1DA
330
32
100
AcDbDictionary
280
     1
281
     1
  3
ACAD_XREC_ROUNDTRIP
360
1DB
  0
DICTIONARY
  5
1E2
330
36
100
AcDbDictionary
280
     1
281
     1
  3
ACAD_XREC_ROUNDTRIP
360
1E3
  0
DICTIONARY
  5
1EA
330
3A
100
AcDbDictionary
280
     1
281
     1
  3
ACAD_XREC_ROUNDTRIP
360
1EB
  0
DICTIONARY
  5
1DE
330
34
100
AcDbDictionary
280
     1
281
     1
  3
ACAD_XREC_ROUNDTRIP
360
1DF
  0
DICTIONARY
  5
1E0
330
35
100
AcDbDictionary
280
     1
281
     1
  3
ACAD_XREC_ROUNDTRIP
360
1E1
  0
DICTIONARY
  5
1E8
330
39
100
AcDbDictionary
280
     1
281
     1
  3
ACAD_XREC_ROUNDTRIP
360
1E9
  0
DICTIONARY
  5
1CC
330
2B
100
AcDbDictionary
280
     1
281
     1
  3
ACAD_XREC_ROUNDTRIP
360
1CD
  0
DICTIONARY
  5
1CE
330
2C
100
AcDbDictionary
280
     1
281
     1
  3
ACAD_XREC_ROUNDTRIP
360
1CF
  0
DICTIONARY
  5
1D0
330
2D
100
AcDbDictionary
280
     1
281
     1
  3
ACAD_XREC_ROUNDTRIP
360
1D1
  0
DICTIONARY
  5
1D2
330
2E
100
AcDbDictionary
280
     1
281
     1
  3
ACAD_XREC_ROUNDTRIP
360
1D3
  0
DICTIONARY
  5
1E6
330
38
100
AcDbDictionary
280
     1
281
     1
  3
ACAD_XREC_ROUNDTRIP
360
1E7
  0
DICTIONARY
  5
1DC
330
33
100
AcDbDictionary
280
     1
281
     1
  3
ACAD_XREC_ROUNDTRIP
360
1DD
  0
DICTIONARY
  5
1E4
330
37
100
AcDbDictionary
280
     1
281
     1
  3
ACAD_XREC_ROUNDTRIP
360
1E5
  0
XRECORD
  5
1D5
102
{ACAD_REACTORS
330
1D4
102
}
330
1D4
100
AcDbXrecord
280
     1
102
RTVSPropertyOp0
 70
     1
102
RTVSPropertyOp1
 70
     1
102
RTVSPropertyOp2
 70
     1
102
RTVSPropertyOp3
 70
     1
102
RTVSPropertyOp4
 70
     1
102
RTVSPropertyOp5
 70
     1
102
RTVSPropertyOp6
 70
     1
102
RTVSPropertyOp7
 70
     1
102
RTVSPropertyOp8
 70
     1
102
RTVSPropertyOp9
 70
     1
102
RTVSPropertyOp10
 70
     1
102
RTVSPropertyOp11
 70
     1
102
RTVSPropertyOp12
 70
     1
102
RTVSPropertyOp13
 70
     1
102
RTVSPropertyOp14
 70
     1
102
RTVSPropertyOp15
 70
     1
102
RTVSPropertyOp16
 70
     1
102
RTVSPropertyOp17
 70
     1
102
RTVSPropertyOp18
 70
     1
102
RTVSPropertyOp19
 70
     1
102
RTVSPropertyOp20
 70
     1
102
RTVSPropertyOp21
 70
     1
102
RTVSPropertyOp22
 70
     1
102
RTVSPropertyOp23
 70
     1
102
RTVSPropertyOp24
 70
     1
102
RTVSPropertyOp25
 70
     1
102
RTVSPropertyOp26
 70
     1
102
RTVSPropertyOp27
 70
     1
  0
XRECORD
  5
1D9
102
{ACAD_REACTORS
330
1D8
102
}
330
1D8
100
AcDbXrecord
280
     1
102
RTVSPropertyOp0
 70
     1
102
RTVSPropertyOp1
 70
     1
102
RTVSPropertyOp2
 70
     1
102
RTVSPropertyOp3
 70
     1
102
RTVSPropertyOp4
 70
     1
102
RTVSPropertyOp5
 70
     1
102
RTVSPropertyOp6
 70
     1
102
RTVSPropertyOp7
 70
     1
102
RTVSPropertyOp8
 70
     1
102
RTVSPropertyOp9
 70
     1
102
RTVSPropertyOp10
 70
     1
102
RTVSPropertyOp11
 70
     1
102
RTVSPropertyOp12
 70
     1
102
RTVSPropertyOp13
 70
     1
102
RTVSPropertyOp14
 70
     1
102
RTVSPropertyOp15
 70
     1
102
RTVSPropertyOp16
 70
     1
102
RTVSPropertyOp17
 70
     1
102
RTVSPropertyOp18
 70
     1
102
RTVSPropertyOp19
 70
     1
102
RTVSPropertyOp20
 70
     1
102
RTVSPropertyOp21
 70
     1
102
RTVSPropertyOp22
 70
     1
102
RTVSPropertyOp23
 70
     1
102
RTVSPropertyOp24
 70
     1
102
RTVSPropertyOp25
 70
     1
102
RTVSPropertyOp26
 70
     1
102
RTVSPropertyOp27
 70
     1
  0
XRECORD
  5
1D7
102
{ACAD_REACTORS
330
1D6
102
}
330
1D6
100
AcDbXrecord
280
     1
102
RTVSPropertyOp0
 70
     1
102
RTVSPropertyOp1
 70
     1
102
RTVSPropertyOp2
 70
     1
102
RTVSPropertyOp3
 70
     1
102
RTVSPropertyOp4
 70
     1
102
RTVSPropertyOp5
 70
     1
102
RTVSPropertyOp6
 70
     1
102
RTVSPropertyOp7
 70
     1
102
RTVSPropertyOp8
 70
     1
102
RTVSPropertyOp9
 70
     1
102
RTVSPropertyOp10
 70
     1
102
RTVSPropertyOp11
 70
     1
102
RTVSPropertyOp12
 70
     1
102
RTVSPropertyOp13
 70
     1
102
RTVSPropertyOp14
 70
     1
102
RTVSPropertyOp15
 70
     1
102
RTVSPropertyOp16
 70
     1
102
RTVSPropertyOp17
 70
     1
102
RTVSPropertyOp18
 70
     1
102
RTVSPropertyOp19
 70
     1
102
RTVSPropertyOp20
 70
     1
102
RTVSPropertyOp21
 70
     1
102
RTVSPropertyOp22
 70
     1
102
RTVSPropertyOp23
 70
     1
102
RTVSPropertyOp24
 70
     1
102
RTVSPropertyOp25
 70
     1
102
RTVSPropertyOp26
 70
     1
102
RTVSPropertyOp27
 70
     1
  0
XRECORD
  5
1DB
102
{ACAD_REACTORS
330
1DA
102
}
330
1DA
100
AcDbXrecord
280
     1
102
RTVSPropertyOp0
 70
     1
102
RTVSPropertyOp1
 70
     1
102
RTVSPropertyOp2
 70
     1
102
RTVSPropertyOp3
 70
     1
102
RTVSPropertyOp4
 70
     1
102
RTVSPropertyOp5
 70
     1
102
RTVSPropertyOp6
 70
     1
102
RTVSPropertyOp7
 70
     1
102
RTVSPropertyOp8
 70
     1
102
RTVSPropertyOp9
 70
     1
102
RTVSPropertyOp10
 70
     1
102
RTVSPropertyOp11
 70
     1
102
RTVSPropertyOp12
 70
     1
102
RTVSPropertyOp13
 70
     1
102
RTVSPropertyOp14
 70
     1
102
RTVSPropertyOp15
 70
     1
102
RTVSPropertyOp16
 70
     1
102
RTVSPropertyOp17
 70
     1
102
RTVSPropertyOp18
 70
     1
102
RTVSPropertyOp19
 70
     1
102
RTVSPropertyOp20
 70
     1
102
RTVSPropertyOp21
 70
     1
102
RTVSPropertyOp22
 70
     1
102
RTVSPropertyOp23
 70
     1
102
RTVSPropertyOp24
 70
     1
102
RTVSPropertyOp25
 70
     1
102
RTVSPropertyOp26
 70
     1
102
RTVSPropertyOp27
 70
     1
  0
XRECORD
  5
1E3
102
{ACAD_REACTORS
330
1E2
102
}
330
1E2
100
AcDbXrecord
280
     1
102
RTVSPropertyOp0
 70
     1
102
RTVSPropertyOp1
 70
     1
102
RTVSPropertyOp2
 70
     1
102
RTVSPropertyOp3
 70
     1
102
RTVSPropertyOp4
 70
     1
102
RTVSPropertyOp5
 70
     1
102
RTVSPropertyOp6
 70
     1
102
RTVSPropertyOp7
 70
     1
102
RTVSPropertyOp8
 70
     1
102
RTVSPropertyOp9
 70
     1
102
RTVSPropertyOp10
 70
     1
102
RTVSPropertyOp11
 70
     1
102
RTVSPropertyOp12
 70
     1
102
RTVSPropertyOp13
 70
     1
102
RTVSPropertyOp14
 70
     1
102
RTVSPropertyOp15
 70
     1
102
RTVSPropertyOp16
 70
     1
102
RTVSPropertyOp17
 70
     1
102
RTVSPropertyOp18
 70
     1
102
RTVSPropertyOp19
 70
     1
102
RTVSPropertyOp20
 70
     1
102
RTVSPropertyOp21
 70
     1
102
RTVSPropertyOp22
 70
     1
102
RTVSPropertyOp23
 70
     1
102
RTVSPropertyOp24
 70
     1
102
RTVSPropertyOp25
 70
     1
102
RTVSPropertyOp26
 70
     1
102
RTVSPropertyOp27
 70
     1
  0
XRECORD
  5
1EB
102
{ACAD_REACTORS
330
1EA
102
}
330
1EA
100
AcDbXrecord
280
     1
102
RTVSPropertyOp0
 70
     1
102
RTVSPropertyOp1
 70
     1
102
RTVSPropertyOp2
 70
     1
102
RTVSPropertyOp3
 70
     1
102
RTVSPropertyOp4
 70
     1
102
RTVSPropertyOp5
 70
     1
102
RTVSPropertyOp6
 70
     1
102
RTVSPropertyOp7
 70
     1
102
RTVSPropertyOp8
 70
     1
102
RTVSPropertyOp9
 70
     1
102
RTVSPropertyOp10
 70
     1
102
RTVSPropertyOp11
 70
     1
102
RTVSPropertyOp12
 70
     1
102
RTVSPropertyOp13
 70
     1
102
RTVSPropertyOp14
 70
     1
102
RTVSPropertyOp15
 70
     1
102
RTVSPropertyOp16
 70
     1
102
RTVSPropertyOp17
 70
     1
102
RTVSPropertyOp18
 70
     1
102
RTVSPropertyOp19
 70
     1
102
RTVSPropertyOp20
 70
     1
102
RTVSPropertyOp21
 70
     1
102
RTVSPropertyOp22
 70
     1
102
RTVSPropertyOp23
 70
     1
102
RTVSPropertyOp24
 70
     1
102
RTVSPropertyOp25
 70
     1
102
RTVSPropertyOp26
 70
     1
102
RTVSPropertyOp27
 70
     1
  0
XRECORD
  5
1DF
102
{ACAD_REACTORS
330
1DE
102
}
330
1DE
100
AcDbXrecord
280
     1
102
RTVSPropertyOp0
 70
     1
102
RTVSPropertyOp1
 70
     1
102
RTVSPropertyOp2
 70
     1
102
RTVSPropertyOp3
 70
     1
102
RTVSPropertyOp4
 70
     1
102
RTVSPropertyOp5
 70
     1
102
RTVSPropertyOp6
 70
     1
102
RTVSPropertyOp7
 70
     1
102
RTVSPropertyOp8
 70
     1
102
RTVSPropertyOp9
 70
     1
102
RTVSPropertyOp10
 70
     1
102
RTVSPropertyOp11
 70
     1
102
RTVSPropertyOp12
 70
     1
102
RTVSPropertyOp13
 70
     1
102
RTVSPropertyOp14
 70
     1
102
RTVSPropertyOp15
 70
     1
102
RTVSPropertyOp16
 70
     1
102
RTVSPropertyOp17
 70
     1
102
RTVSPropertyOp18
 70
     1
102
RTVSPropertyOp19
 70
     1
102
RTVSPropertyOp20
 70
     1
102
RTVSPropertyOp21
 70
     1
102
RTVSPropertyOp22
 70
     1
102
RTVSPropertyOp23
 70
     1
102
RTVSPropertyOp24
 70
     1
102
RTVSPropertyOp25
 70
     1
102
RTVSPropertyOp26
 70
     1
102
RTVSPropertyOp27
 70
     1
  0
XRECORD
  5
1E1
102
{ACAD_REACTORS
330
1E0
102
}
330
1E0
100
AcDbXrecord
280
     1
102
RTVSPropertyOp0
 70
     1
102
RTVSPropertyOp1
 70
     1
102
RTVSPropertyOp2
 70
     1
102
RTVSPropertyOp3
 70
     1
102
RTVSPropertyOp4
 70
     1
102
RTVSPropertyOp5
 70
     1
102
RTVSPropertyOp6
 70
     1
102
RTVSPropertyOp7
 70
     1
102
RTVSPropertyOp8
 70
     1
102
RTVSPropertyOp9
 70
     1
102
RTVSPropertyOp10
 70
     1
102
RTVSPropertyOp11
 70
     1
102
RTVSPropertyOp12
 70
     1
102
RTVSPropertyOp13
 70
     1
102
RTVSPropertyOp14
 70
     1
102
RTVSPropertyOp15
 70
     1
102
RTVSPropertyOp16
 70
     1
102
RTVSPropertyOp17
 70
     1
102
RTVSPropertyOp18
 70
     1
102
RTVSPropertyOp19
 70
     1
102
RTVSPropertyOp20
 70
     1
102
RTVSPropertyOp21
 70
     1
102
RTVSPropertyOp22
 70
     1
102
RTVSPropertyOp23
 70
     1
102
RTVSPropertyOp24
 70
     1
102
RTVSPropertyOp25
 70
     1
102
RTVSPropertyOp26
 70
     1
102
RTVSPropertyOp27
 70
     1
  0
XRECORD
  5
1E9
102
{ACAD_REACTORS
330
1E8
102
}
330
1E8
100
AcDbXrecord
280
     1
102
RTVSPropertyOp0
 70
     1
102
RTVSPropertyOp1
 70
     1
102
RTVSPropertyOp2
 70
     1
102
RTVSPropertyOp3
 70
     1
102
RTVSPropertyOp4
 70
     1
102
RTVSPropertyOp5
 70
     1
102
RTVSPropertyOp6
 70
     1
102
RTVSPropertyOp7
 70
     1
102
RTVSPropertyOp8
 70
     1
102
RTVSPropertyOp9
 70
     1
102
RTVSPropertyOp10
 70
     1
102
RTVSPropertyOp11
 70
     1
102
RTVSPropertyOp12
 70
     1
102
RTVSPropertyOp13
 70
     1
102
RTVSPropertyOp14
 70
     1
102
RTVSPropertyOp15
 70
     1
102
RTVSPropertyOp16
 70
     1
102
RTVSPropertyOp17
 70
     1
102
RTVSPropertyOp18
 70
     1
102
RTVSPropertyOp19
 70
     1
102
RTVSPropertyOp20
 70
     1
102
RTVSPropertyOp21
 70
     1
102
RTVSPropertyOp22
 70
     1
102
RTVSPropertyOp23
 70
     1
102
RTVSPropertyOp24
 70
     1
102
RTVSPropertyOp25
 70
     1
102
RTVSPropertyOp26
 70
     1
102
RTVSPropertyOp27
 70
     1
  0
XRECORD
  5
1CD
102
{ACAD_REACTORS
330
1CC
102
}
330
1CC
100
AcDbXrecord
280
     1
102
RTVSPropertyOp0
 70
     1
102
RTVSPropertyOp1
 70
     1
102
RTVSPropertyOp2
 70
     1
102
RTVSPropertyOp3
 70
     1
102
RTVSPropertyOp4
 70
     1
102
RTVSPropertyOp5
 70
     1
102
RTVSPropertyOp6
 70
     1
102
RTVSPropertyOp7
 70
     1
102
RTVSPropertyOp8
 70
     1
102
RTVSPropertyOp9
 70
     1
102
RTVSPropertyOp10
 70
     1
102
RTVSPropertyOp11
 70
     1
102
RTVSPropertyOp12
 70
     1
102
RTVSPropertyOp13
 70
     1
102
RTVSPropertyOp14
 70
     1
102
RTVSPropertyOp15
 70
     1
102
RTVSPropertyOp16
 70
     1
102
RTVSPropertyOp17
 70
     1
102
RTVSPropertyOp18
 70
     1
102
RTVSPropertyOp19
 70
     1
102
RTVSPropertyOp20
 70
     1
102
RTVSPropertyOp21
 70
     1
102
RTVSPropertyOp22
 70
     1
102
RTVSPropertyOp23
 70
     1
102
RTVSPropertyOp24
 70
     1
102
RTVSPropertyOp25
 70
     1
102
RTVSPropertyOp26
 70
     1
102
RTVSPropertyOp27
 70
     1
  0
XRECORD
  5
1CF
102
{ACAD_REACTORS
330
1CE
102
}
330
1CE
100
AcDbXrecord
280
     1
102
RTVSPropertyOp0
 70
     1
102
RTVSPropertyOp1
 70
     1
102
RTVSPropertyOp2
 70
     1
102
RTVSPropertyOp3
 70
     1
102
RTVSPropertyOp4
 70
     1
102
RTVSPropertyOp5
 70
     1
102
RTVSPropertyOp6
 70
     1
102
RTVSPropertyOp7
 70
     1
102
RTVSPropertyOp8
 70
     1
102
RTVSPropertyOp9
 70
     1
102
RTVSPropertyOp10
 70
     1
102
RTVSPropertyOp11
 70
     1
102
RTVSPropertyOp12
 70
     1
102
RTVSPropertyOp13
 70
     1
102
RTVSPropertyOp14
 70
     1
102
RTVSPropertyOp15
 70
     1
102
RTVSPropertyOp16
 70
     1
102
RTVSPropertyOp17
 70
     1
102
RTVSPropertyOp18
 70
     1
102
RTVSPropertyOp19
 70
     1
102
RTVSPropertyOp20
 70
     1
102
RTVSPropertyOp21
 70
     1
102
RTVSPropertyOp22
 70
     1
102
RTVSPropertyOp23
 70
     1
102
RTVSPropertyOp24
 70
     1
102
RTVSPropertyOp25
 70
     1
102
RTVSPropertyOp26
 70
     1
102
RTVSPropertyOp27
 70
     1
  0
XRECORD
  5
1D1
102
{ACAD_REACTORS
330
1D0
102
}
330
1D0
100
AcDbXrecord
280
     1
102
RTVSPropertyOp0
 70
     1
102
RTVSPropertyOp1
 70
     1
102
RTVSPropertyOp2
 70
     1
102
RTVSPropertyOp3
 70
     1
102
RTVSPropertyOp4
 70
     1
102
RTVSPropertyOp5
 70
     1
102
RTVSPropertyOp6
 70
     1
102
RTVSPropertyOp7
 70
     1
102
RTVSPropertyOp8
 70
     1
102
RTVSPropertyOp9
 70
     1
102
RTVSPropertyOp10
 70
     1
102
RTVSPropertyOp11
 70
     1
102
RTVSPropertyOp12
 70
     1
102
RTVSPropertyOp13
 70
     1
102
RTVSPropertyOp14
 70
     1
102
RTVSPropertyOp15
 70
     1
102
RTVSPropertyOp16
 70
     1
102
RTVSPropertyOp17
 70
     1
102
RTVSPropertyOp18
 70
     1
102
RTVSPropertyOp19
 70
     1
102
RTVSPropertyOp20
 70
     1
102
RTVSPropertyOp21
 70
     1
102
RTVSPropertyOp22
 70
     1
102
RTVSPropertyOp23
 70
     1
102
RTVSPropertyOp24
 70
     1
102
RTVSPropertyOp25
 70
     1
102
RTVSPropertyOp26
 70
     1
102
RTVSPropertyOp27
 70
     1
  0
XRECORD
  5
1D3
102
{ACAD_REACTORS
330
1D2
102
}
330
1D2
100
AcDbXrecord
280
     1
102
RTVSPropertyOp0
 70
     1
102
RTVSPropertyOp1
 70
     1
102
RTVSPropertyOp2
 70
     1
102
RTVSPropertyOp3
 70
     1
102
RTVSPropertyOp4
 70
     1
102
RTVSPropertyOp5
 70
     1
102
RTVSPropertyOp6
 70
     1
102
RTVSPropertyOp7
 70
     1
102
RTVSPropertyOp8
 70
     1
102
RTVSPropertyOp9
 70
     1
102
RTVSPropertyOp10
 70
     1
102
RTVSPropertyOp11
 70
     1
102
RTVSPropertyOp12
 70
     1
102
RTVSPropertyOp13
 70
     1
102
RTVSPropertyOp14
 70
     1
102
RTVSPropertyOp15
 70
     1
102
RTVSPropertyOp16
 70
     1
102
RTVSPropertyOp17
 70
     1
102
RTVSPropertyOp18
 70
     1
102
RTVSPropertyOp19
 70
     1
102
RTVSPropertyOp20
 70
     1
102
RTVSPropertyOp21
 70
     1
102
RTVSPropertyOp22
 70
     1
102
RTVSPropertyOp23
 70
     1
102
RTVSPropertyOp24
 70
     1
102
RTVSPropertyOp25
 70
     1
102
RTVSPropertyOp26
 70
     1
102
RTVSPropertyOp27
 70
     1
  0
XRECORD
  5
1E7
102
{ACAD_REACTORS
330
1E6
102
}
330
1E6
100
AcDbXrecord
280
     1
102
RTVSPropertyOp0
 70
     1
102
RTVSPropertyOp1
 70
     1
102
RTVSPropertyOp2
 70
     1
102
RTVSPropertyOp3
 70
     1
102
RTVSPropertyOp4
 70
     1
102
RTVSPropertyOp5
 70
     1
102
RTVSPropertyOp6
 70
     1
102
RTVSPropertyOp7
 70
     1
102
RTVSPropertyOp8
 70
     1
102
RTVSPropertyOp9
 70
     1
102
RTVSPropertyOp10
 70
     1
102
RTVSPropertyOp11
 70
     1
102
RTVSPropertyOp12
 70
     1
102
RTVSPropertyOp13
 70
     1
102
RTVSPropertyOp14
 70
     1
102
RTVSPropertyOp15
 70
     1
102
RTVSPropertyOp16
 70
     1
102
RTVSPropertyOp17
 70
     1
102
RTVSPropertyOp18
 70
     1
102
RTVSPropertyOp19
 70
     1
102
RTVSPropertyOp20
 70
     1
102
RTVSPropertyOp21
 70
     1
102
RTVSPropertyOp22
 70
     1
102
RTVSPropertyOp23
 70
     1
102
RTVSPropertyOp24
 70
     1
102
RTVSPropertyOp25
 70
     1
102
RTVSPropertyOp26
 70
     1
102
RTVSPropertyOp27
 70
     1
  0
XRECORD
  5
1DD
102
{ACAD_REACTORS
330
1DC
102
}
330
1DC
100
AcDbXrecord
280
     1
102
RTVSPropertyOp0
 70
     1
102
RTVSPropertyOp1
 70
     1
102
RTVSPropertyOp2
 70
     1
102
RTVSPropertyOp3
 70
     1
102
RTVSPropertyOp4
 70
     1
102
RTVSPropertyOp5
 70
     1
102
RTVSPropertyOp6
 70
     1
102
RTVSPropertyOp7
 70
     1
102
RTVSPropertyOp8
 70
     1
102
RTVSPropertyOp9
 70
     1
102
RTVSPropertyOp10
 70
     1
102
RTVSPropertyOp11
 70
     1
102
RTVSPropertyOp12
 70
     1
102
RTVSPropertyOp13
 70
     1
102
RTVSPropertyOp14
 70
     1
102
RTVSPropertyOp15
 70
     1
102
RTVSPropertyOp16
 70
     1
102
RTVSPropertyOp17
 70
     1
102
RTVSPropertyOp18
 70
     1
102
RTVSPropertyOp19
 70
     1
102
RTVSPropertyOp20
 70
     1
102
RTVSPropertyOp21
 70
     1
102
RTVSPropertyOp22
 70
     1
102
RTVSPropertyOp23
 70
     1
102
RTVSPropertyOp24
 70
     1
102
RTVSPropertyOp25
 70
     1
102
RTVSPropertyOp26
 70
     1
102
RTVSPropertyOp27
 70
     1
  0
XRECORD
  5
1E5
102
{ACAD_REACTORS
330
1E4
102
}
330
1E4
100
AcDbXrecord
280
     1
102
RTVSPropertyOp0
 70
     1
102
RTVSPropertyOp1
 70
     1
102
RTVSPropertyOp2
 70
     1
102
RTVSPropertyOp3
 70
     1
102
RTVSPropertyOp4
 70
     1
102
RTVSPropertyOp5
 70
     1
102
RTVSPropertyOp6
 70
     1
102
RTVSPropertyOp7
 70
     1
102
RTVSPropertyOp8
 70
     1
102
RTVSPropertyOp9
 70
     1
102
RTVSPropertyOp10
 70
     1
102
RTVSPropertyOp11
 70
     1
102
RTVSPropertyOp12
 70
     1
102
RTVSPropertyOp13
 70
     1
102
RTVSPropertyOp14
 70
     1
102
RTVSPropertyOp15
 70
     1
102
RTVSPropertyOp16
 70
     1
102
RTVSPropertyOp17
 70
     1
102
RTVSPropertyOp18
 70
     1
102
RTVSPropertyOp19
 70
     1
102
RTVSPropertyOp20
 70
     1
102
RTVSPropertyOp21
 70
     1
102
RTVSPropertyOp22
 70
     1
102
RTVSPropertyOp23
 70
     1
102
RTVSPropertyOp24
 70
     1
102
RTVSPropertyOp25
 70
     1
102
RTVSPropertyOp26
 70
     1
102
RTVSPropertyOp27
 70
     1
  0
ENDSEC
  0
EOF
