  0
SECTION
  2
HEADER
  9
$ACADVER
  1
AC1009
  9
$EXTMIN
 10
58.51562500
 20
98.19031174
 30
0.0
  9
$EXTMAX
 10
758.66282140
 20
864.11495410
 30
0.0
  0
ENDSEC
  0
SECTION
  2
TABLES
  0
TABLE
  2
LAYER
 70
1
 0
LAYER
 2
NÌvel_Padr„o
 70
0
 62
1
 6
CONTINUOUS
 0
ENDTAB
 0
ENDSEC
  0
SECTION
  2
ENTITIES
  0
POLYLINE
  8
NÌvel_Padr„o
 66
   1
 39
0.000000
 70
    0
  0
VERTEX
  8
0
 10
559.25480086
 20
703.80871386
  0
VERTEX
  8
0
 10
558.73366840
 20
703.86470701
  0
VERTEX
  8
0
 10
558.20813839
 20
703.89478358
  0
VERTEX
  8
0
 10
556.97024286
 20
703.95215875
  0
VERTEX
  8
0
 10
555.73784128
 20
704.04438046
  0
VERTEX
  8
0
 10
554.51141250
 20
704.17092946
  0
VERTEX
  8
0
 10
553.29143536
 20
704.33128648
  0
VERTEX
  8
0
 10
552.07838871
 20
704.52493226
  0
VERTEX
  8
0
 10
550.87275139
 20
704.75134756
  0
VERTEX
  8
0
 10
549.67500225
 20
705.01001312
  0
VERTEX
  8
0
 10
548.48562012
 20
705.30040967
  0
VERTEX
  8
0
 10
547.30508386
 20
705.62201797
  0
VERTEX
  8
0
 10
546.13387230
 20
705.97431875
  0
VERTEX
  8
0
 10
544.97246430
 20
706.35679275
  0
VERTEX
  8
0
 10
543.82133868
 20
706.76892073
  0
VERTEX
  8
0
 10
542.68097431
 20
707.21018343
  0
VERTEX
  8
0
 10
541.55185002
 20
707.68006158
  0
VERTEX
  8
0
 10
540.43444465
 20
708.17803593
  0
VERTEX
  8
0
 10
539.32923706
 20
708.70358723
  0
VERTEX
  8
0
 10
538.23670608
 20
709.25619621
  0
VERTEX
  8
0
 10
537.15733055
 20
709.83534363
  0
VERTEX
  8
0
 10
536.09158933
 20
710.44051022
  0
VERTEX
  8
0
 10
535.03996126
 20
711.07117672
  0
VERTEX
  8
0
 10
534.00292517
 20
711.72682389
  0
VERTEX
  8
0
 10
532.98095992
 20
712.40693246
  0
VERTEX
  8
0
 10
531.97454435
 20
713.11098318
  0
VERTEX
  8
0
 10
530.98415730
 20
713.83845679
  0
VERTEX
  8
0
 10
530.01027761
 20
714.58883403
  0
VERTEX
  8
0
 10
529.05338414
 20
715.36159564
  0
VERTEX
  8
0
 10
528.11395571
 20
716.15622238
  0
VERTEX
  8
0
 10
527.19247119
 20
716.97219498
  0
VERTEX
  8
0
 10
526.28940941
 20
717.80899419
  0
VERTEX
  8
0
 10
525.40524921
 20
718.66610075
  0
VERTEX
  8
0
 10
524.54046944
 20
719.54299540
  0
VERTEX
  8
0
 10
523.69554895
 20
720.43915888
  0
VERTEX
  8
0
 10
522.87096657
 20
721.35407195
  0
VERTEX
  8
0
 10
522.06720115
 20
722.28721533
  0
VERTEX
  8
0
 10
521.28473154
 20
723.23806979
  0
VERTEX
  8
0
 10
520.52403658
 20
724.20611605
  0
VERTEX
  8
0
 10
519.78559511
 20
725.19083486
  0
VERTEX
  8
0
 10
519.06988598
 20
726.19170697
  0
VERTEX
  8
0
 10
518.37738803
 20
727.20821312
  0
VERTEX
  8
0
 10
517.70858011
 20
728.23983405
  0
VERTEX
  8
0
 10
517.06394105
 20
729.28605051
  0
VERTEX
  8
0
 10
516.44394971
 20
730.34634323
  0
VERTEX
  8
0
 10
515.84908492
 20
731.42019297
  0
VERTEX
  8
0
 10
515.27982553
 20
732.50708046
  0
VERTEX
  8
0
 10
514.73665039
 20
733.60648644
  0
VERTEX
  8
0
 10
514.22003834
 20
734.71789167
  0
VERTEX
  8
0
 10
513.73046822
 20
735.84077689
  0
VERTEX
  8
0
 10
513.26841888
 20
736.97462283
  0
VERTEX
  8
0
 10
512.83436916
 20
738.11891024
  0
VERTEX
  8
0
 10
512.42879790
 20
739.27311987
  0
VERTEX
  8
0
 10
512.05218395
 20
740.43673245
  0
VERTEX
  8
0
 10
511.70500615
 20
741.60922874
  0
VERTEX
  8
0
 10
511.38774335
 20
742.79008947
  0
VERTEX
  8
0
 10
511.10087439
 20
743.97879538
  0
VERTEX
  8
0
 10
510.84487812
 20
745.17482723
  0
VERTEX
  8
0
 10
510.62023337
 20
746.37766575
  0
VERTEX
  8
0
 10
510.42741899
 20
747.58679169
  0
VERTEX
  8
0
 10
510.26691384
 20
748.80168579
  0
VERTEX
  8
0
 10
510.13919674
 20
750.02182879
  0
VERTEX
  8
0
 10
510.04474654
 20
751.24670143
  0
VERTEX
  8
0
 10
509.98404209
 20
752.47578447
  0
VERTEX
  8
0
 10
509.95756224
 20
753.70855864
  0
VERTEX
  8
0
 10
509.96578582
 20
754.94450469
  0
VERTEX
  8
0
 10
510.00919168
 20
756.18310335
  0
VERTEX
  8
0
 10
510.04500297
 20
757.31370118
  0
VERTEX
  8
0
 10
510.04085056
 20
758.44344495
  0
VERTEX
  8
0
 10
509.99673445
 20
759.57233467
  0
VERTEX
  8
0
 10
509.91265463
 20
760.70037034
  0
VERTEX
  8
0
 10
509.95124150
 20
761.76990883
  0
VERTEX
  8
0
 10
510.01529975
 20
762.83648498
  0
VERTEX
  8
0
 10
510.10452670
 20
763.89974731
  0
VERTEX
  8
0
 10
510.21861969
 20
764.95934432
  0
VERTEX
  8
0
 10
510.35727606
 20
766.01492450
  0
VERTEX
  8
0
 10
510.52019314
 20
767.06613638
  0
VERTEX
  8
0
 10
510.70706826
 20
768.11262844
  0
VERTEX
  8
0
 10
510.91759876
 20
769.15404919
  0
VERTEX
  8
0
 10
511.15148197
 20
770.19004714
  0
VERTEX
  8
0
 10
511.40841523
 20
771.22027079
  0
VERTEX
  8
0
 10
511.68809586
 20
772.24436864
  0
VERTEX
  8
0
 10
511.99022120
 20
773.26198920
  0
VERTEX
  8
0
 10
512.31448859
 20
774.27278097
  0
VERTEX
  8
0
 10
512.66059536
 20
775.27639245
  0
VERTEX
  8
0
 10
513.02823885
 20
776.27247215
  0
VERTEX
  8
0
 10
513.41711638
 20
777.26066857
  0
VERTEX
  8
0
 10
513.82692529
 20
778.24063021
  0
VERTEX
  8
0
 10
514.25736292
 20
779.21200558
  0
VERTEX
  8
0
 10
514.70812660
 20
780.17444318
  0
VERTEX
  8
0
 10
515.17891366
 20
781.12759151
  0
VERTEX
  8
0
 10
515.66942144
 20
782.07109909
  0
VERTEX
  8
0
 10
516.17934727
 20
783.00461440
  0
VERTEX
  8
0
 10
516.70838848
 20
783.92778596
  0
VERTEX
  8
0
 10
517.25624241
 20
784.84026227
  0
VERTEX
  8
0
 10
517.82260640
 20
785.74169183
  0
VERTEX
  8
0
 10
518.40717777
 20
786.63172315
  0
VERTEX
  8
0
 10
519.00965386
 20
787.51000472
  0
VERTEX
  8
0
 10
519.62973200
 20
788.37618506
  0
VERTEX
  8
0
 10
520.26710953
 20
789.22991267
  0
VERTEX
  8
0
 10
520.92148379
 20
790.07083604
  0
VERTEX
  8
0
 10
521.59255209
 20
790.89860369
  0
VERTEX
  8
0
 10
522.28001179
 20
791.71286412
  0
VERTEX
  8
0
 10
522.98356021
 20
792.51326582
  0
VERTEX
  8
0
 10
523.70289469
 20
793.29945731
  0
VERTEX
  8
0
 10
524.43771255
 20
794.07108709
  0
VERTEX
  8
0
 10
525.18771115
 20
794.82780366
  0
VERTEX
  8
0
 10
525.95258780
 20
795.56925552
  0
VERTEX
  8
0
 10
526.73203984
 20
796.29509118
  0
VERTEX
  8
0
 10
527.52576461
 20
797.00495915
  0
VERTEX
  8
0
 10
528.33345944
 20
797.69850791
  0
VERTEX
  8
0
 10
529.15482166
 20
798.37538599
  0
VERTEX
  8
0
 10
529.98954861
 20
799.03524188
  0
VERTEX
  8
0
 10
530.83733762
 20
799.67772408
  0
VERTEX
  8
0
 10
531.69788602
 20
800.30248111
  0
VERTEX
  8
0
 10
532.57089116
 20
800.90916145
  0
VERTEX
  8
0
 10
533.45605036
 20
801.49741363
  0
VERTEX
  8
0
 10
534.35306095
 20
802.06688613
  0
VERTEX
  8
0
 10
535.26162028
 20
802.61722747
  0
VERTEX
  8
0
 10
536.18142566
 20
803.14808614
  0
VERTEX
  8
0
 10
537.11217445
 20
803.65911066
  0
VERTEX
  8
0
 10
538.05356397
 20
804.14994951
  0
VERTEX
  8
0
 10
539.00529156
 20
804.62025122
  0
VERTEX
  8
0
 10
539.96705454
 20
805.06966428
  0
VERTEX
  8
0
 10
540.93855026
 20
805.49783719
  0
VERTEX
  8
0
 10
541.91947605
 20
805.90441846
  0
VERTEX
  8
0
 10
542.90952924
 20
806.28905659
  0
VERTEX
  8
0
 10
543.90840716
 20
806.65140009
  0
VERTEX
  8
0
 10
544.91580715
 20
806.99109745
  0
VERTEX
  8
0
 10
545.93142655
 20
807.30779719
  0
VERTEX
  8
0
 10
546.95496268
 20
807.60114781
  0
VERTEX
  8
0
 10
547.98611288
 20
807.87079780
  0
VERTEX
  8
0
 10
549.02457449
 20
808.11639568
  0
VERTEX
  8
0
 10
550.07004483
 20
808.33758994
  0
VERTEX
  8
0
 10
551.12222125
 20
808.53402909
  0
VERTEX
  8
0
 10
562.67236013
 20
809.35193743
  0
VERTEX
  8
0
 10
572.99093441
 20
810.08263410
  0
VERTEX
  8
0
 10
574.15188910
 20
810.44160127
  0
VERTEX
  8
0
 10
575.29602082
 20
810.85261765
  0
VERTEX
  8
0
 10
576.42165947
 20
811.31413141
  0
VERTEX
  8
0
 10
577.52713494
 20
811.82459073
  0
VERTEX
  8
0
 10
578.61077711
 20
812.38244377
  0
VERTEX
  8
0
 10
579.67091587
 20
812.98613870
  0
VERTEX
  8
0
 10
580.70588112
 20
813.63412369
  0
VERTEX
  8
0
 10
581.71400273
 20
814.32484691
  0
VERTEX
  8
0
 10
582.69361061
 20
815.05675653
  0
VERTEX
  8
0
 10
583.64303463
 20
815.82830073
  0
VERTEX
  8
0
 10
584.56060469
 20
816.63792765
  0
VERTEX
  8
0
 10
585.44465068
 20
817.48408549
  0
VERTEX
  8
0
 10
586.29350249
 20
818.36522241
  0
VERTEX
  8
0
 10
587.10549000
 20
819.27978657
  0
VERTEX
  8
0
 10
587.87894310
 20
820.22622615
  0
VERTEX
  8
0
 10
588.61219168
 20
821.20298932
  0
VERTEX
  8
0
 10
589.16564606
 20
822.00044736
  0
VERTEX
  8
0
 10
589.69176748
 20
822.81532185
  0
VERTEX
  8
0
 10
590.18971637
 20
823.64683198
  0
VERTEX
  8
0
 10
590.65865312
 20
824.49419690
  0
VERTEX
  8
0
 10
591.09773815
 20
825.35663578
  0
VERTEX
  8
0
 10
591.50613187
 20
826.23336779
  0
VERTEX
  8
0
 10
591.88299469
 20
827.12361209
  0
VERTEX
  8
0
 10
592.22748700
 20
828.02658786
  0
VERTEX
  8
0
 10
592.53876923
 20
828.94151426
  0
VERTEX
  8
0
 10
592.81600178
 20
829.86761046
  0
VERTEX
  8
0
 10
593.05834506
 20
830.80409561
  0
VERTEX
  8
0
 10
593.26495948
 20
831.75018891
  0
VERTEX
  8
0
 10
593.43500545
 20
832.70510950
  0
VERTEX
  8
0
 10
593.56764337
 20
833.66807655
  0
VERTEX
  8
0
 10
593.66203366
 20
834.63830924
  0
VERTEX
  8
0
 10
593.71733672
 20
835.61502672
  0
VERTEX
  8
0
 10
593.73264078
 20
836.61110335
  0
VERTEX
  8
0
 10
593.73263495
 20
836.61160335
  0
VERTEX
  8
0
 10
593.72128405
 20
837.23834752
  0
VERTEX
  8
0
 10
593.69385949
 20
837.86334836
  0
VERTEX
  8
0
 10
593.65056855
 20
838.48638344
  0
VERTEX
  8
0
 10
593.59161852
 20
839.10723034
  0
VERTEX
  8
0
 10
593.51721669
 20
839.72566664
  0
VERTEX
  8
0
 10
593.42757036
 20
840.34146991
  0
VERTEX
  8
0
 10
593.32288681
 20
840.95441774
  0
VERTEX
  8
0
 10
593.20337333
 20
841.56428770
  0
VERTEX
  8
0
 10
592.92068576
 20
842.77390431
  0
VERTEX
  8
0
 10
592.58116598
 20
843.96854039
  0
VERTEX
  8
0
 10
592.18647229
 20
845.14641653
  0
VERTEX
  8
0
 10
591.73826304
 20
846.30575337
  0
VERTEX
  8
0
 10
591.23819653
 20
847.44477153
  0
VERTEX
  8
0
 10
590.68793109
 20
848.56169161
  0
VERTEX
  8
0
 10
590.08912504
 20
849.65473425
  0
VERTEX
  8
0
 10
589.44343671
 20
850.72212007
  0
VERTEX
  8
0
 10
588.75252442
 20
851.76206968
  0
VERTEX
  8
0
 10
588.01804649
 20
852.77280370
  0
VERTEX
  8
0
 10
587.24166124
 20
853.75254276
  0
VERTEX
  8
0
 10
586.42502700
 20
854.69950747
  0
VERTEX
  8
0
 10
585.56980209
 20
855.61191846
  0
VERTEX
  8
0
 10
584.67764483
 20
856.48799634
  0
VERTEX
  8
0
 10
583.75021354
 20
857.32596173
  0
VERTEX
  8
0
 10
582.78916655
 20
858.12403526
  0
VERTEX
  8
0
 10
581.79616218
 20
858.88043755
  0
VERTEX
  8
0
 10
580.77285875
 20
859.59338921
  0
VERTEX
  8
0
 10
579.72091458
 20
860.26111086
  0
VERTEX
  8
0
 10
578.64198801
 20
860.88182313
  0
VERTEX
  8
0
 10
577.53773734
 20
861.45374663
  0
VERTEX
  8
0
 10
576.40982090
 20
861.97510199
  0
VERTEX
  8
0
 10
575.25989702
 20
862.44410983
  0
VERTEX
  8
0
 10
574.08962402
 20
862.85899076
  0
VERTEX
  8
0
 10
572.90066021
 20
863.21796541
  0
VERTEX
  8
0
 10
572.29968748
 20
863.37593182
  0
VERTEX
  8
0
 10
571.69466393
 20
863.51925439
  0
VERTEX
  8
0
 10
571.08579683
 20
863.64771070
  0
VERTEX
  8
0
 10
570.47329349
 20
863.76107832
  0
VERTEX
  8
0
 10
569.85736119
 20
863.85913484
  0
VERTEX
  8
0
 10
569.23820722
 20
863.94165784
  0
VERTEX
  8
0
 10
569.14575970
 20
863.95232204
  0
VERTEX
  8
0
 10
568.19023325
 20
864.04480326
  0
VERTEX
  8
0
 10
567.22409859
 20
864.09926077
  0
VERTEX
  8
0
 10
566.36993638
 20
864.11495410
  0
VERTEX
  8
0
 10
565.51846366
 20
864.10049326
  0
VERTEX
  8
0
 10
564.67024833
 20
864.05639316
  0
VERTEX
  8
0
 10
563.82585827
 20
863.98316876
  0
VERTEX
  8
0
 10
562.98586137
 20
863.88133499
  0
VERTEX
  8
0
 10
562.15082552
 20
863.75140677
  0
VERTEX
  8
0
 10
561.32131862
 20
863.59389906
  0
VERTEX
  8
0
 10
560.49790854
 20
863.40932677
  0
VERTEX
  8
0
 10
518.87158843
 20
860.79562608
  0
VERTEX
  8
0
 10
476.63477530
 20
858.14359276
  0
VERTEX
  8
0
 10
384.31530441
 20
861.48692016
  0
VERTEX
  8
0
 10
382.94673396
 20
861.70845404
  0
VERTEX
  8
0
 10
381.57242455
 20
861.88106841
  0
VERTEX
  8
0
 10
380.19368540
 20
862.00471218
  0
VERTEX
  8
0
 10
378.81182567
 20
862.07933425
  0
VERTEX
  8
0
 10
377.42815456
 20
862.10488356
  0
VERTEX
  8
0
 10
376.04398125
 20
862.08130902
  0
VERTEX
  8
0
 10
374.66061494
 20
862.00855955
  0
VERTEX
  8
0
 10
373.27936481
 20
861.88658405
  0
VERTEX
  8
0
 10
367.34638096
 20
862.10144563
  0
VERTEX
  8
0
 10
366.52339241
 20
862.10135145
  0
VERTEX
  8
0
 10
365.70513696
 20
862.04250328
  0
VERTEX
  8
0
 10
364.89467738
 20
861.92661195
  0
VERTEX
  8
0
 10
364.09507639
 20
861.75538824
  0
VERTEX
  8
0
 10
363.30939673
 20
861.53054296
  0
VERTEX
  8
0
 10
362.54070115
 20
861.25378690
  0
VERTEX
  8
0
 10
361.79205238
 20
860.92683087
  0
VERTEX
  8
0
 10
361.06651316
 20
860.55138566
  0
VERTEX
  8
0
 10
360.36714624
 20
860.12916208
  0
VERTEX
  8
0
 10
359.69701435
 20
859.66187093
  0
VERTEX
  8
0
 10
359.05918023
 20
859.15122300
  0
VERTEX
  8
0
 10
358.45670662
 20
858.59892909
  0
VERTEX
  8
0
 10
357.89265626
 20
858.00670001
  0
VERTEX
  8
0
 10
357.37009189
 20
857.37624656
  0
VERTEX
  8
0
 10
356.89207626
 20
856.70927953
  0
VERTEX
  8
0
 10
356.46167209
 20
856.00750972
  0
VERTEX
  8
0
 10
355.71724311
 20
855.52018366
  0
VERTEX
  8
0
 10
354.98701973
 20
855.01494583
  0
VERTEX
  8
0
 10
354.27111933
 20
854.49221148
  0
VERTEX
  8
0
 10
353.56965928
 20
853.95239585
  0
VERTEX
  8
0
 10
352.88275693
 20
853.39591420
  0
VERTEX
  8
0
 10
352.21052966
 20
852.82318176
  0
VERTEX
  8
0
 10
351.55309484
 20
852.23461377
  0
VERTEX
  8
0
 10
350.91056983
 20
851.63062549
  0
VERTEX
  8
0
 10
350.28307200
 20
851.01163215
  0
VERTEX
  8
0
 10
349.67071872
 20
850.37804900
  0
VERTEX
  8
0
 10
349.07362736
 20
849.73029129
  0
VERTEX
  8
0
 10
348.49191528
 20
849.06877425
  0
VERTEX
  8
0
 10
347.92569986
 20
848.39391313
  0
VERTEX
  8
0
 10
347.37509845
 20
847.70612318
  0
VERTEX
  8
0
 10
346.84022843
 20
847.00581963
  0
VERTEX
  8
0
 10
346.32120716
 20
846.29341774
  0
VERTEX
  8
0
 10
345.81815202
 20
845.56933275
  0
VERTEX
  8
0
 10
345.33118036
 20
844.83397990
  0
VERTEX
  8
0
 10
344.86040956
 20
844.08777444
  0
VERTEX
  8
0
 10
344.40595699
 20
843.33113160
  0
VERTEX
  8
0
 10
343.96794000
 20
842.56446664
  0
VERTEX
  8
0
 10
343.54647598
 20
841.78819480
  0
VERTEX
  8
0
 10
343.14168229
 20
841.00273132
  0
VERTEX
  8
0
 10
342.75367629
 20
840.20849144
  0
VERTEX
  8
0
 10
342.38257535
 20
839.40589041
  0
VERTEX
  8
0
 10
342.02849685
 20
838.59534348
  0
VERTEX
  8
0
 10
341.69155814
 20
837.77726589
  0
VERTEX
  8
0
 10
341.37187659
 20
836.95207288
  0
VERTEX
  8
0
 10
341.06956958
 20
836.12017969
  0
VERTEX
  8
0
 10
340.78475447
 20
835.28200158
  0
VERTEX
  8
0
 10
340.51754863
 20
834.43795377
  0
VERTEX
  8
0
 10
340.26806943
 20
833.58845153
  0
VERTEX
  8
0
 10
340.03643422
 20
832.73391009
  0
VERTEX
  8
0
 10
339.82276039
 20
831.87474469
  0
VERTEX
  8
0
 10
339.62716530
 20
831.01137059
  0
VERTEX
  8
0
 10
339.44976632
 20
830.14420302
  0
VERTEX
  8
0
 10
339.29068080
 20
829.27365723
  0
VERTEX
  8
0
 10
339.15002613
 20
828.40014846
  0
VERTEX
  8
0
 10
339.02791967
 20
827.52409196
  0
VERTEX
  8
0
 10
338.92447878
 20
826.64590297
  0
VERTEX
  8
0
 10
338.83982084
 20
825.76599673
  0
VERTEX
  8
0
 10
338.77406321
 20
824.88478849
  0
VERTEX
  8
0
 10
338.72732326
 20
824.00269350
  0
VERTEX
  8
0
 10
338.69971836
 20
823.12012699
  0
VERTEX
  8
0
 10
338.69136587
 20
822.23750421
  0
VERTEX
  8
0
 10
338.70238317
 20
821.35524041
  0
VERTEX
  8
0
 10
338.73288761
 20
820.47375082
  0
VERTEX
  8
0
 10
338.78299657
 20
819.59345070
  0
VERTEX
  8
0
 10
338.85282742
 20
818.71475529
  0
VERTEX
  8
0
 10
338.94249752
 20
817.83807982
  0
VERTEX
  8
0
 10
339.05212424
 20
816.96383956
  0
VERTEX
  8
0
 10
339.18182494
 20
816.09244973
  0
VERTEX
  8
0
 10
339.33171701
 20
815.22432558
  0
VERTEX
  8
0
 10
339.50191779
 20
814.35988237
  0
VERTEX
  8
0
 10
339.69254467
 20
813.49953532
  0
VERTEX
  8
0
 10
339.90371500
 20
812.64369969
  0
VERTEX
  8
0
 10
340.13554616
 20
811.79279072
  0
VERTEX
  8
0
 10
340.38815552
 20
810.94722365
  0
VERTEX
  8
0
 10
340.66166043
 20
810.10741373
  0
VERTEX
  8
0
 10
340.95617827
 20
809.27377620
  0
VERTEX
  8
0
 10
341.27182641
 20
808.44672631
  0
VERTEX
  8
0
 10
341.60872221
 20
807.62667929
  0
VERTEX
  8
0
 10
341.96698305
 20
806.81405040
  0
VERTEX
  8
0
 10
342.34672628
 20
806.00925488
  0
VERTEX
  8
0
 10
342.76289108
 20
805.12121261
  0
VERTEX
  8
0
 10
343.15121469
 20
804.22111803
  0
VERTEX
  8
0
 10
343.51151782
 20
803.30980980
  0
VERTEX
  8
0
 10
343.84362120
 20
802.38812659
  0
VERTEX
  8
0
 10
344.14734552
 20
801.45690704
  0
VERTEX
  8
0
 10
344.42251150
 20
800.51698984
  0
VERTEX
  8
0
 10
344.66893984
 20
799.56921362
  0
VERTEX
  8
0
 10
344.88645126
 20
798.61441705
  0
VERTEX
  8
0
 10
345.07486647
 20
797.65343880
  0
VERTEX
  8
0
 10
345.23400618
 20
796.68711752
  0
VERTEX
  8
0
 10
345.36369110
 20
795.71629187
  0
VERTEX
  8
0
 10
345.46374194
 20
794.74180050
  0
VERTEX
  8
0
 10
345.53397940
 20
793.76448209
  0
VERTEX
  8
0
 10
345.57422420
 20
792.78517529
  0
VERTEX
  8
0
 10
345.58429706
 20
791.80471876
  0
VERTEX
  8
0
 10
345.56401867
 20
790.82395115
  0
VERTEX
  8
0
 10
345.53133585
 20
790.12990214
  0
VERTEX
  8
0
 10
345.48363681
 20
789.43729015
  0
VERTEX
  8
0
 10
345.42097182
 20
788.74635421
  0
VERTEX
  8
0
 10
345.34339113
 20
788.05733336
  0
VERTEX
  8
0
 10
345.25094503
 20
787.37046663
  0
VERTEX
  8
0
 10
345.14368377
 20
786.68599303
  0
VERTEX
  8
0
 10
344.88491686
 20
785.32518140
  0
VERTEX
  8
0
 10
344.56749252
 20
783.97681069
  0
VERTEX
  8
0
 10
344.38690949
 20
783.30788826
  0
VERTEX
  8
0
 10
344.19181289
 20
782.64279314
  0
VERTEX
  8
0
 10
343.98225301
 20
781.98176438
  0
VERTEX
  8
0
 10
343.75828011
 20
781.32504100
  0
VERTEX
  8
0
 10
343.51994444
 20
780.67286203
  0
VERTEX
  8
0
 10
343.26729629
 20
780.02546650
  0
VERTEX
  8
0
 10
325.71769808
 20
736.45850064
  0
VERTEX
  8
0
 10
325.45486273
 20
735.82613320
  0
VERTEX
  8
0
 10
325.17840411
 20
735.20001849
  0
VERTEX
  8
0
 10
324.58538437
 20
733.96741552
  0
VERTEX
  8
0
 10
323.94017341
 20
732.76242816
  0
VERTEX
  8
0
 10
323.24430576
 20
731.58679283
  0
VERTEX
  8
0
 10
322.49931597
 20
730.44224598
  0
VERTEX
  8
0
 10
321.70673857
 20
729.33052403
  0
VERTEX
  8
0
 10
320.86810810
 20
728.25336340
  0
VERTEX
  8
0
 10
319.98495911
 20
727.21250054
  0
VERTEX
  8
0
 10
319.05882613
 20
726.20967188
  0
VERTEX
  8
0
 10
318.09124370
 20
725.24661383
  0
VERTEX
  8
0
 10
317.08374636
 20
724.32506284
  0
VERTEX
  8
0
 10
316.03786865
 20
723.44675534
  0
VERTEX
  8
0
 10
314.95514511
 20
722.61342775
  0
VERTEX
  8
0
 10
313.83711027
 20
721.82681650
  0
VERTEX
  8
0
 10
312.68529869
 20
721.08865804
  0
VERTEX
  8
0
 10
312.09720616
 20
720.73829123
  0
VERTEX
  8
0
 10
311.50124490
 20
720.40068878
  0
VERTEX
  8
0
 10
310.54022709
 20
719.84550591
  0
VERTEX
  8
0
 10
309.60268078
 20
719.25456980
  0
VERTEX
  8
0
 10
308.68924890
 20
718.62907555
  0
VERTEX
  8
0
 10
307.80057436
 20
717.97021830
  0
VERTEX
  8
0
 10
306.93730006
 20
717.27919317
  0
VERTEX
  8
0
 10
306.10006894
 20
716.55719527
  0
VERTEX
  8
0
 10
305.28952389
 20
715.80541973
  0
VERTEX
  8
0
 10
304.50630784
 20
715.02506167
  0
VERTEX
  8
0
 10
303.75106369
 20
714.21731621
  0
VERTEX
  8
0
 10
303.02443436
 20
713.38337847
  0
VERTEX
  8
0
 10
302.32706278
 20
712.52444358
  0
VERTEX
  8
0
 10
301.65959184
 20
711.64170664
  0
VERTEX
  8
0
 10
301.02266446
 20
710.73636280
  0
VERTEX
  8
0
 10
300.41692357
 20
709.80960716
  0
VERTEX
  8
0
 10
299.84301206
 20
708.86263485
  0
VERTEX
  8
0
 10
299.30157286
 20
707.89664099
  0
VERTEX
  8
0
 10
298.79324889
 20
706.91282070
  0
VERTEX
  8
0
 10
298.31868304
 20
705.91236911
  0
VERTEX
  8
0
 10
297.87851825
 20
704.89648132
  0
VERTEX
  8
0
 10
297.47339742
 20
703.86635248
  0
VERTEX
  8
0
 10
297.10396347
 20
702.82317768
  0
VERTEX
  8
0
 10
296.77085931
 20
701.76815207
  0
VERTEX
  8
0
 10
296.47472785
 20
700.70247076
  0
VERTEX
  8
0
 10
296.21621201
 20
699.62732886
  0
VERTEX
  8
0
 10
295.99595471
 20
698.54392151
  0
VERTEX
  8
0
 10
295.81459885
 20
697.45344382
  0
VERTEX
  8
0
 10
295.67278736
 20
696.35709091
  0
VERTEX
  8
0
 10
295.57116314
 20
695.25605791
  0
VERTEX
  8
0
 10
295.51036911
 20
694.15153994
  0
VERTEX
  8
0
 10
295.49104819
 20
693.04473212
  0
VERTEX
  8
0
 10
295.51384328
 20
691.93682956
  0
VERTEX
  8
0
 10
295.57939731
 20
690.82902740
  0
VERTEX
  8
0
 10
295.68793766
 20
689.72461246
  0
VERTEX
  8
0
 10
295.83871597
 20
688.62679431
  0
VERTEX
  8
0
 10
296.03091154
 20
687.53665221
  0
VERTEX
  8
0
 10
296.26370368
 20
686.45526538
  0
VERTEX
  8
0
 10
296.53627170
 20
685.38371307
  0
VERTEX
  8
0
 10
296.84779489
 20
684.32307451
  0
VERTEX
  8
0
 10
297.19745256
 20
683.27442895
  0
VERTEX
  8
0
 10
297.58442401
 20
682.23885561
  0
VERTEX
  8
0
 10
298.00788854
 20
681.21743376
  0
VERTEX
  8
0
 10
298.46702545
 20
680.21124261
  0
VERTEX
  8
0
 10
298.96101406
 20
679.22136141
  0
VERTEX
  8
0
 10
299.48903366
 20
678.24886940
  0
VERTEX
  8
0
 10
300.05026355
 20
677.29484582
  0
VERTEX
  8
0
 10
300.64388304
 20
676.36036991
  0
VERTEX
  8
0
 10
301.26907144
 20
675.44652090
  0
VERTEX
  8
0
 10
301.92500803
 20
674.55437804
  0
VERTEX
  8
0
 10
302.61087213
 20
673.68502056
  0
VERTEX
  8
0
 10
303.32584304
 20
672.83952771
  0
VERTEX
  8
0
 10
304.06910006
 20
672.01897872
  0
VERTEX
  8
0
 10
304.83982250
 20
671.22445283
  0
VERTEX
  8
0
 10
305.63718966
 20
670.45702928
  0
VERTEX
  8
0
 10
306.46038083
 20
669.71778731
  0
VERTEX
  8
0
 10
307.30857533
 20
669.00780617
  0
VERTEX
  8
0
 10
308.18095245
 20
668.32816507
  0
VERTEX
  8
0
 10
309.07669151
 20
667.67994328
  0
VERTEX
  8
0
 10
309.99497179
 20
667.06422002
  0
VERTEX
  8
0
 10
310.93497261
 20
666.48207454
  0
VERTEX
  8
0
 10
311.89587327
 20
665.93458607
  0
VERTEX
  8
0
 10
312.87685307
 20
665.42283385
  0
VERTEX
  8
0
 10
313.87709132
 20
664.94789713
  0
VERTEX
  8
0
 10
314.89576730
 20
664.51085514
  0
VERTEX
  8
0
 10
315.93206034
 20
664.11278712
  0
VERTEX
  8
0
 10
316.96501014
 20
663.71821755
  0
VERTEX
  8
0
 10
317.98293663
 20
663.28802603
  0
VERTEX
  8
0
 10
318.98484314
 20
662.82292721
  0
VERTEX
  8
0
 10
319.96973301
 20
662.32363578
  0
VERTEX
  8
0
 10
320.93660956
 20
661.79086641
  0
VERTEX
  8
0
 10
321.88447611
 20
661.22533376
  0
VERTEX
  8
0
 10
322.81233600
 20
660.62775251
  0
VERTEX
  8
0
 10
323.71919255
 20
659.99883733
  0
VERTEX
  8
0
 10
324.60404909
 20
659.33930288
  0
VERTEX
  8
0
 10
325.46590894
 20
658.64986385
  0
VERTEX
  8
0
 10
326.30377545
 20
657.93123491
  0
VERTEX
  8
0
 10
327.11665192
 20
657.18413072
  0
VERTEX
  8
0
 10
327.90354169
 20
656.40926595
  0
VERTEX
  8
0
 10
328.66344809
 20
655.60735528
  0
VERTEX
  8
0
 10
329.39537445
 20
654.77911339
  0
VERTEX
  8
0
 10
330.09832409
 20
653.92525493
  0
VERTEX
  8
0
 10
331.82185760
 20
651.72787937
  0
VERTEX
  8
0
 10
333.51781117
 20
649.51070703
  0
VERTEX
  8
0
 10
335.18618481
 20
647.27373791
  0
VERTEX
  8
0
 10
336.82697851
 20
645.01697201
  0
VERTEX
  8
0
 10
338.44019228
 20
642.74040933
  0
VERTEX
  8
0
 10
340.02582612
 20
640.44404986
  0
VERTEX
  8
0
 10
341.58388001
 20
638.12789362
  0
VERTEX
  8
0
 10
343.11435398
 20
635.79194059
  0
VERTEX
  8
0
 10
343.34508923
 20
635.44898846
  0
VERTEX
  8
0
 10
343.58765813
 20
635.11530125
  0
VERTEX
  8
0
 10
344.10670139
 20
634.47649118
  0
VERTEX
  8
0
 10
344.66829276
 20
633.87704954
  0
VERTEX
  8
0
 10
345.26924125
 20
633.31851548
  0
VERTEX
  8
0
 10
345.90635586
 20
632.80242814
  0
VERTEX
  8
0
 10
346.57644560
 20
632.33032669
  0
VERTEX
  8
0
 10
347.27631948
 20
631.90375026
  0
VERTEX
  8
0
 10
348.00278651
 20
631.52423801
  0
VERTEX
  8
0
 10
348.75265569
 20
631.19332909
  0
VERTEX
  8
0
 10
349.52273602
 20
630.91256266
  0
VERTEX
  8
0
 10
350.30983652
 20
630.68347786
  0
VERTEX
  8
0
 10
351.11076620
 20
630.50761384
  0
VERTEX
  8
0
 10
351.92233405
 20
630.38650976
  0
VERTEX
  8
0
 10
352.74134909
 20
630.32170476
  0
VERTEX
  8
0
 10
353.56462032
 20
630.31473800
  0
VERTEX
  8
0
 10
353.97685482
 20
630.33342495
  0
VERTEX
  8
0
 10
354.38895675
 20
630.36714863
  0
VERTEX
  8
0
 10
355.30990293
 20
630.44608741
  0
VERTEX
  8
0
 10
356.23139967
 20
630.49833843
  0
VERTEX
  8
0
 10
357.15287939
 20
630.52397542
  0
VERTEX
  8
0
 10
358.07377454
 20
630.52307206
  0
VERTEX
  8
0
 10
358.99351756
 20
630.49570207
  0
VERTEX
  8
0
 10
359.91154087
 20
630.44193914
  0
VERTEX
  8
0
 10
360.82727693
 20
630.36185699
  0
VERTEX
  8
0
 10
361.74015816
 20
630.25552931
  0
VERTEX
  8
0
 10
362.64961701
 20
630.12302980
  0
VERTEX
  8
0
 10
363.55508591
 20
629.96443217
  0
VERTEX
  8
0
 10
364.45599729
 20
629.77981012
  0
VERTEX
  8
0
 10
365.35178360
 20
629.56923736
  0
VERTEX
  8
0
 10
366.24187727
 20
629.33278759
  0
VERTEX
  8
0
 10
367.12571075
 20
629.07053451
  0
VERTEX
  8
0
 10
368.00271646
 20
628.78255182
  0
VERTEX
  8
0
 10
368.87232684
 20
628.46891324
  0
VERTEX
  8
0
 10
370.00007991
 20
628.07033142
  0
VERTEX
  8
0
 10
371.14046302
 20
627.71960845
  0
VERTEX
  8
0
 10
372.29198854
 20
627.41624305
  0
VERTEX
  8
0
 10
373.45316884
 20
627.15973394
  0
VERTEX
  8
0
 10
374.62251629
 20
626.94957985
  0
VERTEX
  8
0
 10
375.79854325
 20
626.78527950
  0
VERTEX
  8
0
 10
376.97976210
 20
626.66633162
  0
VERTEX
  8
0
 10
378.16468522
 20
626.59223494
  0
VERTEX
  8
0
 10
379.35182496
 20
626.56248818
  0
VERTEX
  8
0
 10
380.53969370
 20
626.57659006
  0
VERTEX
  8
0
 10
381.72680381
 20
626.63403931
  0
VERTEX
  8
0
 10
382.91166766
 20
626.73433465
  0
VERTEX
  8
0
 10
384.09279762
 20
626.87697482
  0
VERTEX
  8
0
 10
385.26870606
 20
627.06145853
  0
VERTEX
  8
0
 10
386.43790536
 20
627.28728452
  0
VERTEX
  8
0
 10
387.59890787
 20
627.55395149
  0
VERTEX
  8
0
 10
388.75022597
 20
627.86095820
  0
VERTEX
  8
0
 10
389.89037203
 20
628.20780334
  0
VERTEX
  8
0
 10
391.01785843
 20
628.59398566
  0
VERTEX
  8
0
 10
392.13119752
 20
629.01900388
  0
VERTEX
  8
0
 10
393.22890169
 20
629.48235672
  0
VERTEX
  8
0
 10
394.30948330
 20
629.98354290
  0
VERTEX
  8
0
 10
395.37145472
 20
630.52206116
  0
VERTEX
  8
0
 10
396.41332832
 20
631.09741022
  0
VERTEX
  8
0
 10
397.43361647
 20
631.70908880
  0
VERTEX
  8
0
 10
398.43083155
 20
632.35659563
  0
VERTEX
  8
0
 10
399.40348592
 20
633.03942943
  0
VERTEX
  8
0
 10
400.35009195
 20
633.75708893
  0
VERTEX
  8
0
 10
401.26916201
 20
634.50907286
  0
VERTEX
  8
0
 10
402.15920848
 20
635.29487993
  0
VERTEX
  8
0
 10
403.01874371
 20
636.11400888
  0
VERTEX
  8
0
 10
403.84628010
 20
636.96595843
  0
VERTEX
  8
0
 10
419.28205889
 20
649.66313130
  0
VERTEX
  8
0
 10
419.08326049
 20
650.28275414
  0
VERTEX
  8
0
 10
418.93810984
 20
650.92429574
  0
VERTEX
  8
0
 10
418.84915262
 20
651.58522114
  0
VERTEX
  8
0
 10
418.82654207
 20
651.92216058
  0
VERTEX
  8
0
 10
418.81893451
 20
652.26299534
  0
VERTEX
  8
0
 10
418.82046446
 20
652.38390097
  0
VERTEX
  8
0
 10
418.85931744
 20
653.04187793
  0
VERTEX
  8
0
 10
418.95357194
 20
653.68343885
  0
VERTEX
  8
0
 10
419.10082837
 20
654.30618331
  0
VERTEX
  8
0
 10
419.29868718
 20
654.90771087
  0
VERTEX
  8
0
 10
419.54474879
 20
655.48562111
  0
VERTEX
  8
0
 10
419.83661363
 20
656.03751358
  0
VERTEX
  8
0
 10
420.17188212
 20
656.56098786
  0
VERTEX
  8
0
 10
420.54815472
 20
657.05364353
  0
VERTEX
  8
0
 10
420.96303183
 20
657.51308014
  0
VERTEX
  8
0
 10
421.41411389
 20
657.93689726
  0
VERTEX
  8
0
 10
421.89900134
 20
658.32269448
  0
VERTEX
  8
0
 10
422.41529460
 20
658.66807135
  0
VERTEX
  8
0
 10
422.96059410
 20
658.97062744
  0
VERTEX
  8
0
 10
423.53250028
 20
659.22796233
  0
VERTEX
  8
0
 10
424.12861356
 20
659.43767558
  0
VERTEX
  8
0
 10
424.74653438
 20
659.59736677
  0
VERTEX
  8
0
 10
425.13029166
 20
659.66910507
  0
VERTEX
  8
0
 10
425.52063247
 20
659.72094447
  0
VERTEX
  8
0
 10
425.91702426
 20
659.75240216
  0
VERTEX
  8
0
 10
426.31893451
 20
659.76299534
  0
VERTEX
  8
0
 10
426.96635254
 20
659.73487763
  0
VERTEX
  8
0
 10
445.49800656
 20
660.88285619
  0
VERTEX
  8
0
 10
449.61121429
 20
662.00291081
  0
VERTEX
  8
0
 10
453.72843752
 20
663.10665829
  0
VERTEX
  8
0
 10
457.84968116
 20
664.19410004
  0
VERTEX
  8
0
 10
461.97495011
 20
665.26523746
  0
VERTEX
  8
0
 10
466.10424928
 20
666.32007194
  0
VERTEX
  8
0
 10
470.23758357
 20
667.35860487
  0
VERTEX
  8
0
 10
474.37495789
 20
668.38083765
  0
VERTEX
  8
0
 10
478.51637716
 20
669.38677167
  0
VERTEX
  8
0
 10
482.66184627
 20
670.37640834
  0
VERTEX
  8
0
 10
486.81137013
 20
671.34974905
  0
VERTEX
  8
0
 10
490.96495366
 20
672.30679519
  0
VERTEX
  8
0
 10
495.12260175
 20
673.24754816
  0
VERTEX
  8
0
 10
499.28431931
 20
674.17200935
  0
VERTEX
  8
0
 10
503.45011125
 20
675.08018017
  0
VERTEX
  8
0
 10
507.61998248
 20
675.97206200
  0
VERTEX
  8
0
 10
511.79393791
 20
676.84765624
  0
VERTEX
  8
0
 10
512.48204446
 20
676.98274461
  0
VERTEX
  8
0
 10
513.17237090
 20
677.10262919
  0
VERTEX
  8
0
 10
513.86466630
 20
677.20730198
  0
VERTEX
  8
0
 10
514.55867972
 20
677.29675496
  0
VERTEX
  8
0
 10
515.25416025
 20
677.37098014
  0
VERTEX
  8
0
 10
515.95085694
 20
677.42996951
  0
VERTEX
  8
0
 10
516.64851886
 20
677.47371506
  0
VERTEX
  8
0
 10
517.34689508
 20
677.50220878
  0
VERTEX
  8
0
 10
518.04573468
 20
677.51544267
  0
VERTEX
  8
0
 10
518.74478671
 20
677.51340872
  0
VERTEX
  8
0
 10
519.44380025
 20
677.49609893
  0
VERTEX
  8
0
 10
520.14252437
 20
677.46350529
  0
VERTEX
  8
0
 10
520.84070813
 20
677.41561979
  0
VERTEX
  8
0
 10
521.53810060
 20
677.35243443
  0
VERTEX
  8
0
 10
522.23445085
 20
677.27394120
  0
VERTEX
  8
0
 10
522.92950795
 20
677.18013210
  0
VERTEX
  8
0
 10
525.51151530
 20
676.82410116
  0
VERTEX
  8
0
 10
528.09763395
 20
676.51003899
  0
VERTEX
  8
0
 10
530.68738565
 20
676.23795031
  0
VERTEX
  8
0
 10
533.28029215
 20
676.00783986
  0
VERTEX
  8
0
 10
535.87587516
 20
675.81971236
  0
VERTEX
  8
0
 10
538.47365645
 20
675.67357256
  0
VERTEX
  8
0
 10
541.07315774
 20
675.56942517
  0
VERTEX
  8
0
 10
543.67390078
 20
675.50727494
  0
VERTEX
  8
0
 10
546.27540730
 20
675.48712659
  0
VERTEX
  8
0
 10
548.87719904
 20
675.50898486
  0
VERTEX
  8
0
 10
551.47879775
 20
675.57285447
  0
VERTEX
  8
0
 10
554.07972516
 20
675.67874015
  0
VERTEX
  8
0
 10
556.67950300
 20
675.82664665
  0
VERTEX
  8
0
 10
559.27765303
 20
676.01657868
  0
VERTEX
  8
0
 10
561.87369698
 20
676.24854098
  0
VERTEX
  8
0
 10
564.46715658
 20
676.52253829
  0
VERTEX
  8
0
 10
588.61219168
 20
677.22094840
  0
VERTEX
  8
0
 10
588.61219168
 20
701.39458095
  0
VERTEX
  8
0
 10
559.25480086
 20
703.80871386
  0
VERTEX
  8
0
 10
558.20813839
 20
703.89478358
  0
SEQEND
  0
POLYLINE
  8
NÌvel_Padr„o
 66
   1
 39
0.000000
 70
    1
  0
VERTEX
  8
0
 10
365.92204157
 20
658.92670175
  0
VERTEX
  8
0
 10
365.96698017
 20
659.62485700
  0
VERTEX
  8
0
 10
366.05024671
 20
660.31630625
  0
VERTEX
  8
0
 10
366.17069356
 20
660.99998299
  0
VERTEX
  8
0
 10
366.32717307
 20
661.67482072
  0
VERTEX
  8
0
 10
366.51853760
 20
662.33975295
  0
VERTEX
  8
0
 10
366.74363950
 20
662.99371316
  0
VERTEX
  8
0
 10
367.00133113
 20
663.63563486
  0
VERTEX
  8
0
 10
367.29046485
 20
664.26445154
  0
VERTEX
  8
0
 10
367.60989302
 20
664.87909672
  0
VERTEX
  8
0
 10
367.95846798
 20
665.47850387
  0
VERTEX
  8
0
 10
368.33504211
 20
666.06160651
  0
VERTEX
  8
0
 10
368.73846775
 20
666.62733812
  0
VERTEX
  8
0
 10
369.16759726
 20
667.17463222
  0
VERTEX
  8
0
 10
369.62128301
 20
667.70242229
  0
VERTEX
  8
0
 10
370.09837734
 20
668.20964184
  0
VERTEX
  8
0
 10
370.59773261
 20
668.69522437
  0
VERTEX
  8
0
 10
371.11820118
 20
669.15810337
  0
VERTEX
  8
0
 10
371.65863541
 20
669.59721234
  0
VERTEX
  8
0
 10
372.21788766
 20
670.01148478
  0
VERTEX
  8
0
 10
372.79481027
 20
670.39985419
  0
VERTEX
  8
0
 10
373.38825561
 20
670.76125406
  0
VERTEX
  8
0
 10
373.99707604
 20
671.09461791
  0
VERTEX
  8
0
 10
374.62012391
 20
671.39887922
  0
VERTEX
  8
0
 10
375.25625158
 20
671.67297149
  0
VERTEX
  8
0
 10
375.90431140
 20
671.91582823
  0
VERTEX
  8
0
 10
376.56315573
 20
672.12638292
  0
VERTEX
  8
0
 10
377.23163694
 20
672.30356908
  0
VERTEX
  8
0
 10
377.90860737
 20
672.44632019
  0
VERTEX
  8
0
 10
378.59291938
 20
672.55356976
  0
VERTEX
  8
0
 10
379.28342534
 20
672.62425128
  0
VERTEX
  8
0
 10
379.97897759
 20
672.65729826
  0
VERTEX
  8
0
 10
380.67842849
 20
672.65164419
  0
VERTEX
  8
0
 10
381.37645826
 20
672.60674810
  0
VERTEX
  8
0
 10
382.06780049
 20
672.52354361
  0
VERTEX
  8
0
 10
382.75138765
 20
672.40317615
  0
VERTEX
  8
0
 10
383.42615220
 20
672.24679113
  0
VERTEX
  8
0
 10
384.09102660
 20
672.05553396
  0
VERTEX
  8
0
 10
384.74494331
 20
671.83055005
  0
VERTEX
  8
0
 10
385.38683480
 20
671.57298481
  0
VERTEX
  8
0
 10
386.01563352
 20
671.28398367
  0
VERTEX
  8
0
 10
386.63027193
 20
670.96469203
  0
VERTEX
  8
0
 10
387.22968249
 20
670.61625530
  0
VERTEX
  8
0
 10
387.81279768
 20
670.23981891
  0
VERTEX
  8
0
 10
388.37854994
 20
669.83652825
  0
VERTEX
  8
0
 10
388.92587173
 20
669.40752875
  0
VERTEX
  8
0
 10
389.45369553
 20
668.95396582
  0
VERTEX
  8
0
 10
389.96095378
 20
668.47698487
  0
VERTEX
  8
0
 10
390.44657896
 20
667.97773131
  0
VERTEX
  8
0
 10
390.90950351
 20
667.45735057
  0
VERTEX
  8
0
 10
391.34865991
 20
666.91698804
  0
VERTEX
  8
0
 10
391.76298061
 20
666.35778915
  0
VERTEX
  8
0
 10
392.15139807
 20
665.78089931
  0
VERTEX
  8
0
 10
392.51284476
 20
665.18746392
  0
VERTEX
  8
0
 10
392.84625313
 20
664.57862841
  0
VERTEX
  8
0
 10
393.15055565
 20
663.95553819
  0
VERTEX
  8
0
 10
393.42468477
 20
663.31933867
  0
VERTEX
  8
0
 10
393.66757297
 20
662.67117526
  0
VERTEX
  8
0
 10
393.87815269
 20
662.01219337
  0
VERTEX
  8
0
 10
394.05535640
 20
661.34353843
  0
VERTEX
  8
0
 10
394.19811656
 20
660.66635584
  0
VERTEX
  8
0
 10
394.30536564
 20
659.98179101
  0
VERTEX
  8
0
 10
394.37603608
 20
659.29098937
  0
VERTEX
  8
0
 10
394.40906036
 20
658.59509632
  0
VERTEX
  8
0
 10
394.40337093
 20
657.89525727
  0
VERTEX
  8
0
 10
394.35843233
 20
657.19710202
  0
VERTEX
  8
0
 10
394.27516579
 20
656.50565277
  0
VERTEX
  8
0
 10
394.15471894
 20
655.82197603
  0
VERTEX
  8
0
 10
393.99823943
 20
655.14713829
  0
VERTEX
  8
0
 10
393.80687490
 20
654.48220607
  0
VERTEX
  8
0
 10
393.58177300
 20
653.82824586
  0
VERTEX
  8
0
 10
393.32408137
 20
653.18632416
  0
VERTEX
  8
0
 10
393.03494765
 20
652.55750747
  0
VERTEX
  8
0
 10
392.71551948
 20
651.94286230
  0
VERTEX
  8
0
 10
392.36694452
 20
651.34345515
  0
VERTEX
  8
0
 10
391.99037039
 20
650.76035251
  0
VERTEX
  8
0
 10
391.58694475
 20
650.19462090
  0
VERTEX
  8
0
 10
391.15781524
 20
649.64732680
  0
VERTEX
  8
0
 10
390.70412949
 20
649.11953673
  0
VERTEX
  8
0
 10
390.22703516
 20
648.61231718
  0
VERTEX
  8
0
 10
389.72767989
 20
648.12673465
  0
VERTEX
  8
0
 10
389.20721132
 20
647.66385565
  0
VERTEX
  8
0
 10
388.66677709
 20
647.22474668
  0
VERTEX
  8
0
 10
388.10752485
 20
646.81047424
  0
VERTEX
  8
0
 10
387.53060223
 20
646.42210483
  0
VERTEX
  8
0
 10
386.93715689
 20
646.06070495
  0
VERTEX
  8
0
 10
386.32833646
 20
645.72734111
  0
VERTEX
  8
0
 10
385.70528859
 20
645.42307980
  0
VERTEX
  8
0
 10
385.06916092
 20
645.14898753
  0
VERTEX
  8
0
 10
384.42110110
 20
644.90613079
  0
VERTEX
  8
0
 10
383.76225677
 20
644.69557610
  0
VERTEX
  8
0
 10
383.09377556
 20
644.51838994
  0
VERTEX
  8
0
 10
382.41680513
 20
644.37563883
  0
VERTEX
  8
0
 10
381.73249312
 20
644.26838926
  0
VERTEX
  8
0
 10
381.04198716
 20
644.19770774
  0
VERTEX
  8
0
 10
380.34643491
 20
644.16466076
  0
VERTEX
  8
0
 10
379.64698401
 20
644.17031483
  0
VERTEX
  8
0
 10
378.94895425
 20
644.21521092
  0
VERTEX
  8
0
 10
378.25761201
 20
644.29841540
  0
VERTEX
  8
0
 10
377.57402485
 20
644.41878286
  0
VERTEX
  8
0
 10
376.89926030
 20
644.57516789
  0
VERTEX
  8
0
 10
376.23438590
 20
644.76642506
  0
VERTEX
  8
0
 10
375.58046919
 20
644.99140897
  0
VERTEX
  8
0
 10
374.93857770
 20
645.24897420
  0
VERTEX
  8
0
 10
374.30977899
 20
645.53797535
  0
VERTEX
  8
0
 10
373.69514057
 20
645.85726699
  0
VERTEX
  8
0
 10
373.09573001
 20
646.20570372
  0
VERTEX
  8
0
 10
372.51261483
 20
646.58214011
  0
VERTEX
  8
0
 10
371.94686257
 20
646.98543077
  0
VERTEX
  8
0
 10
371.39954077
 20
647.41443027
  0
VERTEX
  8
0
 10
370.87171697
 20
647.86799320
  0
VERTEX
  8
0
 10
370.36445872
 20
648.34497415
  0
VERTEX
  8
0
 10
369.87883355
 20
648.84422770
  0
VERTEX
  8
0
 10
369.41590899
 20
649.36460845
  0
VERTEX
  8
0
 10
368.97675259
 20
649.90497098
  0
VERTEX
  8
0
 10
368.56243189
 20
650.46416987
  0
VERTEX
  8
0
 10
368.17401443
 20
651.04105971
  0
VERTEX
  8
0
 10
367.81256774
 20
651.63449510
  0
VERTEX
  8
0
 10
367.47915937
 20
652.24333061
  0
VERTEX
  8
0
 10
367.17485685
 20
652.86642083
  0
VERTEX
  8
0
 10
366.90072773
 20
653.50262035
  0
VERTEX
  8
0
 10
366.65783953
 20
654.15078376
  0
VERTEX
  8
0
 10
366.44725981
 20
654.80976565
  0
VERTEX
  8
0
 10
366.27005610
 20
655.47842059
  0
VERTEX
  8
0
 10
366.12729594
 20
656.15560318
  0
VERTEX
  8
0
 10
366.02004687
 20
656.84016800
  0
VERTEX
  8
0
 10
365.94937642
 20
657.53096965
  0
VERTEX
  8
0
 10
365.91635214
 20
658.22686270
  0
VERTEX
  8
0
 10
365.92204157
 20
658.92670175
  0
SEQEND
  0
POLYLINE
  8
NÌvel_Padr„o
 66
   1
 39
0.000000
 70
    1
  0
VERTEX
  8
0
 10
312.24313298
 20
693.77745170
  0
VERTEX
  8
0
 10
312.28807157
 20
694.47560695
  0
VERTEX
  8
0
 10
312.37133812
 20
695.16705620
  0
VERTEX
  8
0
 10
312.49178497
 20
695.85073294
  0
VERTEX
  8
0
 10
312.64826448
 20
696.52557067
  0
VERTEX
  8
0
 10
312.83962901
 20
697.19050290
  0
VERTEX
  8
0
 10
313.06473091
 20
697.84446311
  0
VERTEX
  8
0
 10
313.32242254
 20
698.48638481
  0
VERTEX
  8
0
 10
313.61155626
 20
699.11520150
  0
VERTEX
  8
0
 10
313.93098442
 20
699.72984667
  0
VERTEX
  8
0
 10
314.27955939
 20
700.32925382
  0
VERTEX
  8
0
 10
314.65613351
 20
700.91235646
  0
VERTEX
  8
0
 10
315.05955916
 20
701.47808807
  0
VERTEX
  8
0
 10
315.48868867
 20
702.02538217
  0
VERTEX
  8
0
 10
315.94237441
 20
702.55317224
  0
VERTEX
  8
0
 10
316.41946874
 20
703.06039179
  0
VERTEX
  8
0
 10
316.91882401
 20
703.54597432
  0
VERTEX
  8
0
 10
317.43929259
 20
704.00885332
  0
VERTEX
  8
0
 10
317.97972682
 20
704.44796229
  0
VERTEX
  8
0
 10
318.53897906
 20
704.86223473
  0
VERTEX
  8
0
 10
319.11590168
 20
705.25060414
  0
VERTEX
  8
0
 10
319.70934702
 20
705.61200402
  0
VERTEX
  8
0
 10
320.31816745
 20
705.94536786
  0
VERTEX
  8
0
 10
320.94121531
 20
706.24962917
  0
VERTEX
  8
0
 10
321.57734298
 20
706.52372144
  0
VERTEX
  8
0
 10
322.22540280
 20
706.76657818
  0
VERTEX
  8
0
 10
322.88424714
 20
706.97713287
  0
VERTEX
  8
0
 10
323.55272834
 20
707.15431903
  0
VERTEX
  8
0
 10
324.22969878
 20
707.29707014
  0
VERTEX
  8
0
 10
324.91401079
 20
707.40431971
  0
VERTEX
  8
0
 10
325.60451674
 20
707.47500123
  0
VERTEX
  8
0
 10
326.30006899
 20
707.50804821
  0
VERTEX
  8
0
 10
326.99951990
 20
707.50239414
  0
VERTEX
  8
0
 10
327.69754966
 20
707.45749805
  0
VERTEX
  8
0
 10
328.38889189
 20
707.37429357
  0
VERTEX
  8
0
 10
329.07247905
 20
707.25392611
  0
VERTEX
  8
0
 10
329.74724361
 20
707.09754108
  0
VERTEX
  8
0
 10
330.41211801
 20
706.90628391
  0
VERTEX
  8
0
 10
331.06603472
 20
706.68130000
  0
VERTEX
  8
0
 10
331.70792620
 20
706.42373477
  0
VERTEX
  8
0
 10
332.33672492
 20
706.13473362
  0
VERTEX
  8
0
 10
332.95136333
 20
705.81544198
  0
VERTEX
  8
0
 10
333.55077390
 20
705.46700525
  0
VERTEX
  8
0
 10
334.13388908
 20
705.09056886
  0
VERTEX
  8
0
 10
334.69964134
 20
704.68727820
  0
VERTEX
  8
0
 10
335.24696314
 20
704.25827870
  0
VERTEX
  8
0
 10
335.77478693
 20
703.80471577
  0
VERTEX
  8
0
 10
336.28204519
 20
703.32773482
  0
VERTEX
  8
0
 10
336.76767036
 20
702.82848127
  0
VERTEX
  8
0
 10
337.23059492
 20
702.30810052
  0
VERTEX
  8
0
 10
337.66975131
 20
701.76773799
  0
VERTEX
  8
0
 10
338.08407201
 20
701.20853910
  0
VERTEX
  8
0
 10
338.47248948
 20
700.63164926
  0
VERTEX
  8
0
 10
338.83393616
 20
700.03821387
  0
VERTEX
  8
0
 10
339.16734454
 20
699.42937836
  0
VERTEX
  8
0
 10
339.47164705
 20
698.80628814
  0
VERTEX
  8
0
 10
339.74577618
 20
698.17008862
  0
VERTEX
  8
0
 10
339.98866437
 20
697.52192521
  0
VERTEX
  8
0
 10
340.19924410
 20
696.86294332
  0
VERTEX
  8
0
 10
340.37644781
 20
696.19428838
  0
VERTEX
  8
0
 10
340.51920797
 20
695.51710579
  0
VERTEX
  8
0
 10
340.62645704
 20
694.83254097
  0
VERTEX
  8
0
 10
340.69712749
 20
694.14173932
  0
VERTEX
  8
0
 10
340.73015177
 20
693.44584627
  0
VERTEX
  8
0
 10
340.72446234
 20
692.74600722
  0
VERTEX
  8
0
 10
340.67952374
 20
692.04785197
  0
VERTEX
  8
0
 10
340.59625719
 20
691.35640272
  0
VERTEX
  8
0
 10
340.47581034
 20
690.67272598
  0
VERTEX
  8
0
 10
340.31933083
 20
689.99788825
  0
VERTEX
  8
0
 10
340.12796631
 20
689.33295602
  0
VERTEX
  8
0
 10
339.90286441
 20
688.67899581
  0
VERTEX
  8
0
 10
339.64517277
 20
688.03707411
  0
VERTEX
  8
0
 10
339.35603905
 20
687.40825742
  0
VERTEX
  8
0
 10
339.03661089
 20
686.79361225
  0
VERTEX
  8
0
 10
338.68803592
 20
686.19420510
  0
VERTEX
  8
0
 10
338.31146180
 20
685.61110246
  0
VERTEX
  8
0
 10
337.90803616
 20
685.04537085
  0
VERTEX
  8
0
 10
337.47890664
 20
684.49807675
  0
VERTEX
  8
0
 10
337.02522090
 20
683.97028668
  0
VERTEX
  8
0
 10
336.54812657
 20
683.46306713
  0
VERTEX
  8
0
 10
336.04877130
 20
682.97748460
  0
VERTEX
  8
0
 10
335.52830273
 20
682.51460560
  0
VERTEX
  8
0
 10
334.98786850
 20
682.07549663
  0
VERTEX
  8
0
 10
334.42861625
 20
681.66122419
  0
VERTEX
  8
0
 10
333.85169364
 20
681.27285478
  0
VERTEX
  8
0
 10
333.25824829
 20
680.91145491
  0
VERTEX
  8
0
 10
332.64942787
 20
680.57809106
  0
VERTEX
  8
0
 10
332.02638000
 20
680.27382975
  0
VERTEX
  8
0
 10
331.39025233
 20
679.99973748
  0
VERTEX
  8
0
 10
330.74219251
 20
679.75688074
  0
VERTEX
  8
0
 10
330.08334817
 20
679.54632605
  0
VERTEX
  8
0
 10
329.41486697
 20
679.36913989
  0
VERTEX
  8
0
 10
328.73789654
 20
679.22638878
  0
VERTEX
  8
0
 10
328.05358452
 20
679.11913921
  0
VERTEX
  8
0
 10
327.36307857
 20
679.04845769
  0
VERTEX
  8
0
 10
326.66752632
 20
679.01541071
  0
VERTEX
  8
0
 10
325.96807542
 20
679.02106478
  0
VERTEX
  8
0
 10
325.27004565
 20
679.06596087
  0
VERTEX
  8
0
 10
324.57870342
 20
679.14916536
  0
VERTEX
  8
0
 10
323.89511626
 20
679.26953282
  0
VERTEX
  8
0
 10
323.22035171
 20
679.42591784
  0
VERTEX
  8
0
 10
322.55547731
 20
679.61717501
  0
VERTEX
  8
0
 10
321.90156059
 20
679.84215892
  0
VERTEX
  8
0
 10
321.25966911
 20
680.09972415
  0
VERTEX
  8
0
 10
320.63087039
 20
680.38872530
  0
VERTEX
  8
0
 10
320.01623198
 20
680.70801694
  0
VERTEX
  8
0
 10
319.41682141
 20
681.05645367
  0
VERTEX
  8
0
 10
318.83370623
 20
681.43289006
  0
VERTEX
  8
0
 10
318.26795397
 20
681.83618072
  0
VERTEX
  8
0
 10
317.72063218
 20
682.26518022
  0
VERTEX
  8
0
 10
317.19280838
 20
682.71874315
  0
VERTEX
  8
0
 10
316.68555013
 20
683.19572410
  0
VERTEX
  8
0
 10
316.19992495
 20
683.69497765
  0
VERTEX
  8
0
 10
315.73700040
 20
684.21535840
  0
VERTEX
  8
0
 10
315.29784400
 20
684.75572093
  0
VERTEX
  8
0
 10
314.88352330
 20
685.31491982
  0
VERTEX
  8
0
 10
314.49510584
 20
685.89180966
  0
VERTEX
  8
0
 10
314.13365915
 20
686.48524505
  0
VERTEX
  8
0
 10
313.80025078
 20
687.09408056
  0
VERTEX
  8
0
 10
313.49594826
 20
687.71717078
  0
VERTEX
  8
0
 10
313.22181913
 20
688.35337030
  0
VERTEX
  8
0
 10
312.97893094
 20
689.00153371
  0
VERTEX
  8
0
 10
312.76835122
 20
689.66051560
  0
VERTEX
  8
0
 10
312.59114751
 20
690.32917054
  0
VERTEX
  8
0
 10
312.44838734
 20
691.00635313
  0
VERTEX
  8
0
 10
312.34113827
 20
691.69091796
  0
VERTEX
  8
0
 10
312.27046783
 20
692.38171960
  0
VERTEX
  8
0
 10
312.23744355
 20
693.07761265
  0
VERTEX
  8
0
 10
312.24313298
 20
693.77745170
  0
SEQEND
  0
POLYLINE
  8
NÌvel_Padr„o
 66
   1
 39
0.000000
 70
    1
  0
VERTEX
  8
0
 10
322.81634693
 20
667.97789460
  0
VERTEX
  8
0
 10
322.84169857
 20
668.24197771
  0
VERTEX
  8
0
 10
322.89662508
 20
668.48790967
  0
VERTEX
  8
0
 10
322.97911355
 20
668.71576173
  0
VERTEX
  8
0
 10
323.08715109
 20
668.92560508
  0
VERTEX
  8
0
 10
323.21872479
 20
669.11751096
  0
VERTEX
  8
0
 10
323.37182176
 20
669.29155059
  0
VERTEX
  8
0
 10
323.54442909
 20
669.44779518
  0
VERTEX
  8
0
 10
323.73453388
 20
669.58631595
  0
VERTEX
  8
0
 10
323.94012323
 20
669.70718414
  0
VERTEX
  8
0
 10
324.15918424
 20
669.81047095
  0
VERTEX
  8
0
 10
324.38970401
 20
669.89624761
  0
VERTEX
  8
0
 10
324.62966963
 20
669.96458534
  0
VERTEX
  8
0
 10
324.87706820
 20
670.01555535
  0
VERTEX
  8
0
 10
325.12988683
 20
670.04922888
  0
VERTEX
  8
0
 10
325.38611262
 20
670.06567713
  0
VERTEX
  8
0
 10
325.64373265
 20
670.06497134
  0
VERTEX
  8
0
 10
325.90073403
 20
670.04718272
  0
VERTEX
  8
0
 10
326.15510386
 20
670.01238249
  0
VERTEX
  8
0
 10
326.40482924
 20
669.96064187
  0
VERTEX
  8
0
 10
326.64789726
 20
669.89203209
  0
VERTEX
  8
0
 10
326.88229503
 20
669.80662435
  0
VERTEX
  8
0
 10
327.10600964
 20
669.70448990
  0
VERTEX
  8
0
 10
327.31702819
 20
669.58569993
  0
VERTEX
  8
0
 10
327.51333778
 20
669.45032569
  0
VERTEX
  8
0
 10
327.69292552
 20
669.29843837
  0
VERTEX
  8
0
 10
327.85377849
 20
669.13010922
  0
VERTEX
  8
0
 10
327.99388379
 20
668.94540944
  0
VERTEX
  8
0
 10
328.11122853
 20
668.74441026
  0
VERTEX
  8
0
 10
328.20379981
 20
668.52718289
  0
VERTEX
  8
0
 10
328.26958472
 20
668.29379857
  0
VERTEX
  8
0
 10
328.30657036
 20
668.04432850
  0
VERTEX
  8
0
 10
328.31274383
 20
667.77884391
  0
VERTEX
  8
0
 10
328.28739219
 20
667.51476081
  0
VERTEX
  8
0
 10
328.23246569
 20
667.26882884
  0
VERTEX
  8
0
 10
328.14997721
 20
667.04097679
  0
VERTEX
  8
0
 10
328.04193967
 20
666.83113343
  0
VERTEX
  8
0
 10
327.91036597
 20
666.63922755
  0
VERTEX
  8
0
 10
327.75726900
 20
666.46518793
  0
VERTEX
  8
0
 10
327.58466167
 20
666.30894334
  0
VERTEX
  8
0
 10
327.39455688
 20
666.17042256
  0
VERTEX
  8
0
 10
327.18896753
 20
666.04955437
  0
VERTEX
  8
0
 10
326.96990652
 20
665.94626756
  0
VERTEX
  8
0
 10
326.73938676
 20
665.86049090
  0
VERTEX
  8
0
 10
326.49942113
 20
665.79215318
  0
VERTEX
  8
0
 10
326.25202256
 20
665.74118316
  0
VERTEX
  8
0
 10
325.99920393
 20
665.70750963
  0
VERTEX
  8
0
 10
325.74297815
 20
665.69106138
  0
VERTEX
  8
0
 10
325.48535811
 20
665.69176717
  0
VERTEX
  8
0
 10
325.22835673
 20
665.70955579
  0
VERTEX
  8
0
 10
324.97398690
 20
665.74435602
  0
VERTEX
  8
0
 10
324.72426152
 20
665.79609664
  0
VERTEX
  8
0
 10
324.48119350
 20
665.86470643
  0
VERTEX
  8
0
 10
324.24679573
 20
665.95011416
  0
VERTEX
  8
0
 10
324.02308112
 20
666.05224862
  0
VERTEX
  8
0
 10
323.81206257
 20
666.17103858
  0
VERTEX
  8
0
 10
323.61575298
 20
666.30641283
  0
VERTEX
  8
0
 10
323.43616525
 20
666.45830014
  0
VERTEX
  8
0
 10
323.27531228
 20
666.62662930
  0
VERTEX
  8
0
 10
323.13520697
 20
666.81132907
  0
VERTEX
  8
0
 10
323.01786223
 20
667.01232826
  0
VERTEX
  8
0
 10
322.92529095
 20
667.22955562
  0
VERTEX
  8
0
 10
322.85950604
 20
667.46293995
  0
VERTEX
  8
0
 10
322.82252040
 20
667.71241001
  0
VERTEX
  8
0
 10
322.81634693
 20
667.97789460
  0
SEQEND
  0
POLYLINE
  8
NÌvel_Padr„o
 66
   1
 39
0.000000
 70
    1
  0
VERTEX
  8
0
 10
324.65485148
 20
718.74461501
  0
VERTEX
  8
0
 10
324.68020312
 20
719.00869811
  0
VERTEX
  8
0
 10
324.73512963
 20
719.25463008
  0
VERTEX
  8
0
 10
324.81761810
 20
719.48248213
  0
VERTEX
  8
0
 10
324.92565564
 20
719.69232549
  0
VERTEX
  8
0
 10
325.05722934
 20
719.88423137
  0
VERTEX
  8
0
 10
325.21032631
 20
720.05827099
  0
VERTEX
  8
0
 10
325.38293364
 20
720.21451559
  0
VERTEX
  8
0
 10
325.57303843
 20
720.35303636
  0
VERTEX
  8
0
 10
325.77862778
 20
720.47390455
  0
VERTEX
  8
0
 10
325.99768879
 20
720.57719136
  0
VERTEX
  8
0
 10
326.22820856
 20
720.66296802
  0
VERTEX
  8
0
 10
326.46817418
 20
720.73130574
  0
VERTEX
  8
0
 10
326.71557276
 20
720.78227576
  0
VERTEX
  8
0
 10
326.96839139
 20
720.81594929
  0
VERTEX
  8
0
 10
327.22461717
 20
720.83239754
  0
VERTEX
  8
0
 10
327.48223720
 20
720.83169175
  0
VERTEX
  8
0
 10
327.73923858
 20
720.81390313
  0
VERTEX
  8
0
 10
327.99360841
 20
720.77910290
  0
VERTEX
  8
0
 10
328.24333379
 20
720.72736228
  0
VERTEX
  8
0
 10
328.48640181
 20
720.65875249
  0
VERTEX
  8
0
 10
328.72079958
 20
720.57334476
  0
VERTEX
  8
0
 10
328.94451419
 20
720.47121031
  0
VERTEX
  8
0
 10
329.15553274
 20
720.35242034
  0
VERTEX
  8
0
 10
329.35184234
 20
720.21704609
  0
VERTEX
  8
0
 10
329.53143007
 20
720.06515878
  0
VERTEX
  8
0
 10
329.69228304
 20
719.89682963
  0
VERTEX
  8
0
 10
329.83238834
 20
719.71212985
  0
VERTEX
  8
0
 10
329.94973308
 20
719.51113066
  0
VERTEX
  8
0
 10
330.04230436
 20
719.29390330
  0
VERTEX
  8
0
 10
330.10808927
 20
719.06051897
  0
VERTEX
  8
0
 10
330.14507491
 20
718.81104891
  0
VERTEX
  8
0
 10
330.15124838
 20
718.54556432
  0
VERTEX
  8
0
 10
330.12589674
 20
718.28148121
  0
VERTEX
  8
0
 10
330.07097024
 20
718.03554925
  0
VERTEX
  8
0
 10
329.98848176
 20
717.80769720
  0
VERTEX
  8
0
 10
329.88044423
 20
717.59785384
  0
VERTEX
  8
0
 10
329.74887052
 20
717.40594796
  0
VERTEX
  8
0
 10
329.59577355
 20
717.23190833
  0
VERTEX
  8
0
 10
329.42316622
 20
717.07566374
  0
VERTEX
  8
0
 10
329.23306143
 20
716.93714297
  0
VERTEX
  8
0
 10
329.02747208
 20
716.81627478
  0
VERTEX
  8
0
 10
328.80841107
 20
716.71298797
  0
VERTEX
  8
0
 10
328.57789131
 20
716.62721131
  0
VERTEX
  8
0
 10
328.33792569
 20
716.55887358
  0
VERTEX
  8
0
 10
328.09052711
 20
716.50790357
  0
VERTEX
  8
0
 10
327.83770848
 20
716.47423004
  0
VERTEX
  8
0
 10
327.58148270
 20
716.45778179
  0
VERTEX
  8
0
 10
327.32386266
 20
716.45848758
  0
VERTEX
  8
0
 10
327.06686128
 20
716.47627620
  0
VERTEX
  8
0
 10
326.81249145
 20
716.51107643
  0
VERTEX
  8
0
 10
326.56276607
 20
716.56281705
  0
VERTEX
  8
0
 10
326.31969805
 20
716.63142683
  0
VERTEX
  8
0
 10
326.08530028
 20
716.71683457
  0
VERTEX
  8
0
 10
325.86158567
 20
716.81896902
  0
VERTEX
  8
0
 10
325.65056712
 20
716.93775899
  0
VERTEX
  8
0
 10
325.45425753
 20
717.07313324
  0
VERTEX
  8
0
 10
325.27466980
 20
717.22502055
  0
VERTEX
  8
0
 10
325.11381683
 20
717.39334970
  0
VERTEX
  8
0
 10
324.97371152
 20
717.57804948
  0
VERTEX
  8
0
 10
324.85636678
 20
717.77904867
  0
VERTEX
  8
0
 10
324.76379550
 20
717.99627603
  0
VERTEX
  8
0
 10
324.69801060
 20
718.22966036
  0
VERTEX
  8
0
 10
324.66102496
 20
718.47913042
  0
VERTEX
  8
0
 10
324.65485148
 20
718.74461501
  0
SEQEND
  0
POLYLINE
  8
NÌvel_Padr„o
 66
   1
 39
0.000000
 70
    1
  0
VERTEX
  8
0
 10
298.35223901
 20
694.28050708
  0
VERTEX
  8
0
 10
298.37759064
 20
694.54459019
  0
VERTEX
  8
0
 10
298.43251715
 20
694.79052215
  0
VERTEX
  8
0
 10
298.51500562
 20
695.01837421
  0
VERTEX
  8
0
 10
298.62304316
 20
695.22821756
  0
VERTEX
  8
0
 10
298.75461686
 20
695.42012344
  0
VERTEX
  8
0
 10
298.90771383
 20
695.59416307
  0
VERTEX
  8
0
 10
299.08032116
 20
695.75040766
  0
VERTEX
  8
0
 10
299.27042595
 20
695.88892843
  0
VERTEX
  8
0
 10
299.47601530
 20
696.00979662
  0
VERTEX
  8
0
 10
299.69507631
 20
696.11308343
  0
VERTEX
  8
0
 10
299.92559608
 20
696.19886009
  0
VERTEX
  8
0
 10
300.16556170
 20
696.26719782
  0
VERTEX
  8
0
 10
300.41296028
 20
696.31816783
  0
VERTEX
  8
0
 10
300.66577891
 20
696.35184136
  0
VERTEX
  8
0
 10
300.92200469
 20
696.36828961
  0
VERTEX
  8
0
 10
301.17962472
 20
696.36758382
  0
VERTEX
  8
0
 10
301.43662610
 20
696.34979520
  0
VERTEX
  8
0
 10
301.69099593
 20
696.31499497
  0
VERTEX
  8
0
 10
301.94072131
 20
696.26325435
  0
VERTEX
  8
0
 10
302.18378933
 20
696.19464457
  0
VERTEX
  8
0
 10
302.41818710
 20
696.10923683
  0
VERTEX
  8
0
 10
302.64190171
 20
696.00710238
  0
VERTEX
  8
0
 10
302.85292026
 20
695.88831241
  0
VERTEX
  8
0
 10
303.04922986
 20
695.75293817
  0
VERTEX
  8
0
 10
303.22881759
 20
695.60105085
  0
VERTEX
  8
0
 10
303.38967056
 20
695.43272170
  0
VERTEX
  8
0
 10
303.52977586
 20
695.24802192
  0
VERTEX
  8
0
 10
303.64712060
 20
695.04702274
  0
VERTEX
  8
0
 10
303.73969188
 20
694.82979537
  0
VERTEX
  8
0
 10
303.80547679
 20
694.59641105
  0
VERTEX
  8
0
 10
303.84246243
 20
694.34694098
  0
VERTEX
  8
0
 10
303.84863590
 20
694.08145639
  0
VERTEX
  8
0
 10
303.82328426
 20
693.81737329
  0
VERTEX
  8
0
 10
303.76835776
 20
693.57144132
  0
VERTEX
  8
0
 10
303.68586928
 20
693.34358927
  0
VERTEX
  8
0
 10
303.57783175
 20
693.13374591
  0
VERTEX
  8
0
 10
303.44625804
 20
692.94184003
  0
VERTEX
  8
0
 10
303.29316107
 20
692.76780041
  0
VERTEX
  8
0
 10
303.12055374
 20
692.61155582
  0
VERTEX
  8
0
 10
302.93044895
 20
692.47303504
  0
VERTEX
  8
0
 10
302.72485960
 20
692.35216685
  0
VERTEX
  8
0
 10
302.50579859
 20
692.24888004
  0
VERTEX
  8
0
 10
302.27527883
 20
692.16310338
  0
VERTEX
  8
0
 10
302.03531321
 20
692.09476566
  0
VERTEX
  8
0
 10
301.78791463
 20
692.04379564
  0
VERTEX
  8
0
 10
301.53509600
 20
692.01012211
  0
VERTEX
  8
0
 10
301.27887022
 20
691.99367386
  0
VERTEX
  8
0
 10
301.02125018
 20
691.99437965
  0
VERTEX
  8
0
 10
300.76424880
 20
692.01216827
  0
VERTEX
  8
0
 10
300.50987897
 20
692.04696850
  0
VERTEX
  8
0
 10
300.26015359
 20
692.09870912
  0
VERTEX
  8
0
 10
300.01708557
 20
692.16731891
  0
VERTEX
  8
0
 10
299.78268780
 20
692.25272664
  0
VERTEX
  8
0
 10
299.55897319
 20
692.35486110
  0
VERTEX
  8
0
 10
299.34795464
 20
692.47365106
  0
VERTEX
  8
0
 10
299.15164505
 20
692.60902531
  0
VERTEX
  8
0
 10
298.97205732
 20
692.76091262
  0
VERTEX
  8
0
 10
298.81120435
 20
692.92924178
  0
VERTEX
  8
0
 10
298.67109904
 20
693.11394155
  0
VERTEX
  8
0
 10
298.55375430
 20
693.31494074
  0
VERTEX
  8
0
 10
298.46118302
 20
693.53216810
  0
VERTEX
  8
0
 10
298.39539812
 20
693.76555243
  0
VERTEX
  8
0
 10
298.35841248
 20
694.01502249
  0
VERTEX
  8
0
 10
298.35223901
 20
694.28050708
  0
SEQEND
  0
POLYLINE
  8
NÌvel_Padr„o
 66
   1
 39
0.000000
 70
    1
  0
VERTEX
  8
0
 10
343.90857772
 20
709.10550134
  0
VERTEX
  8
0
 10
338.87433375
 20
712.36991363
  0
VERTEX
  8
0
 10
393.28120525
 20
796.27397989
  0
VERTEX
  8
0
 10
398.31544922
 20
793.00956760
  0
VERTEX
  8
0
 10
343.90857772
 20
709.10550134
  0
SEQEND
  0
POLYLINE
  8
NÌvel_Padr„o
 66
   1
 39
0.000000
 70
    1
  0
VERTEX
  8
0
 10
442.04375291
 20
764.64962533
  0
VERTEX
  8
0
 10
447.07481550
 20
761.38031206
  0
VERTEX
  8
0
 10
392.58626111
 20
677.52926890
  0
VERTEX
  8
0
 10
387.55519852
 20
680.79858216
  0
VERTEX
  8
0
 10
442.04375291
 20
764.64962533
  0
SEQEND
  0
POLYLINE
  8
NÌvel_Padr„o
 66
   1
 39
0.000000
 70
    1
  0
VERTEX
  8
0
 10
419.82055240
 20
826.17386379
  0
VERTEX
  8
0
 10
415.37337387
 20
829.05759853
  0
VERTEX
  8
0
 10
426.25474817
 20
845.83841178
  0
VERTEX
  8
0
 10
430.70192670
 20
842.95467704
  0
VERTEX
  8
0
 10
419.82055240
 20
826.17386379
  0
SEQEND
  0
POLYLINE
  8
NÌvel_Padr„o
 66
   1
 39
0.000000
 70
    1
  0
VERTEX
  8
0
 10
478.58740680
 20
809.87423310
  0
VERTEX
  8
0
 10
473.47385786
 20
813.19714810
  0
VERTEX
  8
0
 10
484.37156874
 20
829.96735674
  0
VERTEX
  8
0
 10
489.48511768
 20
826.64444173
  0
VERTEX
  8
0
 10
478.58740680
 20
809.87423310
  0
SEQEND
  0
POLYLINE
  8
NÌvel_Padr„o
 66
   1
 39
0.000000
 70
    1
  0
VERTEX
  8
0
 10
473.85584831
 20
777.47141908
  0
VERTEX
  8
0
 10
485.80779280
 20
769.71168179
  0
VERTEX
  8
0
 10
486.38364308
 20
769.31439512
  0
VERTEX
  8
0
 10
486.93404622
 20
768.88767301
  0
VERTEX
  8
0
 10
487.45867698
 20
768.43304801
  0
VERTEX
  8
0
 10
487.95721012
 20
767.95205267
  0
VERTEX
  8
0
 10
488.42932038
 20
767.44621955
  0
VERTEX
  8
0
 10
488.87468253
 20
766.91708121
  0
VERTEX
  8
0
 10
489.29297130
 20
766.36617020
  0
VERTEX
  8
0
 10
489.68386147
 20
765.79501907
  0
VERTEX
  8
0
 10
490.04702777
 20
765.20516038
  0
VERTEX
  8
0
 10
490.38214497
 20
764.59812668
  0
VERTEX
  8
0
 10
490.68888781
 20
763.97545053
  0
VERTEX
  8
0
 10
490.96693106
 20
763.33866449
  0
VERTEX
  8
0
 10
491.21594946
 20
762.68930111
  0
VERTEX
  8
0
 10
491.43561776
 20
762.02889294
  0
VERTEX
  8
0
 10
491.62561073
 20
761.35897254
  0
VERTEX
  8
0
 10
491.78560310
 20
760.68107246
  0
VERTEX
  8
0
 10
491.91526965
 20
759.99672526
  0
VERTEX
  8
0
 10
492.01428511
 20
759.30746349
  0
VERTEX
  8
0
 10
492.08232425
 20
758.61481971
  0
VERTEX
  8
0
 10
492.11906181
 20
757.92032648
  0
VERTEX
  8
0
 10
492.12417255
 20
757.22551634
  0
VERTEX
  8
0
 10
492.09733123
 20
756.53192186
  0
VERTEX
  8
0
 10
492.03821259
 20
755.84107558
  0
VERTEX
  8
0
 10
491.94649139
 20
755.15451007
  0
VERTEX
  8
0
 10
491.82184238
 20
754.47375787
  0
VERTEX
  8
0
 10
491.66394032
 20
753.80035155
  0
VERTEX
  8
0
 10
491.47245996
 20
753.13582365
  0
VERTEX
  8
0
 10
491.24707605
 20
752.48170674
  0
VERTEX
  8
0
 10
490.98746334
 20
751.83953336
  0
VERTEX
  8
0
 10
490.69329660
 20
751.21083607
  0
VERTEX
  8
0
 10
490.36425057
 20
750.59714744
  0
VERTEX
  8
0
 10
490.00000000
 20
750.00000000
  0
VERTEX
  8
0
 10
489.60281428
 20
749.42423554
  0
VERTEX
  8
0
 10
489.17620040
 20
748.87389232
  0
VERTEX
  8
0
 10
488.72168953
 20
748.34929761
  0
VERTEX
  8
0
 10
488.24081286
 20
747.85077871
  0
VERTEX
  8
0
 10
487.73510155
 20
747.37866289
  0
VERTEX
  8
0
 10
487.20608678
 20
746.93327743
  0
VERTEX
  8
0
 10
486.65529973
 20
746.51494963
  0
VERTEX
  8
0
 10
486.08427157
 20
746.12400676
  0
VERTEX
  8
0
 10
485.49453348
 20
745.76077610
  0
VERTEX
  8
0
 10
484.88761662
 20
745.42558494
  0
VERTEX
  8
0
 10
484.26505218
 20
745.11876057
  0
VERTEX
  8
0
 10
483.62837134
 20
744.84063025
  0
VERTEX
  8
0
 10
482.97910526
 20
744.59152129
  0
VERTEX
  8
0
 10
482.31878512
 20
744.37176095
  0
VERTEX
  8
0
 10
481.64894210
 20
744.18167652
  0
VERTEX
  8
0
 10
480.97110737
 20
744.02159529
  0
VERTEX
  8
0
 10
480.28681210
 20
743.89184454
  0
VERTEX
  8
0
 10
479.59758748
 20
743.79275154
  0
VERTEX
  8
0
 10
478.90496468
 20
743.72464359
  0
VERTEX
  8
0
 10
478.21047487
 20
743.68784797
  0
VERTEX
  8
0
 10
477.51564922
 20
743.68269195
  0
VERTEX
  8
0
 10
476.82201892
 20
743.70950282
  0
VERTEX
  8
0
 10
476.13111513
 20
743.76860787
  0
VERTEX
  8
0
 10
475.44446904
 20
743.86033438
  0
VERTEX
  8
0
 10
474.76361181
 20
743.98500962
  0
VERTEX
  8
0
 10
474.09007462
 20
744.14296089
  0
VERTEX
  8
0
 10
473.42538866
 20
744.33451546
  0
VERTEX
  8
0
 10
472.77108508
 20
744.56000062
  0
VERTEX
  8
0
 10
472.12869508
 20
744.81974366
  0
VERTEX
  8
0
 10
471.49974981
 20
745.11407184
  0
VERTEX
  8
0
 10
470.88578047
 20
745.44331246
  0
VERTEX
  8
0
 10
470.28831821
 20
745.80779280
  0
VERTEX
  8
0
 10
458.33637372
 20
753.56753010
  0
VERTEX
  8
0
 10
457.76052345
 20
753.96481676
  0
VERTEX
  8
0
 10
457.21012031
 20
754.39153887
  0
VERTEX
  8
0
 10
456.68548954
 20
754.84616388
  0
VERTEX
  8
0
 10
456.18695641
 20
755.32715921
  0
VERTEX
  8
0
 10
455.71484614
 20
755.83299233
  0
VERTEX
  8
0
 10
455.26948400
 20
756.36213067
  0
VERTEX
  8
0
 10
454.85119522
 20
756.91304169
  0
VERTEX
  8
0
 10
454.46030506
 20
757.48419281
  0
VERTEX
  8
0
 10
454.09713875
 20
758.07405150
  0
VERTEX
  8
0
 10
453.76202156
 20
758.68108520
  0
VERTEX
  8
0
 10
453.45527871
 20
759.30376135
  0
VERTEX
  8
0
 10
453.17723547
 20
759.94054739
  0
VERTEX
  8
0
 10
452.92821707
 20
760.58991077
  0
VERTEX
  8
0
 10
452.70854876
 20
761.25031894
  0
VERTEX
  8
0
 10
452.51855580
 20
761.92023934
  0
VERTEX
  8
0
 10
452.35856342
 20
762.59813942
  0
VERTEX
  8
0
 10
452.22889688
 20
763.28248662
  0
VERTEX
  8
0
 10
452.12988141
 20
763.97174839
  0
VERTEX
  8
0
 10
452.06184228
 20
764.66439217
  0
VERTEX
  8
0
 10
452.02510472
 20
765.35888540
  0
VERTEX
  8
0
 10
452.01999397
 20
766.05369554
  0
VERTEX
  8
0
 10
452.04683530
 20
766.74729002
  0
VERTEX
  8
0
 10
452.10595394
 20
767.43813630
  0
VERTEX
  8
0
 10
452.19767514
 20
768.12470181
  0
VERTEX
  8
0
 10
452.32232414
 20
768.80545401
  0
VERTEX
  8
0
 10
452.48022621
 20
769.47886033
  0
VERTEX
  8
0
 10
452.67170657
 20
770.14338823
  0
VERTEX
  8
0
 10
452.89709048
 20
770.79750514
  0
VERTEX
  8
0
 10
453.15670318
 20
771.43967852
  0
VERTEX
  8
0
 10
453.45086993
 20
772.06837581
  0
VERTEX
  8
0
 10
453.77991596
 20
772.68206445
  0
VERTEX
  8
0
 10
454.14416653
 20
773.27921188
  0
VERTEX
  8
0
 10
454.54135225
 20
773.85497634
  0
VERTEX
  8
0
 10
454.96796613
 20
774.40531957
  0
VERTEX
  8
0
 10
455.42247699
 20
774.92991427
  0
VERTEX
  8
0
 10
455.90335367
 20
775.42843318
  0
VERTEX
  8
0
 10
456.40906497
 20
775.90054900
  0
VERTEX
  8
0
 10
456.93807974
 20
776.34593445
  0
VERTEX
  8
0
 10
457.48886679
 20
776.76426225
  0
VERTEX
  8
0
 10
458.05989496
 20
777.15520512
  0
VERTEX
  8
0
 10
458.64963305
 20
777.51843578
  0
VERTEX
  8
0
 10
459.25654990
 20
777.85362694
  0
VERTEX
  8
0
 10
459.87911434
 20
778.16045132
  0
VERTEX
  8
0
 10
460.51579519
 20
778.43858163
  0
VERTEX
  8
0
 10
461.16506127
 20
778.68769060
  0
VERTEX
  8
0
 10
461.82538141
 20
778.90745093
  0
VERTEX
  8
0
 10
462.49522443
 20
779.09753536
  0
VERTEX
  8
0
 10
463.17305916
 20
779.25761659
  0
VERTEX
  8
0
 10
463.85735442
 20
779.38736735
  0
VERTEX
  8
0
 10
464.54657904
 20
779.48646034
  0
VERTEX
  8
0
 10
465.23920185
 20
779.55456829
  0
VERTEX
  8
0
 10
465.93369166
 20
779.59136392
  0
VERTEX
  8
0
 10
466.62851731
 20
779.59651993
  0
VERTEX
  8
0
 10
467.32214761
 20
779.56970906
  0
VERTEX
  8
0
 10
468.01305140
 20
779.51060401
  0
VERTEX
  8
0
 10
468.69969749
 20
779.41887750
  0
VERTEX
  8
0
 10
469.38055472
 20
779.29420226
  0
VERTEX
  8
0
 10
470.05409190
 20
779.13625099
  0
VERTEX
  8
0
 10
470.71877787
 20
778.94469642
  0
VERTEX
  8
0
 10
471.37308144
 20
778.71921126
  0
VERTEX
  8
0
 10
472.01547145
 20
778.45946823
  0
VERTEX
  8
0
 10
472.64441671
 20
778.16514004
  0
VERTEX
  8
0
 10
473.25838606
 20
777.83589942
  0
VERTEX
  8
0
 10
473.85584831
 20
777.47141908
  0
SEQEND
  0
POLYLINE
  8
NÌvel_Padr„o
 66
   1
 39
0.000000
 70
    1
  0
VERTEX
  8
0
 10
381.59230909
 20
803.39321167
  0
VERTEX
  8
0
 10
369.64036460
 20
811.15294896
  0
VERTEX
  8
0
 10
369.06451433
 20
811.55023563
  0
VERTEX
  8
0
 10
368.51411118
 20
811.97695774
  0
VERTEX
  8
0
 10
367.98948042
 20
812.43158274
  0
VERTEX
  8
0
 10
367.49094728
 20
812.91257808
  0
VERTEX
  8
0
 10
367.01883702
 20
813.41841119
  0
VERTEX
  8
0
 10
366.57347488
 20
813.94754954
  0
VERTEX
  8
0
 10
366.15518610
 20
814.49846055
  0
VERTEX
  8
0
 10
365.76429594
 20
815.06961168
  0
VERTEX
  8
0
 10
365.40112963
 20
815.65947037
  0
VERTEX
  8
0
 10
365.06601243
 20
816.26650406
  0
VERTEX
  8
0
 10
364.75926959
 20
816.88918021
  0
VERTEX
  8
0
 10
364.48122634
 20
817.52596625
  0
VERTEX
  8
0
 10
364.23220795
 20
818.17532964
  0
VERTEX
  8
0
 10
364.01253964
 20
818.83573781
  0
VERTEX
  8
0
 10
363.82254668
 20
819.50565821
  0
VERTEX
  8
0
 10
363.66255430
 20
820.18355829
  0
VERTEX
  8
0
 10
363.53288776
 20
820.86790549
  0
VERTEX
  8
0
 10
363.43387229
 20
821.55716725
  0
VERTEX
  8
0
 10
363.36583316
 20
822.24981103
  0
VERTEX
  8
0
 10
363.32909559
 20
822.94430427
  0
VERTEX
  8
0
 10
363.32398485
 20
823.63911440
  0
VERTEX
  8
0
 10
363.35082618
 20
824.33270889
  0
VERTEX
  8
0
 10
363.40994482
 20
825.02355517
  0
VERTEX
  8
0
 10
363.50166602
 20
825.71012068
  0
VERTEX
  8
0
 10
363.62631502
 20
826.39087288
  0
VERTEX
  8
0
 10
363.78421708
 20
827.06427920
  0
VERTEX
  8
0
 10
363.97569745
 20
827.72880710
  0
VERTEX
  8
0
 10
364.20108136
 20
828.38292401
  0
VERTEX
  8
0
 10
364.46069406
 20
829.02509739
  0
VERTEX
  8
0
 10
364.75486080
 20
829.65379467
  0
VERTEX
  8
0
 10
365.08390684
 20
830.26748331
  0
VERTEX
  8
0
 10
365.44815740
 20
830.86463075
  0
VERTEX
  8
0
 10
365.84534312
 20
831.44039521
  0
VERTEX
  8
0
 10
366.27195700
 20
831.99073843
  0
VERTEX
  8
0
 10
366.72646787
 20
832.51533314
  0
VERTEX
  8
0
 10
367.20734454
 20
833.01385204
  0
VERTEX
  8
0
 10
367.71305585
 20
833.48596786
  0
VERTEX
  8
0
 10
368.24207062
 20
833.93135331
  0
VERTEX
  8
0
 10
368.79285767
 20
834.34968112
  0
VERTEX
  8
0
 10
369.36388583
 20
834.74062399
  0
VERTEX
  8
0
 10
369.95362393
 20
835.10385464
  0
VERTEX
  8
0
 10
370.56054078
 20
835.43904580
  0
VERTEX
  8
0
 10
371.18310522
 20
835.74587018
  0
VERTEX
  8
0
 10
371.81978607
 20
836.02400049
  0
VERTEX
  8
0
 10
372.46905214
 20
836.27310946
  0
VERTEX
  8
0
 10
373.12937228
 20
836.49286980
  0
VERTEX
  8
0
 10
373.79921530
 20
836.68295422
  0
VERTEX
  8
0
 10
374.47705003
 20
836.84303546
  0
VERTEX
  8
0
 10
375.16134530
 20
836.97278621
  0
VERTEX
  8
0
 10
375.85056992
 20
837.07187920
  0
VERTEX
  8
0
 10
376.54319272
 20
837.13998716
  0
VERTEX
  8
0
 10
377.23768254
 20
837.17678278
  0
VERTEX
  8
0
 10
377.93250818
 20
837.18193880
  0
VERTEX
  8
0
 10
378.62613849
 20
837.15512792
  0
VERTEX
  8
0
 10
379.31704227
 20
837.09602287
  0
VERTEX
  8
0
 10
380.00368837
 20
837.00429637
  0
VERTEX
  8
0
 10
380.68454559
 20
836.87962112
  0
VERTEX
  8
0
 10
381.35808278
 20
836.72166986
  0
VERTEX
  8
0
 10
382.02276875
 20
836.53011528
  0
VERTEX
  8
0
 10
382.67707232
 20
836.30463012
  0
VERTEX
  8
0
 10
383.31946233
 20
836.04488709
  0
VERTEX
  8
0
 10
383.94840759
 20
835.75055891
  0
VERTEX
  8
0
 10
384.56237694
 20
835.42131828
  0
VERTEX
  8
0
 10
385.15983919
 20
835.05683794
  0
VERTEX
  8
0
 10
397.11178368
 20
827.29710065
  0
VERTEX
  8
0
 10
397.49427960
 20
827.03937228
  0
VERTEX
  8
0
 10
397.86718915
 20
826.76924944
  0
VERTEX
  8
0
 10
398.23030990
 20
826.48712068
  0
VERTEX
  8
0
 10
398.58343941
 20
826.19337458
  0
VERTEX
  8
0
 10
398.92637523
 20
825.88839971
  0
VERTEX
  8
0
 10
399.25891492
 20
825.57258464
  0
VERTEX
  8
0
 10
399.89199617
 20
824.90998816
  0
VERTEX
  8
0
 10
400.48106363
 20
824.20869370
  0
VERTEX
  8
0
 10
401.02449777
 20
823.47180982
  0
VERTEX
  8
0
 10
401.52067907
 20
822.70244505
  0
VERTEX
  8
0
 10
401.96798800
 20
821.90370797
  0
VERTEX
  8
0
 10
402.36480503
 20
821.07870711
  0
VERTEX
  8
0
 10
402.70951065
 20
820.23055103
  0
VERTEX
  8
0
 10
403.00048531
 20
819.36234828
  0
VERTEX
  8
0
 10
403.23610951
 20
818.47720743
  0
VERTEX
  8
0
 10
403.41476371
 20
817.57823701
  0
VERTEX
  8
0
 10
403.48222096
 20
817.12453714
  0
VERTEX
  8
0
 10
403.53482839
 20
816.66854558
  0
VERTEX
  8
0
 10
403.57238355
 20
816.21065091
  0
VERTEX
  8
0
 10
403.59468401
 20
815.75124170
  0
VERTEX
  8
0
 10
403.60152733
 20
815.29070651
  0
VERTEX
  8
0
 10
403.59271107
 20
814.82943392
  0
VERTEX
  8
0
 10
403.56629083
 20
814.35956113
  0
VERTEX
  8
0
 10
403.52150376
 20
813.89461737
  0
VERTEX
  8
0
 10
403.45875110
 20
813.43481142
  0
VERTEX
  8
0
 10
403.37843411
 20
812.98035205
  0
VERTEX
  8
0
 10
403.28095406
 20
812.53144805
  0
VERTEX
  8
0
 10
403.16671221
 20
812.08830820
  0
VERTEX
  8
0
 10
403.03610980
 20
811.65114130
  0
VERTEX
  8
0
 10
402.88954811
 20
811.22015610
  0
VERTEX
  8
0
 10
402.72742838
 20
810.79556142
  0
VERTEX
  8
0
 10
402.55015189
 20
810.37756601
  0
VERTEX
  8
0
 10
402.35811988
 20
809.96637867
  0
VERTEX
  8
0
 10
402.15173362
 20
809.56220819
  0
VERTEX
  8
0
 10
401.93139436
 20
809.16526333
  0
VERTEX
  8
0
 10
401.69750337
 20
808.77575290
  0
VERTEX
  8
0
 10
401.45046190
 20
808.39388566
  0
VERTEX
  8
0
 10
401.19067121
 20
808.01987040
  0
VERTEX
  8
0
 10
400.63444720
 20
807.29623096
  0
VERTEX
  8
0
 10
400.03204143
 20
806.60650484
  0
VERTEX
  8
0
 10
399.38666396
 20
805.95236230
  0
VERTEX
  8
0
 10
398.70152486
 20
805.33547361
  0
VERTEX
  8
0
 10
397.97983420
 20
804.75750902
  0
VERTEX
  8
0
 10
397.22480206
 20
804.22013881
  0
VERTEX
  8
0
 10
396.43963849
 20
803.72503322
  0
VERTEX
  8
0
 10
395.62755358
 20
803.27386254
  0
VERTEX
  8
0
 10
394.79175739
 20
802.86829701
  0
VERTEX
  8
0
 10
393.93545999
 20
802.51000690
  0
VERTEX
  8
0
 10
393.06187146
 20
802.20066248
  0
VERTEX
  8
0
 10
392.17420186
 20
801.94193400
  0
VERTEX
  8
0
 10
391.27566126
 20
801.73549173
  0
VERTEX
  8
0
 10
390.36945974
 20
801.58300593
  0
VERTEX
  8
0
 10
389.45880736
 20
801.48614687
  0
VERTEX
  8
0
 10
388.54691420
 20
801.44658480
  0
VERTEX
  8
0
 10
388.09150548
 20
801.44881210
  0
VERTEX
  8
0
 10
387.63699033
 20
801.46599000
  0
VERTEX
  8
0
 10
387.18377002
 20
801.49832727
  0
VERTEX
  8
0
 10
386.73224581
 20
801.54603271
  0
VERTEX
  8
0
 10
386.28281895
 20
801.60931510
  0
VERTEX
  8
0
 10
385.83589071
 20
801.68838321
  0
VERTEX
  8
0
 10
385.39186235
 20
801.78344584
  0
VERTEX
  8
0
 10
384.95113511
 20
801.89471176
  0
VERTEX
  8
0
 10
384.51411027
 20
802.02238975
  0
VERTEX
  8
0
 10
384.08118908
 20
802.16668861
  0
VERTEX
  8
0
 10
383.65277280
 20
802.32781711
  0
VERTEX
  8
0
 10
383.22926269
 20
802.50598404
  0
VERTEX
  8
0
 10
382.81106000
 20
802.70139818
  0
VERTEX
  8
0
 10
382.39856600
 20
802.91426830
  0
VERTEX
  8
0
 10
381.99218195
 20
803.14480321
  0
VERTEX
  8
0
 10
381.59230909
 20
803.39321167
  0
SEQEND
  0
POLYLINE
  8
NÌvel_Padr„o
 66
   1
 39
0.000000
 70
    1
  0
VERTEX
  8
0
 10
405.93163622
 20
836.54944766
  0
VERTEX
  8
0
 10
405.89030281
 20
836.19279864
  0
VERTEX
  8
0
 10
405.79599203
 20
835.85323938
  0
VERTEX
  8
0
 10
405.65365555
 20
835.53335671
  0
VERTEX
  8
0
 10
405.46824501
 20
835.23573746
  0
VERTEX
  8
0
 10
405.24471208
 20
834.96296846
  0
VERTEX
  8
0
 10
404.98800840
 20
834.71763652
  0
VERTEX
  8
0
 10
404.70308563
 20
834.50232848
  0
VERTEX
  8
0
 10
404.39489542
 20
834.31963115
  0
VERTEX
  8
0
 10
404.06838944
 20
834.17213137
  0
VERTEX
  8
0
 10
403.72851932
 20
834.06241595
  0
VERTEX
  8
0
 10
403.38023674
 20
833.99307173
  0
VERTEX
  8
0
 10
403.02849333
 20
833.96668553
  0
VERTEX
  8
0
 10
402.67824076
 20
833.98584417
  0
VERTEX
  8
0
 10
402.33443068
 20
834.05313448
  0
VERTEX
  8
0
 10
402.00201475
 20
834.17114328
  0
VERTEX
  8
0
 10
401.68594461
 20
834.34245740
  0
VERTEX
  8
0
 10
389.73400012
 20
842.10219470
  0
VERTEX
  8
0
 10
389.52047206
 20
842.25963789
  0
VERTEX
  8
0
 10
389.33771220
 20
842.43312647
  0
VERTEX
  8
0
 10
389.18462514
 20
842.62097018
  0
VERTEX
  8
0
 10
389.06011551
 20
842.82147877
  0
VERTEX
  8
0
 10
388.96308790
 20
843.03296198
  0
VERTEX
  8
0
 10
388.89244693
 20
843.25372956
  0
VERTEX
  8
0
 10
388.84709719
 20
843.48209126
  0
VERTEX
  8
0
 10
388.82594331
 20
843.71635682
  0
VERTEX
  8
0
 10
388.82788988
 20
843.95483598
  0
VERTEX
  8
0
 10
388.85184153
 20
844.19583849
  0
VERTEX
  8
0
 10
388.89670284
 20
844.43767409
  0
VERTEX
  8
0
 10
388.96137844
 20
844.67865254
  0
VERTEX
  8
0
 10
389.04477293
 20
844.91708357
  0
VERTEX
  8
0
 10
389.14579092
 20
845.15127694
  0
VERTEX
  8
0
 10
389.26333702
 20
845.37954238
  0
VERTEX
  8
0
 10
389.39631583
 20
845.60018964
  0
VERTEX
  8
0
 10
389.54363196
 20
845.81152847
  0
VERTEX
  8
0
 10
389.70419003
 20
846.01186862
  0
VERTEX
  8
0
 10
389.87689464
 20
846.19951982
  0
VERTEX
  8
0
 10
390.06065040
 20
846.37279182
  0
VERTEX
  8
0
 10
390.25436191
 20
846.52999438
  0
VERTEX
  8
0
 10
390.45693379
 20
846.66943723
  0
VERTEX
  8
0
 10
390.66727064
 20
846.78943012
  0
VERTEX
  8
0
 10
390.88427707
 20
846.88828279
  0
VERTEX
  8
0
 10
391.10685770
 20
846.96430500
  0
VERTEX
  8
0
 10
391.33391712
 20
847.01580648
  0
VERTEX
  8
0
 10
391.56435994
 20
847.04109698
  0
VERTEX
  8
0
 10
391.79709078
 20
847.03848625
  0
VERTEX
  8
0
 10
392.03101424
 20
847.00628403
  0
VERTEX
  8
0
 10
392.26503493
 20
846.94280007
  0
VERTEX
  8
0
 10
392.49805747
 20
846.84634411
  0
VERTEX
  8
0
 10
392.72898644
 20
846.71522590
  0
VERTEX
  8
0
 10
404.68093094
 20
838.95548861
  0
VERTEX
  8
0
 10
404.96479053
 20
838.74260765
  0
VERTEX
  8
0
 10
405.21725311
 20
838.49504064
  0
VERTEX
  8
0
 10
405.43579985
 20
838.21757714
  0
VERTEX
  8
0
 10
405.61791189
 20
837.91500674
  0
VERTEX
  8
0
 10
405.76107040
 20
837.59211902
  0
VERTEX
  8
0
 10
405.86275652
 20
837.25370354
  0
VERTEX
  8
0
 10
405.92045141
 20
836.90454990
  0
VERTEX
  8
0
 10
405.93163622
 20
836.54944766
  0
SEQEND
  0
POLYLINE
  8
NÌvel_Padr„o
 66
   1
 39
0.000000
 70
    1
  0
VERTEX
  8
0
 10
481.36418025
 20
789.22269524
  0
VERTEX
  8
0
 10
493.32372467
 20
781.47467631
  0
VERTEX
  8
0
 10
493.60804835
 20
781.26185140
  0
VERTEX
  8
0
 10
493.86094199
 20
781.01424749
  0
VERTEX
  8
0
 10
494.07987736
 20
780.73666644
  0
VERTEX
  8
0
 10
494.26232621
 20
780.43391010
  0
VERTEX
  8
0
 10
494.40576028
 20
780.11078030
  0
VERTEX
  8
0
 10
494.50765134
 20
779.77207890
  0
VERTEX
  8
0
 10
494.56547112
 20
779.42260776
  0
VERTEX
  8
0
 10
494.57669139
 20
779.06716870
  0
VERTEX
  8
0
 10
494.53539181
 20
778.71067683
  0
VERTEX
  8
0
 10
494.44116500
 20
778.37124579
  0
VERTEX
  8
0
 10
494.29895495
 20
778.05146151
  0
VERTEX
  8
0
 10
494.11370564
 20
777.75390989
  0
VERTEX
  8
0
 10
493.89036105
 20
777.48117686
  0
VERTEX
  8
0
 10
493.63386516
 20
777.23584833
  0
VERTEX
  8
0
 10
493.34916197
 20
777.02051022
  0
VERTEX
  8
0
 10
493.04119544
 20
776.83774843
  0
VERTEX
  8
0
 10
492.71490957
 20
776.69014889
  0
VERTEX
  8
0
 10
492.37524832
 20
776.58029751
  0
VERTEX
  8
0
 10
492.02715570
 20
776.51078020
  0
VERTEX
  8
0
 10
491.67557568
 20
776.48418288
  0
VERTEX
  8
0
 10
491.32545224
 20
776.50309146
  0
VERTEX
  8
0
 10
490.98172936
 20
776.57009187
  0
VERTEX
  8
0
 10
490.64935103
 20
776.68777001
  0
VERTEX
  8
0
 10
490.33326122
 20
776.85871179
  0
VERTEX
  8
0
 10
478.37371681
 20
784.60673073
  0
VERTEX
  8
0
 10
478.16003453
 20
784.76396455
  0
VERTEX
  8
0
 10
477.97710471
 20
784.93727392
  0
VERTEX
  8
0
 10
477.82383362
 20
785.12496749
  0
VERTEX
  8
0
 10
477.69912752
 20
785.32535395
  0
VERTEX
  8
0
 10
477.60189267
 20
785.53674196
  0
VERTEX
  8
0
 10
477.53103535
 20
785.75744020
  0
VERTEX
  8
0
 10
477.48546181
 20
785.98575733
  0
VERTEX
  8
0
 10
477.46407832
 20
786.22000204
  0
VERTEX
  8
0
 10
477.46579115
 20
786.45848300
  0
VERTEX
  8
0
 10
477.48950656
 20
786.69950887
  0
VERTEX
  8
0
 10
477.53413082
 20
786.94138833
  0
VERTEX
  8
0
 10
477.59857020
 20
787.18243005
  0
VERTEX
  8
0
 10
477.68173095
 20
787.42094271
  0
VERTEX
  8
0
 10
477.78251935
 20
787.65523497
  0
VERTEX
  8
0
 10
477.89984165
 20
787.88361551
  0
VERTEX
  8
0
 10
478.03260414
 20
788.10439301
  0
VERTEX
  8
0
 10
478.17971306
 20
788.31587613
  0
VERTEX
  8
0
 10
478.34007469
 20
788.51637355
  0
VERTEX
  8
0
 10
478.51259529
 20
788.70419394
  0
VERTEX
  8
0
 10
478.69618113
 20
788.87764597
  0
VERTEX
  8
0
 10
478.88973846
 20
789.03503831
  0
VERTEX
  8
0
 10
479.09217357
 20
789.17467964
  0
VERTEX
  8
0
 10
479.30239271
 20
789.29487864
  0
VERTEX
  8
0
 10
479.51930215
 20
789.39394396
  0
VERTEX
  8
0
 10
479.74180815
 20
789.47018429
  0
VERTEX
  8
0
 10
479.96881698
 20
789.52190830
  0
VERTEX
  8
0
 10
480.19923491
 20
789.54742466
  0
VERTEX
  8
0
 10
480.43196820
 20
789.54504204
  0
VERTEX
  8
0
 10
480.66592311
 20
789.51306911
  0
VERTEX
  8
0
 10
480.90000591
 20
789.44981456
  0
VERTEX
  8
0
 10
481.13312287
 20
789.35358704
  0
VERTEX
  8
0
 10
481.36418025
 20
789.22269524
  0
SEQEND
  0
POLYLINE
  8
NÌvel_Padr„o
 66
   1
 39
0.000000
 70
    1
  0
VERTEX
  8
0
 10
453.74317241
 20
746.58796848
  0
VERTEX
  8
0
 10
465.70271683
 20
738.83994955
  0
VERTEX
  8
0
 10
465.98704050
 20
738.62712464
  0
VERTEX
  8
0
 10
466.23993415
 20
738.37952074
  0
VERTEX
  8
0
 10
466.45886952
 20
738.10193969
  0
VERTEX
  8
0
 10
466.64131837
 20
737.79918334
  0
VERTEX
  8
0
 10
466.78475244
 20
737.47605354
  0
VERTEX
  8
0
 10
466.88664349
 20
737.13735215
  0
VERTEX
  8
0
 10
466.94446328
 20
736.78788100
  0
VERTEX
  8
0
 10
466.95568355
 20
736.43244195
  0
VERTEX
  8
0
 10
466.91438397
 20
736.07595007
  0
VERTEX
  8
0
 10
466.82015716
 20
735.73651903
  0
VERTEX
  8
0
 10
466.67794710
 20
735.41673475
  0
VERTEX
  8
0
 10
466.49269779
 20
735.11918314
  0
VERTEX
  8
0
 10
466.26935320
 20
734.84645011
  0
VERTEX
  8
0
 10
466.01285732
 20
734.60112158
  0
VERTEX
  8
0
 10
465.72815412
 20
734.38578346
  0
VERTEX
  8
0
 10
465.42018760
 20
734.20302167
  0
VERTEX
  8
0
 10
465.09390172
 20
734.05542213
  0
VERTEX
  8
0
 10
464.75424048
 20
733.94557075
  0
VERTEX
  8
0
 10
464.40614786
 20
733.87605344
  0
VERTEX
  8
0
 10
464.05456784
 20
733.84945612
  0
VERTEX
  8
0
 10
463.70444439
 20
733.86836471
  0
VERTEX
  8
0
 10
463.36072151
 20
733.93536511
  0
VERTEX
  8
0
 10
463.02834318
 20
734.05304325
  0
VERTEX
  8
0
 10
462.71225338
 20
734.22398504
  0
VERTEX
  8
0
 10
450.75270896
 20
741.97200397
  0
VERTEX
  8
0
 10
450.53902669
 20
742.12923780
  0
VERTEX
  8
0
 10
450.35609687
 20
742.30254716
  0
VERTEX
  8
0
 10
450.20282578
 20
742.49024073
  0
VERTEX
  8
0
 10
450.07811968
 20
742.69062719
  0
VERTEX
  8
0
 10
449.98088483
 20
742.90201520
  0
VERTEX
  8
0
 10
449.91002750
 20
743.12271344
  0
VERTEX
  8
0
 10
449.86445397
 20
743.35103058
  0
VERTEX
  8
0
 10
449.84307048
 20
743.58527528
  0
VERTEX
  8
0
 10
449.84478331
 20
743.82375624
  0
VERTEX
  8
0
 10
449.86849872
 20
744.06478211
  0
VERTEX
  8
0
 10
449.91312298
 20
744.30666157
  0
VERTEX
  8
0
 10
449.97756235
 20
744.54770329
  0
VERTEX
  8
0
 10
450.06072311
 20
744.78621595
  0
VERTEX
  8
0
 10
450.16151151
 20
745.02050821
  0
VERTEX
  8
0
 10
450.27883381
 20
745.24888875
  0
VERTEX
  8
0
 10
450.41159629
 20
745.46966625
  0
VERTEX
  8
0
 10
450.55870522
 20
745.68114937
  0
VERTEX
  8
0
 10
450.71906685
 20
745.88164679
  0
VERTEX
  8
0
 10
450.89158745
 20
746.06946718
  0
VERTEX
  8
0
 10
451.07517328
 20
746.24291921
  0
VERTEX
  8
0
 10
451.26873062
 20
746.40031155
  0
VERTEX
  8
0
 10
451.47116573
 20
746.53995289
  0
VERTEX
  8
0
 10
451.68138487
 20
746.66015188
  0
VERTEX
  8
0
 10
451.89829431
 20
746.75921720
  0
VERTEX
  8
0
 10
452.12080031
 20
746.83545753
  0
VERTEX
  8
0
 10
452.34780914
 20
746.88718154
  0
VERTEX
  8
0
 10
452.57822707
 20
746.91269790
  0
VERTEX
  8
0
 10
452.81096036
 20
746.91031528
  0
VERTEX
  8
0
 10
453.04491527
 20
746.87834236
  0
VERTEX
  8
0
 10
453.27899807
 20
746.81508780
  0
VERTEX
  8
0
 10
453.51211503
 20
746.71886028
  0
VERTEX
  8
0
 10
453.74317241
 20
746.58796848
  0
SEQEND
  0
POLYLINE
  8
NÌvel_Padr„o
 66
   1
 39
0.000000
 70
    1
  0
VERTEX
  8
0
 10
378.26885345
 20
793.94181397
  0
VERTEX
  8
0
 10
378.22752003
 20
793.58516494
  0
VERTEX
  8
0
 10
378.13320926
 20
793.24560568
  0
VERTEX
  8
0
 10
377.99087277
 20
792.92572302
  0
VERTEX
  8
0
 10
377.80546224
 20
792.62810377
  0
VERTEX
  8
0
 10
377.58192930
 20
792.35533476
  0
VERTEX
  8
0
 10
377.32522562
 20
792.11000283
  0
VERTEX
  8
0
 10
377.04030285
 20
791.89469478
  0
VERTEX
  8
0
 10
376.73211265
 20
791.71199746
  0
VERTEX
  8
0
 10
376.40560666
 20
791.56449767
  0
VERTEX
  8
0
 10
376.06573655
 20
791.45478226
  0
VERTEX
  8
0
 10
375.71745396
 20
791.38543804
  0
VERTEX
  8
0
 10
375.36571056
 20
791.35905183
  0
VERTEX
  8
0
 10
375.01545799
 20
791.37821047
  0
VERTEX
  8
0
 10
374.67164791
 20
791.44550078
  0
VERTEX
  8
0
 10
374.33923197
 20
791.56350959
  0
VERTEX
  8
0
 10
374.02316184
 20
791.73482371
  0
VERTEX
  8
0
 10
362.07121735
 20
799.49456100
  0
VERTEX
  8
0
 10
361.85768928
 20
799.65200419
  0
VERTEX
  8
0
 10
361.67492942
 20
799.82549277
  0
VERTEX
  8
0
 10
361.52184237
 20
800.01333648
  0
VERTEX
  8
0
 10
361.39733274
 20
800.21384507
  0
VERTEX
  8
0
 10
361.30030513
 20
800.42532829
  0
VERTEX
  8
0
 10
361.22966415
 20
800.64609587
  0
VERTEX
  8
0
 10
361.18431442
 20
800.87445756
  0
VERTEX
  8
0
 10
361.16316054
 20
801.10872312
  0
VERTEX
  8
0
 10
361.16510711
 20
801.34720228
  0
VERTEX
  8
0
 10
361.18905875
 20
801.58820479
  0
VERTEX
  8
0
 10
361.23392007
 20
801.83004039
  0
VERTEX
  8
0
 10
361.29859567
 20
802.07101884
  0
VERTEX
  8
0
 10
361.38199016
 20
802.30944987
  0
VERTEX
  8
0
 10
361.48300815
 20
802.54364324
  0
VERTEX
  8
0
 10
361.60055424
 20
802.77190868
  0
VERTEX
  8
0
 10
361.73353305
 20
802.99255594
  0
VERTEX
  8
0
 10
361.88084919
 20
803.20389477
  0
VERTEX
  8
0
 10
362.04140726
 20
803.40423492
  0
VERTEX
  8
0
 10
362.21411187
 20
803.59188612
  0
VERTEX
  8
0
 10
362.39786762
 20
803.76515813
  0
VERTEX
  8
0
 10
362.59157914
 20
803.92236068
  0
VERTEX
  8
0
 10
362.79415102
 20
804.06180353
  0
VERTEX
  8
0
 10
363.00448787
 20
804.18179642
  0
VERTEX
  8
0
 10
363.22149430
 20
804.28064910
  0
VERTEX
  8
0
 10
363.44407492
 20
804.35667130
  0
VERTEX
  8
0
 10
363.67113434
 20
804.40817278
  0
VERTEX
  8
0
 10
363.90157717
 20
804.43346329
  0
VERTEX
  8
0
 10
364.13430801
 20
804.43085256
  0
VERTEX
  8
0
 10
364.36823147
 20
804.39865034
  0
VERTEX
  8
0
 10
364.60225216
 20
804.33516638
  0
VERTEX
  8
0
 10
364.83527469
 20
804.23871042
  0
VERTEX
  8
0
 10
365.06620367
 20
804.10759221
  0
VERTEX
  8
0
 10
377.01814816
 20
796.34785491
  0
VERTEX
  8
0
 10
377.30200775
 20
796.13497395
  0
VERTEX
  8
0
 10
377.55447034
 20
795.88740694
  0
VERTEX
  8
0
 10
377.77301708
 20
795.60994344
  0
VERTEX
  8
0
 10
377.95512912
 20
795.30737304
  0
VERTEX
  8
0
 10
378.09828762
 20
794.98448532
  0
VERTEX
  8
0
 10
378.19997374
 20
794.64606985
  0
VERTEX
  8
0
 10
378.25766863
 20
794.29691620
  0
VERTEX
  8
0
 10
378.26885345
 20
793.94181397
  0
SEQEND
  0
POLYLINE
  8
NÌvel_Padr„o
 66
   1
 39
0.000000
 70
    1
  0
VERTEX
  8
0
 10
363.03814823
 20
834.11404465
  0
VERTEX
  8
0
 10
362.99681481
 20
833.75739563
  0
VERTEX
  8
0
 10
362.90250404
 20
833.41783637
  0
VERTEX
  8
0
 10
362.76016755
 20
833.09795370
  0
VERTEX
  8
0
 10
362.57475702
 20
832.80033446
  0
VERTEX
  8
0
 10
362.35122408
 20
832.52756545
  0
VERTEX
  8
0
 10
362.09452040
 20
832.28223352
  0
VERTEX
  8
0
 10
361.80959764
 20
832.06692547
  0
VERTEX
  8
0
 10
361.50140743
 20
831.88422814
  0
VERTEX
  8
0
 10
361.17490145
 20
831.73672836
  0
VERTEX
  8
0
 10
360.83503133
 20
831.62701295
  0
VERTEX
  8
0
 10
360.48674875
 20
831.55766873
  0
VERTEX
  8
0
 10
360.13500534
 20
831.53128252
  0
VERTEX
  8
0
 10
359.78475277
 20
831.55044116
  0
VERTEX
  8
0
 10
359.44094269
 20
831.61773147
  0
VERTEX
  8
0
 10
359.10852676
 20
831.73574027
  0
VERTEX
  8
0
 10
358.79245662
 20
831.90705440
  0
VERTEX
  8
0
 10
350.40512715
 20
837.35248408
  0
VERTEX
  8
0
 10
350.19159909
 20
837.50992727
  0
VERTEX
  8
0
 10
350.00883923
 20
837.68341585
  0
VERTEX
  8
0
 10
349.85575218
 20
837.87125956
  0
VERTEX
  8
0
 10
349.73124254
 20
838.07176815
  0
VERTEX
  8
0
 10
349.63421493
 20
838.28325136
  0
VERTEX
  8
0
 10
349.56357396
 20
838.50401894
  0
VERTEX
  8
0
 10
349.51822422
 20
838.73238064
  0
VERTEX
  8
0
 10
349.49707034
 20
838.96664619
  0
VERTEX
  8
0
 10
349.49901691
 20
839.20512535
  0
VERTEX
  8
0
 10
349.52296856
 20
839.44612786
  0
VERTEX
  8
0
 10
349.56782987
 20
839.68796347
  0
VERTEX
  8
0
 10
349.63250547
 20
839.92894192
  0
VERTEX
  8
0
 10
349.71589996
 20
840.16737295
  0
VERTEX
  8
0
 10
349.81691795
 20
840.40156631
  0
VERTEX
  8
0
 10
349.93446405
 20
840.62983175
  0
VERTEX
  8
0
 10
350.06744286
 20
840.85047902
  0
VERTEX
  8
0
 10
350.21475900
 20
841.06181785
  0
VERTEX
  8
0
 10
350.37531706
 20
841.26215799
  0
VERTEX
  8
0
 10
350.54802167
 20
841.44980920
  0
VERTEX
  8
0
 10
350.73177743
 20
841.62308120
  0
VERTEX
  8
0
 10
350.92548894
 20
841.78028376
  0
VERTEX
  8
0
 10
351.12806082
 20
841.91972661
  0
VERTEX
  8
0
 10
351.33839767
 20
842.03971950
  0
VERTEX
  8
0
 10
351.55540411
 20
842.13857217
  0
VERTEX
  8
0
 10
351.77798473
 20
842.21459438
  0
VERTEX
  8
0
 10
352.00504415
 20
842.26609586
  0
VERTEX
  8
0
 10
352.23548697
 20
842.29138636
  0
VERTEX
  8
0
 10
352.46821781
 20
842.28877563
  0
VERTEX
  8
0
 10
352.70214127
 20
842.25657341
  0
VERTEX
  8
0
 10
352.93616197
 20
842.19308945
  0
VERTEX
  8
0
 10
353.16918450
 20
842.09663349
  0
VERTEX
  8
0
 10
353.40011347
 20
841.96551528
  0
VERTEX
  8
0
 10
361.78744294
 20
836.52008560
  0
VERTEX
  8
0
 10
362.07130253
 20
836.30720464
  0
VERTEX
  8
0
 10
362.32376512
 20
836.05963763
  0
VERTEX
  8
0
 10
362.54231186
 20
835.78217413
  0
VERTEX
  8
0
 10
362.72442390
 20
835.47960373
  0
VERTEX
  8
0
 10
362.86758240
 20
835.15671601
  0
VERTEX
  8
0
 10
362.96926852
 20
834.81830054
  0
VERTEX
  8
0
 10
363.02696341
 20
834.46914689
  0
VERTEX
  8
0
 10
363.03814823
 20
834.11404465
  0
SEQEND
  0
POLYLINE
  8
NÌvel_Padr„o
 66
   1
 39
0.000000
 70
    1
  0
VERTEX
  8
0
 10
493.64378931
 20
744.44944763
  0
VERTEX
  8
0
 10
493.43010703
 20
744.60668146
  0
VERTEX
  8
0
 10
493.24717721
 20
744.77999082
  0
VERTEX
  8
0
 10
493.09390612
 20
744.96768439
  0
VERTEX
  8
0
 10
492.96920002
 20
745.16807085
  0
VERTEX
  8
0
 10
492.87196517
 20
745.37945886
  0
VERTEX
  8
0
 10
492.80110785
 20
745.60015710
  0
VERTEX
  8
0
 10
492.75553431
 20
745.82847424
  0
VERTEX
  8
0
 10
492.73415082
 20
746.06271894
  0
VERTEX
  8
0
 10
492.73586365
 20
746.30119990
  0
VERTEX
  8
0
 10
492.75957906
 20
746.54222577
  0
VERTEX
  8
0
 10
492.80420332
 20
746.78410523
  0
VERTEX
  8
0
 10
492.86864270
 20
747.02514695
  0
VERTEX
  8
0
 10
492.95180345
 20
747.26365961
  0
VERTEX
  8
0
 10
493.05259185
 20
747.49795187
  0
VERTEX
  8
0
 10
493.16991415
 20
747.72633241
  0
VERTEX
  8
0
 10
493.30267664
 20
747.94710991
  0
VERTEX
  8
0
 10
493.44978556
 20
748.15859303
  0
VERTEX
  8
0
 10
493.61014719
 20
748.35909045
  0
VERTEX
  8
0
 10
493.78266779
 20
748.54691084
  0
VERTEX
  8
0
 10
493.96625363
 20
748.72036287
  0
VERTEX
  8
0
 10
494.15981096
 20
748.87775521
  0
VERTEX
  8
0
 10
494.36224607
 20
749.01739655
  0
VERTEX
  8
0
 10
494.57246521
 20
749.13759554
  0
VERTEX
  8
0
 10
494.78937465
 20
749.23666086
  0
VERTEX
  8
0
 10
495.01188065
 20
749.31290119
  0
VERTEX
  8
0
 10
495.23888948
 20
749.36462520
  0
VERTEX
  8
0
 10
495.46930741
 20
749.39014156
  0
VERTEX
  8
0
 10
495.70204070
 20
749.38775894
  0
VERTEX
  8
0
 10
495.93599561
 20
749.35578602
  0
VERTEX
  8
0
 10
496.17007841
 20
749.29253146
  0
VERTEX
  8
0
 10
496.40319537
 20
749.19630394
  0
VERTEX
  8
0
 10
496.63425275
 20
749.06541214
  0
VERTEX
  8
0
 10
505.02691550
 20
743.62820587
  0
VERTEX
  8
0
 10
505.20106808
 20
743.50555301
  0
VERTEX
  8
0
 10
505.36452053
 20
743.37039895
  0
VERTEX
  8
0
 10
505.51666631
 20
743.22346980
  0
VERTEX
  8
0
 10
505.65689886
 20
743.06549169
  0
VERTEX
  8
0
 10
505.78461161
 20
742.89719072
  0
VERTEX
  8
0
 10
505.89919803
 20
742.71929302
  0
VERTEX
  8
0
 10
506.00005154
 20
742.53252470
  0
VERTEX
  8
0
 10
506.08656560
 20
742.33761189
  0
VERTEX
  8
0
 10
505.52897626
 20
741.36454079
  0
VERTEX
  8
0
 10
504.93836805
 20
740.41277021
  0
VERTEX
  8
0
 10
504.31474096
 20
739.48230013
  0
VERTEX
  8
0
 10
503.65809499
 20
738.57313057
  0
VERTEX
  8
0
 10
503.44373737
 20
738.57162864
  0
VERTEX
  8
0
 10
503.23084364
 20
738.58672674
  0
VERTEX
  8
0
 10
503.02034648
 20
738.61818068
  0
VERTEX
  8
0
 10
502.81317854
 20
738.66574627
  0
VERTEX
  8
0
 10
502.61027247
 20
738.72917931
  0
VERTEX
  8
0
 10
502.41256093
 20
738.80823564
  0
VERTEX
  8
0
 10
502.22097657
 20
738.90267105
  0
VERTEX
  8
0
 10
502.03645205
 20
739.01224136
  0
VERTEX
  8
0
 10
493.64378931
 20
744.44944763
  0
SEQEND
  0
POLYLINE
  8
NÌvel_Padr„o
 66
   1
 39
0.000000
 70
    1
  0
VERTEX
  8
0
 10
597.50869168
 20
826.18260335
  0
VERTEX
  8
0
 10
597.50969168
 20
826.18260335
  0
VERTEX
  8
0
 10
597.50969168
 20
826.18360335
  0
VERTEX
  8
0
 10
597.50869168
 20
826.18360335
  0
VERTEX
  8
0
 10
597.50869168
 20
826.18260335
  0
SEQEND
  0
POLYLINE
  8
NÌvel_Padr„o
 66
   1
 39
0.000000
 70
    1
  0
VERTEX
  8
0
 10
570.80491838
 20
850.03264137
  0
VERTEX
  8
0
 10
571.31299183
 20
849.83212540
  0
VERTEX
  8
0
 10
571.81304568
 20
849.61184599
  0
VERTEX
  8
0
 10
572.30455410
 20
849.37236716
  0
VERTEX
  8
0
 10
572.78699128
 20
849.11425295
  0
VERTEX
  8
0
 10
573.25983138
 20
848.83806741
  0
VERTEX
  8
0
 10
573.72254860
 20
848.54437459
  0
VERTEX
  8
0
 10
574.17461712
 20
848.23373851
  0
VERTEX
  8
0
 10
574.61551111
 20
847.90672323
  0
VERTEX
  8
0
 10
575.04470475
 20
847.56389279
  0
VERTEX
  8
0
 10
575.46167223
 20
847.20581122
  0
VERTEX
  8
0
 10
575.86588773
 20
846.83304258
  0
VERTEX
  8
0
 10
576.25682542
 20
846.44615089
  0
VERTEX
  8
0
 10
576.63395949
 20
846.04570021
  0
VERTEX
  8
0
 10
576.99676412
 20
845.63225457
  0
VERTEX
  8
0
 10
577.34471349
 20
845.20637802
  0
VERTEX
  8
0
 10
577.67728177
 20
844.76863459
  0
VERTEX
  8
0
 10
577.99394316
 20
844.31958834
  0
VERTEX
  8
0
 10
578.29417182
 20
843.85980330
  0
VERTEX
  8
0
 10
578.57744194
 20
843.38984351
  0
VERTEX
  8
0
 10
578.84322770
 20
842.91027302
  0
VERTEX
  8
0
 10
579.09100329
 20
842.42165586
  0
VERTEX
  8
0
 10
579.32024287
 20
841.92455608
  0
VERTEX
  8
0
 10
579.53042064
 20
841.41953773
  0
VERTEX
  8
0
 10
579.72101077
 20
840.90716484
  0
VERTEX
  8
0
 10
579.89148744
 20
840.38800145
  0
VERTEX
  8
0
 10
580.04132484
 20
839.86261160
  0
VERTEX
  8
0
 10
580.16999713
 20
839.33155935
  0
VERTEX
  8
0
 10
580.27697852
 20
838.79540872
  0
VERTEX
  8
0
 10
580.36174316
 20
838.25472377
  0
VERTEX
  8
0
 10
580.42376526
 20
837.71006853
  0
VERTEX
  8
0
 10
580.46251898
 20
837.16200704
  0
VERTEX
  8
0
 10
580.47747850
 20
836.61110335
  0
VERTEX
  8
0
 10
580.46955017
 20
836.09508133
  0
VERTEX
  8
0
 10
580.43981194
 20
835.57505784
  0
VERTEX
  8
0
 10
580.38869695
 20
835.05859599
  0
VERTEX
  8
0
 10
580.31667956
 20
834.54613576
  0
VERTEX
  8
0
 10
580.22423416
 20
834.03811711
  0
VERTEX
  8
0
 10
580.11183513
 20
833.53498001
  0
VERTEX
  8
0
 10
579.97995687
 20
833.03716444
  0
VERTEX
  8
0
 10
579.82907375
 20
832.54511036
  0
VERTEX
  8
0
 10
579.65966015
 20
832.05925776
  0
VERTEX
  8
0
 10
579.47219047
 20
831.58004659
  0
VERTEX
  8
0
 10
579.26713908
 20
831.10791684
  0
VERTEX
  8
0
 10
579.04498038
 20
830.64330847
  0
VERTEX
  8
0
 10
578.80618873
 20
830.18666146
  0
VERTEX
  8
0
 10
578.55123853
 20
829.73841577
  0
VERTEX
  8
0
 10
578.28060416
 20
829.29901138
  0
VERTEX
  8
0
 10
577.99476000
 20
828.86888826
  0
VERTEX
  8
0
 10
577.69418045
 20
828.44848638
  0
VERTEX
  8
0
 10
577.37933987
 20
828.03824571
  0
VERTEX
  8
0
 10
577.05071266
 20
827.63860623
  0
VERTEX
  8
0
 10
576.70877320
 20
827.25000790
  0
VERTEX
  8
0
 10
576.35399588
 20
826.87289071
  0
VERTEX
  8
0
 10
575.98685507
 20
826.50769461
  0
VERTEX
  8
0
 10
575.60782516
 20
826.15485958
  0
VERTEX
  8
0
 10
575.21738054
 20
825.81482559
  0
VERTEX
  8
0
 10
574.81599558
 20
825.48803261
  0
VERTEX
  8
0
 10
574.40414468
 20
825.17492062
  0
VERTEX
  8
0
 10
573.98230222
 20
824.87592959
  0
VERTEX
  8
0
 10
573.55094258
 20
824.59149948
  0
VERTEX
  8
0
 10
573.11054014
 20
824.32207027
  0
VERTEX
  8
0
 10
572.66156929
 20
824.06808194
  0
VERTEX
  8
0
 10
572.20450441
 20
823.82997445
  0
VERTEX
  8
0
 10
571.73981989
 20
823.60818777
  0
VERTEX
  8
0
 10
571.26799011
 20
823.40316187
  0
VERTEX
  8
0
 10
570.60546657
 20
823.14767349
  0
VERTEX
  8
0
 10
569.93136920
 20
822.92598835
  0
VERTEX
  8
0
 10
569.24693779
 20
822.73925633
  0
VERTEX
  8
0
 10
568.55341215
 20
822.58862731
  0
VERTEX
  8
0
 10
567.85203208
 20
822.47525117
  0
VERTEX
  8
0
 10
567.14403737
 20
822.40027780
  0
VERTEX
  8
0
 10
566.43066782
 20
822.36485708
  0
VERTEX
  8
0
 10
565.71316324
 20
822.37013889
  0
VERTEX
  8
0
 10
565.03111712
 20
822.41356757
  0
VERTEX
  8
0
 10
564.35543101
 20
822.49358786
  0
VERTEX
  8
0
 10
563.68710049
 20
822.60913159
  0
VERTEX
  8
0
 10
563.02712114
 20
822.75913056
  0
VERTEX
  8
0
 10
562.37648852
 20
822.94251660
  0
VERTEX
  8
0
 10
561.73619820
 20
823.15822151
  0
VERTEX
  8
0
 10
561.10724577
 20
823.40517711
  0
VERTEX
  8
0
 10
560.49062678
 20
823.68231522
  0
VERTEX
  8
0
 10
559.88733681
 20
823.98856766
  0
VERTEX
  8
0
 10
559.29837144
 20
824.32286624
  0
VERTEX
  8
0
 10
558.72472624
 20
824.68414277
  0
VERTEX
  8
0
 10
558.16739677
 20
825.07132908
  0
VERTEX
  8
0
 10
557.62737861
 20
825.48335697
  0
VERTEX
  8
0
 10
557.10566733
 20
825.91915826
  0
VERTEX
  8
0
 10
556.60325851
 20
826.37766478
  0
VERTEX
  8
0
 10
556.12114771
 20
826.85780832
  0
VERTEX
  8
0
 10
555.66033051
 20
827.35852072
  0
VERTEX
  8
0
 10
555.22180248
 20
827.87873378
  0
VERTEX
  8
0
 10
554.80655919
 20
828.41737933
  0
VERTEX
  8
0
 10
554.41559621
 20
828.97338917
  0
VERTEX
  8
0
 10
554.04990912
 20
829.54569513
  0
VERTEX
  8
0
 10
553.71049349
 20
830.13322901
  0
VERTEX
  8
0
 10
553.39834488
 20
830.73492264
  0
VERTEX
  8
0
 10
553.11445888
 20
831.34970782
  0
VERTEX
  8
0
 10
552.85983104
 20
831.97651639
  0
VERTEX
  8
0
 10
552.63545696
 20
832.61428014
  0
VERTEX
  8
0
 10
552.44233219
 20
833.26193090
  0
VERTEX
  8
0
 10
552.28145231
 20
833.91840048
  0
VERTEX
  8
0
 10
552.15381289
 20
834.58262070
  0
VERTEX
  8
0
 10
552.06040950
 20
835.25352338
  0
VERTEX
  8
0
 10
552.00223772
 20
835.93004032
  0
VERTEX
  8
0
 10
551.98029311
 20
836.61110335
  0
VERTEX
  8
0
 10
551.98822080
 20
837.12652581
  0
VERTEX
  8
0
 10
552.03315940
 20
837.82468106
  0
VERTEX
  8
0
 10
552.11642595
 20
838.51613031
  0
VERTEX
  8
0
 10
552.23687280
 20
839.19980705
  0
VERTEX
  8
0
 10
552.39335231
 20
839.87464478
  0
VERTEX
  8
0
 10
552.58471683
 20
840.53957701
  0
VERTEX
  8
0
 10
552.80981873
 20
841.19353722
  0
VERTEX
  8
0
 10
553.06751037
 20
841.83545892
  0
VERTEX
  8
0
 10
553.35664409
 20
842.46427560
  0
VERTEX
  8
0
 10
553.67607225
 20
843.07892078
  0
VERTEX
  8
0
 10
554.02464722
 20
843.67832793
  0
VERTEX
  8
0
 10
554.40122134
 20
844.26143057
  0
VERTEX
  8
0
 10
554.80464698
 20
844.82716218
  0
VERTEX
  8
0
 10
555.23377650
 20
845.37445628
  0
VERTEX
  8
0
 10
555.68746224
 20
845.90224635
  0
VERTEX
  8
0
 10
556.16455657
 20
846.40946590
  0
VERTEX
  8
0
 10
556.66391184
 20
846.89504843
  0
VERTEX
  8
0
 10
557.18438042
 20
847.35792743
  0
VERTEX
  8
0
 10
557.72481465
 20
847.79703640
  0
VERTEX
  8
0
 10
558.28406689
 20
848.21130884
  0
VERTEX
  8
0
 10
558.86098950
 20
848.59967825
  0
VERTEX
  8
0
 10
559.45443485
 20
848.96107812
  0
VERTEX
  8
0
 10
560.06325527
 20
849.29444197
  0
VERTEX
  8
0
 10
560.68630314
 20
849.59870328
  0
VERTEX
  8
0
 10
561.32243081
 20
849.87279555
  0
VERTEX
  8
0
 10
561.97049063
 20
850.11565229
  0
VERTEX
  8
0
 10
562.62933497
 20
850.32620698
  0
VERTEX
  8
0
 10
563.29781617
 20
850.50339314
  0
VERTEX
  8
0
 10
563.97478660
 20
850.64614425
  0
VERTEX
  8
0
 10
564.65909862
 20
850.75339382
  0
VERTEX
  8
0
 10
565.34960457
 20
850.82407534
  0
VERTEX
  8
0
 10
566.04515682
 20
850.85712232
  0
VERTEX
  8
0
 10
566.74460773
 20
850.85146825
  0
VERTEX
  8
0
 10
567.26733042
 20
850.82153840
  0
VERTEX
  8
0
 10
567.78651077
 20
850.76999471
  0
VERTEX
  8
0
 10
568.30175081
 20
850.69729787
  0
VERTEX
  8
0
 10
568.81265261
 20
850.60390860
  0
VERTEX
  8
0
 10
569.31881821
 20
850.49028760
  0
VERTEX
  8
0
 10
569.81984967
 20
850.35689559
  0
VERTEX
  8
0
 10
570.31534904
 20
850.20419328
  0
VERTEX
  8
0
 10
570.80491838
 20
850.03264137
  0
SEQEND
  0
POLYLINE
  8
NÌvel_Padr„o
 66
   1
 39
0.000000
 70
    1
  0
VERTEX
  8
0
 10
553.03083809
 20
857.62702457
  0
VERTEX
  8
0
 10
553.05019641
 20
857.82865733
  0
VERTEX
  8
0
 10
553.09213939
 20
858.01643516
  0
VERTEX
  8
0
 10
553.15512989
 20
858.19041205
  0
VERTEX
  8
0
 10
553.23763077
 20
858.35064199
  0
VERTEX
  8
0
 10
553.33810490
 20
858.49717897
  0
VERTEX
  8
0
 10
553.45501513
 20
858.63007699
  0
VERTEX
  8
0
 10
553.58682433
 20
858.74939003
  0
VERTEX
  8
0
 10
553.73199535
 20
858.85517208
  0
VERTEX
  8
0
 10
553.88899106
 20
858.94747714
  0
VERTEX
  8
0
 10
554.05627432
 20
859.02635920
  0
VERTEX
  8
0
 10
554.23230799
 20
859.09187224
  0
VERTEX
  8
0
 10
554.41555493
 20
859.14407026
  0
VERTEX
  8
0
 10
554.79754007
 20
859.20873721
  0
VERTEX
  8
0
 10
555.18993262
 20
859.22079196
  0
VERTEX
  8
0
 10
555.58043548
 20
859.18066644
  0
VERTEX
  8
0
 10
555.95675153
 20
859.08879258
  0
VERTEX
  8
0
 10
556.13574666
 20
859.02358500
  0
VERTEX
  8
0
 10
556.30658366
 20
858.94560231
  0
VERTEX
  8
0
 10
556.46772541
 20
858.85489849
  0
VERTEX
  8
0
 10
556.61763476
 20
858.75152755
  0
VERTEX
  8
0
 10
556.75477458
 20
858.63554347
  0
VERTEX
  8
0
 10
556.87760772
 20
858.50700024
  0
VERTEX
  8
0
 10
556.98459705
 20
858.36595185
  0
VERTEX
  8
0
 10
557.07420543
 20
858.21245229
  0
VERTEX
  8
0
 10
557.14489571
 20
858.04655556
  0
VERTEX
  8
0
 10
557.19513076
 20
857.86831564
  0
VERTEX
  8
0
 10
557.22337345
 20
857.67778653
  0
VERTEX
  8
0
 10
557.22808663
 20
857.47502222
  0
VERTEX
  8
0
 10
557.20872831
 20
857.27338946
  0
VERTEX
  8
0
 10
557.16678533
 20
857.08561163
  0
VERTEX
  8
0
 10
557.10379483
 20
856.91163474
  0
VERTEX
  8
0
 10
557.02129394
 20
856.75140480
  0
VERTEX
  8
0
 10
556.92081981
 20
856.60486781
  0
VERTEX
  8
0
 10
556.80390958
 20
856.47196980
  0
VERTEX
  8
0
 10
556.67210039
 20
856.35265676
  0
VERTEX
  8
0
 10
556.52692936
 20
856.24687470
  0
VERTEX
  8
0
 10
556.36993365
 20
856.15456964
  0
VERTEX
  8
0
 10
556.20265039
 20
856.07568759
  0
VERTEX
  8
0
 10
556.02661672
 20
856.01017454
  0
VERTEX
  8
0
 10
555.84336978
 20
855.95797652
  0
VERTEX
  8
0
 10
555.46138464
 20
855.89330958
  0
VERTEX
  8
0
 10
555.06899209
 20
855.88125483
  0
VERTEX
  8
0
 10
554.67848923
 20
855.92138035
  0
VERTEX
  8
0
 10
554.30217319
 20
856.01325421
  0
VERTEX
  8
0
 10
554.12317806
 20
856.07846179
  0
VERTEX
  8
0
 10
553.95234105
 20
856.15644448
  0
VERTEX
  8
0
 10
553.79119931
 20
856.24714829
  0
VERTEX
  8
0
 10
553.64128995
 20
856.35051924
  0
VERTEX
  8
0
 10
553.50415014
 20
856.46650332
  0
VERTEX
  8
0
 10
553.38131700
 20
856.59504655
  0
VERTEX
  8
0
 10
553.27432767
 20
856.73609494
  0
VERTEX
  8
0
 10
553.18471929
 20
856.88959450
  0
VERTEX
  8
0
 10
553.11402901
 20
857.05549123
  0
VERTEX
  8
0
 10
553.06379395
 20
857.23373114
  0
VERTEX
  8
0
 10
553.03555127
 20
857.42426025
  0
VERTEX
  8
0
 10
553.03083809
 20
857.62702457
  0
SEQEND
  0
POLYLINE
  8
NÌvel_Padr„o
 66
   1
 39
0.000000
 70
    1
  0
VERTEX
  8
0
 10
575.22968434
 20
815.74658492
  0
VERTEX
  8
0
 10
575.24904266
 20
815.94821768
  0
VERTEX
  8
0
 10
575.29098564
 20
816.13599551
  0
VERTEX
  8
0
 10
575.35397614
 20
816.30997240
  0
VERTEX
  8
0
 10
575.43647703
 20
816.47020234
  0
VERTEX
  8
0
 10
575.53695115
 20
816.61673932
  0
VERTEX
  8
0
 10
575.65386139
 20
816.74963734
  0
VERTEX
  8
0
 10
575.78567058
 20
816.86895038
  0
VERTEX
  8
0
 10
575.93084161
 20
816.97473243
  0
VERTEX
  8
0
 10
576.08783732
 20
817.06703749
  0
VERTEX
  8
0
 10
576.25512058
 20
817.14591955
  0
VERTEX
  8
0
 10
576.43115425
 20
817.21143259
  0
VERTEX
  8
0
 10
576.61440119
 20
817.26363062
  0
VERTEX
  8
0
 10
576.99638632
 20
817.32829756
  0
VERTEX
  8
0
 10
577.38877888
 20
817.34035231
  0
VERTEX
  8
0
 10
577.77928173
 20
817.30022679
  0
VERTEX
  8
0
 10
578.15559778
 20
817.20835293
  0
VERTEX
  8
0
 10
578.33459291
 20
817.14314535
  0
VERTEX
  8
0
 10
578.50542991
 20
817.06516266
  0
VERTEX
  8
0
 10
578.66657166
 20
816.97445885
  0
VERTEX
  8
0
 10
578.81648101
 20
816.87108790
  0
VERTEX
  8
0
 10
578.95362083
 20
816.75510382
  0
VERTEX
  8
0
 10
579.07645397
 20
816.62656059
  0
VERTEX
  8
0
 10
579.18344330
 20
816.48551220
  0
VERTEX
  8
0
 10
579.27305168
 20
816.33201264
  0
VERTEX
  8
0
 10
579.34374196
 20
816.16611591
  0
VERTEX
  8
0
 10
579.39397702
 20
815.98787600
  0
VERTEX
  8
0
 10
579.42221970
 20
815.79734689
  0
VERTEX
  8
0
 10
579.42693288
 20
815.59458257
  0
VERTEX
  8
0
 10
579.40757456
 20
815.39294981
  0
VERTEX
  8
0
 10
579.36563158
 20
815.20517198
  0
VERTEX
  8
0
 10
579.30264108
 20
815.03119509
  0
VERTEX
  8
0
 10
579.22014019
 20
814.87096515
  0
VERTEX
  8
0
 10
579.11966607
 20
814.72442817
  0
VERTEX
  8
0
 10
579.00275584
 20
814.59153015
  0
VERTEX
  8
0
 10
578.87094664
 20
814.47221711
  0
VERTEX
  8
0
 10
578.72577562
 20
814.36643506
  0
VERTEX
  8
0
 10
578.56877990
 20
814.27413000
  0
VERTEX
  8
0
 10
578.40149664
 20
814.19524794
  0
VERTEX
  8
0
 10
578.22546297
 20
814.12973490
  0
VERTEX
  8
0
 10
578.04221603
 20
814.07753687
  0
VERTEX
  8
0
 10
577.66023090
 20
814.01286993
  0
VERTEX
  8
0
 10
577.26783834
 20
814.00081518
  0
VERTEX
  8
0
 10
576.87733549
 20
814.04094070
  0
VERTEX
  8
0
 10
576.50101944
 20
814.13281456
  0
VERTEX
  8
0
 10
576.32202431
 20
814.19802214
  0
VERTEX
  8
0
 10
576.15118731
 20
814.27600483
  0
VERTEX
  8
0
 10
575.99004556
 20
814.36670864
  0
VERTEX
  8
0
 10
575.84013621
 20
814.47007959
  0
VERTEX
  8
0
 10
575.70299639
 20
814.58606367
  0
VERTEX
  8
0
 10
575.58016325
 20
814.71460690
  0
VERTEX
  8
0
 10
575.47317392
 20
814.85565529
  0
VERTEX
  8
0
 10
575.38356554
 20
815.00915485
  0
VERTEX
  8
0
 10
575.31287526
 20
815.17505158
  0
VERTEX
  8
0
 10
575.26264020
 20
815.35329150
  0
VERTEX
  8
0
 10
575.23439752
 20
815.54382061
  0
VERTEX
  8
0
 10
575.22968434
 20
815.74658492
  0
SEQEND
  0
POLYLINE
  8
NÌvel_Padr„o
 66
   1
 39
0.000000
 70
    1
  0
VERTEX
  8
0
 10
551.54521045
 20
816.60431243
  0
VERTEX
  8
0
 10
551.56456877
 20
816.80594520
  0
VERTEX
  8
0
 10
551.60651175
 20
816.99372303
  0
VERTEX
  8
0
 10
551.66950225
 20
817.16769992
  0
VERTEX
  8
0
 10
551.75200314
 20
817.32792986
  0
VERTEX
  8
0
 10
551.85247726
 20
817.47446684
  0
VERTEX
  8
0
 10
551.96938749
 20
817.60736486
  0
VERTEX
  8
0
 10
552.10119669
 20
817.72667790
  0
VERTEX
  8
0
 10
552.24636771
 20
817.83245995
  0
VERTEX
  8
0
 10
552.40336343
 20
817.92476501
  0
VERTEX
  8
0
 10
552.57064669
 20
818.00364707
  0
VERTEX
  8
0
 10
552.74668036
 20
818.06916011
  0
VERTEX
  8
0
 10
552.92992730
 20
818.12135813
  0
VERTEX
  8
0
 10
553.31191243
 20
818.18602508
  0
VERTEX
  8
0
 10
553.70430499
 20
818.19807983
  0
VERTEX
  8
0
 10
554.09480784
 20
818.15795431
  0
VERTEX
  8
0
 10
554.47112389
 20
818.06608045
  0
VERTEX
  8
0
 10
554.65011902
 20
818.00087287
  0
VERTEX
  8
0
 10
554.82095602
 20
817.92289018
  0
VERTEX
  8
0
 10
554.98209777
 20
817.83218636
  0
VERTEX
  8
0
 10
555.13200712
 20
817.72881542
  0
VERTEX
  8
0
 10
555.26914694
 20
817.61283134
  0
VERTEX
  8
0
 10
555.39198008
 20
817.48428810
  0
VERTEX
  8
0
 10
555.49896941
 20
817.34323972
  0
VERTEX
  8
0
 10
555.58857779
 20
817.18974016
  0
VERTEX
  8
0
 10
555.65926807
 20
817.02384343
  0
VERTEX
  8
0
 10
555.70950313
 20
816.84560351
  0
VERTEX
  8
0
 10
555.73774581
 20
816.65507440
  0
VERTEX
  8
0
 10
555.74245899
 20
816.45231009
  0
VERTEX
  8
0
 10
555.72310067
 20
816.25067733
  0
VERTEX
  8
0
 10
555.68115769
 20
816.06289950
  0
VERTEX
  8
0
 10
555.61816719
 20
815.88892261
  0
VERTEX
  8
0
 10
555.53566630
 20
815.72869267
  0
VERTEX
  8
0
 10
555.43519218
 20
815.58215568
  0
VERTEX
  8
0
 10
555.31828194
 20
815.44925767
  0
VERTEX
  8
0
 10
555.18647275
 20
815.32994463
  0
VERTEX
  8
0
 10
555.04130172
 20
815.22416257
  0
VERTEX
  8
0
 10
554.88430601
 20
815.13185751
  0
VERTEX
  8
0
 10
554.71702275
 20
815.05297546
  0
VERTEX
  8
0
 10
554.54098908
 20
814.98746241
  0
VERTEX
  8
0
 10
554.35774214
 20
814.93526439
  0
VERTEX
  8
0
 10
553.97575701
 20
814.87059745
  0
VERTEX
  8
0
 10
553.58336445
 20
814.85854270
  0
VERTEX
  8
0
 10
553.19286160
 20
814.89866822
  0
VERTEX
  8
0
 10
552.81654555
 20
814.99054208
  0
VERTEX
  8
0
 10
552.63755042
 20
815.05574966
  0
VERTEX
  8
0
 10
552.46671342
 20
815.13373235
  0
VERTEX
  8
0
 10
552.30557167
 20
815.22443616
  0
VERTEX
  8
0
 10
552.15566232
 20
815.32780711
  0
VERTEX
  8
0
 10
552.01852250
 20
815.44379119
  0
VERTEX
  8
0
 10
551.89568936
 20
815.57233442
  0
VERTEX
  8
0
 10
551.78870003
 20
815.71338281
  0
VERTEX
  8
0
 10
551.69909165
 20
815.86688236
  0
VERTEX
  8
0
 10
551.62840137
 20
816.03277910
  0
VERTEX
  8
0
 10
551.57816631
 20
816.21101901
  0
VERTEX
  8
0
 10
551.54992363
 20
816.40154812
  0
VERTEX
  8
0
 10
551.54521045
 20
816.60431243
  0
SEQEND
  0
POLYLINE
  8
NÌvel_Padr„o
 66
   1
 39
0.000000
 70
    1
  0
VERTEX
  8
0
 10
540.44578732
 20
837.54453226
  0
VERTEX
  8
0
 10
540.46514564
 20
837.74616502
  0
VERTEX
  8
0
 10
540.50708862
 20
837.93394285
  0
VERTEX
  8
0
 10
540.57007913
 20
838.10791974
  0
VERTEX
  8
0
 10
540.65258001
 20
838.26814968
  0
VERTEX
  8
0
 10
540.75305414
 20
838.41468666
  0
VERTEX
  8
0
 10
540.86996437
 20
838.54758468
  0
VERTEX
  8
0
 10
541.00177357
 20
838.66689772
  0
VERTEX
  8
0
 10
541.14694459
 20
838.77267977
  0
VERTEX
  8
0
 10
541.30394030
 20
838.86498483
  0
VERTEX
  8
0
 10
541.47122356
 20
838.94386689
  0
VERTEX
  8
0
 10
541.64725723
 20
839.00937993
  0
VERTEX
  8
0
 10
541.83050417
 20
839.06157796
  0
VERTEX
  8
0
 10
542.21248931
 20
839.12624490
  0
VERTEX
  8
0
 10
542.60488186
 20
839.13829965
  0
VERTEX
  8
0
 10
542.99538472
 20
839.09817413
  0
VERTEX
  8
0
 10
543.37170077
 20
839.00630027
  0
VERTEX
  8
0
 10
543.55069589
 20
838.94109269
  0
VERTEX
  8
0
 10
543.72153290
 20
838.86311000
  0
VERTEX
  8
0
 10
543.88267465
 20
838.77240619
  0
VERTEX
  8
0
 10
544.03258400
 20
838.66903524
  0
VERTEX
  8
0
 10
544.16972381
 20
838.55305116
  0
VERTEX
  8
0
 10
544.29255696
 20
838.42450793
  0
VERTEX
  8
0
 10
544.39954628
 20
838.28345954
  0
VERTEX
  8
0
 10
544.48915466
 20
838.12995998
  0
VERTEX
  8
0
 10
544.55984494
 20
837.96406325
  0
VERTEX
  8
0
 10
544.61008000
 20
837.78582334
  0
VERTEX
  8
0
 10
544.63832268
 20
837.59529423
  0
VERTEX
  8
0
 10
544.64303586
 20
837.39252991
  0
VERTEX
  8
0
 10
544.62367754
 20
837.19089715
  0
VERTEX
  8
0
 10
544.58173456
 20
837.00311932
  0
VERTEX
  8
0
 10
544.51874406
 20
836.82914243
  0
VERTEX
  8
0
 10
544.43624318
 20
836.66891249
  0
VERTEX
  8
0
 10
544.33576905
 20
836.52237551
  0
VERTEX
  8
0
 10
544.21885882
 20
836.38947749
  0
VERTEX
  8
0
 10
544.08704962
 20
836.27016445
  0
VERTEX
  8
0
 10
543.94187860
 20
836.16438240
  0
VERTEX
  8
0
 10
543.78488289
 20
836.07207734
  0
VERTEX
  8
0
 10
543.61759963
 20
835.99319528
  0
VERTEX
  8
0
 10
543.44156596
 20
835.92768224
  0
VERTEX
  8
0
 10
543.25831902
 20
835.87548422
  0
VERTEX
  8
0
 10
542.87633388
 20
835.81081727
  0
VERTEX
  8
0
 10
542.48394133
 20
835.79876252
  0
VERTEX
  8
0
 10
542.09343847
 20
835.83888804
  0
VERTEX
  8
0
 10
541.71712242
 20
835.93076190
  0
VERTEX
  8
0
 10
541.53812730
 20
835.99596948
  0
VERTEX
  8
0
 10
541.36729029
 20
836.07395217
  0
VERTEX
  8
0
 10
541.20614854
 20
836.16465599
  0
VERTEX
  8
0
 10
541.05623919
 20
836.26802693
  0
VERTEX
  8
0
 10
540.91909937
 20
836.38401101
  0
VERTEX
  8
0
 10
540.79626623
 20
836.51255424
  0
VERTEX
  8
0
 10
540.68927690
 20
836.65360263
  0
VERTEX
  8
0
 10
540.59966853
 20
836.80710219
  0
VERTEX
  8
0
 10
540.52897824
 20
836.97299892
  0
VERTEX
  8
0
 10
540.47874319
 20
837.15123884
  0
VERTEX
  8
0
 10
540.45050050
 20
837.34176795
  0
VERTEX
  8
0
 10
540.44578732
 20
837.54453226
  0
SEQEND
  0
POLYLINE
  8
NÌvel_Padr„o
 66
   1
 39
0.000000
 70
    0
  0
VERTEX
  8
0
 10
591.73737489
 20
836.61160335
  0
VERTEX
  8
0
 10
591.73756309
 20
836.61135335
  0
VERTEX
  8
0
 10
591.57742267
 20
836.79942436
  0
VERTEX
  8
0
 10
591.38850938
 20
836.96310344
  0
VERTEX
  8
0
 10
591.17499537
 20
837.10224354
  0
VERTEX
  8
0
 10
590.94105284
 20
837.21669759
  0
VERTEX
  8
0
 10
590.69085394
 20
837.30631852
  0
VERTEX
  8
0
 10
590.42857086
 20
837.37095928
  0
VERTEX
  8
0
 10
590.15837577
 20
837.41047280
  0
VERTEX
  8
0
 10
589.88444085
 20
837.42471202
  0
VERTEX
  8
0
 10
589.61093827
 20
837.41352988
  0
VERTEX
  8
0
 10
589.34204020
 20
837.37677931
  0
VERTEX
  8
0
 10
589.08191882
 20
837.31431324
  0
VERTEX
  8
0
 10
588.83474630
 20
837.22598462
  0
VERTEX
  8
0
 10
588.60469481
 20
837.11164639
  0
VERTEX
  8
0
 10
588.39593654
 20
836.97115147
  0
VERTEX
  8
0
 10
588.21264366
 20
836.80435282
  0
VERTEX
  8
0
 10
588.05898833
 20
836.61110335
  0
VERTEX
  8
0
 10
587.96124273
 20
836.44023820
  0
VERTEX
  8
0
 10
587.88666039
 20
836.25302547
  0
VERTEX
  8
0
 10
587.83717871
 20
836.04934515
  0
VERTEX
  8
0
 10
587.81473511
 20
835.82907722
  0
VERTEX
  8
0
 10
587.82230984
 20
835.59611778
  0
VERTEX
  8
0
 10
587.86092225
 20
835.37947635
  0
VERTEX
  8
0
 10
587.92821168
 20
835.17924091
  0
VERTEX
  8
0
 10
588.02181750
 20
834.99549947
  0
VERTEX
  8
0
 10
588.13937906
 20
834.82834000
  0
VERTEX
  8
0
 10
588.27853570
 20
834.67785052
  0
VERTEX
  8
0
 10
588.43692679
 20
834.54411901
  0
VERTEX
  8
0
 10
588.61219168
 20
834.42723346
  0
VERTEX
  8
0
 10
588.84817256
 20
834.30624836
  0
VERTEX
  8
0
 10
589.10163424
 20
834.21109717
  0
VERTEX
  8
0
 10
589.36815959
 20
834.14193262
  0
VERTEX
  8
0
 10
589.64333146
 20
834.09890745
  0
VERTEX
  8
0
 10
589.92273272
 20
834.08217441
  0
VERTEX
  8
0
 10
590.20194621
 20
834.09188623
  0
VERTEX
  8
0
 10
590.47655482
 20
834.12819566
  0
VERTEX
  8
0
 10
590.74214138
 20
834.19125543
  0
VERTEX
  8
0
 10
590.99428877
 20
834.28121829
  0
VERTEX
  8
0
 10
591.22857983
 20
834.39823697
  0
VERTEX
  8
0
 10
591.44059744
 20
834.54246422
  0
VERTEX
  8
0
 10
591.62592444
 20
834.71405278
  0
VERTEX
  8
0
 10
591.78014371
 20
834.91315538
  0
VERTEX
  8
0
 10
591.89883809
 20
835.13992477
  0
VERTEX
  8
0
 10
591.97759045
 20
835.39451369
  0
VERTEX
  8
0
 10
592.01198364
 20
835.67707488
  0
VERTEX
  8
0
 10
592.00060491
 20
835.94293544
  0
VERTEX
  8
0
 10
591.94875658
 20
836.18733704
  0
VERTEX
  8
0
 10
591.85991664
 20
836.41017717
  0
VERTEX
  8
0
 10
591.73756309
 20
836.61135335
  0
SEQEND
  0
POLYLINE
  8
NÌvel_Padr„o
 66
   1
 39
0.000000
 70
    1
  0
VERTEX
  8
0
 10
576.71531198
 20
856.76929705
  0
VERTEX
  8
0
 10
576.73467030
 20
856.97092981
  0
VERTEX
  8
0
 10
576.77661328
 20
857.15870764
  0
VERTEX
  8
0
 10
576.83960378
 20
857.33268453
  0
VERTEX
  8
0
 10
576.92210467
 20
857.49291447
  0
VERTEX
  8
0
 10
577.02257879
 20
857.63945145
  0
VERTEX
  8
0
 10
577.13948902
 20
857.77234947
  0
VERTEX
  8
0
 10
577.27129822
 20
857.89166251
  0
VERTEX
  8
0
 10
577.41646924
 20
857.99744456
  0
VERTEX
  8
0
 10
577.57346496
 20
858.08974962
  0
VERTEX
  8
0
 10
577.74074822
 20
858.16863168
  0
VERTEX
  8
0
 10
577.91678189
 20
858.23414472
  0
VERTEX
  8
0
 10
578.10002883
 20
858.28634275
  0
VERTEX
  8
0
 10
578.48201396
 20
858.35100969
  0
VERTEX
  8
0
 10
578.87440652
 20
858.36306444
  0
VERTEX
  8
0
 10
579.26490937
 20
858.32293892
  0
VERTEX
  8
0
 10
579.64122542
 20
858.23106506
  0
VERTEX
  8
0
 10
579.82022055
 20
858.16585748
  0
VERTEX
  8
0
 10
579.99105755
 20
858.08787479
  0
VERTEX
  8
0
 10
580.15219930
 20
857.99717098
  0
VERTEX
  8
0
 10
580.30210865
 20
857.89380003
  0
VERTEX
  8
0
 10
580.43924847
 20
857.77781595
  0
VERTEX
  8
0
 10
580.56208161
 20
857.64927272
  0
VERTEX
  8
0
 10
580.66907094
 20
857.50822433
  0
VERTEX
  8
0
 10
580.75867932
 20
857.35472477
  0
VERTEX
  8
0
 10
580.82936960
 20
857.18882804
  0
VERTEX
  8
0
 10
580.87960466
 20
857.01058813
  0
VERTEX
  8
0
 10
580.90784734
 20
856.82005902
  0
VERTEX
  8
0
 10
580.91256052
 20
856.61729470
  0
VERTEX
  8
0
 10
580.89320220
 20
856.41566194
  0
VERTEX
  8
0
 10
580.85125922
 20
856.22788411
  0
VERTEX
  8
0
 10
580.78826872
 20
856.05390722
  0
VERTEX
  8
0
 10
580.70576783
 20
855.89367728
  0
VERTEX
  8
0
 10
580.60529371
 20
855.74714030
  0
VERTEX
  8
0
 10
580.48838347
 20
855.61424228
  0
VERTEX
  8
0
 10
580.35657428
 20
855.49492924
  0
VERTEX
  8
0
 10
580.21140325
 20
855.38914719
  0
VERTEX
  8
0
 10
580.05440754
 20
855.29684213
  0
VERTEX
  8
0
 10
579.88712428
 20
855.21796007
  0
VERTEX
  8
0
 10
579.71109061
 20
855.15244703
  0
VERTEX
  8
0
 10
579.52784367
 20
855.10024900
  0
VERTEX
  8
0
 10
579.14585854
 20
855.03558206
  0
VERTEX
  8
0
 10
578.75346598
 20
855.02352731
  0
VERTEX
  8
0
 10
578.36296313
 20
855.06365283
  0
VERTEX
  8
0
 10
577.98664708
 20
855.15552669
  0
VERTEX
  8
0
 10
577.80765195
 20
855.22073427
  0
VERTEX
  8
0
 10
577.63681495
 20
855.29871696
  0
VERTEX
  8
0
 10
577.47567320
 20
855.38942078
  0
VERTEX
  8
0
 10
577.32576385
 20
855.49279172
  0
VERTEX
  8
0
 10
577.18862403
 20
855.60877580
  0
VERTEX
  8
0
 10
577.06579089
 20
855.73731903
  0
VERTEX
  8
0
 10
576.95880156
 20
855.87836742
  0
VERTEX
  8
0
 10
576.86919318
 20
856.03186698
  0
VERTEX
  8
0
 10
576.79850290
 20
856.19776371
  0
VERTEX
  8
0
 10
576.74826784
 20
856.37600363
  0
VERTEX
  8
0
 10
576.72002516
 20
856.56653274
  0
VERTEX
  8
0
 10
576.71531198
 20
856.76929705
  0
SEQEND
  0
POLYLINE
  8
NÌvel_Padr„o
 66
   1
 39
0.000000
 70
    0
  0
VERTEX
  8
0
 10
58.51562500
 20
134.12071218
  0
VERTEX
  8
0
 10
183.00333527
 20
134.12071218
 42
0.14053264
  0
VERTEX
  8
0
 10
181.01650051
 20
120.20127009
  0
VERTEX
  8
0
 10
181.06028531
 20
119.90489781
  0
VERTEX
  8
0
 10
181.08526841
 20
119.73579121
 42
0.21386697
  0
VERTEX
  8
0
 10
192.47296144
 20
102.25127091
 42
0.21386697
  0
VERTEX
  8
0
 10
213.10231502
 20
99.11793821
 42
0.21386697
  0
VERTEX
  8
0
 10
229.16801297
 20
112.43264256
 42
0.21386697
  0
VERTEX
  8
0
 10
229.91877127
 20
133.28508522
  0
VERTEX
  8
0
 10
230.00159309
 20
133.62752468
  0
VERTEX
  8
0
 10
230.09993840
 20
134.00352468
  0
VERTEX
  8
0
 10
251.25000000
 20
134.00352468
  0
VERTEX
  8
0
 10
251.25000000
 20
183.37952468
  0
VERTEX
  8
0
 10
270.25032517
 20
183.37952468
  0
SEQEND
  0
POLYLINE
  8
NÌvel_Padr„o
 66
   1
 39
0.000000
 70
    0
  0
VERTEX
  8
0
 10
270.45110931
 20
183.37952468
  0
VERTEX
  8
0
 10
270.25032517
 20
183.37952468
  0
VERTEX
  8
0
 10
270.45110931
 20
183.37952468
  0
VERTEX
  8
0
 10
301.87500000
 20
183.37952468
  0
VERTEX
  8
0
 10
301.87500000
 20
134.00352468
  0
VERTEX
  8
0
 10
337.50000000
 20
134.00352468
  0
VERTEX
  8
0
 10
337.50000000
 20
183.37952468
  0
VERTEX
  8
0
 10
417.50000000
 20
183.37952468
  0
VERTEX
  8
0
 10
417.50000000
 20
134.00352468
  0
VERTEX
  8
0
 10
459.37500000
 20
134.00352468
  0
VERTEX
  8
0
 10
459.37500000
 20
183.37952468
  0
VERTEX
  8
0
 10
539.37500000
 20
183.37952468
  0
VERTEX
  8
0
 10
539.37500000
 20
134.00352468
  0
VERTEX
  8
0
 10
585.00000000
 20
134.00352468
  0
VERTEX
  8
0
 10
585.00000000
 20
183.37952468
  0
VERTEX
  8
0
 10
665.00000000
 20
183.37952468
  0
VERTEX
  8
0
 10
665.00000000
 20
134.00352468
  0
VERTEX
  8
0
 10
705.31600000
 20
134.00352468
  0
VERTEX
  8
0
 10
705.31600000
 20
180.49092278
  0
VERTEX
  8
0
 10
646.25000000
 20
221.25000000
  0
VERTEX
  8
0
 10
733.66282140
 20
221.25000000
  0
VERTEX
  8
0
 10
758.66282140
 20
221.25000000
  0
VERTEX
  8
0
 10
758.66282140
 20
384.09176399
  0
VERTEX
  8
0
 10
758.66282140
 20
719.69632293
  0
VERTEX
  8
0
 10
758.66282140
 20
771.59632293
  0
VERTEX
  8
0
 10
707.86282140
 20
771.59632293
  0
VERTEX
  8
0
 10
707.86282140
 20
720.79632293
  0
VERTEX
  8
0
 10
733.66282140
 20
720.79632293
  0
VERTEX
  8
0
 10
733.66282140
 20
719.69632293
  0
VERTEX
  8
0
 10
733.66282140
 20
384.09176399
  0
VERTEX
  8
0
 10
603.32426803
 20
384.09176399
  0
VERTEX
  8
0
 10
603.32426803
 20
579.12071218
  0
VERTEX
  8
0
 10
567.15024911
 20
579.12071218
  0
VERTEX
  8
0
 10
481.86702930
 20
579.12071218
  0
VERTEX
  8
0
 10
445.78079765
 20
579.12071218
  0
VERTEX
  8
0
 10
177.14557936
 20
259.68315547
  0
VERTEX
  8
0
 10
99.88474298
 20
223.56247901
  0
VERTEX
  8
0
 10
82.76710920
 20
217.95110204
 42
0.21228224
  0
VERTEX
  8
0
 10
58.65997895
 20
196.15356187
  0
VERTEX
  8
0
 10
58.51562500
 20
195.82397473
  0
VERTEX
  8
0
 10
58.51562500
 20
134.12071218
  0
VERTEX
  8
0
 10
58.51562500
 20
195.82397473
  0
SEQEND
  0
POLYLINE
  8
NÌvel_Padr„o
 66
   1
 39
0.000000
 70
    1
  0
VERTEX
  8
0
 10
688.62344934
 20
159.27492004
  0
VERTEX
  8
0
 10
688.69737407
 20
158.98741645
  0
VERTEX
  8
0
 10
688.79825488
 20
158.71178929
  0
VERTEX
  8
0
 10
688.92458381
 20
158.44954654
  0
VERTEX
  8
0
 10
689.07485288
 20
158.20219615
  0
VERTEX
  8
0
 10
689.24755417
 20
157.97124610
  0
VERTEX
  8
0
 10
689.44117966
 20
157.75820434
  0
VERTEX
  8
0
 10
689.65422143
 20
157.56457884
  0
VERTEX
  8
0
 10
689.88517148
 20
157.39187756
  0
VERTEX
  8
0
 10
690.13252186
 20
157.24160848
  0
VERTEX
  8
0
 10
690.39476461
 20
157.11527955
  0
VERTEX
  8
0
 10
690.67039178
 20
157.01439874
  0
VERTEX
  8
0
 10
690.95789537
 20
156.94047402
  0
VERTEX
  8
0
 10
691.25576744
 20
156.89501334
  0
VERTEX
  8
0
 10
691.56250000
 20
156.87952468
  0
VERTEX
  8
0
 10
691.86923258
 20
156.89501334
  0
VERTEX
  8
0
 10
692.16710465
 20
156.94047402
  0
VERTEX
  8
0
 10
692.45460824
 20
157.01439874
  0
VERTEX
  8
0
 10
692.73023539
 20
157.11527955
  0
VERTEX
  8
0
 10
692.99247814
 20
157.24160848
  0
VERTEX
  8
0
 10
693.23982854
 20
157.39187756
  0
VERTEX
  8
0
 10
693.47077859
 20
157.56457884
  0
VERTEX
  8
0
 10
693.68382034
 20
157.75820434
  0
VERTEX
  8
0
 10
693.87744585
 20
157.97124610
  0
VERTEX
  8
0
 10
694.05014712
 20
158.20219615
  0
VERTEX
  8
0
 10
694.20041621
 20
158.44954654
  0
VERTEX
  8
0
 10
694.32674514
 20
158.71178929
  0
VERTEX
  8
0
 10
694.42762595
 20
158.98741645
  0
VERTEX
  8
0
 10
694.50155066
 20
159.27492004
  0
VERTEX
  8
0
 10
694.54701135
 20
159.57279211
  0
VERTEX
  8
0
 10
694.56250000
 20
159.87952468
  0
VERTEX
  8
0
 10
694.54701135
 20
160.18625725
  0
VERTEX
  8
0
 10
694.50155066
 20
160.48412932
  0
VERTEX
  8
0
 10
694.42762595
 20
160.77163291
  0
VERTEX
  8
0
 10
694.32674514
 20
161.04726007
  0
VERTEX
  8
0
 10
694.20041621
 20
161.30950282
  0
VERTEX
  8
0
 10
694.05014712
 20
161.55685321
  0
VERTEX
  8
0
 10
693.87744585
 20
161.78780326
  0
VERTEX
  8
0
 10
693.68382034
 20
162.00084502
  0
VERTEX
  8
0
 10
693.47077859
 20
162.19447052
  0
VERTEX
  8
0
 10
693.23982854
 20
162.36717180
  0
VERTEX
  8
0
 10
692.99247814
 20
162.51744088
  0
VERTEX
  8
0
 10
692.73023539
 20
162.64376981
  0
VERTEX
  8
0
 10
692.45460824
 20
162.74465062
  0
VERTEX
  8
0
 10
692.16710465
 20
162.81857534
  0
VERTEX
  8
0
 10
691.86923258
 20
162.86403602
  0
VERTEX
  8
0
 10
691.56250000
 20
162.87952468
  0
VERTEX
  8
0
 10
691.25576744
 20
162.86403602
  0
VERTEX
  8
0
 10
690.95789537
 20
162.81857534
  0
VERTEX
  8
0
 10
690.67039178
 20
162.74465062
  0
VERTEX
  8
0
 10
690.39476461
 20
162.64376981
  0
VERTEX
  8
0
 10
690.13252186
 20
162.51744088
  0
VERTEX
  8
0
 10
689.88517148
 20
162.36717180
  0
VERTEX
  8
0
 10
689.65422143
 20
162.19447052
  0
VERTEX
  8
0
 10
689.44117966
 20
162.00084502
  0
VERTEX
  8
0
 10
689.24755417
 20
161.78780326
  0
VERTEX
  8
0
 10
689.07485288
 20
161.55685321
  0
VERTEX
  8
0
 10
688.92458381
 20
161.30950282
  0
VERTEX
  8
0
 10
688.79825488
 20
161.04726007
  0
VERTEX
  8
0
 10
688.69737407
 20
160.77163291
  0
VERTEX
  8
0
 10
688.62344934
 20
160.48412932
  0
VERTEX
  8
0
 10
688.57798867
 20
160.18625725
  0
VERTEX
  8
0
 10
688.56250000
 20
159.87952468
  0
VERTEX
  8
0
 10
688.57798867
 20
159.57279211
  0
VERTEX
  8
0
 10
688.62344934
 20
159.27492004
  0
SEQEND
  0
POLYLINE
  8
NÌvel_Padr„o
 66
   1
 39
0.000000
 70
    1
  0
VERTEX
  8
0
 10
557.37344934
 20
159.27492004
  0
VERTEX
  8
0
 10
557.44737407
 20
158.98741645
  0
VERTEX
  8
0
 10
557.54825488
 20
158.71178929
  0
VERTEX
  8
0
 10
557.67458381
 20
158.44954654
  0
VERTEX
  8
0
 10
557.82485288
 20
158.20219615
  0
VERTEX
  8
0
 10
557.99755417
 20
157.97124610
  0
VERTEX
  8
0
 10
558.19117966
 20
157.75820434
  0
VERTEX
  8
0
 10
558.40422143
 20
157.56457884
  0
VERTEX
  8
0
 10
558.63517148
 20
157.39187756
  0
VERTEX
  8
0
 10
558.88252186
 20
157.24160848
  0
VERTEX
  8
0
 10
559.14476461
 20
157.11527955
  0
VERTEX
  8
0
 10
559.42039178
 20
157.01439874
  0
VERTEX
  8
0
 10
559.70789537
 20
156.94047402
  0
VERTEX
  8
0
 10
560.00576744
 20
156.89501334
  0
VERTEX
  8
0
 10
560.31250000
 20
156.87952468
  0
VERTEX
  8
0
 10
560.61923258
 20
156.89501334
  0
VERTEX
  8
0
 10
560.91710465
 20
156.94047402
  0
VERTEX
  8
0
 10
561.20460824
 20
157.01439874
  0
VERTEX
  8
0
 10
561.48023539
 20
157.11527955
  0
VERTEX
  8
0
 10
561.74247814
 20
157.24160848
  0
VERTEX
  8
0
 10
561.98982854
 20
157.39187756
  0
VERTEX
  8
0
 10
562.22077859
 20
157.56457884
  0
VERTEX
  8
0
 10
562.43382034
 20
157.75820434
  0
VERTEX
  8
0
 10
562.62744585
 20
157.97124610
  0
VERTEX
  8
0
 10
562.80014712
 20
158.20219615
  0
VERTEX
  8
0
 10
562.95041621
 20
158.44954654
  0
VERTEX
  8
0
 10
563.07674514
 20
158.71178929
  0
VERTEX
  8
0
 10
563.17762595
 20
158.98741645
  0
VERTEX
  8
0
 10
563.25155066
 20
159.27492004
  0
VERTEX
  8
0
 10
563.29701135
 20
159.57279211
  0
VERTEX
  8
0
 10
563.31250000
 20
159.87952468
  0
VERTEX
  8
0
 10
563.29701135
 20
160.18625725
  0
VERTEX
  8
0
 10
563.25155066
 20
160.48412932
  0
VERTEX
  8
0
 10
563.17762595
 20
160.77163291
  0
VERTEX
  8
0
 10
563.07674514
 20
161.04726007
  0
VERTEX
  8
0
 10
562.95041621
 20
161.30950282
  0
VERTEX
  8
0
 10
562.80014712
 20
161.55685321
  0
VERTEX
  8
0
 10
562.62744585
 20
161.78780326
  0
VERTEX
  8
0
 10
562.43382034
 20
162.00084502
  0
VERTEX
  8
0
 10
562.22077859
 20
162.19447052
  0
VERTEX
  8
0
 10
561.98982854
 20
162.36717180
  0
VERTEX
  8
0
 10
561.74247814
 20
162.51744088
  0
VERTEX
  8
0
 10
561.48023539
 20
162.64376981
  0
VERTEX
  8
0
 10
561.20460824
 20
162.74465062
  0
VERTEX
  8
0
 10
560.91710465
 20
162.81857534
  0
VERTEX
  8
0
 10
560.61923258
 20
162.86403602
  0
VERTEX
  8
0
 10
560.31250000
 20
162.87952468
  0
VERTEX
  8
0
 10
560.00576744
 20
162.86403602
  0
VERTEX
  8
0
 10
559.70789537
 20
162.81857534
  0
VERTEX
  8
0
 10
559.42039178
 20
162.74465062
  0
VERTEX
  8
0
 10
559.14476461
 20
162.64376981
  0
VERTEX
  8
0
 10
558.88252186
 20
162.51744088
  0
VERTEX
  8
0
 10
558.63517148
 20
162.36717180
  0
VERTEX
  8
0
 10
558.40422143
 20
162.19447052
  0
VERTEX
  8
0
 10
558.19117966
 20
162.00084502
  0
VERTEX
  8
0
 10
557.99755417
 20
161.78780326
  0
VERTEX
  8
0
 10
557.82485288
 20
161.55685321
  0
VERTEX
  8
0
 10
557.67458381
 20
161.30950282
  0
VERTEX
  8
0
 10
557.54825488
 20
161.04726007
  0
VERTEX
  8
0
 10
557.44737407
 20
160.77163291
  0
VERTEX
  8
0
 10
557.37344934
 20
160.48412932
  0
VERTEX
  8
0
 10
557.32798867
 20
160.18625725
  0
VERTEX
  8
0
 10
557.31250000
 20
159.87952468
  0
VERTEX
  8
0
 10
557.32798867
 20
159.57279211
  0
VERTEX
  8
0
 10
557.37344934
 20
159.27492004
  0
SEQEND
  0
POLYLINE
  8
NÌvel_Padr„o
 66
   1
 39
0.000000
 70
    1
  0
VERTEX
  8
0
 10
433.62344934
 20
159.27492004
  0
VERTEX
  8
0
 10
433.69737407
 20
158.98741645
  0
VERTEX
  8
0
 10
433.79825487
 20
158.71178929
  0
VERTEX
  8
0
 10
433.92458380
 20
158.44954654
  0
VERTEX
  8
0
 10
434.07485288
 20
158.20219615
  0
VERTEX
  8
0
 10
434.24755416
 20
157.97124610
  0
VERTEX
  8
0
 10
434.44117966
 20
157.75820434
  0
VERTEX
  8
0
 10
434.65422143
 20
157.56457884
  0
VERTEX
  8
0
 10
434.88517147
 20
157.39187756
  0
VERTEX
  8
0
 10
435.13252186
 20
157.24160848
  0
VERTEX
  8
0
 10
435.39476461
 20
157.11527955
  0
VERTEX
  8
0
 10
435.67039177
 20
157.01439874
  0
VERTEX
  8
0
 10
435.95789537
 20
156.94047402
  0
VERTEX
  8
0
 10
436.25576744
 20
156.89501334
  0
VERTEX
  8
0
 10
436.56250000
 20
156.87952468
  0
VERTEX
  8
0
 10
436.86923258
 20
156.89501334
  0
VERTEX
  8
0
 10
437.16710464
 20
156.94047402
  0
VERTEX
  8
0
 10
437.45460824
 20
157.01439874
  0
VERTEX
  8
0
 10
437.73023540
 20
157.11527955
  0
VERTEX
  8
0
 10
437.99247814
 20
157.24160848
  0
VERTEX
  8
0
 10
438.23982854
 20
157.39187756
  0
VERTEX
  8
0
 10
438.47077859
 20
157.56457884
  0
VERTEX
  8
0
 10
438.68382034
 20
157.75820434
  0
VERTEX
  8
0
 10
438.87744585
 20
157.97124610
  0
VERTEX
  8
0
 10
439.05014712
 20
158.20219615
  0
VERTEX
  8
0
 10
439.20041621
 20
158.44954654
  0
VERTEX
  8
0
 10
439.32674514
 20
158.71178929
  0
VERTEX
  8
0
 10
439.42762595
 20
158.98741645
  0
VERTEX
  8
0
 10
439.50155066
 20
159.27492004
  0
VERTEX
  8
0
 10
439.54701134
 20
159.57279211
  0
VERTEX
  8
0
 10
439.56250000
 20
159.87952468
  0
VERTEX
  8
0
 10
439.54701134
 20
160.18625725
  0
VERTEX
  8
0
 10
439.50155066
 20
160.48412932
  0
VERTEX
  8
0
 10
439.42762595
 20
160.77163291
  0
VERTEX
  8
0
 10
439.32674514
 20
161.04726007
  0
VERTEX
  8
0
 10
439.20041621
 20
161.30950282
  0
VERTEX
  8
0
 10
439.05014712
 20
161.55685321
  0
VERTEX
  8
0
 10
438.87744585
 20
161.78780326
  0
VERTEX
  8
0
 10
438.68382034
 20
162.00084502
  0
VERTEX
  8
0
 10
438.47077859
 20
162.19447052
  0
VERTEX
  8
0
 10
438.23982854
 20
162.36717180
  0
VERTEX
  8
0
 10
437.99247814
 20
162.51744088
  0
VERTEX
  8
0
 10
437.73023540
 20
162.64376981
  0
VERTEX
  8
0
 10
437.45460824
 20
162.74465062
  0
VERTEX
  8
0
 10
437.16710464
 20
162.81857534
  0
VERTEX
  8
0
 10
436.86923258
 20
162.86403602
  0
VERTEX
  8
0
 10
436.56250000
 20
162.87952468
  0
VERTEX
  8
0
 10
436.25576744
 20
162.86403602
  0
VERTEX
  8
0
 10
435.95789537
 20
162.81857534
  0
VERTEX
  8
0
 10
435.67039177
 20
162.74465062
  0
VERTEX
  8
0
 10
435.39476461
 20
162.64376981
  0
VERTEX
  8
0
 10
435.13252186
 20
162.51744088
  0
VERTEX
  8
0
 10
434.88517147
 20
162.36717180
  0
VERTEX
  8
0
 10
434.65422143
 20
162.19447052
  0
VERTEX
  8
0
 10
434.44117966
 20
162.00084502
  0
VERTEX
  8
0
 10
434.24755416
 20
161.78780326
  0
VERTEX
  8
0
 10
434.07485288
 20
161.55685321
  0
VERTEX
  8
0
 10
433.92458380
 20
161.30950282
  0
VERTEX
  8
0
 10
433.79825487
 20
161.04726007
  0
VERTEX
  8
0
 10
433.69737407
 20
160.77163291
  0
VERTEX
  8
0
 10
433.62344934
 20
160.48412932
  0
VERTEX
  8
0
 10
433.57798867
 20
160.18625725
  0
VERTEX
  8
0
 10
433.56250000
 20
159.87952468
  0
VERTEX
  8
0
 10
433.57798867
 20
159.57279211
  0
VERTEX
  8
0
 10
433.62344934
 20
159.27492004
  0
SEQEND
  0
POLYLINE
  8
NÌvel_Padr„o
 66
   1
 39
0.000000
 70
    1
  0
VERTEX
  8
0
 10
315.49844934
 20
159.27492004
  0
VERTEX
  8
0
 10
315.57237407
 20
158.98741645
  0
VERTEX
  8
0
 10
315.67325487
 20
158.71178929
  0
VERTEX
  8
0
 10
315.79958380
 20
158.44954654
  0
VERTEX
  8
0
 10
315.94985288
 20
158.20219615
  0
VERTEX
  8
0
 10
316.12255416
 20
157.97124610
  0
VERTEX
  8
0
 10
316.31617966
 20
157.75820434
  0
VERTEX
  8
0
 10
316.52922142
 20
157.56457884
  0
VERTEX
  8
0
 10
316.76017147
 20
157.39187756
  0
VERTEX
  8
0
 10
317.00752186
 20
157.24160848
  0
VERTEX
  8
0
 10
317.26976461
 20
157.11527955
  0
VERTEX
  8
0
 10
317.54539177
 20
157.01439874
  0
VERTEX
  8
0
 10
317.83289537
 20
156.94047402
  0
VERTEX
  8
0
 10
318.13076743
 20
156.89501334
  0
VERTEX
  8
0
 10
318.43750000
 20
156.87952468
  0
VERTEX
  8
0
 10
318.74423258
 20
156.89501334
  0
VERTEX
  8
0
 10
319.04210464
 20
156.94047402
  0
VERTEX
  8
0
 10
319.32960824
 20
157.01439874
  0
VERTEX
  8
0
 10
319.60523540
 20
157.11527955
  0
VERTEX
  8
0
 10
319.86747814
 20
157.24160848
  0
VERTEX
  8
0
 10
320.11482854
 20
157.39187756
  0
VERTEX
  8
0
 10
320.34577858
 20
157.56457884
  0
VERTEX
  8
0
 10
320.55882035
 20
157.75820434
  0
VERTEX
  8
0
 10
320.75244585
 20
157.97124610
  0
VERTEX
  8
0
 10
320.92514713
 20
158.20219615
  0
VERTEX
  8
0
 10
321.07541621
 20
158.44954654
  0
VERTEX
  8
0
 10
321.20174514
 20
158.71178929
  0
VERTEX
  8
0
 10
321.30262594
 20
158.98741645
  0
VERTEX
  8
0
 10
321.37655067
 20
159.27492004
  0
VERTEX
  8
0
 10
321.42201134
 20
159.57279211
  0
VERTEX
  8
0
 10
321.43750000
 20
159.87952468
  0
VERTEX
  8
0
 10
321.42201134
 20
160.18625725
  0
VERTEX
  8
0
 10
321.37655067
 20
160.48412932
  0
VERTEX
  8
0
 10
321.30262594
 20
160.77163291
  0
VERTEX
  8
0
 10
321.20174514
 20
161.04726007
  0
VERTEX
  8
0
 10
321.07541621
 20
161.30950282
  0
VERTEX
  8
0
 10
320.92514713
 20
161.55685321
  0
VERTEX
  8
0
 10
320.75244585
 20
161.78780326
  0
VERTEX
  8
0
 10
320.55882035
 20
162.00084502
  0
VERTEX
  8
0
 10
320.34577858
 20
162.19447052
  0
VERTEX
  8
0
 10
320.11482854
 20
162.36717180
  0
VERTEX
  8
0
 10
319.86747814
 20
162.51744088
  0
VERTEX
  8
0
 10
319.60523540
 20
162.64376981
  0
VERTEX
  8
0
 10
319.32960824
 20
162.74465062
  0
VERTEX
  8
0
 10
319.04210464
 20
162.81857534
  0
VERTEX
  8
0
 10
318.74423258
 20
162.86403602
  0
VERTEX
  8
0
 10
318.43750000
 20
162.87952468
  0
VERTEX
  8
0
 10
318.13076743
 20
162.86403602
  0
VERTEX
  8
0
 10
317.83289537
 20
162.81857534
  0
VERTEX
  8
0
 10
317.54539177
 20
162.74465062
  0
VERTEX
  8
0
 10
317.26976461
 20
162.64376981
  0
VERTEX
  8
0
 10
317.00752186
 20
162.51744088
  0
VERTEX
  8
0
 10
316.76017147
 20
162.36717180
  0
VERTEX
  8
0
 10
316.52922142
 20
162.19447052
  0
VERTEX
  8
0
 10
316.31617966
 20
162.00084502
  0
VERTEX
  8
0
 10
316.12255416
 20
161.78780326
  0
VERTEX
  8
0
 10
315.94985288
 20
161.55685321
  0
VERTEX
  8
0
 10
315.79958380
 20
161.30950282
  0
VERTEX
  8
0
 10
315.67325487
 20
161.04726007
  0
VERTEX
  8
0
 10
315.57237407
 20
160.77163291
  0
VERTEX
  8
0
 10
315.49844934
 20
160.48412932
  0
VERTEX
  8
0
 10
315.45298867
 20
160.18625725
  0
VERTEX
  8
0
 10
315.43750000
 20
159.87952468
  0
VERTEX
  8
0
 10
315.45298867
 20
159.57279211
  0
VERTEX
  8
0
 10
315.49844934
 20
159.27492004
  0
SEQEND
  0
POLYLINE
  8
NÌvel_Padr„o
 66
   1
 39
0.000000
 70
    1
  0
VERTEX
  8
0
 10
109.88195627
 20
183.48573917
  0
VERTEX
  8
0
 10
109.88936891
 20
183.37952468
 42
-0.41421356
  0
VERTEX
  8
0
 10
96.86966023
 20
168.46356879
 42
-0.41421356
  0
VERTEX
  8
0
 10
81.95370434
 20
181.48327747
 42
-0.41421356
  0
VERTEX
  8
0
 10
94.91659946
 20
196.44863429
 42
-0.41421356
  0
VERTEX
  8
0
 10
109.88195627
 20
183.48573917
  0
SEQEND
  0
POLYLINE
  8
NÌvel_Padr„o
 66
   1
 39
0.000000
 70
    1
  0
VERTEX
  8
0
 10
206.98597520
 20
136.99151997
 42
0.41421356
  0
VERTEX
  8
0
 10
192.98597742
 20
122.99152220
 42
0.41421356
  0
VERTEX
  8
0
 10
206.98597520
 20
108.99152442
 42
0.41421356
  0
VERTEX
  8
0
 10
220.98597298
 20
122.99152220
 42
0.41421356
  0
VERTEX
  8
0
 10
206.98597520
 20
136.99151997
  0
SEQEND
  0
POLYLINE
  8
NÌvel_Padr„o
 66
   1
 39
0.000000
 70
    1
  0
VERTEX
  8
0
 10
733.26282140
 20
758.02153293
 42
0.41421356
  0
VERTEX
  8
0
 10
721.43761140
 20
746.19632293
 42
0.41421356
  0
VERTEX
  8
0
 10
733.26282140
 20
734.37111293
 42
0.41421356
  0
VERTEX
  8
0
 10
745.08803140
 20
746.19632293
 42
0.41421356
  0
VERTEX
  8
0
 10
733.26282140
 20
758.02153293
  0
SEQEND
  0
POLYLINE
  8
NÌvel_Padr„o
 66
   1
 39
0.000000
 70
    1
  0
VERTEX
  8
0
 10
590.36495066
 20
562.04041861
  0
VERTEX
  8
0
 10
590.38043932
 20
562.34715119
  0
VERTEX
  8
0
 10
590.42590000
 20
562.64502325
  0
VERTEX
  8
0
 10
590.49982472
 20
562.93252684
  0
VERTEX
  8
0
 10
590.60070553
 20
563.20815400
  0
VERTEX
  8
0
 10
590.72703446
 20
563.47039675
  0
VERTEX
  8
0
 10
590.87730354
 20
563.71774714
  0
VERTEX
  8
0
 10
591.05000482
 20
563.94869720
  0
VERTEX
  8
0
 10
591.24363032
 20
564.16173896
  0
VERTEX
  8
0
 10
591.45667208
 20
564.35536446
  0
VERTEX
  8
0
 10
591.68762213
 20
564.52806573
  0
VERTEX
  8
0
 10
591.93497252
 20
564.67833481
  0
VERTEX
  8
0
 10
592.19721527
 20
564.80466374
  0
VERTEX
  8
0
 10
592.47284243
 20
564.90554455
  0
VERTEX
  8
0
 10
592.76034602
 20
564.97946927
  0
VERTEX
  8
0
 10
593.05821809
 20
565.02492995
  0
VERTEX
  8
0
 10
593.36495066
 20
565.04041861
  0
VERTEX
  8
0
 10
593.67168323
 20
565.02492995
  0
VERTEX
  8
0
 10
593.96955530
 20
564.97946927
  0
VERTEX
  8
0
 10
594.25705889
 20
564.90554455
  0
VERTEX
  8
0
 10
594.53268605
 20
564.80466374
  0
VERTEX
  8
0
 10
594.79492880
 20
564.67833481
  0
VERTEX
  8
0
 10
595.04227919
 20
564.52806573
  0
VERTEX
  8
0
 10
595.27322924
 20
564.35536446
  0
VERTEX
  8
0
 10
595.48627100
 20
564.16173896
  0
VERTEX
  8
0
 10
595.67989650
 20
563.94869720
  0
VERTEX
  8
0
 10
595.85259778
 20
563.71774714
  0
VERTEX
  8
0
 10
596.00286686
 20
563.47039675
  0
VERTEX
  8
0
 10
596.12919579
 20
563.20815400
  0
VERTEX
  8
0
 10
596.23007660
 20
562.93252684
  0
VERTEX
  8
0
 10
596.30400132
 20
562.64502325
  0
VERTEX
  8
0
 10
596.34946200
 20
562.34715119
  0
VERTEX
  8
0
 10
596.36495066
 20
562.04041861
  0
VERTEX
  8
0
 10
596.34946200
 20
561.73368604
  0
VERTEX
  8
0
 10
596.30400132
 20
561.43581397
  0
VERTEX
  8
0
 10
596.23007660
 20
561.14831038
  0
VERTEX
  8
0
 10
596.12919579
 20
560.87268323
  0
VERTEX
  8
0
 10
596.00286686
 20
560.61044047
  0
VERTEX
  8
0
 10
595.85259778
 20
560.36309008
  0
VERTEX
  8
0
 10
595.67989650
 20
560.13214003
  0
VERTEX
  8
0
 10
595.48627100
 20
559.91909827
  0
VERTEX
  8
0
 10
595.27322924
 20
559.72547277
  0
VERTEX
  8
0
 10
595.04227919
 20
559.55277150
  0
VERTEX
  8
0
 10
594.79492880
 20
559.40250241
  0
VERTEX
  8
0
 10
594.53268605
 20
559.27617348
  0
VERTEX
  8
0
 10
594.25705889
 20
559.17529267
  0
VERTEX
  8
0
 10
593.96955530
 20
559.10136795
  0
VERTEX
  8
0
 10
593.67168323
 20
559.05590727
  0
VERTEX
  8
0
 10
593.36495066
 20
559.04041861
  0
VERTEX
  8
0
 10
593.05821809
 20
559.05590727
  0
VERTEX
  8
0
 10
592.76034602
 20
559.10136795
  0
VERTEX
  8
0
 10
592.47284243
 20
559.17529267
  0
VERTEX
  8
0
 10
592.19721527
 20
559.27617348
  0
VERTEX
  8
0
 10
591.93497252
 20
559.40250241
  0
VERTEX
  8
0
 10
591.68762213
 20
559.55277150
  0
VERTEX
  8
0
 10
591.45667208
 20
559.72547277
  0
VERTEX
  8
0
 10
591.24363032
 20
559.91909827
  0
VERTEX
  8
0
 10
591.05000482
 20
560.13214003
  0
VERTEX
  8
0
 10
590.87730354
 20
560.36309008
  0
VERTEX
  8
0
 10
590.72703446
 20
560.61044047
  0
VERTEX
  8
0
 10
590.60070553
 20
560.87268323
  0
VERTEX
  8
0
 10
590.49982472
 20
561.14831038
  0
VERTEX
  8
0
 10
590.42590000
 20
561.43581397
  0
VERTEX
  8
0
 10
590.38043932
 20
561.73368604
  0
VERTEX
  8
0
 10
590.36495066
 20
562.04041861
  0
SEQEND
  0
POLYLINE
  8
NÌvel_Padr„o
 66
   1
 39
0.000000
 70
    1
  0
VERTEX
  8
0
 10
265.56749188
 20
216.91497070
  0
VERTEX
  8
0
 10
458.40377478
 20
446.72830364
  0
VERTEX
  8
0
 10
456.10564145
 20
448.65666647
  0
VERTEX
  8
0
 10
263.26935855
 20
218.84333353
  0
VERTEX
  8
0
 10
265.56749188
 20
216.91497070
  0
SEQEND
  0
POLYLINE
  8
NÌvel_Padr„o
 66
   1
 39
0.000000
 70
    1
  0
VERTEX
  8
0
 10
177.44249188
 20
216.91497070
  0
VERTEX
  8
0
 10
370.27877478
 20
446.72830364
  0
VERTEX
  8
0
 10
367.98064145
 20
448.65666647
  0
VERTEX
  8
0
 10
175.14435855
 20
218.84333353
  0
VERTEX
  8
0
 10
177.44249188
 20
216.91497070
  0
SEQEND
  0
ENDSEC
  0
EOF
