  0
SECTION
  2
HEADER
  9
$ACADVER
  1
AC1009
  9
$EXTMIN
 10
320.91623269
 20
322.68217612
 30
0.0
  9
$EXTMAX
 10
642.93487618
 20
560.46447425
 30
0.0
  0
ENDSEC
  0
SECTION
  2
TABLES
  0
TABLE
  2
LAYER
 70
1
 0
LAYER
 2
NÌvel_Padr„o
 70
0
 62
1
 6
CONTINUOUS
 0
ENDTAB
 0
ENDSEC
  0
SECTION
  2
ENTITIES
  0
POLYLINE
  8
NÌvel_Padr„o
 66
   1
 39
0.000000
 70
    0
  0
VERTEX
  8
0
 10
600.36195739
 20
398.63883336
  0
VERTEX
  8
0
 10
615.63298240
 20
398.27492245
  0
VERTEX
  8
0
 10
635.63298240
 20
397.79831934
  0
VERTEX
  8
0
 10
635.63298240
 20
372.78687960
  0
VERTEX
  8
0
 10
615.63298240
 20
372.98839093
  0
VERTEX
  8
0
 10
605.41792642
 20
373.09131341
  0
VERTEX
  8
0
 10
589.89234108
 20
372.64222623
  0
VERTEX
  8
0
 10
587.29888148
 20
372.36822892
  0
VERTEX
  8
0
 10
584.70283753
 20
372.13626662
  0
VERTEX
  8
0
 10
582.10468750
 20
371.94633459
  0
VERTEX
  8
0
 10
579.50490966
 20
371.79842809
  0
VERTEX
  8
0
 10
576.90398225
 20
371.69254241
  0
VERTEX
  8
0
 10
574.30238354
 20
371.62867280
  0
VERTEX
  8
0
 10
571.70059180
 20
371.60681453
  0
VERTEX
  8
0
 10
569.09908528
 20
371.62696288
  0
VERTEX
  8
0
 10
566.49834224
 20
371.68911311
  0
VERTEX
  8
0
 10
563.89884095
 20
371.79326050
  0
VERTEX
  8
0
 10
561.30105966
 20
371.93940030
  0
VERTEX
  8
0
 10
558.70547665
 20
372.12752780
  0
VERTEX
  8
0
 10
556.11257015
 20
372.35763825
  0
VERTEX
  8
0
 10
553.52281845
 20
372.62972693
  0
VERTEX
  8
0
 10
550.93669980
 20
372.94378910
  0
VERTEX
  8
0
 10
548.35469245
 20
373.29982004
  0
VERTEX
  8
0
 10
547.65963535
 20
373.39362914
  0
VERTEX
  8
0
 10
546.96328510
 20
373.47212237
  0
VERTEX
  8
0
 10
546.26589263
 20
373.53530773
  0
VERTEX
  8
0
 10
545.56770887
 20
373.58319323
  0
VERTEX
  8
0
 10
544.86898475
 20
373.61578687
  0
VERTEX
  8
0
 10
544.16997121
 20
373.63309666
  0
VERTEX
  8
0
 10
543.47091918
 20
373.63513061
  0
VERTEX
  8
0
 10
542.77207958
 20
373.62189672
  0
VERTEX
  8
0
 10
542.07370336
 20
373.59340300
  0
VERTEX
  8
0
 10
541.37604144
 20
373.54965745
  0
VERTEX
  8
0
 10
540.67934475
 20
373.49066808
  0
VERTEX
  8
0
 10
539.98386422
 20
373.41644290
  0
VERTEX
  8
0
 10
539.28985080
 20
373.32698992
  0
VERTEX
  8
0
 10
538.59755540
 20
373.22231713
  0
VERTEX
  8
0
 10
537.90722896
 20
373.10243255
  0
VERTEX
  8
0
 10
537.21912241
 20
372.96734418
  0
VERTEX
  8
0
 10
533.04516698
 20
372.09174994
  0
VERTEX
  8
0
 10
528.87529575
 20
371.19986811
  0
VERTEX
  8
0
 10
524.70950381
 20
370.29169729
  0
VERTEX
  8
0
 10
520.54778625
 20
369.36723610
  0
VERTEX
  8
0
 10
516.39013816
 20
368.42648313
  0
VERTEX
  8
0
 10
512.23655463
 20
367.46943699
  0
VERTEX
  8
0
 10
508.08703077
 20
366.49609628
  0
VERTEX
  8
0
 10
503.94156166
 20
365.50645961
  0
VERTEX
  8
0
 10
499.80014239
 20
364.50052559
  0
VERTEX
  8
0
 10
495.66276807
 20
363.47829281
  0
VERTEX
  8
0
 10
491.52943378
 20
362.43975988
  0
VERTEX
  8
0
 10
487.40013461
 20
361.38492540
  0
VERTEX
  8
0
 10
483.27486566
 20
360.31378798
  0
VERTEX
  8
0
 10
479.15362202
 20
359.22634623
  0
VERTEX
  8
0
 10
475.03639879
 20
358.12259875
  0
VERTEX
  8
0
 10
470.92319106
 20
357.00254413
  0
VERTEX
  8
0
 10
452.39153704
 20
355.85456557
  0
VERTEX
  8
0
 10
451.74411901
 20
355.88268328
  0
VERTEX
  8
0
 10
451.34220876
 20
355.87209010
  0
VERTEX
  8
0
 10
450.94581697
 20
355.84063241
  0
VERTEX
  8
0
 10
450.55547616
 20
355.78879301
  0
VERTEX
  8
0
 10
450.17171888
 20
355.71705471
  0
VERTEX
  8
0
 10
449.55379806
 20
355.55736352
  0
VERTEX
  8
0
 10
448.95768478
 20
355.34765027
  0
VERTEX
  8
0
 10
448.38577860
 20
355.09031538
  0
VERTEX
  8
0
 10
447.84047910
 20
354.78775929
  0
VERTEX
  8
0
 10
447.32418584
 20
354.44238242
  0
VERTEX
  8
0
 10
446.83929839
 20
354.05658520
  0
VERTEX
  8
0
 10
446.38821633
 20
353.63276808
  0
VERTEX
  8
0
 10
445.97333922
 20
353.17333147
  0
VERTEX
  8
0
 10
445.59706662
 20
352.68067580
  0
VERTEX
  8
0
 10
445.26179813
 20
352.15720152
  0
VERTEX
  8
0
 10
444.96993329
 20
351.60530905
  0
VERTEX
  8
0
 10
444.72387168
 20
351.02739881
  0
VERTEX
  8
0
 10
444.52601287
 20
350.42587125
  0
VERTEX
  8
0
 10
444.37875644
 20
349.80312679
  0
VERTEX
  8
0
 10
444.28450194
 20
349.16156587
  0
VERTEX
  8
0
 10
444.24564896
 20
348.50358891
  0
VERTEX
  8
0
 10
444.24411901
 20
348.38268328
  0
VERTEX
  8
0
 10
444.25172657
 20
348.04184852
  0
VERTEX
  8
0
 10
444.27433712
 20
347.70490908
  0
VERTEX
  8
0
 10
444.36329434
 20
347.04398368
  0
VERTEX
  8
0
 10
444.50844499
 20
346.40244208
  0
VERTEX
  8
0
 10
444.70724339
 20
345.78281924
  0
VERTEX
  8
0
 10
429.27146460
 20
333.08564637
  0
VERTEX
  8
0
 10
428.44392821
 20
332.23369682
  0
VERTEX
  8
0
 10
427.58439298
 20
331.41456787
  0
VERTEX
  8
0
 10
426.69434651
 20
330.62876080
  0
VERTEX
  8
0
 10
425.77527645
 20
329.87677687
  0
VERTEX
  8
0
 10
424.82867042
 20
329.15911737
  0
VERTEX
  8
0
 10
423.85601605
 20
328.47628357
  0
VERTEX
  8
0
 10
422.85880097
 20
327.82877674
  0
VERTEX
  8
0
 10
421.83851282
 20
327.21709816
  0
VERTEX
  8
0
 10
420.79663922
 20
326.64174910
  0
VERTEX
  8
0
 10
419.73466780
 20
326.10323084
  0
VERTEX
  8
0
 10
418.65408619
 20
325.60204466
  0
VERTEX
  8
0
 10
417.55638202
 20
325.13869182
  0
VERTEX
  8
0
 10
416.44304293
 20
324.71367360
  0
VERTEX
  8
0
 10
415.31555653
 20
324.32749128
  0
VERTEX
  8
0
 10
414.17541047
 20
323.98064614
  0
VERTEX
  8
0
 10
413.02409237
 20
323.67363943
  0
VERTEX
  8
0
 10
411.86308986
 20
323.40697246
  0
VERTEX
  8
0
 10
410.69389056
 20
323.18114647
  0
VERTEX
  8
0
 10
409.51798212
 20
322.99666276
  0
VERTEX
  8
0
 10
408.33685216
 20
322.85402259
  0
VERTEX
  8
0
 10
407.15198831
 20
322.75372725
  0
VERTEX
  8
0
 10
405.96487820
 20
322.69627800
  0
VERTEX
  8
0
 10
404.77700946
 20
322.68217612
  0
VERTEX
  8
0
 10
403.58986972
 20
322.71192288
  0
VERTEX
  8
0
 10
402.40494660
 20
322.78601956
  0
VERTEX
  8
0
 10
401.22372775
 20
322.90496744
  0
VERTEX
  8
0
 10
400.04770079
 20
323.06926779
  0
VERTEX
  8
0
 10
398.87835334
 20
323.27942188
  0
VERTEX
  8
0
 10
397.71717304
 20
323.53593099
  0
VERTEX
  8
0
 10
396.56564752
 20
323.83929639
  0
VERTEX
  8
0
 10
395.42526441
 20
324.19001936
  0
VERTEX
  8
0
 10
394.29751134
 20
324.58860118
  0
VERTEX
  8
0
 10
393.42790096
 20
324.90223976
  0
VERTEX
  8
0
 10
392.55089525
 20
325.19022245
  0
VERTEX
  8
0
 10
391.66706177
 20
325.45247553
  0
VERTEX
  8
0
 10
390.77696810
 20
325.68892530
  0
VERTEX
  8
0
 10
389.88118179
 20
325.89949806
  0
VERTEX
  8
0
 10
388.98027041
 20
326.08412011
  0
VERTEX
  8
0
 10
388.07480151
 20
326.24271774
  0
VERTEX
  8
0
 10
387.16534266
 20
326.37521725
  0
VERTEX
  8
0
 10
386.25246143
 20
326.48154493
  0
VERTEX
  8
0
 10
385.33672537
 20
326.56162708
  0
VERTEX
  8
0
 10
384.41870206
 20
326.61539001
  0
VERTEX
  8
0
 10
383.49895904
 20
326.64276000
  0
VERTEX
  8
0
 10
382.57806389
 20
326.64366336
  0
VERTEX
  8
0
 10
381.65658417
 20
326.61802637
  0
VERTEX
  8
0
 10
380.73508743
 20
326.56577535
  0
VERTEX
  8
0
 10
379.81414125
 20
326.48683657
  0
VERTEX
  8
0
 10
379.40203932
 20
326.45311289
  0
VERTEX
  8
0
 10
378.98980482
 20
326.43442594
  0
VERTEX
  8
0
 10
378.16653359
 20
326.44139270
  0
VERTEX
  8
0
 10
377.34751855
 20
326.50619770
  0
VERTEX
  8
0
 10
376.53595070
 20
326.62730178
  0
VERTEX
  8
0
 10
375.73502102
 20
326.80316580
  0
VERTEX
  8
0
 10
374.94792052
 20
327.03225060
  0
VERTEX
  8
0
 10
374.17784019
 20
327.31301703
  0
VERTEX
  8
0
 10
373.42797101
 20
327.64392595
  0
VERTEX
  8
0
 10
372.70150398
 20
328.02343820
  0
VERTEX
  8
0
 10
372.00163010
 20
328.45001463
  0
VERTEX
  8
0
 10
371.33154036
 20
328.92211608
  0
VERTEX
  8
0
 10
370.69442575
 20
329.43820342
  0
VERTEX
  8
0
 10
370.09347726
 20
329.99673748
  0
VERTEX
  8
0
 10
369.53188589
 20
330.59617912
  0
VERTEX
  8
0
 10
369.01284263
 20
331.23498919
  0
VERTEX
  8
0
 10
368.77027373
 20
331.56867640
  0
VERTEX
  8
0
 10
368.53953848
 20
331.91162853
  0
VERTEX
  8
0
 10
367.00906451
 20
334.24758156
  0
VERTEX
  8
0
 10
365.45101062
 20
336.56373780
  0
VERTEX
  8
0
 10
363.86537678
 20
338.86009727
  0
VERTEX
  8
0
 10
362.25216301
 20
341.13665995
  0
VERTEX
  8
0
 10
360.61136931
 20
343.39342585
  0
VERTEX
  8
0
 10
358.94299567
 20
345.63039497
  0
VERTEX
  8
0
 10
357.24704210
 20
347.84756731
  0
VERTEX
  8
0
 10
355.52350859
 20
350.04494287
  0
VERTEX
  8
0
 10
354.82055895
 20
350.89880133
  0
VERTEX
  8
0
 10
354.08863259
 20
351.72704322
  0
VERTEX
  8
0
 10
353.32872619
 20
352.52895389
  0
VERTEX
  8
0
 10
352.54183642
 20
353.30381866
  0
VERTEX
  8
0
 10
351.72895995
 20
354.05092285
  0
VERTEX
  8
0
 10
350.89109344
 20
354.76955179
  0
VERTEX
  8
0
 10
350.02923359
 20
355.45899082
  0
VERTEX
  8
0
 10
349.14437705
 20
356.11852527
  0
VERTEX
  8
0
 10
348.23752050
 20
356.74744045
  0
VERTEX
  8
0
 10
347.30966061
 20
357.34502170
  0
VERTEX
  8
0
 10
346.36179406
 20
357.91055435
  0
VERTEX
  8
0
 10
345.39491751
 20
358.44332372
  0
VERTEX
  8
0
 10
344.41002764
 20
358.94261515
  0
VERTEX
  8
0
 10
343.40812113
 20
359.40771397
  0
VERTEX
  8
0
 10
342.39019464
 20
359.83790549
  0
VERTEX
  8
0
 10
341.35724484
 20
360.23247506
  0
VERTEX
  8
0
 10
340.32095180
 20
360.63054308
  0
VERTEX
  8
0
 10
339.30227582
 20
361.06758507
  0
VERTEX
  8
0
 10
338.30203757
 20
361.54252179
  0
VERTEX
  8
0
 10
337.32105777
 20
362.05427401
  0
VERTEX
  8
0
 10
336.36015711
 20
362.60176248
  0
VERTEX
  8
0
 10
335.42015629
 20
363.18390796
  0
VERTEX
  8
0
 10
334.50187601
 20
363.79963122
  0
VERTEX
  8
0
 10
333.60613695
 20
364.44785301
  0
VERTEX
  8
0
 10
332.73375983
 20
365.12749411
  0
VERTEX
  8
0
 10
331.88556533
 20
365.83747525
  0
VERTEX
  8
0
 10
331.06237416
 20
366.57671722
  0
VERTEX
  8
0
 10
330.26500700
 20
367.34414077
  0
VERTEX
  8
0
 10
329.49428456
 20
368.13866666
  0
VERTEX
  8
0
 10
328.75102754
 20
368.95921565
  0
VERTEX
  8
0
 10
328.03605663
 20
369.80470850
  0
VERTEX
  8
0
 10
327.35019253
 20
370.67406598
  0
VERTEX
  8
0
 10
326.69425594
 20
371.56620884
  0
VERTEX
  8
0
 10
326.06906754
 20
372.48005785
  0
VERTEX
  8
0
 10
325.47544805
 20
373.41453376
  0
VERTEX
  8
0
 10
324.91421816
 20
374.36855734
  0
VERTEX
  8
0
 10
324.38619856
 20
375.34104935
  0
VERTEX
  8
0
 10
323.89220995
 20
376.33093055
  0
VERTEX
  8
0
 10
323.43307304
 20
377.33712170
  0
VERTEX
  8
0
 10
323.00960851
 20
378.35854355
  0
VERTEX
  8
0
 10
322.62263706
 20
379.39411689
  0
VERTEX
  8
0
 10
322.27297939
 20
380.44276245
  0
VERTEX
  8
0
 10
321.96145620
 20
381.50340101
  0
VERTEX
  8
0
 10
321.68888818
 20
382.57495332
  0
VERTEX
  8
0
 10
321.45609604
 20
383.65634015
  0
VERTEX
  8
0
 10
321.26390047
 20
384.74648225
  0
VERTEX
  8
0
 10
321.11312216
 20
385.84430040
  0
VERTEX
  8
0
 10
321.00458181
 20
386.94871534
  0
VERTEX
  8
0
 10
320.93902778
 20
388.05651750
  0
VERTEX
  8
0
 10
320.91623269
 20
389.16442006
  0
VERTEX
  8
0
 10
320.93555361
 20
390.27122788
  0
VERTEX
  8
0
 10
320.99634764
 20
391.37574585
  0
VERTEX
  8
0
 10
321.09797186
 20
392.47677885
  0
VERTEX
  8
0
 10
321.23978335
 20
393.57313176
  0
VERTEX
  8
0
 10
321.42113921
 20
394.66360945
  0
VERTEX
  8
0
 10
321.64139651
 20
395.74701680
  0
VERTEX
  8
0
 10
321.89991235
 20
396.82215870
  0
VERTEX
  8
0
 10
322.19604381
 20
397.88784001
  0
VERTEX
  8
0
 10
322.52914797
 20
398.94286562
  0
VERTEX
  8
0
 10
322.89858192
 20
399.98604042
  0
VERTEX
  8
0
 10
323.30370275
 20
401.01616926
  0
VERTEX
  8
0
 10
323.74386754
 20
402.03205705
  0
VERTEX
  8
0
 10
324.21843339
 20
403.03250864
  0
VERTEX
  8
0
 10
324.72675736
 20
404.01632893
  0
VERTEX
  8
0
 10
325.26819656
 20
404.98232279
  0
VERTEX
  8
0
 10
325.84210807
 20
405.92929510
  0
VERTEX
  8
0
 10
326.44784896
 20
406.85605074
  0
VERTEX
  8
0
 10
327.08477634
 20
407.76139458
  0
VERTEX
  8
0
 10
327.75224728
 20
408.64413152
  0
VERTEX
  8
0
 10
328.44961886
 20
409.50306641
  0
VERTEX
  8
0
 10
329.17624819
 20
410.33700415
  0
VERTEX
  8
0
 10
329.93149234
 20
411.14474961
  0
VERTEX
  8
0
 10
330.71470839
 20
411.92510767
  0
VERTEX
  8
0
 10
331.52525344
 20
412.67688321
  0
VERTEX
  8
0
 10
332.36248456
 20
413.39888111
  0
VERTEX
  8
0
 10
333.22575886
 20
414.08990624
  0
VERTEX
  8
0
 10
334.11443340
 20
414.74876349
  0
VERTEX
  8
0
 10
335.02786528
 20
415.37425774
  0
VERTEX
  8
0
 10
335.96541159
 20
415.96519385
  0
VERTEX
  8
0
 10
336.92642940
 20
416.52037672
  0
VERTEX
  8
0
 10
337.52239066
 20
416.85797917
  0
VERTEX
  8
0
 10
338.11048319
 20
417.20834598
  0
VERTEX
  8
0
 10
339.26229477
 20
417.94650444
  0
VERTEX
  8
0
 10
340.38032961
 20
418.73311569
  0
VERTEX
  8
0
 10
341.46305315
 20
419.56644328
  0
VERTEX
  8
0
 10
342.50893086
 20
420.44475078
  0
VERTEX
  8
0
 10
343.51642820
 20
421.36630177
  0
VERTEX
  8
0
 10
344.48401063
 20
422.32935982
  0
VERTEX
  8
0
 10
345.41014361
 20
423.33218848
  0
VERTEX
  8
0
 10
346.29329260
 20
424.37305134
  0
VERTEX
  8
0
 10
347.13192307
 20
425.45021197
  0
VERTEX
  8
0
 10
347.92450047
 20
426.56193392
  0
VERTEX
  8
0
 10
348.66949026
 20
427.70648077
  0
VERTEX
  8
0
 10
349.36535791
 20
428.88211610
  0
VERTEX
  8
0
 10
350.01056887
 20
430.08710346
  0
VERTEX
  8
0
 10
350.60358861
 20
431.31970643
  0
VERTEX
  8
0
 10
350.88004723
 20
431.94582114
  0
VERTEX
  8
0
 10
351.14288258
 20
432.57818858
  0
VERTEX
  8
0
 10
368.69248079
 20
476.14515444
  0
VERTEX
  8
0
 10
368.94512894
 20
476.79254997
  0
VERTEX
  8
0
 10
369.18346461
 20
477.44472894
  0
VERTEX
  8
0
 10
369.40743751
 20
478.10145232
  0
VERTEX
  8
0
 10
369.61699739
 20
478.76248108
  0
VERTEX
  8
0
 10
369.81209399
 20
479.42757620
  0
VERTEX
  8
0
 10
369.99267702
 20
480.09649863
  0
VERTEX
  8
0
 10
370.31010136
 20
481.44486934
  0
VERTEX
  8
0
 10
370.56886827
 20
482.80568097
  0
VERTEX
  8
0
 10
370.67612953
 20
483.49015457
  0
VERTEX
  8
0
 10
370.76857563
 20
484.17702130
  0
VERTEX
  8
0
 10
370.84615632
 20
484.86604215
  0
VERTEX
  8
0
 10
370.90882131
 20
485.55697809
  0
VERTEX
  8
0
 10
370.95652035
 20
486.24959008
  0
VERTEX
  8
0
 10
370.98920317
 20
486.94363909
  0
VERTEX
  8
0
 10
371.00948156
 20
487.92440670
  0
VERTEX
  8
0
 10
370.99940870
 20
488.90486323
  0
VERTEX
  8
0
 10
370.95916390
 20
489.88417003
  0
VERTEX
  8
0
 10
370.88892644
 20
490.86148844
  0
VERTEX
  8
0
 10
370.78887560
 20
491.83597981
  0
VERTEX
  8
0
 10
370.65919068
 20
492.80680546
  0
VERTEX
  8
0
 10
370.50005097
 20
493.77312674
  0
VERTEX
  8
0
 10
370.31163576
 20
494.73410499
  0
VERTEX
  8
0
 10
370.09412434
 20
495.68890156
  0
VERTEX
  8
0
 10
369.84769600
 20
496.63667778
  0
VERTEX
  8
0
 10
369.57253002
 20
497.57659498
  0
VERTEX
  8
0
 10
369.26880570
 20
498.50781453
  0
VERTEX
  8
0
 10
368.93670232
 20
499.42949774
  0
VERTEX
  8
0
 10
368.57639919
 20
500.34080597
  0
VERTEX
  8
0
 10
368.18807558
 20
501.24090055
  0
VERTEX
  8
0
 10
367.77191078
 20
502.12894282
  0
VERTEX
  8
0
 10
367.39216755
 20
502.93373834
  0
VERTEX
  8
0
 10
367.03390671
 20
503.74636723
  0
VERTEX
  8
0
 10
366.69701091
 20
504.56641425
  0
VERTEX
  8
0
 10
366.38136277
 20
505.39346414
  0
VERTEX
  8
0
 10
366.08684493
 20
506.22710167
  0
VERTEX
  8
0
 10
365.81334002
 20
507.06691159
  0
VERTEX
  8
0
 10
365.56073066
 20
507.91247866
  0
VERTEX
  8
0
 10
365.32889950
 20
508.76338763
  0
VERTEX
  8
0
 10
365.11772917
 20
509.61922326
  0
VERTEX
  8
0
 10
364.92710229
 20
510.47957031
  0
VERTEX
  8
0
 10
364.75690151
 20
511.34401352
  0
VERTEX
  8
0
 10
364.60700944
 20
512.21213767
  0
VERTEX
  8
0
 10
364.47730874
 20
513.08352750
  0
VERTEX
  8
0
 10
364.36768202
 20
513.95776776
  0
VERTEX
  8
0
 10
364.27801192
 20
514.83444323
  0
VERTEX
  8
0
 10
364.20818107
 20
515.71313864
  0
VERTEX
  8
0
 10
364.15807211
 20
516.59343876
  0
VERTEX
  8
0
 10
364.12756767
 20
517.47492835
  0
VERTEX
  8
0
 10
364.11655037
 20
518.35719215
  0
VERTEX
  8
0
 10
364.12490286
 20
519.23981493
  0
VERTEX
  8
0
 10
364.15250776
 20
520.12238144
  0
VERTEX
  8
0
 10
364.19924771
 20
521.00447643
  0
VERTEX
  8
0
 10
364.26500534
 20
521.88568467
  0
VERTEX
  8
0
 10
364.34966328
 20
522.76559091
  0
VERTEX
  8
0
 10
364.45310417
 20
523.64377990
  0
VERTEX
  8
0
 10
364.57521063
 20
524.51983640
  0
VERTEX
  8
0
 10
364.71586530
 20
525.39334517
  0
VERTEX
  8
0
 10
364.87495082
 20
526.26389096
  0
VERTEX
  8
0
 10
365.05234980
 20
527.13105853
  0
VERTEX
  8
0
 10
365.24794489
 20
527.99443263
  0
VERTEX
  8
0
 10
365.46161872
 20
528.85359803
  0
VERTEX
  8
0
 10
365.69325393
 20
529.70813947
  0
VERTEX
  8
0
 10
365.94273313
 20
530.55764171
  0
VERTEX
  8
0
 10
366.20993897
 20
531.40168952
  0
VERTEX
  8
0
 10
366.49475408
 20
532.23986763
  0
VERTEX
  8
0
 10
366.79706109
 20
533.07176082
  0
VERTEX
  8
0
 10
367.11674264
 20
533.89695383
  0
VERTEX
  8
0
 10
367.45368135
 20
534.71503142
  0
VERTEX
  8
0
 10
367.80775985
 20
535.52557835
  0
VERTEX
  8
0
 10
368.17886079
 20
536.32817938
  0
VERTEX
  8
0
 10
368.56686679
 20
537.12241926
  0
VERTEX
  8
0
 10
368.97166048
 20
537.90788274
  0
VERTEX
  8
0
 10
369.39312450
 20
538.68415458
  0
VERTEX
  8
0
 10
369.83114149
 20
539.45081954
  0
VERTEX
  8
0
 10
370.28559406
 20
540.20746238
  0
VERTEX
  8
0
 10
370.75636486
 20
540.95366784
  0
VERTEX
  8
0
 10
371.24333652
 20
541.68902069
  0
VERTEX
  8
0
 10
371.74639166
 20
542.41310568
  0
VERTEX
  8
0
 10
372.26541293
 20
543.12550757
  0
VERTEX
  8
0
 10
372.80028295
 20
543.82581112
  0
VERTEX
  8
0
 10
373.35088436
 20
544.51360107
  0
VERTEX
  8
0
 10
373.91709978
 20
545.18846219
  0
VERTEX
  8
0
 10
374.49881186
 20
545.84997923
  0
VERTEX
  8
0
 10
375.09590322
 20
546.49773694
  0
VERTEX
  8
0
 10
375.70825650
 20
547.13132009
  0
VERTEX
  8
0
 10
376.33575433
 20
547.75031343
  0
VERTEX
  8
0
 10
376.97827934
 20
548.35430171
  0
VERTEX
  8
0
 10
377.63571416
 20
548.94286970
  0
VERTEX
  8
0
 10
378.30794143
 20
549.51560214
  0
VERTEX
  8
0
 10
378.99484378
 20
550.07208379
  0
VERTEX
  8
0
 10
379.69630383
 20
550.61189942
  0
VERTEX
  8
0
 10
380.41220423
 20
551.13463377
  0
VERTEX
  8
0
 10
381.14242761
 20
551.63987160
  0
VERTEX
  8
0
 10
381.88685659
 20
552.12719766
  0
VERTEX
  8
0
 10
382.31726076
 20
552.82896747
  0
VERTEX
  8
0
 10
382.79527639
 20
553.49593450
  0
VERTEX
  8
0
 10
383.31784076
 20
554.12638795
  0
VERTEX
  8
0
 10
383.88189112
 20
554.71861703
  0
VERTEX
  8
0
 10
384.48436473
 20
555.27091094
  0
VERTEX
  8
0
 10
385.12219885
 20
555.78155887
  0
VERTEX
  8
0
 10
385.79233074
 20
556.24885002
  0
VERTEX
  8
0
 10
386.49169766
 20
556.67107360
  0
VERTEX
  8
0
 10
387.21723688
 20
557.04651881
  0
VERTEX
  8
0
 10
387.96588565
 20
557.37347484
  0
VERTEX
  8
0
 10
388.73458123
 20
557.65023090
  0
VERTEX
  8
0
 10
389.52026089
 20
557.87507618
  0
VERTEX
  8
0
 10
390.31986188
 20
558.04629989
  0
VERTEX
  8
0
 10
391.13032146
 20
558.16219122
  0
VERTEX
  8
0
 10
391.94857691
 20
558.22103939
  0
VERTEX
  8
0
 10
392.77156546
 20
558.22113357
  0
VERTEX
  8
0
 10
398.70454931
 20
558.00627199
  0
VERTEX
  8
0
 10
400.08579944
 20
558.12824749
  0
VERTEX
  8
0
 10
401.46916575
 20
558.20099696
  0
VERTEX
  8
0
 10
402.85333906
 20
558.22457150
  0
VERTEX
  8
0
 10
404.23701017
 20
558.19902219
  0
VERTEX
  8
0
 10
405.61886990
 20
558.12440012
  0
VERTEX
  8
0
 10
406.99760905
 20
558.00075635
  0
VERTEX
  8
0
 10
408.37191846
 20
557.82814198
  0
VERTEX
  8
0
 10
409.74048891
 20
557.60660810
  0
VERTEX
  8
0
 10
502.05995980
 20
554.26328070
  0
VERTEX
  8
0
 10
544.29677293
 20
556.91531402
  0
VERTEX
  8
0
 10
561.41830627
 20
557.99036854
  0
VERTEX
  8
0
 10
597.15835601
 20
559.62982036
  0
VERTEX
  8
0
 10
605.89361346
 20
560.03052024
  0
VERTEX
  8
0
 10
615.35381085
 20
560.46447425
  0
VERTEX
  8
0
 10
615.72756914
 20
560.41173952
  0
VERTEX
  8
0
 10
616.73154892
 20
560.22821905
  0
VERTEX
  8
0
 10
617.72622153
 20
560.00494094
  0
VERTEX
  8
0
 10
618.71080497
 20
559.74281057
  0
VERTEX
  8
0
 10
619.68451723
 20
559.44273327
  0
VERTEX
  8
0
 10
620.64657631
 20
559.10561438
  0
VERTEX
  8
0
 10
621.64499806
 20
558.71157784
  0
VERTEX
  8
0
 10
622.62766039
 20
558.27870390
  0
VERTEX
  8
0
 10
623.59352998
 20
557.80810094
  0
VERTEX
  8
0
 10
624.54157356
 20
557.30087734
  0
VERTEX
  8
0
 10
625.47075779
 20
556.75814154
  0
VERTEX
  8
0
 10
626.38004943
 20
556.18100196
  0
VERTEX
  8
0
 10
627.26841516
 20
555.57056696
  0
VERTEX
  8
0
 10
628.13482168
 20
554.92794498
  0
VERTEX
  8
0
 10
628.97823568
 20
554.25424442
  0
VERTEX
  8
0
 10
629.79762390
 20
553.55057366
  0
VERTEX
  8
0
 10
630.59195304
 20
552.81804116
  0
VERTEX
  8
0
 10
631.36018979
 20
552.05775526
  0
VERTEX
  8
0
 10
632.10130086
 20
551.27082442
  0
VERTEX
  8
0
 10
632.81425296
 20
550.45835701
  0
VERTEX
  8
0
 10
633.49801279
 20
549.62146146
  0
VERTEX
  8
0
 10
634.15154705
 20
548.76124615
  0
VERTEX
  8
0
 10
634.77382246
 20
547.87881952
  0
VERTEX
  8
0
 10
635.36380571
 20
546.97528995
  0
VERTEX
  8
0
 10
635.92046351
 20
546.05176585
  0
VERTEX
  8
0
 10
636.44276257
 20
545.10935564
  0
VERTEX
  8
0
 10
636.92966960
 20
544.14916770
  0
VERTEX
  8
0
 10
637.38015128
 20
543.17231046
  0
VERTEX
  8
0
 10
637.79317436
 20
542.17989232
  0
VERTEX
  8
0
 10
638.16770550
 20
541.17302169
  0
VERTEX
  8
0
 10
638.50271142
 20
540.15280696
  0
VERTEX
  8
0
 10
638.79715885
 20
539.12035652
  0
VERTEX
  8
0
 10
639.05001444
 20
538.07677884
  0
VERTEX
  8
0
 10
639.26024496
 20
537.02318226
  0
VERTEX
  8
0
 10
639.42681706
 20
535.96067522
  0
VERTEX
  8
0
 10
639.54869749
 20
534.89036612
  0
VERTEX
  8
0
 10
639.62485293
 20
533.81336336
  0
VERTEX
  8
0
 10
639.65425008
 20
532.73077535
  0
VERTEX
  8
0
 10
639.63867002
 20
531.71673376
  0
VERTEX
  8
0
 10
639.58023103
 20
530.69482883
  0
VERTEX
  8
0
 10
639.47978430
 20
529.67992293
  0
VERTEX
  8
0
 10
639.33826199
 20
528.67288066
  0
VERTEX
  8
0
 10
639.15659633
 20
527.67456660
  0
VERTEX
  8
0
 10
638.93571954
 20
526.68584534
  0
VERTEX
  8
0
 10
638.67656385
 20
525.70758148
  0
VERTEX
  8
0
 10
638.38006147
 20
524.74063961
  0
VERTEX
  8
0
 10
638.04714460
 20
523.78588434
  0
VERTEX
  8
0
 10
637.67874549
 20
522.84418023
  0
VERTEX
  8
0
 10
637.27579634
 20
521.91639192
  0
VERTEX
  8
0
 10
636.83922938
 20
521.00338396
  0
VERTEX
  8
0
 10
636.36997680
 20
520.10602098
  0
VERTEX
  8
0
 10
635.86897085
 20
519.22516754
  0
VERTEX
  8
0
 10
635.33714373
 20
518.36168826
  0
VERTEX
  8
0
 10
634.77542765
 20
517.51644771
  0
VERTEX
  8
0
 10
634.18475486
 20
516.69031051
  0
VERTEX
  8
0
 10
633.56605754
 20
515.88414123
  0
VERTEX
  8
0
 10
632.92026793
 20
515.09880449
  0
VERTEX
  8
0
 10
632.24831825
 20
514.33516485
  0
VERTEX
  8
0
 10
631.55114072
 20
513.59408695
  0
VERTEX
  8
0
 10
630.82966754
 20
512.87643534
  0
VERTEX
  8
0
 10
630.08483093
 20
512.18307463
  0
VERTEX
  8
0
 10
629.31756312
 20
511.51486942
  0
VERTEX
  8
0
 10
628.52879632
 20
510.87268428
  0
VERTEX
  8
0
 10
627.71946275
 20
510.25738383
  0
VERTEX
  8
0
 10
626.89049464
 20
509.66983267
  0
VERTEX
  8
0
 10
626.04282420
 20
509.11089536
  0
VERTEX
  8
0
 10
625.17738364
 20
508.58143651
  0
VERTEX
  8
0
 10
624.29510518
 20
508.08232074
  0
VERTEX
  8
0
 10
623.39692103
 20
507.61441261
  0
VERTEX
  8
0
 10
622.48376343
 20
507.17857672
  0
VERTEX
  8
0
 10
621.55656459
 20
506.77567765
  0
VERTEX
  8
0
 10
620.25463096
 20
506.27361411
  0
VERTEX
  8
0
 10
618.92995345
 20
505.83797776
  0
VERTEX
  8
0
 10
617.58496838
 20
505.47102824
  0
VERTEX
  8
0
 10
616.35874977
 20
505.20470195
  0
VERTEX
  8
0
 10
616.22211212
 20
505.17502519
  0
VERTEX
  8
0
 10
615.15344573
 20
505.00227824
  0
VERTEX
  8
0
 10
581.46963254
 20
505.00227824
  0
VERTEX
  8
0
 10
576.54740575
 20
504.65371703
  0
VERTEX
  8
0
 10
575.49522933
 20
504.45727788
  0
VERTEX
  8
0
 10
574.44975899
 20
504.23608362
  0
VERTEX
  8
0
 10
573.41129738
 20
503.99048574
  0
VERTEX
  8
0
 10
572.38014718
 20
503.72083575
  0
VERTEX
  8
0
 10
571.35661105
 20
503.42748513
  0
VERTEX
  8
0
 10
570.34099165
 20
503.11078539
  0
VERTEX
  8
0
 10
569.33359166
 20
502.77108803
  0
VERTEX
  8
0
 10
568.33471374
 20
502.40874453
  0
VERTEX
  8
0
 10
567.34466055
 20
502.02410640
  0
VERTEX
  8
0
 10
566.36373476
 20
501.61752513
  0
VERTEX
  8
0
 10
565.39223904
 20
501.18935222
  0
VERTEX
  8
0
 10
564.43047606
 20
500.73993916
  0
VERTEX
  8
0
 10
563.47874847
 20
500.26963745
  0
VERTEX
  8
0
 10
562.53735895
 20
499.77879860
  0
VERTEX
  8
0
 10
561.60661016
 20
499.26777408
  0
VERTEX
  8
0
 10
560.68680478
 20
498.73691541
  0
VERTEX
  8
0
 10
559.77824545
 20
498.18657407
  0
VERTEX
  8
0
 10
558.88123486
 20
497.61710157
  0
VERTEX
  8
0
 10
557.99607566
 20
497.02884939
  0
VERTEX
  8
0
 10
557.12307052
 20
496.42216905
  0
VERTEX
  8
0
 10
556.26252212
 20
495.79741202
  0
VERTEX
  8
0
 10
555.41473311
 20
495.15492982
  0
VERTEX
  8
0
 10
554.58000616
 20
494.49507393
  0
VERTEX
  8
0
 10
553.75864394
 20
493.81819585
  0
VERTEX
  8
0
 10
552.95094911
 20
493.12464709
  0
VERTEX
  8
0
 10
552.15722434
 20
492.41477912
  0
VERTEX
  8
0
 10
551.37777230
 20
491.68894346
  0
VERTEX
  8
0
 10
550.61289565
 20
490.94749160
  0
VERTEX
  8
0
 10
549.86289705
 20
490.19077503
  0
VERTEX
  8
0
 10
549.12807919
 20
489.41914525
  0
VERTEX
  8
0
 10
548.40874471
 20
488.63295376
  0
VERTEX
  8
0
 10
547.70519629
 20
487.83255206
  0
VERTEX
  8
0
 10
547.01773659
 20
487.01829163
  0
VERTEX
  8
0
 10
546.34666829
 20
486.19052398
  0
VERTEX
  8
0
 10
545.69229403
 20
485.34960061
  0
VERTEX
  8
0
 10
545.05491650
 20
484.49587300
  0
VERTEX
  8
0
 10
544.43483836
 20
483.62969266
  0
VERTEX
  8
0
 10
543.83236227
 20
482.75141109
  0
VERTEX
  8
0
 10
543.24779090
 20
481.86137977
  0
VERTEX
  8
0
 10
542.68142691
 20
480.95995021
  0
VERTEX
  8
0
 10
542.13357298
 20
480.04747390
  0
VERTEX
  8
0
 10
541.60453177
 20
479.12430234
  0
VERTEX
  8
0
 10
541.09460594
 20
478.19078703
  0
VERTEX
  8
0
 10
540.60409816
 20
477.24727945
  0
VERTEX
  8
0
 10
540.13331110
 20
476.29413112
  0
VERTEX
  8
0
 10
539.68254742
 20
475.33169352
  0
VERTEX
  8
0
 10
539.25210979
 20
474.36031815
  0
VERTEX
  8
0
 10
538.84230088
 20
473.38035651
  0
VERTEX
  8
0
 10
538.45342335
 20
472.39216009
  0
VERTEX
  8
0
 10
538.08577986
 20
471.39608039
  0
VERTEX
  8
0
 10
537.73967309
 20
470.39246891
  0
VERTEX
  8
0
 10
537.41540570
 20
469.38167714
  0
VERTEX
  8
0
 10
537.11328036
 20
468.36405658
  0
VERTEX
  8
0
 10
536.83359973
 20
467.33995873
  0
VERTEX
  8
0
 10
536.57666647
 20
466.30973508
  0
VERTEX
  8
0
 10
536.34278326
 20
465.27373713
  0
VERTEX
  8
0
 10
536.13225276
 20
464.23231638
  0
VERTEX
  8
0
 10
535.94537764
 20
463.18582432
  0
VERTEX
  8
0
 10
535.78246056
 20
462.13461244
  0
VERTEX
  8
0
 10
535.64380419
 20
461.07903226
  0
VERTEX
  8
0
 10
535.52971120
 20
460.01943525
  0
VERTEX
  8
0
 10
535.44048425
 20
458.95617292
  0
VERTEX
  8
0
 10
535.37642600
 20
457.88959677
  0
VERTEX
  8
0
 10
535.33783913
 20
456.82005828
  0
VERTEX
  8
0
 10
535.42191895
 20
455.69202261
  0
VERTEX
  8
0
 10
535.46603506
 20
454.56313289
  0
VERTEX
  8
0
 10
535.47018747
 20
453.43338912
  0
VERTEX
  8
0
 10
535.43437618
 20
452.30279129
  0
VERTEX
  8
0
 10
535.39097032
 20
451.06419263
  0
VERTEX
  8
0
 10
535.38274674
 20
449.82824658
  0
VERTEX
  8
0
 10
535.40922659
 20
448.59547241
  0
VERTEX
  8
0
 10
535.46993104
 20
447.36638937
  0
VERTEX
  8
0
 10
535.56438124
 20
446.14151673
  0
VERTEX
  8
0
 10
535.69209834
 20
444.92137373
  0
VERTEX
  8
0
 10
535.85260349
 20
443.70647963
  0
VERTEX
  8
0
 10
536.04541787
 20
442.49735369
  0
VERTEX
  8
0
 10
536.27006262
 20
441.29451517
  0
VERTEX
  8
0
 10
536.52605889
 20
440.09848332
  0
VERTEX
  8
0
 10
536.81292785
 20
438.90977741
  0
VERTEX
  8
0
 10
537.13019065
 20
437.72891668
  0
VERTEX
  8
0
 10
537.47736845
 20
436.55642039
  0
VERTEX
  8
0
 10
537.85398240
 20
435.39280781
  0
VERTEX
  8
0
 10
538.25955366
 20
434.23859818
  0
VERTEX
  8
0
 10
538.69360338
 20
433.09431077
  0
VERTEX
  8
0
 10
539.15565272
 20
431.96046483
  0
VERTEX
  8
0
 10
539.64522284
 20
430.83757961
  0
VERTEX
  8
0
 10
540.16183489
 20
429.72617438
  0
VERTEX
  8
0
 10
540.70501003
 20
428.62676840
  0
VERTEX
  8
0
 10
541.27426942
 20
427.53988091
  0
VERTEX
  8
0
 10
541.86913421
 20
426.46603117
  0
VERTEX
  8
0
 10
542.48912555
 20
425.40573845
  0
VERTEX
  8
0
 10
543.13376461
 20
424.35952199
  0
VERTEX
  8
0
 10
543.80257253
 20
423.32790106
  0
VERTEX
  8
0
 10
544.49507048
 20
422.31139491
  0
VERTEX
  8
0
 10
545.21077961
 20
421.31052280
  0
VERTEX
  8
0
 10
545.94922108
 20
420.32580399
  0
VERTEX
  8
0
 10
546.70991604
 20
419.35775773
  0
VERTEX
  8
0
 10
547.49238565
 20
418.40690327
  0
VERTEX
  8
0
 10
548.29615107
 20
417.47375989
  0
VERTEX
  8
0
 10
549.12073345
 20
416.55884682
  0
VERTEX
  8
0
 10
549.96565394
 20
415.66268334
  0
VERTEX
  8
0
 10
550.83043371
 20
414.78578869
  0
VERTEX
  8
0
 10
551.71459391
 20
413.92868213
  0
VERTEX
  8
0
 10
552.61765569
 20
413.09188292
  0
VERTEX
  8
0
 10
553.53914021
 20
412.27591032
  0
VERTEX
  8
0
 10
554.47856864
 20
411.48128358
  0
VERTEX
  8
0
 10
555.43546211
 20
410.70852197
  0
VERTEX
  8
0
 10
556.40934180
 20
409.95814473
  0
VERTEX
  8
0
 10
557.39972885
 20
409.23067112
  0
VERTEX
  8
0
 10
558.40614442
 20
408.52662040
  0
VERTEX
  8
0
 10
559.42810967
 20
407.84651183
  0
VERTEX
  8
0
 10
560.46514576
 20
407.19086466
  0
VERTEX
  8
0
 10
561.51677383
 20
406.56019816
  0
VERTEX
  8
0
 10
562.58251505
 20
405.95503157
  0
VERTEX
  8
0
 10
563.66189058
 20
405.37588415
  0
VERTEX
  8
0
 10
564.75442156
 20
404.82327517
  0
VERTEX
  8
0
 10
565.85962915
 20
404.29772387
  0
VERTEX
  8
0
 10
566.97703452
 20
403.79974952
  0
VERTEX
  8
0
 10
568.10615881
 20
403.32987137
  0
VERTEX
  8
0
 10
569.24652318
 20
402.88860867
  0
VERTEX
  8
0
 10
570.39764880
 20
402.47648069
  0
VERTEX
  8
0
 10
571.55905680
 20
402.09400669
  0
VERTEX
  8
0
 10
572.73026836
 20
401.74170591
  0
VERTEX
  8
0
 10
573.91080462
 20
401.42009761
  0
VERTEX
  8
0
 10
575.10018675
 20
401.12970106
  0
VERTEX
  8
0
 10
576.29793589
 20
400.87103550
  0
VERTEX
  8
0
 10
577.50357321
 20
400.64462020
  0
VERTEX
  8
0
 10
578.71661986
 20
400.45097442
  0
VERTEX
  8
0
 10
579.93659700
 20
400.29061740
  0
VERTEX
  8
0
 10
581.16302578
 20
400.16406840
  0
VERTEX
  8
0
 10
582.39542736
 20
400.07184669
  0
VERTEX
  8
0
 10
583.63332289
 20
400.01447152
  0
SEQEND
  0
POLYLINE
  8
NÌvel_Padr„o
 66
   1
 39
0.000000
 70
    0
  0
VERTEX
  8
0
 10
584.67998536
 20
399.92840180
  0
VERTEX
  8
0
 10
583.63332289
 20
400.01447152
  0
VERTEX
  8
0
 10
584.15885290
 20
399.98439495
  0
VERTEX
  8
0
 10
584.67998536
 20
399.92840180
  0
VERTEX
  8
0
 10
600.36195739
 20
398.63883336
  0
VERTEX
  8
0
 10
599.35868077
 20
398.66274159
  0
SEQEND
  0
POLYLINE
  8
NÌvel_Padr„o
 66
   1
 39
0.000000
 70
    0
  0
VERTEX
  8
0
 10
637.16274759
 20
532.73104129
  0
VERTEX
  8
0
 10
637.16265349
 20
532.73116629
  0
VERTEX
  8
0
 10
637.28510114
 20
532.52986511
  0
VERTEX
  8
0
 10
637.37394108
 20
532.30702498
  0
VERTEX
  8
0
 10
637.42578941
 20
532.06262338
  0
VERTEX
  8
0
 10
637.43716814
 20
531.79676282
  0
VERTEX
  8
0
 10
637.40277495
 20
531.51420163
  0
VERTEX
  8
0
 10
637.32402259
 20
531.25961271
  0
VERTEX
  8
0
 10
637.20532821
 20
531.03284332
  0
VERTEX
  8
0
 10
637.05110894
 20
530.83374072
  0
VERTEX
  8
0
 10
636.86578194
 20
530.66215216
  0
VERTEX
  8
0
 10
636.65376433
 20
530.51792491
  0
VERTEX
  8
0
 10
636.41947327
 20
530.40090623
  0
VERTEX
  8
0
 10
636.16732588
 20
530.31094337
  0
VERTEX
  8
0
 10
635.90173932
 20
530.24788360
  0
VERTEX
  8
0
 10
635.62713071
 20
530.21157417
  0
VERTEX
  8
0
 10
635.34791722
 20
530.20186235
  0
VERTEX
  8
0
 10
635.06851596
 20
530.21859539
  0
VERTEX
  8
0
 10
634.79334409
 20
530.26162056
  0
VERTEX
  8
0
 10
634.52681874
 20
530.33078511
  0
VERTEX
  8
0
 10
634.27335706
 20
530.42593630
  0
VERTEX
  8
0
 10
634.03737618
 20
530.54692140
  0
VERTEX
  8
0
 10
633.86211129
 20
530.66380695
  0
VERTEX
  8
0
 10
633.70372020
 20
530.79753846
  0
VERTEX
  8
0
 10
633.56456356
 20
530.94802794
  0
VERTEX
  8
0
 10
633.44700200
 20
531.11518741
  0
VERTEX
  8
0
 10
633.35339618
 20
531.29892885
  0
VERTEX
  8
0
 10
633.28610675
 20
531.49916429
  0
VERTEX
  8
0
 10
633.24749434
 20
531.71580572
  0
VERTEX
  8
0
 10
633.23991961
 20
531.94876516
  0
VERTEX
  8
0
 10
633.26236321
 20
532.16903309
  0
VERTEX
  8
0
 10
633.31184489
 20
532.37271341
  0
VERTEX
  8
0
 10
633.38642723
 20
532.55992614
  0
VERTEX
  8
0
 10
633.48417283
 20
532.73079129
  0
VERTEX
  8
0
 10
633.63782816
 20
532.92404076
  0
VERTEX
  8
0
 10
633.82112104
 20
533.09083941
  0
VERTEX
  8
0
 10
634.02987931
 20
533.23133433
  0
VERTEX
  8
0
 10
634.25993080
 20
533.34567256
  0
VERTEX
  8
0
 10
634.50710332
 20
533.43400118
  0
VERTEX
  8
0
 10
634.76722470
 20
533.49646725
  0
VERTEX
  8
0
 10
635.03612277
 20
533.53321782
  0
VERTEX
  8
0
 10
635.30962535
 20
533.54439996
  0
VERTEX
  8
0
 10
635.58356027
 20
533.53016074
  0
VERTEX
  8
0
 10
635.85375536
 20
533.49064722
  0
VERTEX
  8
0
 10
636.11603844
 20
533.42600646
  0
VERTEX
  8
0
 10
636.36623734
 20
533.33638553
  0
VERTEX
  8
0
 10
636.60017987
 20
533.22193148
  0
VERTEX
  8
0
 10
636.81369388
 20
533.08279138
  0
VERTEX
  8
0
 10
637.00260717
 20
532.91911230
  0
VERTEX
  8
0
 10
637.16265349
 20
532.73116629
  0
SEQEND
  0
POLYLINE
  8
NÌvel_Padr„o
 66
   1
 39
0.000000
 70
    1
  0
VERTEX
  8
0
 10
391.34722607
 20
355.04638969
  0
VERTEX
  8
0
 10
391.34153664
 20
354.34655064
  0
VERTEX
  8
0
 10
391.37456092
 20
353.65065759
  0
VERTEX
  8
0
 10
391.44523137
 20
352.95985594
  0
VERTEX
  8
0
 10
391.55248044
 20
352.27529112
  0
VERTEX
  8
0
 10
391.69524060
 20
351.59810853
  0
VERTEX
  8
0
 10
391.87244431
 20
350.92945359
  0
VERTEX
  8
0
 10
392.08302403
 20
350.27047170
  0
VERTEX
  8
0
 10
392.32591223
 20
349.62230829
  0
VERTEX
  8
0
 10
392.60004135
 20
348.98610877
  0
VERTEX
  8
0
 10
392.90434387
 20
348.36301855
  0
VERTEX
  8
0
 10
393.23775224
 20
347.75418304
  0
VERTEX
  8
0
 10
393.59919893
 20
347.16074765
  0
VERTEX
  8
0
 10
393.98761639
 20
346.58385781
  0
VERTEX
  8
0
 10
394.40193709
 20
346.02465892
  0
VERTEX
  8
0
 10
394.84109349
 20
345.48429639
  0
VERTEX
  8
0
 10
395.30401805
 20
344.96391564
  0
VERTEX
  8
0
 10
395.78964322
 20
344.46466209
  0
VERTEX
  8
0
 10
396.29690147
 20
343.98768114
  0
VERTEX
  8
0
 10
396.82472527
 20
343.53411821
  0
VERTEX
  8
0
 10
397.37204707
 20
343.10511871
  0
VERTEX
  8
0
 10
397.93779933
 20
342.70182805
  0
VERTEX
  8
0
 10
398.52091451
 20
342.32539166
  0
VERTEX
  8
0
 10
399.12032507
 20
341.97695493
  0
VERTEX
  8
0
 10
399.73496349
 20
341.65766329
  0
VERTEX
  8
0
 10
400.36376220
 20
341.36866214
  0
VERTEX
  8
0
 10
401.00565369
 20
341.11109691
  0
VERTEX
  8
0
 10
401.65957040
 20
340.88611300
  0
VERTEX
  8
0
 10
402.32444480
 20
340.69485583
  0
VERTEX
  8
0
 10
402.99920935
 20
340.53847080
  0
VERTEX
  8
0
 10
403.68279651
 20
340.41810334
  0
VERTEX
  8
0
 10
404.37413875
 20
340.33489886
  0
VERTEX
  8
0
 10
405.07216851
 20
340.29000277
  0
VERTEX
  8
0
 10
405.77161941
 20
340.28434870
  0
VERTEX
  8
0
 10
406.46717166
 20
340.31739568
  0
VERTEX
  8
0
 10
407.15767762
 20
340.38807720
  0
VERTEX
  8
0
 10
407.84198963
 20
340.49532677
  0
VERTEX
  8
0
 10
408.51896006
 20
340.63807788
  0
VERTEX
  8
0
 10
409.18744127
 20
340.81526404
  0
VERTEX
  8
0
 10
409.84628560
 20
341.02581873
  0
VERTEX
  8
0
 10
410.49434542
 20
341.26867547
  0
VERTEX
  8
0
 10
411.13047309
 20
341.54276774
  0
VERTEX
  8
0
 10
411.75352096
 20
341.84702905
  0
VERTEX
  8
0
 10
412.36234139
 20
342.18039289
  0
VERTEX
  8
0
 10
412.95578673
 20
342.54179277
  0
VERTEX
  8
0
 10
413.53270935
 20
342.93016218
  0
VERTEX
  8
0
 10
414.09196159
 20
343.34443462
  0
VERTEX
  8
0
 10
414.63239582
 20
343.78354359
  0
VERTEX
  8
0
 10
415.15286439
 20
344.24642259
  0
VERTEX
  8
0
 10
415.65221966
 20
344.73200512
  0
VERTEX
  8
0
 10
416.12931399
 20
345.23922467
  0
VERTEX
  8
0
 10
416.58299974
 20
345.76701474
  0
VERTEX
  8
0
 10
417.01212925
 20
346.31430884
  0
VERTEX
  8
0
 10
417.41555489
 20
346.88004045
  0
VERTEX
  8
0
 10
417.79212902
 20
347.46314309
  0
VERTEX
  8
0
 10
418.14070398
 20
348.06255024
  0
VERTEX
  8
0
 10
418.46013215
 20
348.67719541
  0
VERTEX
  8
0
 10
418.74926587
 20
349.30601210
  0
VERTEX
  8
0
 10
419.00695750
 20
349.94793380
  0
VERTEX
  8
0
 10
419.23205940
 20
350.60189401
  0
VERTEX
  8
0
 10
419.42342393
 20
351.26682623
  0
VERTEX
  8
0
 10
419.57990344
 20
351.94166397
  0
VERTEX
  8
0
 10
419.70035029
 20
352.62534071
  0
VERTEX
  8
0
 10
419.78361683
 20
353.31678996
  0
VERTEX
  8
0
 10
419.82855543
 20
354.01494521
  0
VERTEX
  8
0
 10
419.83424486
 20
354.71478426
  0
VERTEX
  8
0
 10
419.80122058
 20
355.41067731
  0
VERTEX
  8
0
 10
419.73055014
 20
356.10147895
  0
VERTEX
  8
0
 10
419.62330106
 20
356.78604378
  0
VERTEX
  8
0
 10
419.48054090
 20
357.46322637
  0
VERTEX
  8
0
 10
419.30333719
 20
358.13188131
  0
VERTEX
  8
0
 10
419.09275747
 20
358.79086320
  0
VERTEX
  8
0
 10
418.84986927
 20
359.43902661
  0
VERTEX
  8
0
 10
418.57574015
 20
360.07522613
  0
VERTEX
  8
0
 10
418.27143763
 20
360.69831635
  0
VERTEX
  8
0
 10
417.93802926
 20
361.30715186
  0
VERTEX
  8
0
 10
417.57658257
 20
361.90058725
  0
VERTEX
  8
0
 10
417.18816511
 20
362.47747709
  0
VERTEX
  8
0
 10
416.77384441
 20
363.03667598
  0
VERTEX
  8
0
 10
416.33468801
 20
363.57703851
  0
VERTEX
  8
0
 10
415.87176346
 20
364.09741925
  0
VERTEX
  8
0
 10
415.38613828
 20
364.59667281
  0
VERTEX
  8
0
 10
414.87888003
 20
365.07365376
  0
VERTEX
  8
0
 10
414.35105623
 20
365.52721669
  0
VERTEX
  8
0
 10
413.80373444
 20
365.95621619
  0
VERTEX
  8
0
 10
413.23798218
 20
366.35950685
  0
VERTEX
  8
0
 10
412.65486699
 20
366.73594324
  0
VERTEX
  8
0
 10
412.05545643
 20
367.08437997
  0
VERTEX
  8
0
 10
411.44081802
 20
367.40367161
  0
VERTEX
  8
0
 10
410.81201930
 20
367.69267275
  0
VERTEX
  8
0
 10
410.17012781
 20
367.95023799
  0
VERTEX
  8
0
 10
409.51621110
 20
368.17522190
  0
VERTEX
  8
0
 10
408.85133670
 20
368.36647907
  0
VERTEX
  8
0
 10
408.17657215
 20
368.52286409
  0
VERTEX
  8
0
 10
407.49298499
 20
368.64323155
  0
VERTEX
  8
0
 10
406.80164276
 20
368.72643604
  0
VERTEX
  8
0
 10
406.10361299
 20
368.77133213
  0
VERTEX
  8
0
 10
405.40416209
 20
368.77698620
  0
VERTEX
  8
0
 10
404.70860984
 20
368.74393922
  0
VERTEX
  8
0
 10
404.01810388
 20
368.67325770
  0
VERTEX
  8
0
 10
403.33379187
 20
368.56600813
  0
VERTEX
  8
0
 10
402.65682144
 20
368.42325702
  0
VERTEX
  8
0
 10
401.98834023
 20
368.24607086
  0
VERTEX
  8
0
 10
401.32949590
 20
368.03551617
  0
VERTEX
  8
0
 10
400.68143608
 20
367.79265943
  0
VERTEX
  8
0
 10
400.04530841
 20
367.51856716
  0
VERTEX
  8
0
 10
399.42226054
 20
367.21430585
  0
VERTEX
  8
0
 10
398.81344011
 20
366.88094200
  0
VERTEX
  8
0
 10
398.21999477
 20
366.51954213
  0
VERTEX
  8
0
 10
397.64307216
 20
366.13117272
  0
VERTEX
  8
0
 10
397.08381991
 20
365.71690028
  0
VERTEX
  8
0
 10
396.54338568
 20
365.27779131
  0
VERTEX
  8
0
 10
396.02291711
 20
364.81491231
  0
VERTEX
  8
0
 10
395.52356184
 20
364.32932978
  0
VERTEX
  8
0
 10
395.04646751
 20
363.82211023
  0
VERTEX
  8
0
 10
394.59278176
 20
363.29432016
  0
VERTEX
  8
0
 10
394.16365225
 20
362.74702606
  0
VERTEX
  8
0
 10
393.76022661
 20
362.18129445
  0
VERTEX
  8
0
 10
393.38365248
 20
361.59819181
  0
VERTEX
  8
0
 10
393.03507752
 20
360.99878466
  0
VERTEX
  8
0
 10
392.71564935
 20
360.38413948
  0
VERTEX
  8
0
 10
392.42651563
 20
359.75532280
  0
VERTEX
  8
0
 10
392.16882400
 20
359.11340110
  0
VERTEX
  8
0
 10
391.94372210
 20
358.45944089
  0
VERTEX
  8
0
 10
391.75235757
 20
357.79450866
  0
VERTEX
  8
0
 10
391.59587806
 20
357.11967093
  0
VERTEX
  8
0
 10
391.47543121
 20
356.43599419
  0
VERTEX
  8
0
 10
391.39216467
 20
355.74454494
  0
VERTEX
  8
0
 10
391.34722607
 20
355.04638969
  0
SEQEND
  0
POLYLINE
  8
NÌvel_Padr„o
 66
   1
 39
0.000000
 70
    1
  0
VERTEX
  8
0
 10
337.66831748
 20
389.89713964
  0
VERTEX
  8
0
 10
337.66262805
 20
389.19730059
  0
VERTEX
  8
0
 10
337.69565233
 20
388.50140754
  0
VERTEX
  8
0
 10
337.76632277
 20
387.81060590
  0
VERTEX
  8
0
 10
337.87357184
 20
387.12604107
  0
VERTEX
  8
0
 10
338.01633201
 20
386.44885848
  0
VERTEX
  8
0
 10
338.19353572
 20
385.78020354
  0
VERTEX
  8
0
 10
338.40411544
 20
385.12122165
  0
VERTEX
  8
0
 10
338.64700363
 20
384.47305824
  0
VERTEX
  8
0
 10
338.92113276
 20
383.83685872
  0
VERTEX
  8
0
 10
339.22543528
 20
383.21376850
  0
VERTEX
  8
0
 10
339.55884365
 20
382.60493299
  0
VERTEX
  8
0
 10
339.92029034
 20
382.01149760
  0
VERTEX
  8
0
 10
340.30870780
 20
381.43460776
  0
VERTEX
  8
0
 10
340.72302850
 20
380.87540887
  0
VERTEX
  8
0
 10
341.16218490
 20
380.33504634
  0
VERTEX
  8
0
 10
341.62510945
 20
379.81466559
  0
VERTEX
  8
0
 10
342.11073463
 20
379.31541204
  0
VERTEX
  8
0
 10
342.61799288
 20
378.83843109
  0
VERTEX
  8
0
 10
343.14581668
 20
378.38486816
  0
VERTEX
  8
0
 10
343.69313847
 20
377.95586866
  0
VERTEX
  8
0
 10
344.25889073
 20
377.55257800
  0
VERTEX
  8
0
 10
344.84200591
 20
377.17614161
  0
VERTEX
  8
0
 10
345.44141648
 20
376.82770488
  0
VERTEX
  8
0
 10
346.05605489
 20
376.50841324
  0
VERTEX
  8
0
 10
346.68485361
 20
376.21941209
  0
VERTEX
  8
0
 10
347.32674509
 20
375.96184686
  0
VERTEX
  8
0
 10
347.98066181
 20
375.73686295
  0
VERTEX
  8
0
 10
348.64553621
 20
375.54560578
  0
VERTEX
  8
0
 10
349.32030076
 20
375.38922076
  0
VERTEX
  8
0
 10
350.00388792
 20
375.26885330
  0
VERTEX
  8
0
 10
350.69523015
 20
375.18564881
  0
VERTEX
  8
0
 10
351.39325992
 20
375.14075272
  0
VERTEX
  8
0
 10
352.09271082
 20
375.13509865
  0
VERTEX
  8
0
 10
352.78826307
 20
375.16814563
  0
VERTEX
  8
0
 10
353.47876902
 20
375.23882715
  0
VERTEX
  8
0
 10
354.16308104
 20
375.34607672
  0
VERTEX
  8
0
 10
354.84005147
 20
375.48882783
  0
VERTEX
  8
0
 10
355.50853267
 20
375.66601399
  0
VERTEX
  8
0
 10
356.16737701
 20
375.87656868
  0
VERTEX
  8
0
 10
356.81543683
 20
376.11942542
  0
VERTEX
  8
0
 10
357.45156450
 20
376.39351769
  0
VERTEX
  8
0
 10
358.07461237
 20
376.69777900
  0
VERTEX
  8
0
 10
358.68343279
 20
377.03114285
  0
VERTEX
  8
0
 10
359.27687814
 20
377.39254272
  0
VERTEX
  8
0
 10
359.85380075
 20
377.78091213
  0
VERTEX
  8
0
 10
360.41305300
 20
378.19518457
  0
VERTEX
  8
0
 10
360.95348723
 20
378.63429354
  0
VERTEX
  8
0
 10
361.47395580
 20
379.09717254
  0
VERTEX
  8
0
 10
361.97331107
 20
379.58275507
  0
VERTEX
  8
0
 10
362.45040540
 20
380.08997462
  0
VERTEX
  8
0
 10
362.90409114
 20
380.61776469
  0
VERTEX
  8
0
 10
363.33322066
 20
381.16505879
  0
VERTEX
  8
0
 10
363.73664630
 20
381.73079040
  0
VERTEX
  8
0
 10
364.11322042
 20
382.31389304
  0
VERTEX
  8
0
 10
364.46179539
 20
382.91330019
  0
VERTEX
  8
0
 10
364.78122355
 20
383.52794536
  0
VERTEX
  8
0
 10
365.07035727
 20
384.15676205
  0
VERTEX
  8
0
 10
365.32804891
 20
384.79868375
  0
VERTEX
  8
0
 10
365.55315081
 20
385.45264396
  0
VERTEX
  8
0
 10
365.74451533
 20
386.11757619
  0
VERTEX
  8
0
 10
365.90099484
 20
386.79241392
  0
VERTEX
  8
0
 10
366.02144169
 20
387.47609066
  0
VERTEX
  8
0
 10
366.10470824
 20
388.16753991
  0
VERTEX
  8
0
 10
366.14964684
 20
388.86569516
  0
VERTEX
  8
0
 10
366.15533627
 20
389.56553421
  0
VERTEX
  8
0
 10
366.12231199
 20
390.26142726
  0
VERTEX
  8
0
 10
366.05164154
 20
390.95222891
  0
VERTEX
  8
0
 10
365.94439247
 20
391.63679373
  0
VERTEX
  8
0
 10
365.80163231
 20
392.31397632
  0
VERTEX
  8
0
 10
365.62442860
 20
392.98263126
  0
VERTEX
  8
0
 10
365.41384887
 20
393.64161315
  0
VERTEX
  8
0
 10
365.17096068
 20
394.28977656
  0
VERTEX
  8
0
 10
364.89683155
 20
394.92597608
  0
VERTEX
  8
0
 10
364.59252904
 20
395.54906630
  0
VERTEX
  8
0
 10
364.25912066
 20
396.15790181
  0
VERTEX
  8
0
 10
363.89767398
 20
396.75133720
  0
VERTEX
  8
0
 10
363.50925651
 20
397.32822704
  0
VERTEX
  8
0
 10
363.09493581
 20
397.88742593
  0
VERTEX
  8
0
 10
362.65577942
 20
398.42778846
  0
VERTEX
  8
0
 10
362.19285486
 20
398.94816921
  0
VERTEX
  8
0
 10
361.70722969
 20
399.44742276
  0
VERTEX
  8
0
 10
361.19997143
 20
399.92440371
  0
VERTEX
  8
0
 10
360.67214764
 20
400.37796664
  0
VERTEX
  8
0
 10
360.12482584
 20
400.80696614
  0
VERTEX
  8
0
 10
359.55907358
 20
401.21025680
  0
VERTEX
  8
0
 10
358.97595840
 20
401.58669319
  0
VERTEX
  8
0
 10
358.37654783
 20
401.93512992
  0
VERTEX
  8
0
 10
357.76190942
 20
402.25442156
  0
VERTEX
  8
0
 10
357.13311070
 20
402.54342271
  0
VERTEX
  8
0
 10
356.49121922
 20
402.80098794
  0
VERTEX
  8
0
 10
355.83730251
 20
403.02597185
  0
VERTEX
  8
0
 10
355.17242811
 20
403.21722902
  0
VERTEX
  8
0
 10
354.49766355
 20
403.37361405
  0
VERTEX
  8
0
 10
353.81407639
 20
403.49398151
  0
VERTEX
  8
0
 10
353.12273416
 20
403.57718599
  0
VERTEX
  8
0
 10
352.42470440
 20
403.62208208
  0
VERTEX
  8
0
 10
351.72525349
 20
403.62773615
  0
VERTEX
  8
0
 10
351.02970124
 20
403.59468917
  0
VERTEX
  8
0
 10
350.33919529
 20
403.52400765
  0
VERTEX
  8
0
 10
349.65488328
 20
403.41675808
  0
VERTEX
  8
0
 10
348.97791284
 20
403.27400697
  0
VERTEX
  8
0
 10
348.30943164
 20
403.09682081
  0
VERTEX
  8
0
 10
347.65058730
 20
402.88626612
  0
VERTEX
  8
0
 10
347.00252748
 20
402.64340938
  0
VERTEX
  8
0
 10
346.36639981
 20
402.36931711
  0
VERTEX
  8
0
 10
345.74335195
 20
402.06505580
  0
VERTEX
  8
0
 10
345.13453152
 20
401.73169196
  0
VERTEX
  8
0
 10
344.54108618
 20
401.37029208
  0
VERTEX
  8
0
 10
343.96416356
 20
400.98192267
  0
VERTEX
  8
0
 10
343.40491132
 20
400.56765023
  0
VERTEX
  8
0
 10
342.86447709
 20
400.12854126
  0
VERTEX
  8
0
 10
342.34400851
 20
399.66566226
  0
VERTEX
  8
0
 10
341.84465324
 20
399.18007973
  0
VERTEX
  8
0
 10
341.36755891
 20
398.67286018
  0
VERTEX
  8
0
 10
340.91387317
 20
398.14507011
  0
VERTEX
  8
0
 10
340.48474366
 20
397.59777601
  0
VERTEX
  8
0
 10
340.08131801
 20
397.03204440
  0
VERTEX
  8
0
 10
339.70474389
 20
396.44894176
  0
VERTEX
  8
0
 10
339.35616892
 20
395.84953461
  0
VERTEX
  8
0
 10
339.03674076
 20
395.23488944
  0
VERTEX
  8
0
 10
338.74760704
 20
394.60607275
  0
VERTEX
  8
0
 10
338.48991541
 20
393.96415105
  0
VERTEX
  8
0
 10
338.26481351
 20
393.31019084
  0
VERTEX
  8
0
 10
338.07344898
 20
392.64525861
  0
VERTEX
  8
0
 10
337.91696947
 20
391.97042088
  0
VERTEX
  8
0
 10
337.79652262
 20
391.28674414
  0
VERTEX
  8
0
 10
337.71325607
 20
390.59529489
  0
VERTEX
  8
0
 10
337.66831748
 20
389.89713964
  0
SEQEND
  0
POLYLINE
  8
NÌvel_Padr„o
 66
   1
 39
0.000000
 70
    1
  0
VERTEX
  8
0
 10
348.24153143
 20
364.09758254
  0
VERTEX
  8
0
 10
348.24770490
 20
363.83209795
  0
VERTEX
  8
0
 10
348.28469054
 20
363.58262789
  0
VERTEX
  8
0
 10
348.35047545
 20
363.34924356
  0
VERTEX
  8
0
 10
348.44304673
 20
363.13201620
  0
VERTEX
  8
0
 10
348.56039147
 20
362.93101701
  0
VERTEX
  8
0
 10
348.70049678
 20
362.74631724
  0
VERTEX
  8
0
 10
348.86134975
 20
362.57798808
  0
VERTEX
  8
0
 10
349.04093748
 20
362.42610077
  0
VERTEX
  8
0
 10
349.23724707
 20
362.29072652
  0
VERTEX
  8
0
 10
349.44826562
 20
362.17193656
  0
VERTEX
  8
0
 10
349.67198023
 20
362.06980210
  0
VERTEX
  8
0
 10
349.90637800
 20
361.98439437
  0
VERTEX
  8
0
 10
350.14944602
 20
361.91578458
  0
VERTEX
  8
0
 10
350.39917140
 20
361.86404396
  0
VERTEX
  8
0
 10
350.65354123
 20
361.82924373
  0
VERTEX
  8
0
 10
350.91054261
 20
361.81145511
  0
VERTEX
  8
0
 10
351.16816265
 20
361.81074932
  0
VERTEX
  8
0
 10
351.42438843
 20
361.82719757
  0
VERTEX
  8
0
 10
351.67720706
 20
361.86087110
  0
VERTEX
  8
0
 10
351.92460563
 20
361.91184112
  0
VERTEX
  8
0
 10
352.16457126
 20
361.98017884
  0
VERTEX
  8
0
 10
352.39509102
 20
362.06595550
  0
VERTEX
  8
0
 10
352.61415203
 20
362.16924231
  0
VERTEX
  8
0
 10
352.81974138
 20
362.29011050
  0
VERTEX
  8
0
 10
353.00984617
 20
362.42863128
  0
VERTEX
  8
0
 10
353.18245350
 20
362.58487587
  0
VERTEX
  8
0
 10
353.33555047
 20
362.75891549
  0
VERTEX
  8
0
 10
353.46712417
 20
362.95082137
  0
VERTEX
  8
0
 10
353.57516171
 20
363.16066473
  0
VERTEX
  8
0
 10
353.65765019
 20
363.38851678
  0
VERTEX
  8
0
 10
353.71257669
 20
363.63444875
  0
VERTEX
  8
0
 10
353.73792833
 20
363.89853185
  0
VERTEX
  8
0
 10
353.73175486
 20
364.16401644
  0
VERTEX
  8
0
 10
353.69476922
 20
364.41348651
  0
VERTEX
  8
0
 10
353.62898431
 20
364.64687083
  0
VERTEX
  8
0
 10
353.53641303
 20
364.86409820
  0
VERTEX
  8
0
 10
353.41906829
 20
365.06509738
  0
VERTEX
  8
0
 10
353.27896299
 20
365.24979716
  0
VERTEX
  8
0
 10
353.11811002
 20
365.41812631
  0
VERTEX
  8
0
 10
352.93852228
 20
365.57001363
  0
VERTEX
  8
0
 10
352.74221269
 20
365.70538787
  0
VERTEX
  8
0
 10
352.53119414
 20
365.82417784
  0
VERTEX
  8
0
 10
352.30747953
 20
365.92631229
  0
VERTEX
  8
0
 10
352.07308176
 20
366.01172003
  0
VERTEX
  8
0
 10
351.83001374
 20
366.08032981
  0
VERTEX
  8
0
 10
351.58028836
 20
366.13207043
  0
VERTEX
  8
0
 10
351.32591853
 20
366.16687066
  0
VERTEX
  8
0
 10
351.06891715
 20
366.18465928
  0
VERTEX
  8
0
 10
350.81129712
 20
366.18536507
  0
VERTEX
  8
0
 10
350.55507133
 20
366.16891682
  0
VERTEX
  8
0
 10
350.30225270
 20
366.13524329
  0
VERTEX
  8
0
 10
350.05485413
 20
366.08427328
  0
VERTEX
  8
0
 10
349.81488851
 20
366.01593555
  0
VERTEX
  8
0
 10
349.58436874
 20
365.93015889
  0
VERTEX
  8
0
 10
349.36530773
 20
365.82687208
  0
VERTEX
  8
0
 10
349.15971838
 20
365.70600389
  0
VERTEX
  8
0
 10
348.96961359
 20
365.56748312
  0
VERTEX
  8
0
 10
348.79700626
 20
365.41123853
  0
VERTEX
  8
0
 10
348.64390929
 20
365.23719890
  0
VERTEX
  8
0
 10
348.51233559
 20
365.04529302
  0
VERTEX
  8
0
 10
348.40429805
 20
364.83544967
  0
VERTEX
  8
0
 10
348.32180958
 20
364.60759761
  0
VERTEX
  8
0
 10
348.26688307
 20
364.36166565
  0
VERTEX
  8
0
 10
348.24153143
 20
364.09758254
  0
SEQEND
  0
POLYLINE
  8
NÌvel_Padr„o
 66
   1
 39
0.000000
 70
    1
  0
VERTEX
  8
0
 10
350.08003598
 20
414.86430295
  0
VERTEX
  8
0
 10
350.08620946
 20
414.59881836
  0
VERTEX
  8
0
 10
350.12319510
 20
414.34934830
  0
VERTEX
  8
0
 10
350.18898000
 20
414.11596397
  0
VERTEX
  8
0
 10
350.28155128
 20
413.89873661
  0
VERTEX
  8
0
 10
350.39889602
 20
413.69773742
  0
VERTEX
  8
0
 10
350.53900133
 20
413.51303764
  0
VERTEX
  8
0
 10
350.69985430
 20
413.34470849
  0
VERTEX
  8
0
 10
350.87944203
 20
413.19282118
  0
VERTEX
  8
0
 10
351.07575162
 20
413.05744693
  0
VERTEX
  8
0
 10
351.28677017
 20
412.93865696
  0
VERTEX
  8
0
 10
351.51048478
 20
412.83652251
  0
VERTEX
  8
0
 10
351.74488255
 20
412.75111477
  0
VERTEX
  8
0
 10
351.98795057
 20
412.68250499
  0
VERTEX
  8
0
 10
352.23767595
 20
412.63076437
  0
VERTEX
  8
0
 10
352.49204578
 20
412.59596414
  0
VERTEX
  8
0
 10
352.74904716
 20
412.57817552
  0
VERTEX
  8
0
 10
353.00666720
 20
412.57746973
  0
VERTEX
  8
0
 10
353.26289298
 20
412.59391798
  0
VERTEX
  8
0
 10
353.51571161
 20
412.62759151
  0
VERTEX
  8
0
 10
353.76311019
 20
412.67856152
  0
VERTEX
  8
0
 10
354.00307581
 20
412.74689925
  0
VERTEX
  8
0
 10
354.23359557
 20
412.83267591
  0
VERTEX
  8
0
 10
354.45265658
 20
412.93596272
  0
VERTEX
  8
0
 10
354.65824593
 20
413.05683091
  0
VERTEX
  8
0
 10
354.84835072
 20
413.19535168
  0
VERTEX
  8
0
 10
355.02095805
 20
413.35159627
  0
VERTEX
  8
0
 10
355.17405502
 20
413.52563590
  0
VERTEX
  8
0
 10
355.30562873
 20
413.71754178
  0
VERTEX
  8
0
 10
355.41366626
 20
413.92738514
  0
VERTEX
  8
0
 10
355.49615474
 20
414.15523719
  0
VERTEX
  8
0
 10
355.55108124
 20
414.40116915
  0
VERTEX
  8
0
 10
355.57643288
 20
414.66525226
  0
VERTEX
  8
0
 10
355.57025941
 20
414.93073685
  0
VERTEX
  8
0
 10
355.53327377
 20
415.18020691
  0
VERTEX
  8
0
 10
355.46748886
 20
415.41359124
  0
VERTEX
  8
0
 10
355.37491758
 20
415.63081860
  0
VERTEX
  8
0
 10
355.25757284
 20
415.83181779
  0
VERTEX
  8
0
 10
355.11746754
 20
416.01651757
  0
VERTEX
  8
0
 10
354.95661457
 20
416.18484672
  0
VERTEX
  8
0
 10
354.77702684
 20
416.33673403
  0
VERTEX
  8
0
 10
354.58071724
 20
416.47210828
  0
VERTEX
  8
0
 10
354.36969869
 20
416.59089825
  0
VERTEX
  8
0
 10
354.14598408
 20
416.69303270
  0
VERTEX
  8
0
 10
353.91158631
 20
416.77844043
  0
VERTEX
  8
0
 10
353.66851829
 20
416.84705022
  0
VERTEX
  8
0
 10
353.41879291
 20
416.89879084
  0
VERTEX
  8
0
 10
353.16442308
 20
416.93359107
  0
VERTEX
  8
0
 10
352.90742170
 20
416.95137969
  0
VERTEX
  8
0
 10
352.64980167
 20
416.95208548
  0
VERTEX
  8
0
 10
352.39357589
 20
416.93563723
  0
VERTEX
  8
0
 10
352.14075726
 20
416.90196370
  0
VERTEX
  8
0
 10
351.89335868
 20
416.85099368
  0
VERTEX
  8
0
 10
351.65339306
 20
416.78265596
  0
VERTEX
  8
0
 10
351.42287329
 20
416.69687930
  0
VERTEX
  8
0
 10
351.20381228
 20
416.59359249
  0
VERTEX
  8
0
 10
350.99822293
 20
416.47272430
  0
VERTEX
  8
0
 10
350.80811814
 20
416.33420353
  0
VERTEX
  8
0
 10
350.63551081
 20
416.17795893
  0
VERTEX
  8
0
 10
350.48241384
 20
416.00391931
  0
VERTEX
  8
0
 10
350.35084014
 20
415.81201343
  0
VERTEX
  8
0
 10
350.24280260
 20
415.60217007
  0
VERTEX
  8
0
 10
350.16031413
 20
415.37431802
  0
VERTEX
  8
0
 10
350.10538762
 20
415.12838605
  0
VERTEX
  8
0
 10
350.08003598
 20
414.86430295
  0
SEQEND
  0
POLYLINE
  8
NÌvel_Padr„o
 66
   1
 39
0.000000
 70
    1
  0
VERTEX
  8
0
 10
323.77742351
 20
390.40019502
  0
VERTEX
  8
0
 10
323.78359698
 20
390.13471043
  0
VERTEX
  8
0
 10
323.82058262
 20
389.88524037
  0
VERTEX
  8
0
 10
323.88636752
 20
389.65185604
  0
VERTEX
  8
0
 10
323.97893880
 20
389.43462868
  0
VERTEX
  8
0
 10
324.09628354
 20
389.23362949
  0
VERTEX
  8
0
 10
324.23638885
 20
389.04892972
  0
VERTEX
  8
0
 10
324.39724182
 20
388.88060056
  0
VERTEX
  8
0
 10
324.57682955
 20
388.72871325
  0
VERTEX
  8
0
 10
324.77313914
 20
388.59333900
  0
VERTEX
  8
0
 10
324.98415769
 20
388.47454904
  0
VERTEX
  8
0
 10
325.20787230
 20
388.37241458
  0
VERTEX
  8
0
 10
325.44227007
 20
388.28700685
  0
VERTEX
  8
0
 10
325.68533809
 20
388.21839706
  0
VERTEX
  8
0
 10
325.93506347
 20
388.16665644
  0
VERTEX
  8
0
 10
326.18943330
 20
388.13185621
  0
VERTEX
  8
0
 10
326.44643468
 20
388.11406759
  0
VERTEX
  8
0
 10
326.70405472
 20
388.11336180
  0
VERTEX
  8
0
 10
326.96028050
 20
388.12981005
  0
VERTEX
  8
0
 10
327.21309913
 20
388.16348358
  0
VERTEX
  8
0
 10
327.46049771
 20
388.21445360
  0
VERTEX
  8
0
 10
327.70046333
 20
388.28279132
  0
VERTEX
  8
0
 10
327.93098309
 20
388.36856798
  0
VERTEX
  8
0
 10
328.15004410
 20
388.47185479
  0
VERTEX
  8
0
 10
328.35563345
 20
388.59272298
  0
VERTEX
  8
0
 10
328.54573824
 20
388.73124376
  0
VERTEX
  8
0
 10
328.71834557
 20
388.88748835
  0
VERTEX
  8
0
 10
328.87144254
 20
389.06152797
  0
VERTEX
  8
0
 10
329.00301625
 20
389.25343385
  0
VERTEX
  8
0
 10
329.11105378
 20
389.46327721
  0
VERTEX
  8
0
 10
329.19354226
 20
389.69112926
  0
VERTEX
  8
0
 10
329.24846876
 20
389.93706123
  0
VERTEX
  8
0
 10
329.27382040
 20
390.20114433
  0
VERTEX
  8
0
 10
329.26764693
 20
390.46662892
  0
VERTEX
  8
0
 10
329.23066129
 20
390.71609899
  0
VERTEX
  8
0
 10
329.16487638
 20
390.94948331
  0
VERTEX
  8
0
 10
329.07230510
 20
391.16671068
  0
VERTEX
  8
0
 10
328.95496036
 20
391.36770986
  0
VERTEX
  8
0
 10
328.81485506
 20
391.55240964
  0
VERTEX
  8
0
 10
328.65400209
 20
391.72073879
  0
VERTEX
  8
0
 10
328.47441436
 20
391.87262611
  0
VERTEX
  8
0
 10
328.27810476
 20
392.00800035
  0
VERTEX
  8
0
 10
328.06708621
 20
392.12679032
  0
VERTEX
  8
0
 10
327.84337160
 20
392.22892477
  0
VERTEX
  8
0
 10
327.60897383
 20
392.31433251
  0
VERTEX
  8
0
 10
327.36590581
 20
392.38294229
  0
VERTEX
  8
0
 10
327.11618043
 20
392.43468291
  0
VERTEX
  8
0
 10
326.86181060
 20
392.46948314
  0
VERTEX
  8
0
 10
326.60480922
 20
392.48727176
  0
VERTEX
  8
0
 10
326.34718919
 20
392.48797755
  0
VERTEX
  8
0
 10
326.09096341
 20
392.47152930
  0
VERTEX
  8
0
 10
325.83814478
 20
392.43785577
  0
VERTEX
  8
0
 10
325.59074620
 20
392.38688576
  0
VERTEX
  8
0
 10
325.35078058
 20
392.31854803
  0
VERTEX
  8
0
 10
325.12026081
 20
392.23277137
  0
VERTEX
  8
0
 10
324.90119980
 20
392.12948456
  0
VERTEX
  8
0
 10
324.69561045
 20
392.00861637
  0
VERTEX
  8
0
 10
324.50550566
 20
391.87009560
  0
VERTEX
  8
0
 10
324.33289833
 20
391.71385101
  0
VERTEX
  8
0
 10
324.17980136
 20
391.53981138
  0
VERTEX
  8
0
 10
324.04822766
 20
391.34790550
  0
VERTEX
  8
0
 10
323.94019012
 20
391.13806215
  0
VERTEX
  8
0
 10
323.85770165
 20
390.91021009
  0
VERTEX
  8
0
 10
323.80277514
 20
390.66427813
  0
VERTEX
  8
0
 10
323.77742351
 20
390.40019502
  0
SEQEND
  0
POLYLINE
  8
NÌvel_Padr„o
 66
   1
 39
0.000000
 70
    1
  0
VERTEX
  8
0
 10
369.33376222
 20
405.22518928
  0
VERTEX
  8
0
 10
423.74063372
 20
489.12925554
  0
VERTEX
  8
0
 10
418.70638975
 20
492.39366783
  0
VERTEX
  8
0
 10
364.29951825
 20
408.48960157
  0
VERTEX
  8
0
 10
369.33376222
 20
405.22518928
  0
SEQEND
  0
POLYLINE
  8
NÌvel_Padr„o
 66
   1
 39
0.000000
 70
    1
  0
VERTEX
  8
0
 10
467.46893741
 20
460.76931327
  0
VERTEX
  8
0
 10
412.98038302
 20
376.91827010
  0
VERTEX
  8
0
 10
418.01144561
 20
373.64895684
  0
VERTEX
  8
0
 10
472.50000000
 20
457.50000000
  0
VERTEX
  8
0
 10
467.46893741
 20
460.76931327
  0
SEQEND
  0
POLYLINE
  8
NÌvel_Padr„o
 66
   1
 39
0.000000
 70
    1
  0
VERTEX
  8
0
 10
445.24573690
 20
522.29355173
  0
VERTEX
  8
0
 10
456.12711120
 20
539.07436498
  0
VERTEX
  8
0
 10
451.67993267
 20
541.95809972
  0
VERTEX
  8
0
 10
440.79855837
 20
525.17728647
  0
VERTEX
  8
0
 10
445.24573690
 20
522.29355173
  0
SEQEND
  0
POLYLINE
  8
NÌvel_Padr„o
 66
   1
 39
0.000000
 70
    1
  0
VERTEX
  8
0
 10
504.01259130
 20
505.99392104
  0
VERTEX
  8
0
 10
514.91030218
 20
522.76412967
  0
VERTEX
  8
0
 10
509.79675324
 20
526.08704468
  0
VERTEX
  8
0
 10
498.89904236
 20
509.31683604
  0
VERTEX
  8
0
 10
504.01259130
 20
505.99392104
  0
SEQEND
  0
POLYLINE
  8
NÌvel_Padr„o
 66
   1
 39
0.000000
 70
    1
  0
VERTEX
  8
0
 10
499.28103281
 20
473.59110702
  0
VERTEX
  8
0
 10
498.68357056
 20
473.95558736
  0
VERTEX
  8
0
 10
498.06960121
 20
474.28482798
  0
VERTEX
  8
0
 10
497.44065595
 20
474.57915617
  0
VERTEX
  8
0
 10
496.79826594
 20
474.83889920
  0
VERTEX
  8
0
 10
496.14396237
 20
475.06438436
  0
VERTEX
  8
0
 10
495.47927640
 20
475.25593893
  0
VERTEX
  8
0
 10
494.80573922
 20
475.41389020
  0
VERTEX
  8
0
 10
494.12488199
 20
475.53856544
  0
VERTEX
  8
0
 10
493.43823590
 20
475.63029195
  0
VERTEX
  8
0
 10
492.74733211
 20
475.68939700
  0
VERTEX
  8
0
 10
492.05370181
 20
475.71620787
  0
VERTEX
  8
0
 10
491.35887616
 20
475.71105186
  0
VERTEX
  8
0
 10
490.66438635
 20
475.67425623
  0
VERTEX
  8
0
 10
489.97176354
 20
475.60614828
  0
VERTEX
  8
0
 10
489.28253892
 20
475.50705529
  0
VERTEX
  8
0
 10
488.59824366
 20
475.37730453
  0
VERTEX
  8
0
 10
487.92040893
 20
475.21722330
  0
VERTEX
  8
0
 10
487.25056591
 20
475.02713887
  0
VERTEX
  8
0
 10
486.59024577
 20
474.80737854
  0
VERTEX
  8
0
 10
485.94097969
 20
474.55826957
  0
VERTEX
  8
0
 10
485.30429884
 20
474.28013926
  0
VERTEX
  8
0
 10
484.68173440
 20
473.97331488
  0
VERTEX
  8
0
 10
484.07481755
 20
473.63812372
  0
VERTEX
  8
0
 10
483.48507946
 20
473.27489306
  0
VERTEX
  8
0
 10
482.91405129
 20
472.88395019
  0
VERTEX
  8
0
 10
482.36326424
 20
472.46562239
  0
VERTEX
  8
0
 10
481.83424947
 20
472.02023694
  0
VERTEX
  8
0
 10
481.32853817
 20
471.54812112
  0
VERTEX
  8
0
 10
480.84766149
 20
471.04960221
  0
VERTEX
  8
0
 10
480.39315063
 20
470.52500751
  0
VERTEX
  8
0
 10
479.96653675
 20
469.97466428
  0
VERTEX
  8
0
 10
479.56935103
 20
469.39889982
  0
VERTEX
  8
0
 10
479.20510046
 20
468.80175239
  0
VERTEX
  8
0
 10
478.87605443
 20
468.18806375
  0
VERTEX
  8
0
 10
478.58188768
 20
467.55936646
  0
VERTEX
  8
0
 10
478.32227498
 20
466.91719308
  0
VERTEX
  8
0
 10
478.09689107
 20
466.26307617
  0
VERTEX
  8
0
 10
477.90541071
 20
465.59854827
  0
VERTEX
  8
0
 10
477.74750864
 20
464.92514195
  0
VERTEX
  8
0
 10
477.62285964
 20
464.24438975
  0
VERTEX
  8
0
 10
477.53113844
 20
463.55782424
  0
VERTEX
  8
0
 10
477.47201980
 20
462.86697796
  0
VERTEX
  8
0
 10
477.44517847
 20
462.17338348
  0
VERTEX
  8
0
 10
477.45028922
 20
461.47857334
  0
VERTEX
  8
0
 10
477.48702678
 20
460.78408011
  0
VERTEX
  8
0
 10
477.55506591
 20
460.09143633
  0
VERTEX
  8
0
 10
477.65408138
 20
459.40217456
  0
VERTEX
  8
0
 10
477.78374792
 20
458.71782736
  0
VERTEX
  8
0
 10
477.94374030
 20
458.03992728
  0
VERTEX
  8
0
 10
478.13373326
 20
457.37000688
  0
VERTEX
  8
0
 10
478.35340157
 20
456.70959871
  0
VERTEX
  8
0
 10
478.60241997
 20
456.06023533
  0
VERTEX
  8
0
 10
478.88046321
 20
455.42344929
  0
VERTEX
  8
0
 10
479.18720606
 20
454.80077314
  0
VERTEX
  8
0
 10
479.52232325
 20
454.19373944
  0
VERTEX
  8
0
 10
479.88548956
 20
453.60388075
  0
VERTEX
  8
0
 10
480.27637972
 20
453.03272963
  0
VERTEX
  8
0
 10
480.69466850
 20
452.48181861
  0
VERTEX
  8
0
 10
481.14003064
 20
451.95268027
  0
VERTEX
  8
0
 10
481.61214091
 20
451.44684715
  0
VERTEX
  8
0
 10
482.11067404
 20
450.96585182
  0
VERTEX
  8
0
 10
482.63530481
 20
450.51122681
  0
VERTEX
  8
0
 10
483.18570795
 20
450.08450470
  0
VERTEX
  8
0
 10
483.76155822
 20
449.68721804
  0
VERTEX
  8
0
 10
495.71350271
 20
441.92748074
  0
VERTEX
  8
0
 10
496.31096497
 20
441.56300040
  0
VERTEX
  8
0
 10
496.92493431
 20
441.23375978
  0
VERTEX
  8
0
 10
497.55387958
 20
440.93943160
  0
VERTEX
  8
0
 10
498.19626958
 20
440.67968856
  0
VERTEX
  8
0
 10
498.85057316
 20
440.45420340
  0
VERTEX
  8
0
 10
499.51525912
 20
440.26264883
  0
VERTEX
  8
0
 10
500.18879631
 20
440.10469756
  0
VERTEX
  8
0
 10
500.86965354
 20
439.98002232
  0
VERTEX
  8
0
 10
501.55629963
 20
439.88829581
  0
VERTEX
  8
0
 10
502.24720342
 20
439.82919076
  0
VERTEX
  8
0
 10
502.94083372
 20
439.80237989
  0
VERTEX
  8
0
 10
503.63565937
 20
439.80753591
  0
VERTEX
  8
0
 10
504.33014918
 20
439.84433153
  0
VERTEX
  8
0
 10
505.02277198
 20
439.91243948
  0
VERTEX
  8
0
 10
505.71199660
 20
440.01153248
  0
VERTEX
  8
0
 10
506.39629187
 20
440.14128323
  0
VERTEX
  8
0
 10
507.07412660
 20
440.30136446
  0
VERTEX
  8
0
 10
507.74396962
 20
440.49144889
  0
VERTEX
  8
0
 10
508.40428976
 20
440.71120923
  0
VERTEX
  8
0
 10
509.05355584
 20
440.96031819
  0
VERTEX
  8
0
 10
509.69023668
 20
441.23844851
  0
VERTEX
  8
0
 10
510.31280112
 20
441.54527288
  0
VERTEX
  8
0
 10
510.91971798
 20
441.88046404
  0
VERTEX
  8
0
 10
511.50945607
 20
442.24369470
  0
VERTEX
  8
0
 10
512.08048423
 20
442.63463757
  0
VERTEX
  8
0
 10
512.63127128
 20
443.05296537
  0
VERTEX
  8
0
 10
513.16028605
 20
443.49835083
  0
VERTEX
  8
0
 10
513.66599736
 20
443.97046665
  0
VERTEX
  8
0
 10
514.14687403
 20
444.46898555
  0
VERTEX
  8
0
 10
514.60138490
 20
444.99358026
  0
VERTEX
  8
0
 10
515.02799878
 20
445.54392348
  0
VERTEX
  8
0
 10
515.42518450
 20
446.11968794
  0
VERTEX
  8
0
 10
515.78943507
 20
446.71683538
  0
VERTEX
  8
0
 10
516.11848110
 20
447.33052401
  0
VERTEX
  8
0
 10
516.41264784
 20
447.95922130
  0
VERTEX
  8
0
 10
516.67226055
 20
448.60139468
  0
VERTEX
  8
0
 10
516.89764446
 20
449.25551159
  0
VERTEX
  8
0
 10
517.08912482
 20
449.92003949
  0
VERTEX
  8
0
 10
517.24702688
 20
450.59344581
  0
VERTEX
  8
0
 10
517.37167589
 20
451.27419801
  0
VERTEX
  8
0
 10
517.46339709
 20
451.96076352
  0
VERTEX
  8
0
 10
517.52251573
 20
452.65160980
  0
VERTEX
  8
0
 10
517.54935705
 20
453.34520428
  0
VERTEX
  8
0
 10
517.54424631
 20
454.04001442
  0
VERTEX
  8
0
 10
517.50750875
 20
454.73450765
  0
VERTEX
  8
0
 10
517.43946961
 20
455.42715143
  0
VERTEX
  8
0
 10
517.34045415
 20
456.11641320
  0
VERTEX
  8
0
 10
517.21078760
 20
456.80076040
  0
VERTEX
  8
0
 10
517.05079523
 20
457.47866048
  0
VERTEX
  8
0
 10
516.86080226
 20
458.14858088
  0
VERTEX
  8
0
 10
516.64113396
 20
458.80898905
  0
VERTEX
  8
0
 10
516.39211556
 20
459.45835243
  0
VERTEX
  8
0
 10
516.11407231
 20
460.09513847
  0
VERTEX
  8
0
 10
515.80732947
 20
460.71781462
  0
VERTEX
  8
0
 10
515.47221227
 20
461.32484832
  0
VERTEX
  8
0
 10
515.10904597
 20
461.91470701
  0
VERTEX
  8
0
 10
514.71815580
 20
462.48585814
  0
VERTEX
  8
0
 10
514.29986703
 20
463.03676915
  0
VERTEX
  8
0
 10
513.85450488
 20
463.56590749
  0
VERTEX
  8
0
 10
513.38239462
 20
464.07174061
  0
VERTEX
  8
0
 10
512.88386148
 20
464.55273595
  0
VERTEX
  8
0
 10
512.35923072
 20
465.00736095
  0
VERTEX
  8
0
 10
511.80882758
 20
465.43408306
  0
VERTEX
  8
0
 10
511.23297730
 20
465.83136973
  0
VERTEX
  8
0
 10
499.28103281
 20
473.59110702
  0
SEQEND
  0
POLYLINE
  8
NÌvel_Padr„o
 66
   1
 39
0.000000
 70
    1
  0
VERTEX
  8
0
 10
407.01749359
 20
499.51289961
  0
VERTEX
  8
0
 10
407.41736645
 20
499.26449115
  0
VERTEX
  8
0
 10
407.82375050
 20
499.03395624
  0
VERTEX
  8
0
 10
408.23624450
 20
498.82108612
  0
VERTEX
  8
0
 10
408.65444719
 20
498.62567198
  0
VERTEX
  8
0
 10
409.07795730
 20
498.44750505
  0
VERTEX
  8
0
 10
409.50637358
 20
498.28637655
  0
VERTEX
  8
0
 10
409.93929477
 20
498.14207769
  0
VERTEX
  8
0
 10
410.37631961
 20
498.01439970
  0
VERTEX
  8
0
 10
410.81704685
 20
497.90313378
  0
VERTEX
  8
0
 10
411.26107521
 20
497.80807115
  0
VERTEX
  8
0
 10
411.70800345
 20
497.72900304
  0
VERTEX
  8
0
 10
412.15743031
 20
497.66572065
  0
VERTEX
  8
0
 10
412.60895452
 20
497.61801521
  0
VERTEX
  8
0
 10
413.06217483
 20
497.58567794
  0
VERTEX
  8
0
 10
413.51668998
 20
497.56850004
  0
VERTEX
  8
0
 10
413.97209870
 20
497.56627274
  0
VERTEX
  8
0
 10
414.88399186
 20
497.60583481
  0
VERTEX
  8
0
 10
415.79464424
 20
497.70269387
  0
VERTEX
  8
0
 10
416.70084576
 20
497.85517967
  0
VERTEX
  8
0
 10
417.59938636
 20
498.06162194
  0
VERTEX
  8
0
 10
418.48705596
 20
498.32035042
  0
VERTEX
  8
0
 10
419.36064449
 20
498.62969484
  0
VERTEX
  8
0
 10
420.21694189
 20
498.98798495
  0
VERTEX
  8
0
 10
421.05273808
 20
499.39355048
  0
VERTEX
  8
0
 10
421.86482299
 20
499.84472116
  0
VERTEX
  8
0
 10
422.64998656
 20
500.33982675
  0
VERTEX
  8
0
 10
423.40501870
 20
500.87719696
  0
VERTEX
  8
0
 10
424.12670936
 20
501.45516155
  0
VERTEX
  8
0
 10
424.81184846
 20
502.07205024
  0
VERTEX
  8
0
 10
425.45722593
 20
502.72619278
  0
VERTEX
  8
0
 10
426.05963170
 20
503.41591890
  0
VERTEX
  8
0
 10
426.61585571
 20
504.13955834
  0
VERTEX
  8
0
 10
426.87564640
 20
504.51357360
  0
VERTEX
  8
0
 10
427.12268787
 20
504.89544084
  0
VERTEX
  8
0
 10
427.35657886
 20
505.28495127
  0
VERTEX
  8
0
 10
427.57691812
 20
505.68189613
  0
VERTEX
  8
0
 10
427.78330438
 20
506.08606661
  0
VERTEX
  8
0
 10
427.97533639
 20
506.49725395
  0
VERTEX
  8
0
 10
428.15261288
 20
506.91524936
  0
VERTEX
  8
0
 10
428.31473261
 20
507.33984404
  0
VERTEX
  8
0
 10
428.46129430
 20
507.77082924
  0
VERTEX
  8
0
 10
428.59189671
 20
508.20799614
  0
VERTEX
  8
0
 10
428.70613856
 20
508.65113599
  0
VERTEX
  8
0
 10
428.80361861
 20
509.10003999
  0
VERTEX
  8
0
 10
428.88393560
 20
509.55449936
  0
VERTEX
  8
0
 10
428.94668826
 20
510.01430531
  0
VERTEX
  8
0
 10
428.99147533
 20
510.47924907
  0
VERTEX
  8
0
 10
429.01789557
 20
510.94912186
  0
VERTEX
  8
0
 10
429.02671183
 20
511.41039445
  0
VERTEX
  8
0
 10
429.01986851
 20
511.87092964
  0
VERTEX
  8
0
 10
428.99756805
 20
512.33033885
  0
VERTEX
  8
0
 10
428.96001289
 20
512.78823352
  0
VERTEX
  8
0
 10
428.90740546
 20
513.24422508
  0
VERTEX
  8
0
 10
428.83994821
 20
513.69792495
  0
VERTEX
  8
0
 10
428.66129401
 20
514.59689537
  0
VERTEX
  8
0
 10
428.42566981
 20
515.48203622
  0
VERTEX
  8
0
 10
428.13469515
 20
516.35023897
  0
VERTEX
  8
0
 10
427.78998953
 20
517.19839505
  0
VERTEX
  8
0
 10
427.39317250
 20
518.02339591
  0
VERTEX
  8
0
 10
426.94586357
 20
518.82213299
  0
VERTEX
  8
0
 10
426.44968227
 20
519.59149776
  0
VERTEX
  8
0
 10
425.90624813
 20
520.32838164
  0
VERTEX
  8
0
 10
425.31718067
 20
521.02967610
  0
VERTEX
  8
0
 10
424.68409942
 20
521.69227258
  0
VERTEX
  8
0
 10
424.35155973
 20
522.00808765
  0
VERTEX
  8
0
 10
424.00862391
 20
522.31306252
  0
VERTEX
  8
0
 10
423.65549440
 20
522.60680862
  0
VERTEX
  8
0
 10
423.29237365
 20
522.88893738
  0
VERTEX
  8
0
 10
422.91946410
 20
523.15906022
  0
VERTEX
  8
0
 10
422.53696818
 20
523.41678859
  0
VERTEX
  8
0
 10
410.58502369
 20
531.17652588
  0
VERTEX
  8
0
 10
409.98756144
 20
531.54100622
  0
VERTEX
  8
0
 10
409.37359209
 20
531.87024685
  0
VERTEX
  8
0
 10
408.74464683
 20
532.16457503
  0
VERTEX
  8
0
 10
408.10225682
 20
532.42431806
  0
VERTEX
  8
0
 10
407.44795325
 20
532.64980322
  0
VERTEX
  8
0
 10
406.78326728
 20
532.84135780
  0
VERTEX
  8
0
 10
406.10973009
 20
532.99930906
  0
VERTEX
  8
0
 10
405.42887287
 20
533.12398431
  0
VERTEX
  8
0
 10
404.74222677
 20
533.21571081
  0
VERTEX
  8
0
 10
404.05132299
 20
533.27481586
  0
VERTEX
  8
0
 10
403.35769268
 20
533.30162674
  0
VERTEX
  8
0
 10
402.66286704
 20
533.29647072
  0
VERTEX
  8
0
 10
401.96837722
 20
533.25967510
  0
VERTEX
  8
0
 10
401.27575442
 20
533.19156714
  0
VERTEX
  8
0
 10
400.58652980
 20
533.09247415
  0
VERTEX
  8
0
 10
399.90223453
 20
532.96272340
  0
VERTEX
  8
0
 10
399.22439980
 20
532.80264216
  0
VERTEX
  8
0
 10
398.55455678
 20
532.61255774
  0
VERTEX
  8
0
 10
397.89423664
 20
532.39279740
  0
VERTEX
  8
0
 10
397.24497057
 20
532.14368843
  0
VERTEX
  8
0
 10
396.60828972
 20
531.86555812
  0
VERTEX
  8
0
 10
395.98572528
 20
531.55873374
  0
VERTEX
  8
0
 10
395.37880843
 20
531.22354258
  0
VERTEX
  8
0
 10
394.78907033
 20
530.86031193
  0
VERTEX
  8
0
 10
394.21804217
 20
530.46936906
  0
VERTEX
  8
0
 10
393.66725512
 20
530.05104125
  0
VERTEX
  8
0
 10
393.13824035
 20
529.60565580
  0
VERTEX
  8
0
 10
392.63252904
 20
529.13353998
  0
VERTEX
  8
0
 10
392.15165237
 20
528.63502108
  0
VERTEX
  8
0
 10
391.69714150
 20
528.11042637
  0
VERTEX
  8
0
 10
391.27052762
 20
527.56008315
  0
VERTEX
  8
0
 10
390.87334190
 20
526.98431869
  0
VERTEX
  8
0
 10
390.50909134
 20
526.38717125
  0
VERTEX
  8
0
 10
390.18004530
 20
525.77348261
  0
VERTEX
  8
0
 10
389.88587856
 20
525.14478533
  0
VERTEX
  8
0
 10
389.62626586
 20
524.50261195
  0
VERTEX
  8
0
 10
389.40088195
 20
523.84849504
  0
VERTEX
  8
0
 10
389.20940158
 20
523.18396714
  0
VERTEX
  8
0
 10
389.05149952
 20
522.51056082
  0
VERTEX
  8
0
 10
388.92685052
 20
521.82980862
  0
VERTEX
  8
0
 10
388.83512932
 20
521.14324311
  0
VERTEX
  8
0
 10
388.77601068
 20
520.45239683
  0
VERTEX
  8
0
 10
388.74916935
 20
519.75880234
  0
VERTEX
  8
0
 10
388.75428009
 20
519.06399221
  0
VERTEX
  8
0
 10
388.79101766
 20
518.36949897
  0
VERTEX
  8
0
 10
388.85905679
 20
517.67685519
  0
VERTEX
  8
0
 10
388.95807226
 20
516.98759343
  0
VERTEX
  8
0
 10
389.08773880
 20
516.30324623
  0
VERTEX
  8
0
 10
389.24773118
 20
515.62534615
  0
VERTEX
  8
0
 10
389.43772414
 20
514.95542575
  0
VERTEX
  8
0
 10
389.65739245
 20
514.29501758
  0
VERTEX
  8
0
 10
389.90641084
 20
513.64565419
  0
VERTEX
  8
0
 10
390.18445409
 20
513.00886815
  0
VERTEX
  8
0
 10
390.49119693
 20
512.38619200
  0
VERTEX
  8
0
 10
390.82631413
 20
511.77915831
  0
VERTEX
  8
0
 10
391.18948044
 20
511.18929962
  0
VERTEX
  8
0
 10
391.58037060
 20
510.61814849
  0
VERTEX
  8
0
 10
391.99865938
 20
510.06723748
  0
VERTEX
  8
0
 10
392.44402152
 20
509.53809913
  0
VERTEX
  8
0
 10
392.91613178
 20
509.03226602
  0
VERTEX
  8
0
 10
393.41466492
 20
508.55127068
  0
VERTEX
  8
0
 10
393.93929568
 20
508.09664568
  0
VERTEX
  8
0
 10
394.48969883
 20
507.66992357
  0
VERTEX
  8
0
 10
395.06554910
 20
507.27263690
  0
VERTEX
  8
0
 10
407.01749359
 20
499.51289961
  0
SEQEND
  0
POLYLINE
  8
NÌvel_Padr„o
 66
   1
 39
0.000000
 70
    1
  0
VERTEX
  8
0
 10
431.35682072
 20
532.66913560
  0
VERTEX
  8
0
 10
431.34563591
 20
533.02423784
  0
VERTEX
  8
0
 10
431.28794102
 20
533.37339148
  0
VERTEX
  8
0
 10
431.18625490
 20
533.71180696
  0
VERTEX
  8
0
 10
431.04309639
 20
534.03469468
  0
VERTEX
  8
0
 10
430.86098435
 20
534.33726508
  0
VERTEX
  8
0
 10
430.64243761
 20
534.61472858
  0
VERTEX
  8
0
 10
430.38997503
 20
534.86229559
  0
VERTEX
  8
0
 10
430.10611544
 20
535.07517655
  0
VERTEX
  8
0
 10
418.15417094
 20
542.83491384
  0
VERTEX
  8
0
 10
417.92324197
 20
542.96603205
  0
VERTEX
  8
0
 10
417.69021943
 20
543.06248801
  0
VERTEX
  8
0
 10
417.45619874
 20
543.12597197
  0
VERTEX
  8
0
 10
417.22227528
 20
543.15817419
  0
VERTEX
  8
0
 10
416.98954444
 20
543.16078492
  0
VERTEX
  8
0
 10
416.75910162
 20
543.13549442
  0
VERTEX
  8
0
 10
416.53204220
 20
543.08399294
  0
VERTEX
  8
0
 10
416.30946157
 20
543.00797073
  0
VERTEX
  8
0
 10
416.09245514
 20
542.90911806
  0
VERTEX
  8
0
 10
415.88211829
 20
542.78912517
  0
VERTEX
  8
0
 10
415.67954641
 20
542.64968232
  0
VERTEX
  8
0
 10
415.48583490
 20
542.49247976
  0
VERTEX
  8
0
 10
415.30207914
 20
542.31920776
  0
VERTEX
  8
0
 10
415.12937453
 20
542.13155656
  0
VERTEX
  8
0
 10
414.96881646
 20
541.93121641
  0
VERTEX
  8
0
 10
414.82150033
 20
541.71987758
  0
VERTEX
  8
0
 10
414.68852152
 20
541.49923032
  0
VERTEX
  8
0
 10
414.57097542
 20
541.27096488
  0
VERTEX
  8
0
 10
414.46995743
 20
541.03677151
  0
VERTEX
  8
0
 10
414.38656294
 20
540.79834048
  0
VERTEX
  8
0
 10
414.32188734
 20
540.55736203
  0
VERTEX
  8
0
 10
414.27702603
 20
540.31552643
  0
VERTEX
  8
0
 10
414.25307438
 20
540.07452392
  0
VERTEX
  8
0
 10
414.25112781
 20
539.83604476
  0
VERTEX
  8
0
 10
414.27228169
 20
539.60177920
  0
VERTEX
  8
0
 10
414.31763143
 20
539.37341750
  0
VERTEX
  8
0
 10
414.38827240
 20
539.15264992
  0
VERTEX
  8
0
 10
414.48530001
 20
538.94116671
  0
VERTEX
  8
0
 10
414.60980964
 20
538.74065812
  0
VERTEX
  8
0
 10
414.76289670
 20
538.55281441
  0
VERTEX
  8
0
 10
414.94565656
 20
538.37932583
  0
VERTEX
  8
0
 10
415.15918462
 20
538.22188264
  0
VERTEX
  8
0
 10
427.11112911
 20
530.46214534
  0
VERTEX
  8
0
 10
427.42719925
 20
530.29083122
  0
VERTEX
  8
0
 10
427.75961518
 20
530.17282242
  0
VERTEX
  8
0
 10
428.10342526
 20
530.10553211
  0
VERTEX
  8
0
 10
428.45367783
 20
530.08637347
  0
VERTEX
  8
0
 10
428.80542124
 20
530.11275967
  0
VERTEX
  8
0
 10
429.15370382
 20
530.18210389
  0
VERTEX
  8
0
 10
429.49357394
 20
530.29181931
  0
VERTEX
  8
0
 10
429.82007992
 20
530.43931909
  0
VERTEX
  8
0
 10
430.12827013
 20
530.62201642
  0
VERTEX
  8
0
 10
430.41319290
 20
530.83732446
  0
VERTEX
  8
0
 10
430.66989658
 20
531.08265640
  0
VERTEX
  8
0
 10
430.89342951
 20
531.35542540
  0
VERTEX
  8
0
 10
431.07884005
 20
531.65304465
  0
VERTEX
  8
0
 10
431.22117653
 20
531.97292732
  0
VERTEX
  8
0
 10
431.31548731
 20
532.31248658
  0
VERTEX
  8
0
 10
431.35682072
 20
532.66913560
  0
SEQEND
  0
POLYLINE
  8
NÌvel_Padr„o
 66
   1
 39
0.000000
 70
    1
  0
VERTEX
  8
0
 10
506.78936475
 20
485.34238318
  0
VERTEX
  8
0
 10
506.55830737
 20
485.47327498
  0
VERTEX
  8
0
 10
506.32519041
 20
485.56950250
  0
VERTEX
  8
0
 10
506.09110761
 20
485.63275705
  0
VERTEX
  8
0
 10
505.85715270
 20
485.66472998
  0
VERTEX
  8
0
 10
505.62441941
 20
485.66711260
  0
VERTEX
  8
0
 10
505.39400148
 20
485.64159624
  0
VERTEX
  8
0
 10
505.16699265
 20
485.58987223
  0
VERTEX
  8
0
 10
504.94448665
 20
485.51363190
  0
VERTEX
  8
0
 10
504.72757721
 20
485.41456658
  0
VERTEX
  8
0
 10
504.51735807
 20
485.29436758
  0
VERTEX
  8
0
 10
504.31492296
 20
485.15472625
  0
VERTEX
  8
0
 10
504.12136563
 20
484.99733391
  0
VERTEX
  8
0
 10
503.93777979
 20
484.82388188
  0
VERTEX
  8
0
 10
503.76525919
 20
484.63606149
  0
VERTEX
  8
0
 10
503.60489756
 20
484.43556407
  0
VERTEX
  8
0
 10
503.45778864
 20
484.22408095
  0
VERTEX
  8
0
 10
503.32502615
 20
484.00330345
  0
VERTEX
  8
0
 10
503.20770385
 20
483.77492291
  0
VERTEX
  8
0
 10
503.10691545
 20
483.54063065
  0
VERTEX
  8
0
 10
503.02375470
 20
483.30211799
  0
VERTEX
  8
0
 10
502.95931532
 20
483.06107627
  0
VERTEX
  8
0
 10
502.91469106
 20
482.81919681
  0
VERTEX
  8
0
 10
502.89097565
 20
482.57817094
  0
VERTEX
  8
0
 10
502.88926282
 20
482.33968998
  0
VERTEX
  8
0
 10
502.91064631
 20
482.10544527
  0
VERTEX
  8
0
 10
502.95621985
 20
481.87712814
  0
VERTEX
  8
0
 10
503.02707717
 20
481.65642990
  0
VERTEX
  8
0
 10
503.12431202
 20
481.44504189
  0
VERTEX
  8
0
 10
503.24901812
 20
481.24465543
  0
VERTEX
  8
0
 10
503.40228921
 20
481.05696186
  0
VERTEX
  8
0
 10
503.58521903
 20
480.88365249
  0
VERTEX
  8
0
 10
503.79890131
 20
480.72641867
  0
VERTEX
  8
0
 10
515.75844572
 20
472.97839973
  0
VERTEX
  8
0
 10
516.07453553
 20
472.80745795
  0
VERTEX
  8
0
 10
516.40691386
 20
472.68977981
  0
VERTEX
  8
0
 10
516.75063674
 20
472.62277940
  0
VERTEX
  8
0
 10
517.10076018
 20
472.60387082
  0
VERTEX
  8
0
 10
517.45234020
 20
472.63046814
  0
VERTEX
  8
0
 10
517.80043282
 20
472.69998545
  0
VERTEX
  8
0
 10
518.14009407
 20
472.80983683
  0
VERTEX
  8
0
 10
518.46637994
 20
472.95743637
  0
VERTEX
  8
0
 10
518.77434647
 20
473.14019816
  0
VERTEX
  8
0
 10
519.05904966
 20
473.35553627
  0
VERTEX
  8
0
 10
519.31554555
 20
473.60086480
  0
VERTEX
  8
0
 10
519.53889014
 20
473.87359783
  0
VERTEX
  8
0
 10
519.72413945
 20
474.17114945
  0
VERTEX
  8
0
 10
519.86634950
 20
474.49093373
  0
VERTEX
  8
0
 10
519.96057631
 20
474.83036477
  0
VERTEX
  8
0
 10
520.00187589
 20
475.18685664
  0
VERTEX
  8
0
 10
519.99065562
 20
475.54229570
  0
VERTEX
  8
0
 10
519.93283584
 20
475.89176684
  0
VERTEX
  8
0
 10
519.83094478
 20
476.23046824
  0
VERTEX
  8
0
 10
519.68751071
 20
476.55359804
  0
VERTEX
  8
0
 10
519.50506186
 20
476.85635438
  0
VERTEX
  8
0
 10
519.28612649
 20
477.13393543
  0
VERTEX
  8
0
 10
519.03323285
 20
477.38153934
  0
VERTEX
  8
0
 10
518.74890917
 20
477.59436425
  0
VERTEX
  8
0
 10
506.78936475
 20
485.34238318
  0
SEQEND
  0
POLYLINE
  8
NÌvel_Padr„o
 66
   1
 39
0.000000
 70
    1
  0
VERTEX
  8
0
 10
479.16835691
 20
442.70765642
  0
VERTEX
  8
0
 10
478.93729953
 20
442.83854822
  0
VERTEX
  8
0
 10
478.70418257
 20
442.93477574
  0
VERTEX
  8
0
 10
478.47009977
 20
442.99803030
  0
VERTEX
  8
0
 10
478.23614486
 20
443.03000322
  0
VERTEX
  8
0
 10
478.00341157
 20
443.03238584
  0
VERTEX
  8
0
 10
477.77299364
 20
443.00686948
  0
VERTEX
  8
0
 10
477.54598481
 20
442.95514547
  0
VERTEX
  8
0
 10
477.32347881
 20
442.87890514
  0
VERTEX
  8
0
 10
477.10656937
 20
442.77983982
  0
VERTEX
  8
0
 10
476.89635023
 20
442.65964083
  0
VERTEX
  8
0
 10
476.69391512
 20
442.51999949
  0
VERTEX
  8
0
 10
476.50035778
 20
442.36260715
  0
VERTEX
  8
0
 10
476.31677195
 20
442.18915512
  0
VERTEX
  8
0
 10
476.14425135
 20
442.00133473
  0
VERTEX
  8
0
 10
475.98388972
 20
441.80083731
  0
VERTEX
  8
0
 10
475.83678079
 20
441.58935419
  0
VERTEX
  8
0
 10
475.70401831
 20
441.36857669
  0
VERTEX
  8
0
 10
475.58669601
 20
441.14019615
  0
VERTEX
  8
0
 10
475.48590761
 20
440.90590389
  0
VERTEX
  8
0
 10
475.40274685
 20
440.66739123
  0
VERTEX
  8
0
 10
475.33830748
 20
440.42634951
  0
VERTEX
  8
0
 10
475.29368322
 20
440.18447005
  0
VERTEX
  8
0
 10
475.26996781
 20
439.94344418
  0
VERTEX
  8
0
 10
475.26825498
 20
439.70496322
  0
VERTEX
  8
0
 10
475.28963847
 20
439.47071852
  0
VERTEX
  8
0
 10
475.33521200
 20
439.24240138
  0
VERTEX
  8
0
 10
475.40606933
 20
439.02170314
  0
VERTEX
  8
0
 10
475.50330418
 20
438.81031513
  0
VERTEX
  8
0
 10
475.62801028
 20
438.60992867
  0
VERTEX
  8
0
 10
475.78128137
 20
438.42223510
  0
VERTEX
  8
0
 10
475.96421119
 20
438.24892574
  0
VERTEX
  8
0
 10
476.17789346
 20
438.09169191
  0
VERTEX
  8
0
 10
488.13743788
 20
430.34367298
  0
VERTEX
  8
0
 10
488.45352768
 20
430.17273119
  0
VERTEX
  8
0
 10
488.78590601
 20
430.05505305
  0
VERTEX
  8
0
 10
489.12962889
 20
429.98805265
  0
VERTEX
  8
0
 10
489.47975234
 20
429.96914406
  0
VERTEX
  8
0
 10
489.83133236
 20
429.99574138
  0
VERTEX
  8
0
 10
490.17942498
 20
430.06525869
  0
VERTEX
  8
0
 10
490.51908622
 20
430.17511007
  0
VERTEX
  8
0
 10
490.84537210
 20
430.32270961
  0
VERTEX
  8
0
 10
491.15333862
 20
430.50547140
  0
VERTEX
  8
0
 10
491.43804182
 20
430.72080952
  0
VERTEX
  8
0
 10
491.69453770
 20
430.96613805
  0
VERTEX
  8
0
 10
491.91788229
 20
431.23887108
  0
VERTEX
  8
0
 10
492.10313160
 20
431.53642269
  0
VERTEX
  8
0
 10
492.24534166
 20
431.85620697
  0
VERTEX
  8
0
 10
492.33956847
 20
432.19563801
  0
VERTEX
  8
0
 10
492.38086805
 20
432.55212989
  0
VERTEX
  8
0
 10
492.36964778
 20
432.90756894
  0
VERTEX
  8
0
 10
492.31182799
 20
433.25704009
  0
VERTEX
  8
0
 10
492.20993694
 20
433.59574148
  0
VERTEX
  8
0
 10
492.06650287
 20
433.91887128
  0
VERTEX
  8
0
 10
491.88405402
 20
434.22162763
  0
VERTEX
  8
0
 10
491.66511865
 20
434.49920868
  0
VERTEX
  8
0
 10
491.41222500
 20
434.74681258
  0
VERTEX
  8
0
 10
491.12790133
 20
434.95963749
  0
VERTEX
  8
0
 10
479.16835691
 20
442.70765642
  0
SEQEND
  0
POLYLINE
  8
NÌvel_Padr„o
 66
   1
 39
0.000000
 70
    1
  0
VERTEX
  8
0
 10
403.69403795
 20
490.06150191
  0
VERTEX
  8
0
 10
403.68285313
 20
490.41660414
  0
VERTEX
  8
0
 10
403.62515824
 20
490.76575779
  0
VERTEX
  8
0
 10
403.52347212
 20
491.10417326
  0
VERTEX
  8
0
 10
403.38031362
 20
491.42706098
  0
VERTEX
  8
0
 10
403.19820158
 20
491.72963138
  0
VERTEX
  8
0
 10
402.97965484
 20
492.00709488
  0
VERTEX
  8
0
 10
402.72719225
 20
492.25466189
  0
VERTEX
  8
0
 10
402.44333266
 20
492.46754285
  0
VERTEX
  8
0
 10
390.49138817
 20
500.22728015
  0
VERTEX
  8
0
 10
390.26045919
 20
500.35839836
  0
VERTEX
  8
0
 10
390.02743666
 20
500.45485432
  0
VERTEX
  8
0
 10
389.79341597
 20
500.51833828
  0
VERTEX
  8
0
 10
389.55949251
 20
500.55054050
  0
VERTEX
  8
0
 10
389.32676167
 20
500.55315123
  0
VERTEX
  8
0
 10
389.09631884
 20
500.52786072
  0
VERTEX
  8
0
 10
388.86925942
 20
500.47635924
  0
VERTEX
  8
0
 10
388.64667880
 20
500.40033704
  0
VERTEX
  8
0
 10
388.42967237
 20
500.30148436
  0
VERTEX
  8
0
 10
388.21933552
 20
500.18149147
  0
VERTEX
  8
0
 10
388.01676364
 20
500.04204862
  0
VERTEX
  8
0
 10
387.82305212
 20
499.88484607
  0
VERTEX
  8
0
 10
387.63929637
 20
499.71157406
  0
VERTEX
  8
0
 10
387.46659176
 20
499.52392286
  0
VERTEX
  8
0
 10
387.30603369
 20
499.32358271
  0
VERTEX
  8
0
 10
387.15871755
 20
499.11224388
  0
VERTEX
  8
0
 10
387.02573874
 20
498.89159662
  0
VERTEX
  8
0
 10
386.90819265
 20
498.66333118
  0
VERTEX
  8
0
 10
386.80717466
 20
498.42913781
  0
VERTEX
  8
0
 10
386.72378017
 20
498.19070678
  0
VERTEX
  8
0
 10
386.65910457
 20
497.94972833
  0
VERTEX
  8
0
 10
386.61424325
 20
497.70789273
  0
VERTEX
  8
0
 10
386.59029161
 20
497.46689022
  0
VERTEX
  8
0
 10
386.58834504
 20
497.22841106
  0
VERTEX
  8
0
 10
386.60949892
 20
496.99414550
  0
VERTEX
  8
0
 10
386.65484865
 20
496.76578381
  0
VERTEX
  8
0
 10
386.72548963
 20
496.54501623
  0
VERTEX
  8
0
 10
386.82251724
 20
496.33353301
  0
VERTEX
  8
0
 10
386.94702687
 20
496.13302442
  0
VERTEX
  8
0
 10
387.10011392
 20
495.94518071
  0
VERTEX
  8
0
 10
387.28287378
 20
495.77169213
  0
VERTEX
  8
0
 10
387.49640185
 20
495.61424894
  0
VERTEX
  8
0
 10
399.44834634
 20
487.85451165
  0
VERTEX
  8
0
 10
399.76441647
 20
487.68319753
  0
VERTEX
  8
0
 10
400.09683241
 20
487.56518872
  0
VERTEX
  8
0
 10
400.44064249
 20
487.49789841
  0
VERTEX
  8
0
 10
400.79089506
 20
487.47873977
  0
VERTEX
  8
0
 10
401.14263846
 20
487.50512598
  0
VERTEX
  8
0
 10
401.49092105
 20
487.57447020
  0
VERTEX
  8
0
 10
401.83079116
 20
487.68418561
  0
VERTEX
  8
0
 10
402.15729715
 20
487.83168540
  0
VERTEX
  8
0
 10
402.46548735
 20
488.01438272
  0
VERTEX
  8
0
 10
402.75041012
 20
488.22969077
  0
VERTEX
  8
0
 10
403.00711380
 20
488.47502270
  0
VERTEX
  8
0
 10
403.23064674
 20
488.74779171
  0
VERTEX
  8
0
 10
403.41605727
 20
489.04541096
  0
VERTEX
  8
0
 10
403.55839376
 20
489.36529362
  0
VERTEX
  8
0
 10
403.65270453
 20
489.70485288
  0
VERTEX
  8
0
 10
403.69403795
 20
490.06150191
  0
SEQEND
  0
POLYLINE
  8
NÌvel_Padr„o
 66
   1
 39
0.000000
 70
    1
  0
VERTEX
  8
0
 10
388.46333273
 20
530.23373259
  0
VERTEX
  8
0
 10
388.45214791
 20
530.58883483
  0
VERTEX
  8
0
 10
388.39445302
 20
530.93798848
  0
VERTEX
  8
0
 10
388.29276690
 20
531.27640395
  0
VERTEX
  8
0
 10
388.14960840
 20
531.59929167
  0
VERTEX
  8
0
 10
387.96749636
 20
531.90186207
  0
VERTEX
  8
0
 10
387.74894962
 20
532.17932557
  0
VERTEX
  8
0
 10
387.49648703
 20
532.42689258
  0
VERTEX
  8
0
 10
387.21262744
 20
532.63977354
  0
VERTEX
  8
0
 10
378.82529797
 20
538.08520322
  0
VERTEX
  8
0
 10
378.59436900
 20
538.21632143
  0
VERTEX
  8
0
 10
378.36134647
 20
538.31277739
  0
VERTEX
  8
0
 10
378.12732577
 20
538.37626135
  0
VERTEX
  8
0
 10
377.89340231
 20
538.40846357
  0
VERTEX
  8
0
 10
377.66067147
 20
538.41107430
  0
VERTEX
  8
0
 10
377.43022865
 20
538.38578380
  0
VERTEX
  8
0
 10
377.20316923
 20
538.33428232
  0
VERTEX
  8
0
 10
376.98058861
 20
538.25826011
  0
VERTEX
  8
0
 10
376.76358217
 20
538.15940744
  0
VERTEX
  8
0
 10
376.55324532
 20
538.03941455
  0
VERTEX
  8
0
 10
376.35067344
 20
537.89997170
  0
VERTEX
  8
0
 10
376.15696193
 20
537.74276914
  0
VERTEX
  8
0
 10
375.97320617
 20
537.56949714
  0
VERTEX
  8
0
 10
375.80050156
 20
537.38184593
  0
VERTEX
  8
0
 10
375.63994350
 20
537.18150579
  0
VERTEX
  8
0
 10
375.49262736
 20
536.97016696
  0
VERTEX
  8
0
 10
375.35964855
 20
536.74951969
  0
VERTEX
  8
0
 10
375.24210245
 20
536.52125425
  0
VERTEX
  8
0
 10
375.14108446
 20
536.28706089
  0
VERTEX
  8
0
 10
375.05768997
 20
536.04862986
  0
VERTEX
  8
0
 10
374.99301437
 20
535.80765141
  0
VERTEX
  8
0
 10
374.94815306
 20
535.56581580
  0
VERTEX
  8
0
 10
374.92420141
 20
535.32481329
  0
VERTEX
  8
0
 10
374.92225484
 20
535.08633413
  0
VERTEX
  8
0
 10
374.94340872
 20
534.85206858
  0
VERTEX
  8
0
 10
374.98875846
 20
534.62370688
  0
VERTEX
  8
0
 10
375.05939943
 20
534.40293930
  0
VERTEX
  8
0
 10
375.15642704
 20
534.19145609
  0
VERTEX
  8
0
 10
375.28093668
 20
533.99094750
  0
VERTEX
  8
0
 10
375.43402373
 20
533.80310379
  0
VERTEX
  8
0
 10
375.61678359
 20
533.62961521
  0
VERTEX
  8
0
 10
375.83031165
 20
533.47217202
  0
VERTEX
  8
0
 10
384.21764112
 20
528.02674234
  0
VERTEX
  8
0
 10
384.53371126
 20
527.85542821
  0
VERTEX
  8
0
 10
384.86612719
 20
527.73741941
  0
VERTEX
  8
0
 10
385.20993727
 20
527.67012910
  0
VERTEX
  8
0
 10
385.56018984
 20
527.65097046
  0
VERTEX
  8
0
 10
385.91193325
 20
527.67735667
  0
VERTEX
  8
0
 10
386.26021583
 20
527.74670089
  0
VERTEX
  8
0
 10
386.60008595
 20
527.85641630
  0
VERTEX
  8
0
 10
386.92659193
 20
528.00391608
  0
VERTEX
  8
0
 10
387.23478214
 20
528.18661341
  0
VERTEX
  8
0
 10
387.51970490
 20
528.40192146
  0
VERTEX
  8
0
 10
387.77640858
 20
528.64725339
  0
VERTEX
  8
0
 10
387.99994152
 20
528.92002240
  0
VERTEX
  8
0
 10
388.18535205
 20
529.21764164
  0
VERTEX
  8
0
 10
388.32768854
 20
529.53752431
  0
VERTEX
  8
0
 10
388.42199931
 20
529.87708357
  0
VERTEX
  8
0
 10
388.46333273
 20
530.23373259
  0
SEQEND
  0
POLYLINE
  8
NÌvel_Padr„o
 66
   1
 39
0.000000
 70
    1
  0
VERTEX
  8
0
 10
519.06897381
 20
440.56913557
  0
VERTEX
  8
0
 10
527.46163655
 20
435.13192930
  0
VERTEX
  8
0
 10
527.64616107
 20
435.02235899
  0
VERTEX
  8
0
 10
527.83774543
 20
434.92792358
  0
VERTEX
  8
0
 10
528.03545697
 20
434.84886725
  0
VERTEX
  8
0
 10
528.23836304
 20
434.78543421
  0
VERTEX
  8
0
 10
528.44553098
 20
434.73786862
  0
VERTEX
  8
0
 10
528.65602814
 20
434.70641468
  0
VERTEX
  8
0
 10
528.86892187
 20
434.69131658
  0
VERTEX
  8
0
 10
529.08327949
 20
434.69281851
  0
VERTEX
  8
0
 10
529.73992546
 20
435.60198807
  0
VERTEX
  8
0
 10
530.36355255
 20
436.53245815
  0
VERTEX
  8
0
 10
530.95416076
 20
437.48422873
  0
VERTEX
  8
0
 10
531.51175010
 20
438.45729983
  0
VERTEX
  8
0
 10
531.42523604
 20
438.65221264
  0
VERTEX
  8
0
 10
531.32438253
 20
438.83898096
  0
VERTEX
  8
0
 10
531.20979611
 20
439.01687866
  0
VERTEX
  8
0
 10
531.08208336
 20
439.18517963
  0
VERTEX
  8
0
 10
530.94185081
 20
439.34315774
  0
VERTEX
  8
0
 10
530.78970503
 20
439.49008689
  0
VERTEX
  8
0
 10
530.62625258
 20
439.62524095
  0
VERTEX
  8
0
 10
530.45210000
 20
439.74789381
  0
VERTEX
  8
0
 10
522.05943725
 20
445.18510008
  0
VERTEX
  8
0
 10
521.82837987
 20
445.31599188
  0
VERTEX
  8
0
 10
521.59526291
 20
445.41221940
  0
VERTEX
  8
0
 10
521.36118011
 20
445.47547396
  0
VERTEX
  8
0
 10
521.12722520
 20
445.50744688
  0
VERTEX
  8
0
 10
520.89449191
 20
445.50982950
  0
VERTEX
  8
0
 10
520.66407398
 20
445.48431314
  0
VERTEX
  8
0
 10
520.43706515
 20
445.43258913
  0
VERTEX
  8
0
 10
520.21455915
 20
445.35634880
  0
VERTEX
  8
0
 10
519.99764971
 20
445.25728348
  0
VERTEX
  8
0
 10
519.78743057
 20
445.13708449
  0
VERTEX
  8
0
 10
519.58499546
 20
444.99744315
  0
VERTEX
  8
0
 10
519.39143813
 20
444.84005081
  0
VERTEX
  8
0
 10
519.20785229
 20
444.66659878
  0
VERTEX
  8
0
 10
519.03533169
 20
444.47877839
  0
VERTEX
  8
0
 10
518.87497006
 20
444.27828097
  0
VERTEX
  8
0
 10
518.72786114
 20
444.06679785
  0
VERTEX
  8
0
 10
518.59509865
 20
443.84602035
  0
VERTEX
  8
0
 10
518.47777635
 20
443.61763981
  0
VERTEX
  8
0
 10
518.37698795
 20
443.38334755
  0
VERTEX
  8
0
 10
518.29382720
 20
443.14483489
  0
VERTEX
  8
0
 10
518.22938782
 20
442.90379317
  0
VERTEX
  8
0
 10
518.18476356
 20
442.66191371
  0
VERTEX
  8
0
 10
518.16104815
 20
442.42088784
  0
VERTEX
  8
0
 10
518.15933532
 20
442.18240688
  0
VERTEX
  8
0
 10
518.18071881
 20
441.94816218
  0
VERTEX
  8
0
 10
518.22629235
 20
441.71984504
  0
VERTEX
  8
0
 10
518.29714967
 20
441.49914680
  0
VERTEX
  8
0
 10
518.39438452
 20
441.28775879
  0
VERTEX
  8
0
 10
518.51909062
 20
441.08737233
  0
VERTEX
  8
0
 10
518.67236171
 20
440.89967876
  0
VERTEX
  8
0
 10
518.85529153
 20
440.72636940
  0
VERTEX
  8
0
 10
519.06897381
 20
440.56913557
  0
SEQEND
  0
POLYLINE
  8
NÌvel_Padr„o
 66
   1
 39
0.000000
 70
    1
  0
VERTEX
  8
0
 10
642.93387618
 20
522.30229129
  0
VERTEX
  8
0
 10
642.93387618
 20
522.30329129
  0
VERTEX
  8
0
 10
642.93487618
 20
522.30329129
  0
VERTEX
  8
0
 10
642.93487618
 20
522.30229129
  0
VERTEX
  8
0
 10
642.93387618
 20
522.30229129
  0
SEQEND
  0
POLYLINE
  8
NÌvel_Padr„o
 66
   1
 39
0.000000
 70
    1
  0
VERTEX
  8
0
 10
615.14937508
 20
518.98915217
  0
VERTEX
  8
0
 10
615.35655370
 20
519.04567629
  0
VERTEX
  8
0
 10
616.03065107
 20
519.26736143
  0
VERTEX
  8
0
 10
616.69317461
 20
519.52284981
  0
VERTEX
  8
0
 10
617.16500439
 20
519.72787571
  0
VERTEX
  8
0
 10
617.62968891
 20
519.94966239
  0
VERTEX
  8
0
 10
618.08675379
 20
520.18776988
  0
VERTEX
  8
0
 10
618.53572464
 20
520.44175821
  0
VERTEX
  8
0
 10
618.97612708
 20
520.71118742
  0
VERTEX
  8
0
 10
619.40748672
 20
520.99561753
  0
VERTEX
  8
0
 10
619.82932918
 20
521.29460856
  0
VERTEX
  8
0
 10
620.24118008
 20
521.60772055
  0
VERTEX
  8
0
 10
620.64256504
 20
521.93451353
  0
VERTEX
  8
0
 10
621.03300966
 20
522.27454752
  0
VERTEX
  8
0
 10
621.41203957
 20
522.62738255
  0
VERTEX
  8
0
 10
621.77918038
 20
522.99257865
  0
VERTEX
  8
0
 10
622.13395770
 20
523.36969584
  0
VERTEX
  8
0
 10
622.47589716
 20
523.75829417
  0
VERTEX
  8
0
 10
622.80452437
 20
524.15793365
  0
VERTEX
  8
0
 10
623.11936495
 20
524.56817432
  0
VERTEX
  8
0
 10
623.41994450
 20
524.98857620
  0
VERTEX
  8
0
 10
623.70578866
 20
525.41869932
  0
VERTEX
  8
0
 10
623.97642303
 20
525.85810371
  0
VERTEX
  8
0
 10
624.23137323
 20
526.30634940
  0
VERTEX
  8
0
 10
624.47016488
 20
526.76299641
  0
VERTEX
  8
0
 10
624.69232358
 20
527.22760478
  0
VERTEX
  8
0
 10
624.89737497
 20
527.69973453
  0
VERTEX
  8
0
 10
625.08484465
 20
528.17894570
  0
VERTEX
  8
0
 10
625.25425825
 20
528.66479830
  0
VERTEX
  8
0
 10
625.40514137
 20
529.15685238
  0
VERTEX
  8
0
 10
625.53701963
 20
529.65466795
  0
VERTEX
  8
0
 10
625.64941866
 20
530.15780505
  0
VERTEX
  8
0
 10
625.74186406
 20
530.66582370
  0
VERTEX
  8
0
 10
625.81388145
 20
531.17828393
  0
VERTEX
  8
0
 10
625.86499644
 20
531.69474578
  0
VERTEX
  8
0
 10
625.89473467
 20
532.21476927
  0
VERTEX
  8
0
 10
625.90266300
 20
532.73079129
  0
VERTEX
  8
0
 10
625.88770348
 20
533.28169498
  0
VERTEX
  8
0
 10
625.84894976
 20
533.82975647
  0
VERTEX
  8
0
 10
625.78692766
 20
534.37441171
  0
VERTEX
  8
0
 10
625.70216302
 20
534.91509666
  0
VERTEX
  8
0
 10
625.59518163
 20
535.45124729
  0
VERTEX
  8
0
 10
625.46650934
 20
535.98229954
  0
VERTEX
  8
0
 10
625.31667194
 20
536.50768939
  0
VERTEX
  8
0
 10
625.14619527
 20
537.02685278
  0
VERTEX
  8
0
 10
624.95560514
 20
537.53922567
  0
VERTEX
  8
0
 10
624.74542737
 20
538.04424402
  0
VERTEX
  8
0
 10
624.51618779
 20
538.54134380
  0
VERTEX
  8
0
 10
624.26841220
 20
539.02996096
  0
VERTEX
  8
0
 10
624.00262644
 20
539.50953145
  0
VERTEX
  8
0
 10
623.71935632
 20
539.97949124
  0
VERTEX
  8
0
 10
623.41912766
 20
540.43927628
  0
VERTEX
  8
0
 10
623.10246627
 20
540.88832253
  0
VERTEX
  8
0
 10
622.76989799
 20
541.32606596
  0
VERTEX
  8
0
 10
622.42194862
 20
541.75194251
  0
VERTEX
  8
0
 10
622.05914399
 20
542.16538815
  0
VERTEX
  8
0
 10
621.68200992
 20
542.56583883
  0
VERTEX
  8
0
 10
621.29107223
 20
542.95273052
  0
VERTEX
  8
0
 10
620.88685673
 20
543.32549916
  0
VERTEX
  8
0
 10
620.46988925
 20
543.68358073
  0
VERTEX
  8
0
 10
620.04069561
 20
544.02641117
  0
VERTEX
  8
0
 10
619.59980162
 20
544.35342645
  0
VERTEX
  8
0
 10
619.14773310
 20
544.66406253
  0
VERTEX
  8
0
 10
618.68501588
 20
544.95775535
  0
VERTEX
  8
0
 10
618.21217578
 20
545.23394089
  0
VERTEX
  8
0
 10
617.72973860
 20
545.49205510
  0
VERTEX
  8
0
 10
617.23823018
 20
545.73153393
  0
VERTEX
  8
0
 10
616.73817633
 20
545.95181334
  0
VERTEX
  8
0
 10
616.23010288
 20
546.15232931
  0
VERTEX
  8
0
 10
615.74053354
 20
546.32388122
  0
VERTEX
  8
0
 10
615.24503417
 20
546.47658353
  0
VERTEX
  8
0
 10
615.05970735
 20
546.52592398
  0
VERTEX
  8
0
 10
614.74400271
 20
546.60997554
  0
VERTEX
  8
0
 10
614.23783711
 20
546.72359654
  0
VERTEX
  8
0
 10
613.72693531
 20
546.81698581
  0
VERTEX
  8
0
 10
613.21169527
 20
546.88968265
  0
VERTEX
  8
0
 10
612.69251492
 20
546.94122634
  0
VERTEX
  8
0
 10
612.16979223
 20
546.97115619
  0
VERTEX
  8
0
 10
611.47034132
 20
546.97681026
  0
VERTEX
  8
0
 10
610.77478907
 20
546.94376328
  0
VERTEX
  8
0
 10
610.08428312
 20
546.87308176
  0
VERTEX
  8
0
 10
609.39997110
 20
546.76583219
  0
VERTEX
  8
0
 10
608.72300067
 20
546.62308108
  0
VERTEX
  8
0
 10
608.05451947
 20
546.44589492
  0
VERTEX
  8
0
 10
607.39567513
 20
546.23534023
  0
VERTEX
  8
0
 10
606.74761531
 20
545.99248349
  0
VERTEX
  8
0
 10
606.11148764
 20
545.71839122
  0
VERTEX
  8
0
 10
605.48843977
 20
545.41412991
  0
VERTEX
  8
0
 10
604.87961935
 20
545.08076606
  0
VERTEX
  8
0
 10
604.28617400
 20
544.71936619
  0
VERTEX
  8
0
 10
603.70925139
 20
544.33099678
  0
VERTEX
  8
0
 10
603.14999915
 20
543.91672434
  0
VERTEX
  8
0
 10
602.60956492
 20
543.47761537
  0
VERTEX
  8
0
 10
602.08909634
 20
543.01473637
  0
VERTEX
  8
0
 10
601.58974107
 20
542.52915384
  0
VERTEX
  8
0
 10
601.11264674
 20
542.02193429
  0
VERTEX
  8
0
 10
600.65896100
 20
541.49414422
  0
VERTEX
  8
0
 10
600.22983148
 20
540.94685012
  0
VERTEX
  8
0
 10
599.82640584
 20
540.38111851
  0
VERTEX
  8
0
 10
599.44983172
 20
539.79801587
  0
VERTEX
  8
0
 10
599.10125675
 20
539.19860872
  0
VERTEX
  8
0
 10
598.78182859
 20
538.58396354
  0
VERTEX
  8
0
 10
598.49269487
 20
537.95514686
  0
VERTEX
  8
0
 10
598.23500323
 20
537.31322516
  0
VERTEX
  8
0
 10
598.00990133
 20
536.65926495
  0
VERTEX
  8
0
 10
597.81853681
 20
535.99433272
  0
VERTEX
  8
0
 10
597.66205730
 20
535.31949499
  0
VERTEX
  8
0
 10
597.54161045
 20
534.63581825
  0
VERTEX
  8
0
 10
597.45834390
 20
533.94436900
  0
VERTEX
  8
0
 10
597.41340530
 20
533.24621375
  0
VERTEX
  8
0
 10
597.40547761
 20
532.73079129
  0
VERTEX
  8
0
 10
597.42742222
 20
532.04972826
  0
VERTEX
  8
0
 10
597.48559400
 20
531.37321132
  0
VERTEX
  8
0
 10
597.57899739
 20
530.70230864
  0
VERTEX
  8
0
 10
597.70663681
 20
530.03808842
  0
VERTEX
  8
0
 10
597.86751669
 20
529.38161884
  0
VERTEX
  8
0
 10
598.06064146
 20
528.73396808
  0
VERTEX
  8
0
 10
598.28501554
 20
528.09620433
  0
VERTEX
  8
0
 10
598.53964338
 20
527.46939576
  0
VERTEX
  8
0
 10
598.82352938
 20
526.85461058
  0
VERTEX
  8
0
 10
599.13567799
 20
526.25291695
  0
VERTEX
  8
0
 10
599.47509362
 20
525.66538307
  0
VERTEX
  8
0
 10
599.84078071
 20
525.09307711
  0
VERTEX
  8
0
 10
600.23174369
 20
524.53706727
  0
VERTEX
  8
0
 10
600.64698698
 20
523.99842172
  0
VERTEX
  8
0
 10
601.08551501
 20
523.47820866
  0
VERTEX
  8
0
 10
601.54633221
 20
522.97749626
  0
VERTEX
  8
0
 10
602.02844301
 20
522.49735272
  0
VERTEX
  8
0
 10
602.53085183
 20
522.03884620
  0
VERTEX
  8
0
 10
603.05256311
 20
521.60304491
  0
VERTEX
  8
0
 10
603.59258127
 20
521.19101702
  0
VERTEX
  8
0
 10
604.14991074
 20
520.80383071
  0
VERTEX
  8
0
 10
604.72355594
 20
520.44255418
  0
VERTEX
  8
0
 10
605.31252131
 20
520.10825560
  0
VERTEX
  8
0
 10
605.91581128
 20
519.80200316
  0
VERTEX
  8
0
 10
606.53243027
 20
519.52486505
  0
VERTEX
  8
0
 10
607.16138270
 20
519.27790945
  0
VERTEX
  8
0
 10
607.80167302
 20
519.06220454
  0
VERTEX
  8
0
 10
608.45230564
 20
518.87881850
  0
VERTEX
  8
0
 10
609.11228499
 20
518.72881953
  0
VERTEX
  8
0
 10
609.78061551
 20
518.61327580
  0
VERTEX
  8
0
 10
610.45630162
 20
518.53325551
  0
VERTEX
  8
0
 10
611.13834774
 20
518.48982683
  0
VERTEX
  8
0
 10
611.85585232
 20
518.48454502
  0
VERTEX
  8
0
 10
612.56922187
 20
518.51996574
  0
VERTEX
  8
0
 10
613.27721658
 20
518.59493911
  0
VERTEX
  8
0
 10
613.97859665
 20
518.70831525
  0
VERTEX
  8
0
 10
614.67212229
 20
518.85894427
  0
VERTEX
  8
0
 10
615.14937508
 20
518.98915217
  0
SEQEND
  0
POLYLINE
  8
NÌvel_Padr„o
 66
   1
 39
0.000000
 70
    1
  0
VERTEX
  8
0
 10
598.45602259
 20
553.74671251
  0
VERTEX
  8
0
 10
598.46073577
 20
553.54394819
  0
VERTEX
  8
0
 10
598.48897845
 20
553.35341908
  0
VERTEX
  8
0
 10
598.53921351
 20
553.17517917
  0
VERTEX
  8
0
 10
598.60990379
 20
553.00928244
  0
VERTEX
  8
0
 10
598.69951217
 20
552.85578288
  0
VERTEX
  8
0
 10
598.80650150
 20
552.71473449
  0
VERTEX
  8
0
 10
598.92933464
 20
552.58619126
  0
VERTEX
  8
0
 10
599.06647445
 20
552.47020718
  0
VERTEX
  8
0
 10
599.21638381
 20
552.36683623
  0
VERTEX
  8
0
 10
599.37752555
 20
552.27613242
  0
VERTEX
  8
0
 10
599.54836256
 20
552.19814973
  0
VERTEX
  8
0
 10
599.72735769
 20
552.13294215
  0
VERTEX
  8
0
 10
600.10367373
 20
552.04106829
  0
VERTEX
  8
0
 10
600.49417659
 20
552.00094277
  0
VERTEX
  8
0
 10
600.88656914
 20
552.01299752
  0
VERTEX
  8
0
 10
601.26855428
 20
552.07766446
  0
VERTEX
  8
0
 10
601.45180122
 20
552.12986248
  0
VERTEX
  8
0
 10
601.62783489
 20
552.19537553
  0
VERTEX
  8
0
 10
601.79511815
 20
552.27425758
  0
VERTEX
  8
0
 10
601.95211386
 20
552.36656264
  0
VERTEX
  8
0
 10
602.09728489
 20
552.47234470
  0
VERTEX
  8
0
 10
602.22909408
 20
552.59165774
  0
VERTEX
  8
0
 10
602.34600431
 20
552.72455575
  0
VERTEX
  8
0
 10
602.44647844
 20
552.87109274
  0
VERTEX
  8
0
 10
602.52897933
 20
553.03132268
  0
VERTEX
  8
0
 10
602.59196983
 20
553.20529957
  0
VERTEX
  8
0
 10
602.63391281
 20
553.39307740
  0
VERTEX
  8
0
 10
602.65327113
 20
553.59471016
  0
VERTEX
  8
0
 10
602.64855795
 20
553.79747447
  0
VERTEX
  8
0
 10
602.62031526
 20
553.98800358
  0
VERTEX
  8
0
 10
602.57008021
 20
554.16624350
  0
VERTEX
  8
0
 10
602.49938993
 20
554.33214023
  0
VERTEX
  8
0
 10
602.40978155
 20
554.48563979
  0
VERTEX
  8
0
 10
602.30279222
 20
554.62668818
  0
VERTEX
  8
0
 10
602.17995908
 20
554.75523141
  0
VERTEX
  8
0
 10
602.04281926
 20
554.87121549
  0
VERTEX
  8
0
 10
601.89290991
 20
554.97458643
  0
VERTEX
  8
0
 10
601.73176816
 20
555.06529025
  0
VERTEX
  8
0
 10
601.56093116
 20
555.14327294
  0
VERTEX
  8
0
 10
601.38193603
 20
555.20848052
  0
VERTEX
  8
0
 10
601.00561998
 20
555.30035438
  0
VERTEX
  8
0
 10
600.61511712
 20
555.34047990
  0
VERTEX
  8
0
 10
600.22272457
 20
555.32842515
  0
VERTEX
  8
0
 10
599.84073943
 20
555.26375820
  0
VERTEX
  8
0
 10
599.65749249
 20
555.21156018
  0
VERTEX
  8
0
 10
599.48145882
 20
555.14604714
  0
VERTEX
  8
0
 10
599.31417556
 20
555.06716508
  0
VERTEX
  8
0
 10
599.15717985
 20
554.97486002
  0
VERTEX
  8
0
 10
599.01200883
 20
554.86907797
  0
VERTEX
  8
0
 10
598.88019963
 20
554.74976493
  0
VERTEX
  8
0
 10
598.76328940
 20
554.61686691
  0
VERTEX
  8
0
 10
598.66281527
 20
554.47032993
  0
VERTEX
  8
0
 10
598.58031439
 20
554.31009999
  0
VERTEX
  8
0
 10
598.51732389
 20
554.13612310
  0
VERTEX
  8
0
 10
598.47538091
 20
553.94834527
  0
VERTEX
  8
0
 10
598.45602259
 20
553.74671251
  0
SEQEND
  0
POLYLINE
  8
NÌvel_Padr„o
 66
   1
 39
0.000000
 70
    1
  0
VERTEX
  8
0
 10
620.65486884
 20
511.86627286
  0
VERTEX
  8
0
 10
620.65958202
 20
511.66350855
  0
VERTEX
  8
0
 10
620.68782470
 20
511.47297944
  0
VERTEX
  8
0
 10
620.73805976
 20
511.29473952
  0
VERTEX
  8
0
 10
620.80875004
 20
511.12884279
  0
VERTEX
  8
0
 10
620.89835842
 20
510.97534323
  0
VERTEX
  8
0
 10
621.00534775
 20
510.83429484
  0
VERTEX
  8
0
 10
621.12818089
 20
510.70575161
  0
VERTEX
  8
0
 10
621.26532071
 20
510.58976753
  0
VERTEX
  8
0
 10
621.41523006
 20
510.48639658
  0
VERTEX
  8
0
 10
621.57637181
 20
510.39569277
  0
VERTEX
  8
0
 10
621.74720881
 20
510.31771008
  0
VERTEX
  8
0
 10
621.92620394
 20
510.25250250
  0
VERTEX
  8
0
 10
622.30251999
 20
510.16062864
  0
VERTEX
  8
0
 10
622.69302284
 20
510.12050312
  0
VERTEX
  8
0
 10
623.08541540
 20
510.13255787
  0
VERTEX
  8
0
 10
623.46740053
 20
510.19722481
  0
VERTEX
  8
0
 10
623.65064747
 20
510.24942284
  0
VERTEX
  8
0
 10
623.82668114
 20
510.31493588
  0
VERTEX
  8
0
 10
623.99396440
 20
510.39381794
  0
VERTEX
  8
0
 10
624.15096012
 20
510.48612300
  0
VERTEX
  8
0
 10
624.29613114
 20
510.59190505
  0
VERTEX
  8
0
 10
624.42794034
 20
510.71121809
  0
VERTEX
  8
0
 10
624.54485057
 20
510.84411611
  0
VERTEX
  8
0
 10
624.64532469
 20
510.99065309
  0
VERTEX
  8
0
 10
624.72782558
 20
511.15088303
  0
VERTEX
  8
0
 10
624.79081608
 20
511.32485992
  0
VERTEX
  8
0
 10
624.83275906
 20
511.51263775
  0
VERTEX
  8
0
 10
624.85211738
 20
511.71427051
  0
VERTEX
  8
0
 10
624.84740420
 20
511.91703483
  0
VERTEX
  8
0
 10
624.81916152
 20
512.10756394
  0
VERTEX
  8
0
 10
624.76892646
 20
512.28580385
  0
VERTEX
  8
0
 10
624.69823618
 20
512.45170058
  0
VERTEX
  8
0
 10
624.60862780
 20
512.60520014
  0
VERTEX
  8
0
 10
624.50163847
 20
512.74624853
  0
VERTEX
  8
0
 10
624.37880533
 20
512.87479176
  0
VERTEX
  8
0
 10
624.24166551
 20
512.99077584
  0
VERTEX
  8
0
 10
624.09175616
 20
513.09414679
  0
VERTEX
  8
0
 10
623.93061441
 20
513.18485060
  0
VERTEX
  8
0
 10
623.75977741
 20
513.26283329
  0
VERTEX
  8
0
 10
623.58078228
 20
513.32804087
  0
VERTEX
  8
0
 10
623.20446623
 20
513.41991473
  0
VERTEX
  8
0
 10
622.81396338
 20
513.46004025
  0
VERTEX
  8
0
 10
622.42157082
 20
513.44798550
  0
VERTEX
  8
0
 10
622.03958569
 20
513.38331856
  0
VERTEX
  8
0
 10
621.85633875
 20
513.33112053
  0
VERTEX
  8
0
 10
621.68030508
 20
513.26560749
  0
VERTEX
  8
0
 10
621.51302182
 20
513.18672543
  0
VERTEX
  8
0
 10
621.35602611
 20
513.09442037
  0
VERTEX
  8
0
 10
621.21085508
 20
512.98863832
  0
VERTEX
  8
0
 10
621.07904589
 20
512.86932528
  0
VERTEX
  8
0
 10
620.96213565
 20
512.73642726
  0
VERTEX
  8
0
 10
620.86166153
 20
512.58989028
  0
VERTEX
  8
0
 10
620.77916064
 20
512.42966034
  0
VERTEX
  8
0
 10
620.71617014
 20
512.25568345
  0
VERTEX
  8
0
 10
620.67422716
 20
512.06790562
  0
VERTEX
  8
0
 10
620.65486884
 20
511.86627286
  0
SEQEND
  0
POLYLINE
  8
NÌvel_Padr„o
 66
   1
 39
0.000000
 70
    1
  0
VERTEX
  8
0
 10
596.97039495
 20
512.72400037
  0
VERTEX
  8
0
 10
596.97510813
 20
512.52123606
  0
VERTEX
  8
0
 10
597.00335081
 20
512.33070695
  0
VERTEX
  8
0
 10
597.05358587
 20
512.15246704
  0
VERTEX
  8
0
 10
597.12427615
 20
511.98657030
  0
VERTEX
  8
0
 10
597.21388453
 20
511.83307075
  0
VERTEX
  8
0
 10
597.32087386
 20
511.69202236
  0
VERTEX
  8
0
 10
597.44370700
 20
511.56347913
  0
VERTEX
  8
0
 10
597.58084682
 20
511.44749505
  0
VERTEX
  8
0
 10
597.73075617
 20
511.34412410
  0
VERTEX
  8
0
 10
597.89189792
 20
511.25342029
  0
VERTEX
  8
0
 10
598.06273492
 20
511.17543760
  0
VERTEX
  8
0
 10
598.24173005
 20
511.11023002
  0
VERTEX
  8
0
 10
598.61804610
 20
511.01835616
  0
VERTEX
  8
0
 10
599.00854895
 20
510.97823064
  0
VERTEX
  8
0
 10
599.40094151
 20
510.99028539
  0
VERTEX
  8
0
 10
599.78292664
 20
511.05495233
  0
VERTEX
  8
0
 10
599.96617358
 20
511.10715035
  0
VERTEX
  8
0
 10
600.14220725
 20
511.17266340
  0
VERTEX
  8
0
 10
600.30949051
 20
511.25154545
  0
VERTEX
  8
0
 10
600.46648622
 20
511.34385051
  0
VERTEX
  8
0
 10
600.61165725
 20
511.44963257
  0
VERTEX
  8
0
 10
600.74346644
 20
511.56894561
  0
VERTEX
  8
0
 10
600.86037668
 20
511.70184362
  0
VERTEX
  8
0
 10
600.96085080
 20
511.84838061
  0
VERTEX
  8
0
 10
601.04335169
 20
512.00861055
  0
VERTEX
  8
0
 10
601.10634219
 20
512.18258744
  0
VERTEX
  8
0
 10
601.14828517
 20
512.37036527
  0
VERTEX
  8
0
 10
601.16764349
 20
512.57199803
  0
VERTEX
  8
0
 10
601.16293031
 20
512.77476234
  0
VERTEX
  8
0
 10
601.13468763
 20
512.96529145
  0
VERTEX
  8
0
 10
601.08445257
 20
513.14353137
  0
VERTEX
  8
0
 10
601.01376229
 20
513.30942810
  0
VERTEX
  8
0
 10
600.92415391
 20
513.46292766
  0
VERTEX
  8
0
 10
600.81716458
 20
513.60397604
  0
VERTEX
  8
0
 10
600.69433144
 20
513.73251928
  0
VERTEX
  8
0
 10
600.55719162
 20
513.84850336
  0
VERTEX
  8
0
 10
600.40728227
 20
513.95187430
  0
VERTEX
  8
0
 10
600.24614052
 20
514.04257812
  0
VERTEX
  8
0
 10
600.07530352
 20
514.12056081
  0
VERTEX
  8
0
 10
599.89630839
 20
514.18576839
  0
VERTEX
  8
0
 10
599.51999234
 20
514.27764225
  0
VERTEX
  8
0
 10
599.12948949
 20
514.31776777
  0
VERTEX
  8
0
 10
598.73709693
 20
514.30571302
  0
VERTEX
  8
0
 10
598.35511180
 20
514.24104607
  0
VERTEX
  8
0
 10
598.17186486
 20
514.18884805
  0
VERTEX
  8
0
 10
597.99583119
 20
514.12333501
  0
VERTEX
  8
0
 10
597.82854793
 20
514.04445295
  0
VERTEX
  8
0
 10
597.67155221
 20
513.95214789
  0
VERTEX
  8
0
 10
597.52638119
 20
513.84636584
  0
VERTEX
  8
0
 10
597.39457199
 20
513.72705280
  0
VERTEX
  8
0
 10
597.27766176
 20
513.59415478
  0
VERTEX
  8
0
 10
597.17718764
 20
513.44761780
  0
VERTEX
  8
0
 10
597.09468675
 20
513.28738786
  0
VERTEX
  8
0
 10
597.03169625
 20
513.11341097
  0
VERTEX
  8
0
 10
596.98975327
 20
512.92563314
  0
VERTEX
  8
0
 10
596.97039495
 20
512.72400037
  0
SEQEND
  0
POLYLINE
  8
NÌvel_Padr„o
 66
   1
 39
0.000000
 70
    1
  0
VERTEX
  8
0
 10
585.87097182
 20
533.66422020
  0
VERTEX
  8
0
 10
585.87568500
 20
533.46145589
  0
VERTEX
  8
0
 10
585.90392769
 20
533.27092678
  0
VERTEX
  8
0
 10
585.95416274
 20
533.09268686
  0
VERTEX
  8
0
 10
586.02485303
 20
532.92679013
  0
VERTEX
  8
0
 10
586.11446140
 20
532.77329057
  0
VERTEX
  8
0
 10
586.22145073
 20
532.63224218
  0
VERTEX
  8
0
 10
586.34428387
 20
532.50369895
  0
VERTEX
  8
0
 10
586.48142369
 20
532.38771487
  0
VERTEX
  8
0
 10
586.63133304
 20
532.28434393
  0
VERTEX
  8
0
 10
586.79247479
 20
532.19364011
  0
VERTEX
  8
0
 10
586.96331180
 20
532.11565742
  0
VERTEX
  8
0
 10
587.14230692
 20
532.05044984
  0
VERTEX
  8
0
 10
587.51862297
 20
531.95857598
  0
VERTEX
  8
0
 10
587.90912583
 20
531.91845046
  0
VERTEX
  8
0
 10
588.30151838
 20
531.93050521
  0
VERTEX
  8
0
 10
588.68350352
 20
531.99517216
  0
VERTEX
  8
0
 10
588.86675046
 20
532.04737018
  0
VERTEX
  8
0
 10
589.04278413
 20
532.11288322
  0
VERTEX
  8
0
 10
589.21006739
 20
532.19176528
  0
VERTEX
  8
0
 10
589.36706310
 20
532.28407034
  0
VERTEX
  8
0
 10
589.51223412
 20
532.38985239
  0
VERTEX
  8
0
 10
589.64404332
 20
532.50916543
  0
VERTEX
  8
0
 10
589.76095355
 20
532.64206345
  0
VERTEX
  8
0
 10
589.86142768
 20
532.78860043
  0
VERTEX
  8
0
 10
589.94392856
 20
532.94883037
  0
VERTEX
  8
0
 10
590.00691906
 20
533.12280726
  0
VERTEX
  8
0
 10
590.04886204
 20
533.31058509
  0
VERTEX
  8
0
 10
590.06822036
 20
533.51221785
  0
VERTEX
  8
0
 10
590.06350718
 20
533.71498217
  0
VERTEX
  8
0
 10
590.03526450
 20
533.90551128
  0
VERTEX
  8
0
 10
589.98502944
 20
534.08375119
  0
VERTEX
  8
0
 10
589.91433916
 20
534.24964792
  0
VERTEX
  8
0
 10
589.82473078
 20
534.40314748
  0
VERTEX
  8
0
 10
589.71774146
 20
534.54419587
  0
VERTEX
  8
0
 10
589.59490831
 20
534.67273910
  0
VERTEX
  8
0
 10
589.45776850
 20
534.78872318
  0
VERTEX
  8
0
 10
589.30785915
 20
534.89209413
  0
VERTEX
  8
0
 10
589.14671740
 20
534.98279794
  0
VERTEX
  8
0
 10
588.97588039
 20
535.06078063
  0
VERTEX
  8
0
 10
588.79688527
 20
535.12598821
  0
VERTEX
  8
0
 10
588.42056922
 20
535.21786207
  0
VERTEX
  8
0
 10
588.03006636
 20
535.25798759
  0
VERTEX
  8
0
 10
587.63767381
 20
535.24593284
  0
VERTEX
  8
0
 10
587.25568867
 20
535.18126590
  0
VERTEX
  8
0
 10
587.07244173
 20
535.12906787
  0
VERTEX
  8
0
 10
586.89640806
 20
535.06355483
  0
VERTEX
  8
0
 10
586.72912480
 20
534.98467277
  0
VERTEX
  8
0
 10
586.57212909
 20
534.89236771
  0
VERTEX
  8
0
 10
586.42695807
 20
534.78658566
  0
VERTEX
  8
0
 10
586.29514887
 20
534.66727262
  0
VERTEX
  8
0
 10
586.17823864
 20
534.53437460
  0
VERTEX
  8
0
 10
586.07776451
 20
534.38783762
  0
VERTEX
  8
0
 10
585.99526363
 20
534.22760768
  0
VERTEX
  8
0
 10
585.93227312
 20
534.05363079
  0
VERTEX
  8
0
 10
585.89033014
 20
533.86585296
  0
VERTEX
  8
0
 10
585.87097182
 20
533.66422020
  0
SEQEND
  0
POLYLINE
  8
NÌvel_Padr„o
 66
   1
 39
0.000000
 70
    1
  0
VERTEX
  8
0
 10
622.14049648
 20
552.88898499
  0
VERTEX
  8
0
 10
622.15985480
 20
553.09061775
  0
VERTEX
  8
0
 10
622.20179778
 20
553.27839558
  0
VERTEX
  8
0
 10
622.26478828
 20
553.45237247
  0
VERTEX
  8
0
 10
622.34728917
 20
553.61260241
  0
VERTEX
  8
0
 10
622.44776329
 20
553.75913939
  0
VERTEX
  8
0
 10
622.56467352
 20
553.89203741
  0
VERTEX
  8
0
 10
622.69648272
 20
554.01135045
  0
VERTEX
  8
0
 10
622.84165374
 20
554.11713250
  0
VERTEX
  8
0
 10
622.99864946
 20
554.20943756
  0
VERTEX
  8
0
 10
623.16593272
 20
554.28831962
  0
VERTEX
  8
0
 10
623.34196639
 20
554.35383266
  0
VERTEX
  8
0
 10
623.52521333
 20
554.40603069
  0
VERTEX
  8
0
 10
623.90719846
 20
554.47069763
  0
VERTEX
  8
0
 10
624.29959102
 20
554.48275238
  0
VERTEX
  8
0
 10
624.69009387
 20
554.44262686
  0
VERTEX
  8
0
 10
625.06640992
 20
554.35075300
  0
VERTEX
  8
0
 10
625.24540505
 20
554.28554542
  0
VERTEX
  8
0
 10
625.41624205
 20
554.20756273
  0
VERTEX
  8
0
 10
625.57738380
 20
554.11685892
  0
VERTEX
  8
0
 10
625.72729315
 20
554.01348797
  0
VERTEX
  8
0
 10
625.86443297
 20
553.89750389
  0
VERTEX
  8
0
 10
625.98726611
 20
553.76896066
  0
VERTEX
  8
0
 10
626.09425544
 20
553.62791227
  0
VERTEX
  8
0
 10
626.18386382
 20
553.47441271
  0
VERTEX
  8
0
 10
626.25455410
 20
553.30851598
  0
VERTEX
  8
0
 10
626.30478916
 20
553.13027607
  0
VERTEX
  8
0
 10
626.33303184
 20
552.93974696
  0
VERTEX
  8
0
 10
626.33774502
 20
552.73698264
  0
VERTEX
  8
0
 10
626.31838670
 20
552.53534988
  0
VERTEX
  8
0
 10
626.27644372
 20
552.34757205
  0
VERTEX
  8
0
 10
626.21345322
 20
552.17359516
  0
VERTEX
  8
0
 10
626.13095233
 20
552.01336522
  0
VERTEX
  8
0
 10
626.03047821
 20
551.86682824
  0
VERTEX
  8
0
 10
625.91356797
 20
551.73393022
  0
VERTEX
  8
0
 10
625.78175878
 20
551.61461718
  0
VERTEX
  8
0
 10
625.63658775
 20
551.50883513
  0
VERTEX
  8
0
 10
625.47959204
 20
551.41653007
  0
VERTEX
  8
0
 10
625.31230878
 20
551.33764801
  0
VERTEX
  8
0
 10
625.13627511
 20
551.27213497
  0
VERTEX
  8
0
 10
624.95302817
 20
551.21993694
  0
VERTEX
  8
0
 10
624.57104304
 20
551.15527000
  0
VERTEX
  8
0
 10
624.17865048
 20
551.14321525
  0
VERTEX
  8
0
 10
623.78814763
 20
551.18334077
  0
VERTEX
  8
0
 10
623.41183158
 20
551.27521463
  0
VERTEX
  8
0
 10
623.23283645
 20
551.34042221
  0
VERTEX
  8
0
 10
623.06199945
 20
551.41840490
  0
VERTEX
  8
0
 10
622.90085770
 20
551.50910872
  0
VERTEX
  8
0
 10
622.75094835
 20
551.61247966
  0
VERTEX
  8
0
 10
622.61380853
 20
551.72846374
  0
VERTEX
  8
0
 10
622.49097539
 20
551.85700697
  0
VERTEX
  8
0
 10
622.38398606
 20
551.99805536
  0
VERTEX
  8
0
 10
622.29437768
 20
552.15155492
  0
VERTEX
  8
0
 10
622.22368740
 20
552.31745165
  0
VERTEX
  8
0
 10
622.17345234
 20
552.49569157
  0
VERTEX
  8
0
 10
622.14520966
 20
552.68622068
  0
VERTEX
  8
0
 10
622.14049648
 20
552.88898499
  0
SEQEND
  0
ENDSEC
  0
EOF
